<svg id="af3e97dc-e8ad-4a67-afcb-9fedb37485a7" data-name="Слой 1" xmlns="http://www.w3.org/2000/svg" width="511" height="274.21" viewBox="0 0 511 274.21"><path d="M235.5,255.45h-4v-1h4a4.49,4.49,0,0,0,2.83-1l.63.77A5.45,5.45,0,0,1,235.5,255.45Zm-8,0h-4v-1h4Zm-8,0h-4v-1h4Zm-8,0h-4v-1h4Zm-8,0h-4v-1h4Zm-8,0h-4v-1h4Zm-8,0h-4v-1h4Zm-8,0h-4v-1h4Zm-8,0h-4v-1h4Zm-8,0h-4v-1h4Zm-8,0h-4v-1h4Zm-8,0h-4v-1h4Zm-8,0h-4v-1h4Zm-8,0h-4v-1h4Zm-8,0h-4v-1h4Zm-8,0h-4v-1h4Zm-8,0h-4v-1h4Zm-8,0h-4v-1h4Zm-8,0h-4v-1h4Zm-8,0h-4v-1h4Zm-8,0h-4v-1h4Zm-8,0h-4v-1h4Zm-8,0h-4v-1h4Zm-8,0h-4v-1h4Zm-8,0h-4v-1h4Zm-8,0h-4v-1h4Zm-8,0h-4v-1h4Zm-8,0h-4v-1h4Zm-8,0h-4v-1h4ZM3.36,255a5.54,5.54,0,0,1-3-3.07l.93-.36a4.55,4.55,0,0,0,2.44,2.51ZM241,250.43l-1-.08c0-.14,0-.27,0-.4v-3.56h1V250C241,250.11,241,250.27,241,250.43ZM1,247.8H0v-4H1Zm240-5.41h-1v-4h1ZM1,239.8H0v-4H1Zm240-5.41h-1v-4h1ZM1,231.8H0v-4H1Zm240-5.41h-1v-4h1ZM1,223.8H0v-4H1Zm240-5.41h-1v-4h1ZM1,215.8H0v-4H1Zm240-5.41h-1v-4h1ZM1,207.8H0v-4H1Zm240-5.41h-1v-4h1ZM1,199.8H0v-4H1Zm240-5.41h-1v-4h1ZM1,191.8H0v-4H1Zm240-5.41h-1v-4h1ZM1,183.8H0v-4H1Zm240-5.41h-1v-4h1ZM1,175.8H0v-4H1Zm240-5.41h-1v-4h1ZM1,167.8H0v-4H1Zm240-5.41h-1v-4h1ZM1,159.8H0v-4H1Zm240-5.41h-1v-4h1ZM1,151.8H0V150a5.46,5.46,0,0,1,.5-2.29l.91.42A4.47,4.47,0,0,0,1,150ZM238.9,147a4.49,4.49,0,0,0-3.13-1.55l.06-1a5.52,5.52,0,0,1,3.83,1.9ZM4,145.71l-.34-.94a5.48,5.48,0,0,1,1.84-.32H7.8v1H5.5A4.46,4.46,0,0,0,4,145.71Zm227.8-.26h-4v-1h4Zm-8,0h-4v-1h4Zm-8,0h-4v-1h4Zm-8,0h-4v-1h4Zm-8,0h-4v-1h4Zm-8,0h-4v-1h4Zm-8,0h-4v-1h4Zm-8,0h-4v-1h4Zm-8,0h-4v-1h4Zm-8,0h-4v-1h4Zm-8,0h-4v-1h4Zm-8,0h-4v-1h4Zm-8,0h-4v-1h4Zm-8,0h-4v-1h4Zm-8,0h-4v-1h4Zm-8,0h-4v-1h4Zm-8,0h-4v-1h4Zm-8,0h-4v-1h4Zm-8,0h-4v-1h4Zm-8,0h-4v-1h4Zm-8,0h-4v-1h4Zm-8,0h-4v-1h4Zm-8,0h-4v-1h4Zm-8,0h-4v-1h4Zm-8,0h-4v-1h4Zm-8,0h-4v-1h4Zm-8,0h-4v-1h4Zm-8,0h-4v-1h4Z" fill="#0399ff"/><path d="M505.5,105.5h-4v-1h4a4.49,4.49,0,0,0,2.83-1l.63.77A5.45,5.45,0,0,1,505.5,105.5Zm-8,0h-4v-1h4Zm-8,0h-4v-1h4Zm-8,0h-4v-1h4Zm-8,0h-4v-1h4Zm-8,0h-4v-1h4Zm-8,0h-4v-1h4Zm-8,0h-4v-1h4Zm-8,0h-4v-1h4Zm-8,0h-4v-1h4Zm-8,0h-4v-1h4Zm-8,0h-4v-1h4Zm-8,0h-4v-1h4Zm-8,0h-4v-1h4Zm-8,0h-4v-1h4Zm-8,0h-4v-1h4Zm-8,0h-4v-1h4Zm-8,0h-4v-1h4Zm-8,0h-4v-1h4Zm-8,0h-4v-1h4Zm-8,0h-4v-1h4Zm-8,0h-4v-1h4Zm-8,0h-4v-1h4Zm-8,0h-4v-1h4Zm-8,0h-4v-1h4Zm-8,0h-4v-1h4Zm-8,0h-4v-1h4Zm-8,0h-4v-1h4Zm-8,0h-4v-1h4Zm-8,0h-4v-1h4Zm-8,0h-4v-1h4Zm-8,0h-4v-1h4Zm-8,0h-4v-1h4Zm-8,0h-4v-1h4Zm-8,0h-4v-1h4Zm-8,0h-4v-1h4Zm-8,0h-4v-1h4Zm-8,0h-4v-1h4Zm-8,0h-4v-1h4Zm-8,0h-4v-1h4Zm-8,0h-4v-1h4Zm-8,0h-4v-1h4Zm-8,0h-4v-1h4Zm-8,0h-4v-1h4Zm-8,0h-4v-1h4Zm-8,0h-4v-1h4Zm-8,0h-4v-1h4Zm-8,0h-4v-1h4Zm-8,0h-4v-1h4Zm-8,0h-4v-1h4Zm-8,0h-4v-1h4Zm-8,0h-4v-1h4Zm-8,0h-4v-1h4Zm-8,0h-4v-1h4Zm-8,0h-4v-1h4Zm-8,0h-4v-1h4Zm-8,0h-4v-1h4Zm-8,0h-4v-1h4Zm-8,0h-4v-1h4Zm-8,0h-4v-1h4Zm-8,0h-4v-1h4Zm-8,0h-4v-1h4Zm-8,0h-4v-1h4Zm-7.94-1.67A5.47,5.47,0,0,1,0,100v-.15H1V100a4.49,4.49,0,0,0,1.27,3.13ZM511,100.48l-1-.08c0-.13,0-.27,0-.4V96.44h1V100C511,100.16,511,100.33,511,100.48ZM1,95.85H0v-4H1Zm510-3.41h-1v-4h1ZM1,87.85H0v-4H1Zm510-3.41h-1v-4h1ZM1,79.85H0v-4H1Zm510-3.41h-1v-4h1ZM1,71.85H0v-4H1Zm510-3.41h-1v-4h1ZM1,63.85H0v-4H1Zm510-3.41h-1v-4h1ZM1,55.85H0v-4H1Zm510-3.41h-1v-4h1ZM1,47.85H0v-4H1Zm510-3.41h-1v-4h1ZM1,39.85H0v-4H1Zm510-3.41h-1v-4h1ZM1,31.85H0V30a5.46,5.46,0,0,1,.5-2.29l.91.42A4.47,4.47,0,0,0,1,30Zm508.78-3.23A4.51,4.51,0,0,0,507.49,26l.45-.9a5.6,5.6,0,0,1,2.8,3.24ZM4,25.76l-.34-.94A5.24,5.24,0,0,1,5.5,24.5H7.8v1H5.5A4.23,4.23,0,0,0,4,25.76Zm499.8-.26h-4v-1h4Zm-8,0h-4v-1h4Zm-8,0h-4v-1h4Zm-8,0h-4v-1h4Zm-8,0h-4v-1h4Zm-8,0h-4v-1h4Zm-8,0h-4v-1h4Zm-8,0h-4v-1h4Zm-8,0h-4v-1h4Zm-8,0h-4v-1h4Zm-8,0h-4v-1h4Zm-8,0h-4v-1h4Zm-8,0h-4v-1h4Zm-8,0h-4v-1h4Zm-8,0h-4v-1h4Zm-8,0h-4v-1h4Zm-8,0h-4v-1h4Zm-8,0h-4v-1h4Zm-8,0h-4v-1h4Zm-8,0h-4v-1h4Zm-8,0h-4v-1h4Zm-8,0h-4v-1h4Zm-8,0h-4v-1h4Zm-8,0h-4v-1h4Zm-8,0h-4v-1h4Zm-8,0h-4v-1h4Zm-8,0h-4v-1h4Zm-8,0h-4v-1h4Zm-8,0h-4v-1h4Zm-8,0h-4v-1h4Zm-8,0h-4v-1h4Zm-8,0h-4v-1h4Zm-8,0h-4v-1h4Zm-8,0h-4v-1h4Zm-8,0h-4v-1h4Zm-8,0h-4v-1h4Zm-8,0h-4v-1h4Zm-8,0h-4v-1h4Zm-8,0h-4v-1h4Zm-8,0h-4v-1h4Zm-8,0h-4v-1h4Zm-8,0h-4v-1h4Zm-8,0h-4v-1h4Zm-8,0h-4v-1h4Zm-8,0h-4v-1h4Zm-8,0h-4v-1h4Zm-8,0h-4v-1h4Zm-8,0h-4v-1h4Zm-8,0h-4v-1h4Zm-8,0h-4v-1h4Zm-8,0h-4v-1h4Zm-8,0h-4v-1h4Zm-8,0h-4v-1h4Zm-8,0h-4v-1h4Zm-8,0h-4v-1h4Zm-8,0h-4v-1h4Zm-8,0h-4v-1h4Zm-8,0h-4v-1h4Zm-8,0h-4v-1h4Zm-8,0h-4v-1h4Zm-8,0h-4v-1h4Zm-8,0h-4v-1h4Z" fill="#71b429"/><rect x="255" y="93.5" width="1" height="32" fill="#71b429"/><rect x="428.22" y="93.5" width="1" height="32" fill="#71b429"/><rect x="80.47" y="93.5" width="1" height="32" fill="#71b429"/><rect x="191" y="-6" width="1" height="264" transform="translate(65.5 317.5) rotate(-90)" fill="#71b429"/><rect x="319" y="-6" width="1" height="264" transform="translate(193.5 445.5) rotate(-90)" fill="#71b429"/><rect x="59.5" y="126.33" width="1" height="30.17" fill="#71b429"/><rect x="180.5" y="126.33" width="1" height="30.17" fill="#71b429"/><rect x="329.5" y="126.33" width="1" height="30.17" fill="#71b429"/><rect x="450.5" y="126.33" width="1" height="30.17" fill="#71b429"/><rect x="8.47" y="58.95" width="145" height="35" rx="4.38" fill="#71b429"/><path d="M53.69,80.55V71.27h1.08v8.3h4.09v1Z" fill="#fff"/><path d="M66.28,77.06a3.8,3.8,0,0,1-.86,2.66,3,3,0,0,1-2.36,1,3.14,3.14,0,0,1-1.66-.44A2.87,2.87,0,0,1,60.28,79a4.39,4.39,0,0,1-.39-1.92,3.84,3.84,0,0,1,.85-2.65,3,3,0,0,1,2.36-1,2.94,2.94,0,0,1,2.32,1A3.81,3.81,0,0,1,66.28,77.06Zm-5.3,0a3.38,3.38,0,0,0,.53,2,2.13,2.13,0,0,0,3.14,0,3.29,3.29,0,0,0,.54-2,3.21,3.21,0,0,0-.54-2,1.88,1.88,0,0,0-1.58-.69,1.86,1.86,0,0,0-1.56.68A3.27,3.27,0,0,0,61,77.06Z" fill="#fff"/><path d="M72.41,80.55l-.21-1h0a3,3,0,0,1-1,.88,3.1,3.1,0,0,1-1.29.24,2.34,2.34,0,0,1-1.63-.54,1.94,1.94,0,0,1-.58-1.52c0-1.4,1.12-2.14,3.37-2.2l1.18,0V76a1.78,1.78,0,0,0-.35-1.21,1.46,1.46,0,0,0-1.13-.39,4.66,4.66,0,0,0-2,.53l-.32-.81a5,5,0,0,1,1.12-.43,4.72,4.72,0,0,1,1.23-.16,2.66,2.66,0,0,1,1.85.55,2.31,2.31,0,0,1,.6,1.77v4.75ZM70,79.81a2.13,2.13,0,0,0,1.54-.54,2,2,0,0,0,.56-1.51v-.63l-1,0a3.83,3.83,0,0,0-1.81.39,1.18,1.18,0,0,0-.56,1.08,1.09,1.09,0,0,0,.35.87A1.43,1.43,0,0,0,70,79.81Z" fill="#fff"/><path d="M80.09,79.62h0a2.51,2.51,0,0,1-2.19,1.06,2.55,2.55,0,0,1-2.12-.94A4.06,4.06,0,0,1,75,77.09a4.14,4.14,0,0,1,.76-2.67,2.56,2.56,0,0,1,2.12-1,2.53,2.53,0,0,1,2.17,1h.09l0-.5,0-.49V70.67h1v9.88h-.86Zm-2.1.17a1.9,1.9,0,0,0,1.56-.58,3,3,0,0,0,.49-1.9v-.22a3.46,3.46,0,0,0-.5-2.11A1.86,1.86,0,0,0,78,74.35a1.63,1.63,0,0,0-1.42.72,3.65,3.65,0,0,0-.49,2,3.46,3.46,0,0,0,.49,2A1.65,1.65,0,0,0,78,79.79Z" fill="#fff"/><path d="M86.86,71.27h2.62a4.93,4.93,0,0,1,2.67.55A2,2,0,0,1,93,73.57a2,2,0,0,1-.46,1.36,2.19,2.19,0,0,1-1.34.69v.07c1.41.24,2.11,1,2.11,2.22a2.39,2.39,0,0,1-.84,1.94,3.56,3.56,0,0,1-2.35.7H86.86Zm1.08,4h1.78a2.86,2.86,0,0,0,1.64-.36,1.39,1.39,0,0,0,.5-1.21,1.2,1.2,0,0,0-.56-1.12,3.46,3.46,0,0,0-1.77-.35H87.94Zm0,.92v3.47h1.94a2.77,2.77,0,0,0,1.69-.44,1.59,1.59,0,0,0,.56-1.36,1.44,1.44,0,0,0-.58-1.27,3.07,3.07,0,0,0-1.76-.4Z" fill="#fff"/><path d="M99.4,80.55l-.21-1h0a2.91,2.91,0,0,1-1,.88,3,3,0,0,1-1.29.24,2.3,2.3,0,0,1-1.62-.54,1.94,1.94,0,0,1-.59-1.52c0-1.4,1.13-2.14,3.37-2.2l1.19,0V76a1.73,1.73,0,0,0-.36-1.21,1.44,1.44,0,0,0-1.12-.39,4.66,4.66,0,0,0-2,.53l-.33-.81a5.09,5.09,0,0,1,1.13-.43,4.72,4.72,0,0,1,1.23-.16,2.63,2.63,0,0,1,1.84.55,2.31,2.31,0,0,1,.6,1.77v4.75ZM97,79.81a2.15,2.15,0,0,0,1.55-.54,2,2,0,0,0,.56-1.51v-.63l-1,0a3.87,3.87,0,0,0-1.82.39,1.18,1.18,0,0,0-.55,1.08,1.09,1.09,0,0,0,.34.87A1.44,1.44,0,0,0,97,79.81Z" fill="#fff"/><path d="M103.41,80.55h-1.06V70.67h1.06Z" fill="#fff"/><path d="M109.92,80.55l-.21-1h0a2.91,2.91,0,0,1-1,.88,3,3,0,0,1-1.29.24,2.3,2.3,0,0,1-1.62-.54,1.94,1.94,0,0,1-.59-1.52c0-1.4,1.13-2.14,3.37-2.2l1.18,0V76a1.73,1.73,0,0,0-.35-1.21,1.45,1.45,0,0,0-1.13-.39,4.62,4.62,0,0,0-2,.53l-.33-.81a5.09,5.09,0,0,1,1.13-.43,4.72,4.72,0,0,1,1.23-.16,2.63,2.63,0,0,1,1.84.55,2.31,2.31,0,0,1,.6,1.77v4.75Zm-2.38-.74a2.15,2.15,0,0,0,1.55-.54,2,2,0,0,0,.56-1.51v-.63l-1.06,0a3.86,3.86,0,0,0-1.81.39,1.18,1.18,0,0,0-.55,1.08,1.09,1.09,0,0,0,.34.87A1.44,1.44,0,0,0,107.54,79.81Z" fill="#fff"/><path d="M117.63,80.55v-4.5a1.85,1.85,0,0,0-.38-1.27,1.6,1.6,0,0,0-1.22-.42,2,2,0,0,0-1.6.59,3,3,0,0,0-.5,2v3.65h-1.06v-7h.86l.17,1h0a2.2,2.2,0,0,1,.91-.79,2.92,2.92,0,0,1,1.3-.29,2.65,2.65,0,0,1,1.89.61,2.6,2.6,0,0,1,.64,1.94v4.54Z" fill="#fff"/><path d="M123.63,80.68a3,3,0,0,1-2.34-.93,3.84,3.84,0,0,1-.83-2.63,3.94,3.94,0,0,1,.85-2.7,3,3,0,0,1,2.39-1,5,5,0,0,1,1,.11,3.07,3.07,0,0,1,.78.26l-.32.89a5.22,5.22,0,0,0-.76-.23,3.53,3.53,0,0,0-.73-.09c-1.42,0-2.12.9-2.12,2.7a3.26,3.26,0,0,0,.51,2,1.81,1.81,0,0,0,1.54.69,4.67,4.67,0,0,0,1.78-.38v.93A3.82,3.82,0,0,1,123.63,80.68Z" fill="#fff"/><path d="M130,80.68a3.24,3.24,0,0,1-2.44-.94,3.67,3.67,0,0,1-.89-2.61,4,4,0,0,1,.83-2.67,2.74,2.74,0,0,1,2.23-1,2.62,2.62,0,0,1,2.07.87,3.3,3.3,0,0,1,.76,2.26v.67h-4.79a2.75,2.75,0,0,0,.61,1.86,2.17,2.17,0,0,0,1.66.64,5.64,5.64,0,0,0,2.22-.47v.93a5,5,0,0,1-1.06.35A5.84,5.84,0,0,1,130,80.68Zm-.29-6.33a1.71,1.71,0,0,0-1.33.54,2.56,2.56,0,0,0-.59,1.51h3.64a2.28,2.28,0,0,0-.45-1.52A1.54,1.54,0,0,0,129.69,74.35Z" fill="#fff"/><path d="M137.51,73.46a4.17,4.17,0,0,1,.83.08l-.15,1a3.78,3.78,0,0,0-.76-.1,1.85,1.85,0,0,0-1.44.69,2.5,2.5,0,0,0-.6,1.71v3.73h-1.06v-7h.87l.12,1.29h.06a3,3,0,0,1,.93-1A2.13,2.13,0,0,1,137.51,73.46Z" fill="#fff"/><rect x="33.29" y="72.08" width="1.01" height="9.78" fill="#fff"/><rect x="28.81" y="72.08" width="1.01" height="9.78" transform="translate(55.1 -1.26) rotate(39.1)" fill="#fff"/><rect x="37.77" y="72.08" width="1.01" height="9.78" transform="matrix(-0.78, 0.63, -0.63, -0.78, 116.52, 112.56)" fill="#fff"/><circle cx="33.8" cy="71.41" r="3.05" fill="#fff"/><circle cx="33.8" cy="82" r="3.05" fill="#fff"/><circle cx="25.24" cy="82" r="3.05" fill="#fff"/><circle cx="41.95" cy="82" r="3.05" fill="#fff"/><rect x="178.47" y="58.95" width="145" height="35" rx="4.38" fill="#71b429"/><path d="M223.69,80.55V71.27h1.08v8.3h4.09v1Z" fill="#fff"/><path d="M236.28,77.06a3.8,3.8,0,0,1-.86,2.66,3,3,0,0,1-2.36,1,3.14,3.14,0,0,1-1.66-.44A2.87,2.87,0,0,1,230.28,79a4.39,4.39,0,0,1-.39-1.92,3.84,3.84,0,0,1,.85-2.65,3,3,0,0,1,2.36-1,2.94,2.94,0,0,1,2.32,1A3.81,3.81,0,0,1,236.28,77.06Zm-5.3,0a3.38,3.38,0,0,0,.53,2,2.13,2.13,0,0,0,3.14,0,3.29,3.29,0,0,0,.54-2,3.21,3.21,0,0,0-.54-2,1.88,1.88,0,0,0-1.58-.69,1.86,1.86,0,0,0-1.56.68A3.27,3.27,0,0,0,231,77.06Z" fill="#fff"/><path d="M242.41,80.55l-.21-1h0a3,3,0,0,1-1,.88,3.1,3.1,0,0,1-1.29.24,2.34,2.34,0,0,1-1.63-.54,1.94,1.94,0,0,1-.58-1.52c0-1.4,1.12-2.14,3.37-2.2l1.18,0V76a1.78,1.78,0,0,0-.35-1.21,1.46,1.46,0,0,0-1.13-.39,4.66,4.66,0,0,0-2,.53l-.32-.81a5,5,0,0,1,1.12-.43,4.72,4.72,0,0,1,1.23-.16,2.66,2.66,0,0,1,1.85.55,2.31,2.31,0,0,1,.6,1.77v4.75ZM240,79.81a2.13,2.13,0,0,0,1.54-.54,2,2,0,0,0,.56-1.51v-.63l-1,0a3.83,3.83,0,0,0-1.81.39,1.18,1.18,0,0,0-.56,1.08,1.09,1.09,0,0,0,.35.87A1.43,1.43,0,0,0,240,79.81Z" fill="#fff"/><path d="M250.09,79.62H250a2.51,2.51,0,0,1-2.19,1.06,2.55,2.55,0,0,1-2.12-.94,4.06,4.06,0,0,1-.76-2.65,4.14,4.14,0,0,1,.76-2.67,2.56,2.56,0,0,1,2.12-1,2.53,2.53,0,0,1,2.17,1h.09l-.05-.5,0-.49V70.67h1.05v9.88h-.86Zm-2.1.17a1.9,1.9,0,0,0,1.56-.58,3,3,0,0,0,.49-1.9v-.22a3.46,3.46,0,0,0-.5-2.11,1.86,1.86,0,0,0-1.57-.63,1.63,1.63,0,0,0-1.42.72,3.65,3.65,0,0,0-.49,2,3.46,3.46,0,0,0,.49,2A1.65,1.65,0,0,0,248,79.79Z" fill="#fff"/><path d="M256.86,71.27h2.62a4.93,4.93,0,0,1,2.67.55,2,2,0,0,1,.83,1.75,2,2,0,0,1-.46,1.36,2.19,2.19,0,0,1-1.34.69v.07c1.41.24,2.11,1,2.11,2.22a2.39,2.39,0,0,1-.84,1.94,3.56,3.56,0,0,1-2.35.7h-3.24Zm1.08,4h1.78a2.86,2.86,0,0,0,1.64-.36,1.39,1.39,0,0,0,.5-1.21,1.2,1.2,0,0,0-.56-1.12,3.46,3.46,0,0,0-1.77-.35h-1.59Zm0,.92v3.47h1.94a2.77,2.77,0,0,0,1.69-.44,1.59,1.59,0,0,0,.56-1.36,1.44,1.44,0,0,0-.58-1.27,3.07,3.07,0,0,0-1.76-.4Z" fill="#fff"/><path d="M269.4,80.55l-.21-1h-.05a2.91,2.91,0,0,1-1,.88,3,3,0,0,1-1.29.24,2.3,2.3,0,0,1-1.62-.54,1.94,1.94,0,0,1-.59-1.52c0-1.4,1.13-2.14,3.37-2.2l1.19,0V76a1.73,1.73,0,0,0-.36-1.21,1.44,1.44,0,0,0-1.12-.39,4.66,4.66,0,0,0-2,.53l-.33-.81a5.09,5.09,0,0,1,1.13-.43,4.72,4.72,0,0,1,1.23-.16,2.63,2.63,0,0,1,1.84.55,2.31,2.31,0,0,1,.6,1.77v4.75ZM267,79.81a2.15,2.15,0,0,0,1.55-.54,2,2,0,0,0,.56-1.51v-.63l-1.05,0a3.87,3.87,0,0,0-1.82.39,1.18,1.18,0,0,0-.55,1.08,1.09,1.09,0,0,0,.34.87A1.44,1.44,0,0,0,267,79.81Z" fill="#fff"/><path d="M273.41,80.55h-1.06V70.67h1.06Z" fill="#fff"/><path d="M279.92,80.55l-.21-1h0a2.91,2.91,0,0,1-1,.88,3,3,0,0,1-1.29.24,2.3,2.3,0,0,1-1.62-.54,1.94,1.94,0,0,1-.59-1.52c0-1.4,1.13-2.14,3.37-2.2l1.18,0V76a1.73,1.73,0,0,0-.35-1.21,1.45,1.45,0,0,0-1.13-.39,4.62,4.62,0,0,0-2,.53l-.33-.81a5.09,5.09,0,0,1,1.13-.43,4.72,4.72,0,0,1,1.23-.16,2.63,2.63,0,0,1,1.84.55,2.31,2.31,0,0,1,.6,1.77v4.75Zm-2.38-.74a2.15,2.15,0,0,0,1.55-.54,2,2,0,0,0,.56-1.51v-.63l-1.06,0a3.86,3.86,0,0,0-1.81.39,1.18,1.18,0,0,0-.55,1.08,1.09,1.09,0,0,0,.34.87A1.44,1.44,0,0,0,277.54,79.81Z" fill="#fff"/><path d="M287.63,80.55v-4.5a1.85,1.85,0,0,0-.38-1.27,1.6,1.6,0,0,0-1.22-.42,2,2,0,0,0-1.6.59,3,3,0,0,0-.5,2v3.65h-1.06v-7h.86l.17,1H284a2.2,2.2,0,0,1,.91-.79,2.92,2.92,0,0,1,1.3-.29,2.65,2.65,0,0,1,1.89.61,2.6,2.6,0,0,1,.64,1.94v4.54Z" fill="#fff"/><path d="M293.63,80.68a3,3,0,0,1-2.34-.93,3.84,3.84,0,0,1-.83-2.63,3.94,3.94,0,0,1,.85-2.7,3,3,0,0,1,2.39-1,5,5,0,0,1,1,.11,3.07,3.07,0,0,1,.78.26l-.32.89a5.22,5.22,0,0,0-.76-.23,3.53,3.53,0,0,0-.73-.09c-1.42,0-2.12.9-2.12,2.7a3.26,3.26,0,0,0,.51,2,1.81,1.81,0,0,0,1.54.69,4.67,4.67,0,0,0,1.78-.38v.93A3.82,3.82,0,0,1,293.63,80.68Z" fill="#fff"/><path d="M300,80.68a3.24,3.24,0,0,1-2.44-.94,3.67,3.67,0,0,1-.89-2.61,4,4,0,0,1,.83-2.67,2.74,2.74,0,0,1,2.23-1,2.62,2.62,0,0,1,2.07.87,3.3,3.3,0,0,1,.76,2.26v.67h-4.79a2.75,2.75,0,0,0,.61,1.86,2.17,2.17,0,0,0,1.66.64,5.64,5.64,0,0,0,2.22-.47v.93a5,5,0,0,1-1.06.35A5.84,5.84,0,0,1,300,80.68Zm-.29-6.33a1.71,1.71,0,0,0-1.33.54,2.56,2.56,0,0,0-.59,1.51h3.64a2.28,2.28,0,0,0-.45-1.52A1.54,1.54,0,0,0,299.69,74.35Z" fill="#fff"/><path d="M307.51,73.46a4.17,4.17,0,0,1,.83.08l-.15,1a3.78,3.78,0,0,0-.76-.1,1.85,1.85,0,0,0-1.44.69,2.5,2.5,0,0,0-.6,1.71v3.73h-1.06v-7h.87l.12,1.29h.06a3,3,0,0,1,.93-1A2.13,2.13,0,0,1,307.51,73.46Z" fill="#fff"/><rect x="203.29" y="72.08" width="1.01" height="9.78" fill="#fff"/><rect x="198.81" y="72.08" width="1.01" height="9.78" transform="translate(93.16 -108.46) rotate(39.1)" fill="#fff"/><rect x="207.77" y="72.08" width="1.01" height="9.78" transform="matrix(-0.78, 0.63, -0.63, -0.78, 418.46, 5.36)" fill="#fff"/><circle cx="203.8" cy="71.41" r="3.05" fill="#fff"/><circle cx="203.8" cy="82" r="3.05" fill="#fff"/><circle cx="195.24" cy="82" r="3.05" fill="#fff"/><circle cx="211.95" cy="82" r="3.05" fill="#fff"/><rect x="356.22" y="58.95" width="145" height="35" rx="4.38" fill="#71b429"/><path d="M401.44,80.55V71.27h1.08v8.3h4.1v1Z" fill="#fff"/><path d="M414,77.06a3.85,3.85,0,0,1-.86,2.66,3,3,0,0,1-2.37,1,3.13,3.13,0,0,1-1.65-.44A2.81,2.81,0,0,1,408,79a4.39,4.39,0,0,1-.39-1.92,3.84,3.84,0,0,1,.85-2.65,3,3,0,0,1,2.36-1,3,3,0,0,1,2.32,1A3.81,3.81,0,0,1,414,77.06Zm-5.3,0a3.31,3.31,0,0,0,.53,2,2.13,2.13,0,0,0,3.14,0,3.29,3.29,0,0,0,.53-2,3.21,3.21,0,0,0-.53-2,1.9,1.9,0,0,0-1.59-.69,1.87,1.87,0,0,0-1.56.68A3.27,3.27,0,0,0,408.74,77.06Z" fill="#fff"/><path d="M420.16,80.55l-.21-1h-.05a2.83,2.83,0,0,1-1,.88,3,3,0,0,1-1.29.24,2.3,2.3,0,0,1-1.62-.54,1.94,1.94,0,0,1-.59-1.52c0-1.4,1.13-2.14,3.37-2.2l1.18,0V76a1.73,1.73,0,0,0-.35-1.21,1.44,1.44,0,0,0-1.12-.39,4.66,4.66,0,0,0-2,.53l-.33-.81a5.09,5.09,0,0,1,1.13-.43,4.72,4.72,0,0,1,1.23-.16,2.63,2.63,0,0,1,1.84.55,2.31,2.31,0,0,1,.6,1.77v4.75Zm-2.38-.74a2.15,2.15,0,0,0,1.55-.54,2,2,0,0,0,.56-1.51v-.63l-1.05,0a3.87,3.87,0,0,0-1.82.39,1.18,1.18,0,0,0-.55,1.08,1.09,1.09,0,0,0,.34.87A1.44,1.44,0,0,0,417.78,79.81Z" fill="#fff"/><path d="M427.85,79.62h-.06a2.48,2.48,0,0,1-2.18,1.06,2.58,2.58,0,0,1-2.13-.94,5.06,5.06,0,0,1,0-5.32,2.81,2.81,0,0,1,4.29.07h.08l0-.5,0-.49V70.67h1.06v9.88H428Zm-2.11.17a1.94,1.94,0,0,0,1.57-.58,3,3,0,0,0,.48-1.9v-.22A3.47,3.47,0,0,0,427.3,75a1.87,1.87,0,0,0-1.57-.63,1.62,1.62,0,0,0-1.42.72,3.56,3.56,0,0,0-.49,2,3.39,3.39,0,0,0,.49,2A1.62,1.62,0,0,0,425.74,79.79Z" fill="#fff"/><path d="M434.62,71.27h2.62a4.93,4.93,0,0,1,2.67.55,2,2,0,0,1,.82,1.75,2,2,0,0,1-.46,1.36,2.14,2.14,0,0,1-1.34.69v.07c1.41.24,2.12,1,2.12,2.22a2.39,2.39,0,0,1-.84,1.94,3.57,3.57,0,0,1-2.36.7h-3.23Zm1.08,4h1.77a2.92,2.92,0,0,0,1.65-.36,1.39,1.39,0,0,0,.5-1.21,1.22,1.22,0,0,0-.56-1.12,3.5,3.5,0,0,0-1.78-.35H435.7Zm0,.92v3.47h1.93a2.75,2.75,0,0,0,1.69-.44,1.6,1.6,0,0,0,.57-1.36,1.44,1.44,0,0,0-.58-1.27,3.13,3.13,0,0,0-1.77-.4Z" fill="#fff"/><path d="M447.16,80.55l-.21-1h-.05a2.91,2.91,0,0,1-1,.88,3,3,0,0,1-1.29.24,2.3,2.3,0,0,1-1.62-.54,1.94,1.94,0,0,1-.59-1.52c0-1.4,1.12-2.14,3.37-2.2l1.18,0V76a1.78,1.78,0,0,0-.35-1.21,1.46,1.46,0,0,0-1.13-.39,4.7,4.7,0,0,0-2,.53l-.32-.81a4.91,4.91,0,0,1,1.13-.43,4.72,4.72,0,0,1,1.23-.16,2.65,2.65,0,0,1,1.84.55,2.31,2.31,0,0,1,.6,1.77v4.75Zm-2.38-.74a2.13,2.13,0,0,0,1.54-.54,2,2,0,0,0,.57-1.51v-.63l-1.06,0a3.83,3.83,0,0,0-1.81.39,1.18,1.18,0,0,0-.56,1.08,1.09,1.09,0,0,0,.35.87A1.43,1.43,0,0,0,444.78,79.81Z" fill="#fff"/><path d="M451.16,80.55h-1.05V70.67h1.05Z" fill="#fff"/><path d="M457.68,80.55l-.21-1h-.05a3,3,0,0,1-1,.88,3.1,3.1,0,0,1-1.29.24,2.3,2.3,0,0,1-1.62-.54,1.91,1.91,0,0,1-.59-1.52c0-1.4,1.12-2.14,3.37-2.2l1.18,0V76a1.78,1.78,0,0,0-.35-1.21,1.46,1.46,0,0,0-1.13-.39,4.7,4.7,0,0,0-2,.53l-.32-.81a4.91,4.91,0,0,1,1.13-.43,4.59,4.59,0,0,1,1.22-.16,2.66,2.66,0,0,1,1.85.55,2.31,2.31,0,0,1,.6,1.77v4.75Zm-2.38-.74a2.13,2.13,0,0,0,1.54-.54,2,2,0,0,0,.56-1.51v-.63l-1,0a3.83,3.83,0,0,0-1.81.39,1.18,1.18,0,0,0-.56,1.08,1.09,1.09,0,0,0,.35.87A1.43,1.43,0,0,0,455.3,79.81Z" fill="#fff"/><path d="M465.39,80.55v-4.5a1.8,1.8,0,0,0-.39-1.27,1.57,1.57,0,0,0-1.21-.42,2,2,0,0,0-1.6.59,3,3,0,0,0-.51,2v3.65h-1.05v-7h.86l.17,1h0a2.17,2.17,0,0,1,.9-.79,3,3,0,0,1,1.31-.29,2.67,2.67,0,0,1,1.89.61,2.6,2.6,0,0,1,.63,1.94v4.54Z" fill="#fff"/><path d="M471.39,80.68a3,3,0,0,1-2.34-.93,3.84,3.84,0,0,1-.83-2.63,3.93,3.93,0,0,1,.84-2.7,3,3,0,0,1,2.4-1,4.86,4.86,0,0,1,1,.11,3,3,0,0,1,.79.26l-.33.89a4.87,4.87,0,0,0-.76-.23,3.45,3.45,0,0,0-.73-.09c-1.41,0-2.12.9-2.12,2.7a3.19,3.19,0,0,0,.52,2,1.79,1.79,0,0,0,1.53.69,4.72,4.72,0,0,0,1.79-.38v.93A3.82,3.82,0,0,1,471.39,80.68Z" fill="#fff"/><path d="M477.74,80.68a3.24,3.24,0,0,1-2.44-.94,3.67,3.67,0,0,1-.89-2.61,4,4,0,0,1,.83-2.67,2.72,2.72,0,0,1,2.22-1,2.62,2.62,0,0,1,2.07.87,3.25,3.25,0,0,1,.76,2.26v.67H475.5a2.75,2.75,0,0,0,.62,1.86,2.15,2.15,0,0,0,1.65.64,5.72,5.72,0,0,0,2.23-.47v.93a5.24,5.24,0,0,1-1.06.35A5.91,5.91,0,0,1,477.74,80.68Zm-.29-6.33a1.75,1.75,0,0,0-1.34.54,2.55,2.55,0,0,0-.58,1.51h3.63a2.28,2.28,0,0,0-.44-1.52A1.55,1.55,0,0,0,477.45,74.35Z" fill="#fff"/><path d="M485.26,73.46a4.28,4.28,0,0,1,.84.08l-.15,1a3.88,3.88,0,0,0-.76-.1,1.87,1.87,0,0,0-1.45.69,2.5,2.5,0,0,0-.6,1.71v3.73h-1.05v-7H483l.12,1.29h.05a3.19,3.19,0,0,1,.93-1A2.17,2.17,0,0,1,485.26,73.46Z" fill="#fff"/><rect x="381.05" y="72.08" width="1.01" height="9.78" fill="#fff"/><rect x="376.57" y="72.08" width="1.01" height="9.78" transform="translate(132.96 -220.56) rotate(39.1)" fill="#fff"/><rect x="385.53" y="72.08" width="1.01" height="9.78" transform="matrix(-0.78, 0.63, -0.63, -0.78, 734.17, -106.74)" fill="#fff"/><circle cx="381.55" cy="71.41" r="3.05" fill="#fff"/><circle cx="381.55" cy="82" r="3.05" fill="#fff"/><circle cx="373" cy="82" r="3.05" fill="#fff"/><circle cx="389.7" cy="82" r="3.05" fill="#fff"/><circle cx="333.5" cy="76.45" r="1.5"/><circle cx="339.5" cy="76.45" r="1.5"/><circle cx="345.5" cy="76.45" r="1.5"/><path d="M16.72,45.47A1.91,1.91,0,0,1,16,47.08a3.27,3.27,0,0,1-2,.58,5.09,5.09,0,0,1-2.15-.36v-.88a5.38,5.38,0,0,0,1.05.33,6.27,6.27,0,0,0,1.13.11,2.27,2.27,0,0,0,1.37-.34,1.14,1.14,0,0,0,.46-1,1.26,1.26,0,0,0-.16-.67,1.57,1.57,0,0,0-.55-.48,8.21,8.21,0,0,0-1.17-.5A3.65,3.65,0,0,1,12.35,43a2,2,0,0,1-.47-1.4,1.75,1.75,0,0,1,.68-1.44,2.85,2.85,0,0,1,1.81-.54,5.26,5.26,0,0,1,2.15.43l-.29.8a4.67,4.67,0,0,0-1.89-.41,1.81,1.81,0,0,0-1.13.31,1,1,0,0,0-.41.86,1.3,1.3,0,0,0,.15.67,1.32,1.32,0,0,0,.51.48,5.62,5.62,0,0,0,1.09.48,4.19,4.19,0,0,1,1.7.95A1.84,1.84,0,0,1,16.72,45.47Z"/><path d="M22.76,45.47A1.89,1.89,0,0,1,22,47.08a3.23,3.23,0,0,1-2,.58,5.15,5.15,0,0,1-2.15-.36v-.88a5.71,5.71,0,0,0,1.06.33,6.16,6.16,0,0,0,1.12.11,2.3,2.3,0,0,0,1.38-.34,1.14,1.14,0,0,0,.46-1,1.26,1.26,0,0,0-.16-.67,1.57,1.57,0,0,0-.55-.48A9.39,9.39,0,0,0,20,43.9,3.65,3.65,0,0,1,18.39,43a2,2,0,0,1-.47-1.4,1.73,1.73,0,0,1,.68-1.44,2.8,2.8,0,0,1,1.8-.54,5.31,5.31,0,0,1,2.16.43l-.29.8a4.74,4.74,0,0,0-1.89-.41,1.81,1.81,0,0,0-1.13.31,1,1,0,0,0-.41.86,1.3,1.3,0,0,0,.15.67,1.32,1.32,0,0,0,.51.48,5.62,5.62,0,0,0,1.09.48,4.27,4.27,0,0,1,1.7.95A1.84,1.84,0,0,1,22.76,45.47Z"/><path d="M24.36,47.56V39.7h.91v7h3.47v.83Z"/><path d="M108.25,43.55a4,4,0,0,1-1.06,3,4.18,4.18,0,0,1-3,1H102V39.7h2.41a3.52,3.52,0,0,1,3.86,3.85Zm-1,0a3.14,3.14,0,0,0-.77-2.32,3.07,3.07,0,0,0-2.29-.78H102.9v6.28H104a3.35,3.35,0,0,0,2.45-.81A3.14,3.14,0,0,0,107.28,43.59Z"/><path d="M116.14,47.56h-1L110.8,41h0c.06.77.09,1.48.09,2.12v4.47H110V39.7h1l4.28,6.57h0c0-.1,0-.41,0-.93s0-.9,0-1.13V39.7h.86Z"/><path d="M122.73,45.47a1.89,1.89,0,0,1-.76,1.61,3.23,3.23,0,0,1-2,.58,5.15,5.15,0,0,1-2.15-.36v-.88a5.71,5.71,0,0,0,1.06.33,6.16,6.16,0,0,0,1.12.11,2.3,2.3,0,0,0,1.38-.34,1.14,1.14,0,0,0,.46-1,1.26,1.26,0,0,0-.16-.67,1.57,1.57,0,0,0-.55-.48,9.39,9.39,0,0,0-1.17-.5,3.65,3.65,0,0,1-1.56-.93,2,2,0,0,1-.47-1.4,1.73,1.73,0,0,1,.68-1.44,2.8,2.8,0,0,1,1.8-.54,5.31,5.31,0,0,1,2.16.43l-.29.8a4.74,4.74,0,0,0-1.89-.41,1.81,1.81,0,0,0-1.13.31,1,1,0,0,0-.41.86,1.3,1.3,0,0,0,.15.67,1.32,1.32,0,0,0,.51.48,5.62,5.62,0,0,0,1.09.48,4.27,4.27,0,0,1,1.7.95A1.84,1.84,0,0,1,122.73,45.47Z"/><path d="M233.51,47.56l-1-2.5h-3.15l-1,2.5h-.93l3.11-7.89h.76l3.09,7.89Zm-1.26-3.32-.92-2.44a10.22,10.22,0,0,1-.36-1.13c-.08.34-.2.72-.34,1.13l-.93,2.44Z"/><path d="M236.24,41.67v3.82a1.55,1.55,0,0,0,.32,1.07,1.33,1.33,0,0,0,1,.36,1.66,1.66,0,0,0,1.35-.51,2.49,2.49,0,0,0,.43-1.65V41.67h.89v5.89h-.74l-.13-.79h0a1.8,1.8,0,0,1-.76.66,2.51,2.51,0,0,1-1.11.23,2.24,2.24,0,0,1-1.61-.51,2.15,2.15,0,0,1-.54-1.63V41.67Z"/><path d="M244.05,46.93a2.32,2.32,0,0,0,.46,0,2.15,2.15,0,0,0,.35-.07v.68a1.51,1.51,0,0,1-.43.12,3.25,3.25,0,0,1-.51,0c-1.14,0-1.71-.6-1.71-1.79V42.36h-.84v-.43l.84-.37.38-1.25h.51v1.36h1.71v.69H243.1v3.47a1.18,1.18,0,0,0,.26.81A.88.88,0,0,0,244.05,46.93Z"/><path d="M251.11,44.61a3.27,3.27,0,0,1-.72,2.25,2.57,2.57,0,0,1-2,.8,2.65,2.65,0,0,1-1.41-.37,2.44,2.44,0,0,1-.94-1.06,3.72,3.72,0,0,1-.34-1.62,3.18,3.18,0,0,1,.73-2.24,2.81,2.81,0,0,1,4,0A3.27,3.27,0,0,1,251.11,44.61Zm-4.48,0a2.82,2.82,0,0,0,.45,1.72,1.57,1.57,0,0,0,1.33.59,1.6,1.6,0,0,0,1.33-.59,2.8,2.8,0,0,0,.45-1.72,2.77,2.77,0,0,0-.45-1.71,1.84,1.84,0,0,0-2.67,0A2.85,2.85,0,0,0,246.63,44.61Z"/><path d="M256.68,46.77h0a2.1,2.1,0,0,1-1.85.89,2.21,2.21,0,0,1-1.8-.78,3.49,3.49,0,0,1-.64-2.25,3.53,3.53,0,0,1,.64-2.26,2.17,2.17,0,0,1,1.8-.81,2.12,2.12,0,0,1,1.83.87h.07l0-.42,0-.42V39.2h.89v8.36h-.73Zm-1.78.15a1.61,1.61,0,0,0,1.32-.5,2.47,2.47,0,0,0,.42-1.6v-.19a2.94,2.94,0,0,0-.42-1.79,1.6,1.6,0,0,0-1.33-.53,1.36,1.36,0,0,0-1.2.61,3,3,0,0,0-.42,1.72,2.86,2.86,0,0,0,.42,1.7A1.38,1.38,0,0,0,254.9,46.92Z"/><path d="M259.34,40.07a.57.57,0,0,1,.15-.44.52.52,0,0,1,.38-.15.51.51,0,0,1,.37.15.59.59,0,0,1,.16.44.6.6,0,0,1-.16.45.51.51,0,0,1-.37.15.52.52,0,0,1-.38-.15A.6.6,0,0,1,259.34,40.07Zm1,7.49h-.89V41.67h.89Z"/><path d="M266,46a1.48,1.48,0,0,1-.62,1.27,2.83,2.83,0,0,1-1.71.44,3.73,3.73,0,0,1-1.83-.37v-.82a4.47,4.47,0,0,0,.91.33,3.49,3.49,0,0,0,.94.13,2.22,2.22,0,0,0,1.07-.22.75.75,0,0,0,.38-.68.73.73,0,0,0-.3-.59,4.82,4.82,0,0,0-1.16-.58,6.16,6.16,0,0,1-1.17-.53,1.83,1.83,0,0,1-.52-.52,1.41,1.41,0,0,1-.17-.69,1.32,1.32,0,0,1,.59-1.14,2.72,2.72,0,0,1,1.61-.42,4.62,4.62,0,0,1,1.85.39l-.31.72a4.33,4.33,0,0,0-1.61-.36,1.91,1.91,0,0,0-1,.2.61.61,0,0,0-.32.55.68.68,0,0,0,.12.4,1.19,1.19,0,0,0,.39.32,9.82,9.82,0,0,0,1,.43,3.81,3.81,0,0,1,1.42.77A1.38,1.38,0,0,1,266,46Z"/><path d="M269.8,47.66a2.53,2.53,0,0,1-2-.78,3.24,3.24,0,0,1-.7-2.23,3.36,3.36,0,0,1,.71-2.28,2.56,2.56,0,0,1,2-.81,4.09,4.09,0,0,1,.85.09,2.81,2.81,0,0,1,.66.22l-.27.76a3.82,3.82,0,0,0-.65-.2,2.92,2.92,0,0,0-.61-.08c-1.2,0-1.8.77-1.8,2.29a2.71,2.71,0,0,0,.44,1.66,1.52,1.52,0,0,0,1.3.58,4,4,0,0,0,1.51-.31v.79A3.29,3.29,0,0,1,269.8,47.66Z"/><path d="M277.77,44.61a3.27,3.27,0,0,1-.73,2.25,2.57,2.57,0,0,1-2,.8,2.65,2.65,0,0,1-1.41-.37,2.44,2.44,0,0,1-.94-1.06,3.72,3.72,0,0,1-.33-1.62,3.23,3.23,0,0,1,.72-2.24,2.81,2.81,0,0,1,4,0A3.27,3.27,0,0,1,277.77,44.61Zm-4.49,0a2.82,2.82,0,0,0,.45,1.72,1.79,1.79,0,0,0,2.66,0,2.8,2.8,0,0,0,.45-1.72,2.77,2.77,0,0,0-.45-1.71,1.59,1.59,0,0,0-1.34-.58,1.56,1.56,0,0,0-1.32.57A2.78,2.78,0,0,0,273.28,44.61Z"/><path d="M280.62,47.56l-2.24-5.89h1l1.27,3.49c.28.82.45,1.35.5,1.59h0c0-.19.17-.58.38-1.18l1.41-3.9h.95l-2.23,5.89Z"/><path d="M287.33,47.66a2.7,2.7,0,0,1-2.06-.79,3.06,3.06,0,0,1-.76-2.21,3.45,3.45,0,0,1,.7-2.26,2.34,2.34,0,0,1,1.89-.84,2.22,2.22,0,0,1,1.75.73,2.85,2.85,0,0,1,.64,1.92v.56h-4.05a2.32,2.32,0,0,0,.52,1.58,1.8,1.8,0,0,0,1.4.53,4.84,4.84,0,0,0,1.88-.39v.79a4.74,4.74,0,0,1-.9.3A5.82,5.82,0,0,1,287.33,47.66Zm-.25-5.35a1.45,1.45,0,0,0-1.13.46,2.13,2.13,0,0,0-.49,1.28h3.07a2,2,0,0,0-.37-1.29A1.33,1.33,0,0,0,287.08,42.31Z"/><path d="M293.7,41.56a3,3,0,0,1,.7.07l-.12.82a3.37,3.37,0,0,0-.65-.08,1.6,1.6,0,0,0-1.22.58,2.12,2.12,0,0,0-.51,1.45v3.16H291V41.67h.74l.1,1.09h0a2.65,2.65,0,0,1,.79-.89A1.85,1.85,0,0,1,293.7,41.56Z"/><path d="M294.57,41.67h.95L296.81,45a13.45,13.45,0,0,1,.53,1.66h0c.05-.19.14-.5.29-.94s.64-1.8,1.46-4.08h1l-2.53,6.7a3.29,3.29,0,0,1-.88,1.41,1.85,1.85,0,0,1-1.23.42,3.72,3.72,0,0,1-.81-.09v-.72a2.73,2.73,0,0,0,.66.07,1.37,1.37,0,0,0,1.31-1l.33-.84Z"/><path d="M47.81,44.29v3.27h-.92V39.7h2.16a3.37,3.37,0,0,1,2.13.56,2,2,0,0,1,.69,1.66A2.09,2.09,0,0,1,50.29,44l2.14,3.53H51.35l-1.91-3.27Zm0-.78h1.25a2.15,2.15,0,0,0,1.42-.39A1.42,1.42,0,0,0,50.93,42a1.32,1.32,0,0,0-.46-1.12A2.5,2.5,0,0,0,49,40.5H47.81Z"/><path d="M58.64,44.61a3.22,3.22,0,0,1-.73,2.25,2.57,2.57,0,0,1-2,.8,2.64,2.64,0,0,1-1.4-.37,2.46,2.46,0,0,1-.95-1.06,3.72,3.72,0,0,1-.33-1.62A3.23,3.23,0,0,1,54,42.37a2.54,2.54,0,0,1,2-.81,2.51,2.51,0,0,1,2,.82A3.22,3.22,0,0,1,58.64,44.61Zm-4.49,0a2.82,2.82,0,0,0,.46,1.72,1.78,1.78,0,0,0,2.65,0,2.8,2.8,0,0,0,.46-1.72,2.77,2.77,0,0,0-.46-1.71,1.83,1.83,0,0,0-2.66,0A2.78,2.78,0,0,0,54.15,44.61Z"/><path d="M61,41.67v3.82a1.51,1.51,0,0,0,.33,1.07,1.32,1.32,0,0,0,1,.36,1.65,1.65,0,0,0,1.35-.51,2.49,2.49,0,0,0,.43-1.65V41.67h.89v5.89h-.73l-.13-.79h0a1.75,1.75,0,0,1-.76.66,2.45,2.45,0,0,1-1.11.23,2.25,2.25,0,0,1-1.61-.51,2.19,2.19,0,0,1-.53-1.63V41.67Z"/><path d="M68.86,46.93a2.22,2.22,0,0,0,.45,0,1.77,1.77,0,0,0,.35-.07v.68a1.51,1.51,0,0,1-.43.12,3,3,0,0,1-.5,0c-1.14,0-1.71-.6-1.71-1.79V42.36h-.84v-.43l.84-.37.38-1.25h.51v1.36h1.71v.69H67.91v3.47a1.17,1.17,0,0,0,.25.81A.89.89,0,0,0,68.86,46.93Z"/><path d="M70.76,40.08a.58.58,0,0,1,.15-.45.52.52,0,0,1,.38-.15.51.51,0,0,1,.37.15.6.6,0,0,1,.15.45.59.59,0,0,1-.15.44.51.51,0,0,1-.37.15.52.52,0,0,1-.38-.15A.59.59,0,0,1,70.76,40.08Zm1,7.48h-.89V41.67h.89Z"/><path d="M77.65,47.56V43.75a1.55,1.55,0,0,0-.33-1.08,1.36,1.36,0,0,0-1-.35,1.71,1.71,0,0,0-1.35.5,2.49,2.49,0,0,0-.43,1.65v3.09h-.89V41.67h.73l.14.81h0a1.89,1.89,0,0,1,.77-.68,2.5,2.5,0,0,1,1.1-.24,2.19,2.19,0,0,1,1.6.52,2.16,2.16,0,0,1,.54,1.64v3.84Z"/><path d="M85.19,41.67v.56l-1.09.13a2,2,0,0,1,.27.49,1.92,1.92,0,0,1,.12.69,1.74,1.74,0,0,1-.59,1.38,2.43,2.43,0,0,1-1.63.52,2.54,2.54,0,0,1-.49,0,.89.89,0,0,0-.57.76.4.4,0,0,0,.2.36,1.55,1.55,0,0,0,.68.11h1A2.32,2.32,0,0,1,84.6,47a1.38,1.38,0,0,1,.51,1.17,1.68,1.68,0,0,1-.78,1.49A4.22,4.22,0,0,1,82,50.2a3.1,3.1,0,0,1-1.78-.43,1.38,1.38,0,0,1-.62-1.21,1.35,1.35,0,0,1,.34-.93,1.81,1.81,0,0,1,1-.54.89.89,0,0,1-.54-.81.94.94,0,0,1,.18-.57,1.7,1.7,0,0,1,.54-.46,1.58,1.58,0,0,1-.74-.64,1.82,1.82,0,0,1-.29-1,1.89,1.89,0,0,1,.58-1.49,2.34,2.34,0,0,1,1.64-.53,3,3,0,0,1,.83.11Zm-4.7,6.87a.8.8,0,0,0,.41.73,2.26,2.26,0,0,0,1.15.25,3.21,3.21,0,0,0,1.67-.34,1,1,0,0,0,.53-.91.7.7,0,0,0-.29-.66,2.22,2.22,0,0,0-1.11-.19H81.78a1.44,1.44,0,0,0-1,.29A1.06,1.06,0,0,0,80.49,48.54Zm.49-5a1.16,1.16,0,0,0,.35.93,1.38,1.38,0,0,0,1,.32,1.14,1.14,0,0,0,1.3-1.27,1.17,1.17,0,0,0-1.32-1.33,1.3,1.3,0,0,0-1,.34A1.36,1.36,0,0,0,81,43.56Z"/><path d="M143.06,47.56h-.91v-7h-2.49V39.7h5.88v.82h-2.48Z"/><path d="M149.28,41.56a3,3,0,0,1,.7.07l-.12.82a3.37,3.37,0,0,0-.65-.08A1.6,1.6,0,0,0,148,43a2.12,2.12,0,0,0-.51,1.45v3.16h-.89V41.67h.74l.1,1.09h0a2.65,2.65,0,0,1,.79-.89A1.85,1.85,0,0,1,149.28,41.56Z"/><path d="M154.7,47.56l-.18-.84h0a2.37,2.37,0,0,1-.88.75,2.66,2.66,0,0,1-1.09.19,2,2,0,0,1-1.37-.45,1.65,1.65,0,0,1-.5-1.28c0-1.19,1-1.81,2.85-1.87l1,0v-.37a1.48,1.48,0,0,0-.3-1,1.2,1.2,0,0,0-.95-.33,3.84,3.84,0,0,0-1.66.45l-.28-.68a4.45,4.45,0,0,1,2-.51,2.22,2.22,0,0,1,1.56.47,1.94,1.94,0,0,1,.51,1.5v4Zm-2-.63a1.81,1.81,0,0,0,1.31-.46,1.71,1.71,0,0,0,.47-1.28v-.53l-.89,0a3.1,3.1,0,0,0-1.53.33,1,1,0,0,0-.47.91.92.92,0,0,0,.29.74A1.25,1.25,0,0,0,152.69,46.93Z"/><path d="M159.85,42.36h-1.5v5.2h-.89v-5.2h-1.05V42l1.05-.32v-.33c0-1.45.64-2.17,1.9-2.17a3.68,3.68,0,0,1,1.09.19l-.23.71a2.89,2.89,0,0,0-.88-.16.86.86,0,0,0-.74.33,1.89,1.89,0,0,0-.25,1.08v.38h1.5Z"/><path d="M163.58,42.36h-1.5v5.2h-.89v-5.2h-1.05V42l1.05-.32v-.33c0-1.45.63-2.17,1.9-2.17a3.73,3.73,0,0,1,1.09.19L164,40a2.94,2.94,0,0,0-.88-.16.87.87,0,0,0-.75.33,1.9,1.9,0,0,0-.24,1.08v.38h1.5Z"/><path d="M164.58,40.07a.57.57,0,0,1,.15-.44.52.52,0,0,1,.38-.15.53.53,0,0,1,.37.15.59.59,0,0,1,.15.44.6.6,0,0,1-.15.45.53.53,0,0,1-.37.15.52.52,0,0,1-.38-.15A.6.6,0,0,1,164.58,40.07Zm1,7.49h-.9V41.67h.9Z"/><path d="M169.79,47.66a2.53,2.53,0,0,1-2-.78,3.24,3.24,0,0,1-.7-2.23,3.36,3.36,0,0,1,.71-2.28,2.56,2.56,0,0,1,2-.81,4.17,4.17,0,0,1,.85.09,2.81,2.81,0,0,1,.66.22l-.27.76a3.82,3.82,0,0,0-.65-.2,2.92,2.92,0,0,0-.61-.08c-1.2,0-1.8.77-1.8,2.29a2.71,2.71,0,0,0,.44,1.66,1.51,1.51,0,0,0,1.3.58,4,4,0,0,0,1.51-.31v.79A3.29,3.29,0,0,1,169.79,47.66Z"/><path d="M180.1,45.47a1.89,1.89,0,0,1-.76,1.61,3.23,3.23,0,0,1-2,.58,5.15,5.15,0,0,1-2.15-.36v-.88a5.71,5.71,0,0,0,1.06.33,6.18,6.18,0,0,0,1.13.11,2.29,2.29,0,0,0,1.37-.34,1.14,1.14,0,0,0,.46-1,1.26,1.26,0,0,0-.16-.67,1.57,1.57,0,0,0-.55-.48,9.39,9.39,0,0,0-1.17-.5,3.65,3.65,0,0,1-1.56-.93,2,2,0,0,1-.47-1.4,1.73,1.73,0,0,1,.68-1.44,2.82,2.82,0,0,1,1.8-.54,5.31,5.31,0,0,1,2.16.43l-.29.8a4.74,4.74,0,0,0-1.89-.41,1.81,1.81,0,0,0-1.13.31,1,1,0,0,0-.41.86,1.3,1.3,0,0,0,.15.67,1.32,1.32,0,0,0,.51.48,5.62,5.62,0,0,0,1.09.48,4.19,4.19,0,0,1,1.7.95A1.84,1.84,0,0,1,180.1,45.47Z"/><path d="M185.6,47.56V43.75a1.55,1.55,0,0,0-.33-1.08,1.36,1.36,0,0,0-1-.35,1.68,1.68,0,0,0-1.35.5,2.54,2.54,0,0,0-.43,1.66v3.08h-.89V39.2h.89v2.53a7.59,7.59,0,0,1,0,.76h.05a1.81,1.81,0,0,1,.75-.67,2.33,2.33,0,0,1,1.11-.25,2.24,2.24,0,0,1,1.62.52,2.15,2.15,0,0,1,.54,1.63v3.84Z"/><path d="M191.94,47.56l-.18-.84h0a2.45,2.45,0,0,1-.88.75,2.66,2.66,0,0,1-1.09.19,2,2,0,0,1-1.37-.45,1.65,1.65,0,0,1-.5-1.28c0-1.19,1-1.81,2.85-1.87l1,0v-.37a1.48,1.48,0,0,0-.3-1,1.22,1.22,0,0,0-1-.33,3.92,3.92,0,0,0-1.67.45l-.27-.68a4.36,4.36,0,0,1,2-.51,2.26,2.26,0,0,1,1.56.47,1.94,1.94,0,0,1,.51,1.5v4Zm-2-.63a1.77,1.77,0,0,0,1.3-.46,1.67,1.67,0,0,0,.48-1.28v-.53l-.89,0a3.17,3.17,0,0,0-1.54.33,1,1,0,0,0-.47.91.92.92,0,0,0,.3.74A1.24,1.24,0,0,0,189.93,46.93Z"/><path d="M197.18,47.66a2.52,2.52,0,0,1-1.05-.21,1.94,1.94,0,0,1-.8-.65h-.07a6.75,6.75,0,0,1,.07,1V50.2h-.89V41.67h.72l.13.81h0a2,2,0,0,1,.8-.7,2.32,2.32,0,0,1,1.05-.22,2.17,2.17,0,0,1,1.8.8,4.25,4.25,0,0,1,0,4.5A2.16,2.16,0,0,1,197.18,47.66Zm-.13-5.34a1.6,1.6,0,0,0-1.31.5,2.57,2.57,0,0,0-.41,1.59v.2a3,3,0,0,0,.41,1.77,1.58,1.58,0,0,0,1.33.54,1.37,1.37,0,0,0,1.19-.62,2.91,2.91,0,0,0,.44-1.7,2.79,2.79,0,0,0-.44-1.69A1.41,1.41,0,0,0,197.05,42.32Z"/><path d="M203.66,47.66a2.73,2.73,0,0,1-2.06-.79,3.1,3.1,0,0,1-.75-2.21,3.4,3.4,0,0,1,.7-2.26,2.33,2.33,0,0,1,1.88-.84,2.22,2.22,0,0,1,1.76.73,2.85,2.85,0,0,1,.64,1.92v.56h-4.06a2.36,2.36,0,0,0,.53,1.58,1.8,1.8,0,0,0,1.4.53,4.84,4.84,0,0,0,1.88-.39v.79a4.74,4.74,0,0,1-.9.3A5.86,5.86,0,0,1,203.66,47.66Zm-.24-5.35a1.45,1.45,0,0,0-1.13.46,2.13,2.13,0,0,0-.49,1.28h3.07a2,2,0,0,0-.37-1.29A1.33,1.33,0,0,0,203.42,42.31Z"/><path d="M210,41.56a3,3,0,0,1,.71.07l-.13.82a3.19,3.19,0,0,0-.64-.08,1.58,1.58,0,0,0-1.22.58,2.12,2.12,0,0,0-.51,1.45v3.16h-.89V41.67h.74l.1,1.09h0a2.65,2.65,0,0,1,.79-.89A1.85,1.85,0,0,1,210,41.56Z"/><path d="M324.46,47.56h-.92v-3.7h-4.13v3.7h-.92V39.7h.92V43h4.13V39.7h.92Z"/><path d="M329,47.66a2.7,2.7,0,0,1-2.06-.79,3.1,3.1,0,0,1-.75-2.21,3.4,3.4,0,0,1,.7-2.26,2.32,2.32,0,0,1,1.88-.84,2.2,2.2,0,0,1,1.75.73,2.81,2.81,0,0,1,.65,1.92v.56h-4.06a2.31,2.31,0,0,0,.53,1.58,1.78,1.78,0,0,0,1.39.53,4.8,4.8,0,0,0,1.88-.39v.79a4.44,4.44,0,0,1-.89.3A5.86,5.86,0,0,1,329,47.66Zm-.24-5.35a1.45,1.45,0,0,0-1.13.46,2.13,2.13,0,0,0-.5,1.28h3.08a1.91,1.91,0,0,0-.38-1.29A1.31,1.31,0,0,0,328.72,42.31Z"/><path d="M336.27,47.56l-.18-.84h0a2.53,2.53,0,0,1-.88.75,2.7,2.7,0,0,1-1.09.19,2,2,0,0,1-1.38-.45,1.64,1.64,0,0,1-.49-1.28c0-1.19,1-1.81,2.85-1.87l1,0v-.37a1.48,1.48,0,0,0-.3-1,1.23,1.23,0,0,0-.95-.33,3.92,3.92,0,0,0-1.67.45l-.27-.68a4.36,4.36,0,0,1,2-.51,2.26,2.26,0,0,1,1.56.47,1.94,1.94,0,0,1,.51,1.5v4Zm-2-.63a1.79,1.79,0,0,0,1.31-.46,1.67,1.67,0,0,0,.48-1.28v-.53l-.89,0a3.14,3.14,0,0,0-1.54.33,1,1,0,0,0-.47.91,1,1,0,0,0,.29.74A1.27,1.27,0,0,0,334.25,46.93Z"/><path d="M339.66,47.56h-.9V39.2h.9Z"/><path d="M343.45,46.93a2.15,2.15,0,0,0,.45,0,1.77,1.77,0,0,0,.35-.07v.68a1.34,1.34,0,0,1-.42.12,3.25,3.25,0,0,1-.51,0c-1.14,0-1.71-.6-1.71-1.79V42.36h-.84v-.43l.84-.37.38-1.25h.51v1.36h1.71v.69H342.5v3.47a1.18,1.18,0,0,0,.26.81A.85.85,0,0,0,343.45,46.93Z"/><path d="M349.46,47.56V43.75a1.55,1.55,0,0,0-.33-1.08,1.36,1.36,0,0,0-1-.35,1.69,1.69,0,0,0-1.35.5,2.54,2.54,0,0,0-.43,1.66v3.08h-.89V39.2h.89v2.53a5.44,5.44,0,0,1,0,.76h.05a1.81,1.81,0,0,1,.75-.67,2.39,2.39,0,0,1,1.11-.25,2.24,2.24,0,0,1,1.62.52,2.15,2.15,0,0,1,.54,1.63v3.84Z"/><path d="M358.54,40.41a2.59,2.59,0,0,0-2.05.86,4.17,4.17,0,0,0,0,4.74,2.56,2.56,0,0,0,2.06.84,7.3,7.3,0,0,0,1.87-.29v.8a5.87,5.87,0,0,1-2,.3,3.41,3.41,0,0,1-2.68-1,4.32,4.32,0,0,1-.94-3,4.77,4.77,0,0,1,.45-2.13,3.23,3.23,0,0,1,1.31-1.4,4,4,0,0,1,2-.5,4.9,4.9,0,0,1,2.16.45l-.39.79A4.14,4.14,0,0,0,358.54,40.41Z"/><path d="M366,47.56V43.75a1.55,1.55,0,0,0-.33-1.08,1.36,1.36,0,0,0-1-.35,1.68,1.68,0,0,0-1.35.5,2.54,2.54,0,0,0-.43,1.66v3.08H362V39.2h.89v2.53a5.44,5.44,0,0,1,0,.76h.05a1.81,1.81,0,0,1,.75-.67,2.33,2.33,0,0,1,1.11-.25,2.24,2.24,0,0,1,1.62.52,2.15,2.15,0,0,1,.54,1.63v3.84Z"/><path d="M371.22,47.66a2.7,2.7,0,0,1-2.06-.79,3.06,3.06,0,0,1-.76-2.21,3.45,3.45,0,0,1,.7-2.26,2.34,2.34,0,0,1,1.89-.84,2.22,2.22,0,0,1,1.75.73,2.8,2.8,0,0,1,.64,1.92v.56h-4.05a2.3,2.3,0,0,0,.52,1.58,1.8,1.8,0,0,0,1.4.53,4.84,4.84,0,0,0,1.88-.39v.79a4.52,4.52,0,0,1-.9.3A5.82,5.82,0,0,1,371.22,47.66ZM371,42.31a1.47,1.47,0,0,0-1.14.46,2.13,2.13,0,0,0-.49,1.28h3.08a2,2,0,0,0-.38-1.29A1.32,1.32,0,0,0,371,42.31Z"/><path d="M377.25,47.66a2.53,2.53,0,0,1-2-.78,3.29,3.29,0,0,1-.7-2.23,3.36,3.36,0,0,1,.71-2.28,2.58,2.58,0,0,1,2-.81,4,4,0,0,1,.85.09,2.91,2.91,0,0,1,.67.22l-.28.76a3.7,3.7,0,0,0-.64-.2,3,3,0,0,0-.62-.08c-1.19,0-1.79.77-1.79,2.29a2.65,2.65,0,0,0,.44,1.66,1.5,1.5,0,0,0,1.29.58,4,4,0,0,0,1.51-.31v.79A3.27,3.27,0,0,1,377.25,47.66Z"/><path d="M381,44.54c.15-.21.39-.5.7-.86l1.9-2h1.06l-2.38,2.51,2.55,3.38h-1.08l-2.08-2.79-.67.58v2.21h-.88V39.2H381v4.43c0,.2,0,.5,0,.91Z"/><path d="M388.4,47.66a2.7,2.7,0,0,1-2.06-.79,3.1,3.1,0,0,1-.76-2.21,3.4,3.4,0,0,1,.71-2.26,2.31,2.31,0,0,1,1.88-.84,2.2,2.2,0,0,1,1.75.73,2.8,2.8,0,0,1,.64,1.92v.56h-4.05a2.35,2.35,0,0,0,.52,1.58,1.8,1.8,0,0,0,1.4.53,4.84,4.84,0,0,0,1.88-.39v.79a4.44,4.44,0,0,1-.89.3A5.86,5.86,0,0,1,388.4,47.66Zm-.24-5.35a1.45,1.45,0,0,0-1.13.46,2.13,2.13,0,0,0-.5,1.28h3.08a2,2,0,0,0-.38-1.29A1.32,1.32,0,0,0,388.16,42.31Z"/><path d="M394.77,41.56a3,3,0,0,1,.7.07l-.12.82a3.28,3.28,0,0,0-.65-.08,1.6,1.6,0,0,0-1.22.58,2.12,2.12,0,0,0-.5,1.45v3.16h-.9V41.67h.74l.1,1.09h0a2.76,2.76,0,0,1,.79-.89A1.85,1.85,0,0,1,394.77,41.56Z"/><path d="M417.58,45.47a1.91,1.91,0,0,1-.75,1.61,3.28,3.28,0,0,1-2.05.58,5.07,5.07,0,0,1-2.14-.36v-.88a5.38,5.38,0,0,0,1.05.33,6.18,6.18,0,0,0,1.13.11,2.27,2.27,0,0,0,1.37-.34,1.14,1.14,0,0,0,.46-1,1.26,1.26,0,0,0-.16-.67,1.57,1.57,0,0,0-.55-.48,8.21,8.21,0,0,0-1.17-.5,3.65,3.65,0,0,1-1.56-.93,2,2,0,0,1-.47-1.4,1.75,1.75,0,0,1,.68-1.44,2.85,2.85,0,0,1,1.81-.54,5.26,5.26,0,0,1,2.15.43l-.29.8a4.67,4.67,0,0,0-1.89-.41,1.81,1.81,0,0,0-1.13.31,1,1,0,0,0-.41.86,1.3,1.3,0,0,0,.15.67,1.32,1.32,0,0,0,.51.48,5.62,5.62,0,0,0,1.09.48,4.19,4.19,0,0,1,1.7.95A1.84,1.84,0,0,1,417.58,45.47Z"/><path d="M423.61,45.47a1.91,1.91,0,0,1-.75,1.61,3.23,3.23,0,0,1-2,.58,5.12,5.12,0,0,1-2.15-.36v-.88a5.71,5.71,0,0,0,1.06.33,6.16,6.16,0,0,0,1.12.11,2.3,2.3,0,0,0,1.38-.34,1.14,1.14,0,0,0,.46-1,1.26,1.26,0,0,0-.16-.67,1.66,1.66,0,0,0-.55-.48,9.39,9.39,0,0,0-1.17-.5,3.65,3.65,0,0,1-1.56-.93,2,2,0,0,1-.47-1.4,1.73,1.73,0,0,1,.68-1.44,2.8,2.8,0,0,1,1.8-.54,5.31,5.31,0,0,1,2.16.43l-.29.8a4.74,4.74,0,0,0-1.89-.41,1.81,1.81,0,0,0-1.13.31,1,1,0,0,0-.41.86,1.3,1.3,0,0,0,.15.67,1.32,1.32,0,0,0,.51.48,5.62,5.62,0,0,0,1.09.48,4.27,4.27,0,0,1,1.7.95A1.84,1.84,0,0,1,423.61,45.47Z"/><path d="M431.18,47.56h-.91v-3.7h-4.14v3.7h-.91V39.7h.91V43h4.14V39.7h.91Z"/><path d="M435.72,45.52a2.09,2.09,0,0,1,.38-1.23,3.93,3.93,0,0,1,1.34-1.09,6.74,6.74,0,0,1-.63-.77,3.94,3.94,0,0,1-.26-.55,2,2,0,0,1-.09-.59A1.57,1.57,0,0,1,437,40a2.19,2.19,0,0,1,1.47-.45,2,2,0,0,1,1.37.45,1.6,1.6,0,0,1,.5,1.25,1.71,1.71,0,0,1-.37,1.06,4.09,4.09,0,0,1-1.2,1l2.18,2.1a2.56,2.56,0,0,0,.48-.78,7.54,7.54,0,0,0,.31-1h.9a5.17,5.17,0,0,1-1.1,2.33l1.6,1.57h-1.23l-1-1a4.17,4.17,0,0,1-1.29.82,4.22,4.22,0,0,1-1.46.24,2.58,2.58,0,0,1-1.79-.57A2,2,0,0,1,435.72,45.52Zm2.45,1.34a3,3,0,0,0,2.15-.82L438,43.76a4.64,4.64,0,0,0-.84.6,1.51,1.51,0,0,0-.37.52,1.71,1.71,0,0,0-.11.62,1.26,1.26,0,0,0,.41,1A1.65,1.65,0,0,0,438.17,46.86Zm-.83-5.59a1.37,1.37,0,0,0,.19.7,4,4,0,0,0,.66.81,3.54,3.54,0,0,0,1-.74,1.24,1.24,0,0,0,.27-.79.86.86,0,0,0-.28-.67,1,1,0,0,0-.74-.26,1.13,1.13,0,0,0-.77.25A.89.89,0,0,0,437.34,41.27Z"/><path d="M448,44.29v3.27h-.91V39.7h2.15a3.38,3.38,0,0,1,2.14.56,2,2,0,0,1,.69,1.66A2.1,2.1,0,0,1,450.48,44l2.13,3.53h-1.08l-1.9-3.27Zm0-.78h1.26a2.12,2.12,0,0,0,1.41-.39,1.42,1.42,0,0,0,.45-1.15,1.32,1.32,0,0,0-.45-1.12,2.5,2.5,0,0,0-1.48-.35H448Z"/><path d="M460.15,43.55a4,4,0,0,1-1.06,3,4.18,4.18,0,0,1-3,1h-2.18V39.7h2.41a3.54,3.54,0,0,1,3.86,3.85Zm-1,0a3.14,3.14,0,0,0-.77-2.32,3.08,3.08,0,0,0-2.29-.78h-1.33v6.28h1.12a3.37,3.37,0,0,0,2.45-.81A3.14,3.14,0,0,0,459.18,43.59Z"/><path d="M466.88,42a2.19,2.19,0,0,1-.82,1.84,3.7,3.7,0,0,1-2.32.64h-.93v3.09h-.91V39.7h2C465.9,39.7,466.88,40.47,466.88,42Zm-4.07,1.69h.82a3.08,3.08,0,0,0,1.76-.39,1.44,1.44,0,0,0,.54-1.25,1.35,1.35,0,0,0-.51-1.16,2.62,2.62,0,0,0-1.59-.39h-1Z"/><path d="M474.83,43.44h2.67v3.82a8.89,8.89,0,0,1-1.26.3,9.49,9.49,0,0,1-1.5.1A3.59,3.59,0,0,1,472,46.6a4.12,4.12,0,0,1-1-3,4.61,4.61,0,0,1,.49-2.15,3.31,3.31,0,0,1,1.42-1.4,4.5,4.5,0,0,1,2.16-.49,6,6,0,0,1,2.34.46l-.35.81a5.25,5.25,0,0,0-2-.45,2.94,2.94,0,0,0-2.24.85,3.35,3.35,0,0,0-.8,2.37,3.42,3.42,0,0,0,.77,2.41,3,3,0,0,0,2.28.82,7.07,7.07,0,0,0,1.6-.18V44.26h-1.76Z"/><path d="M482.87,47.56l-.17-.84h-.05a2.37,2.37,0,0,1-.88.75,2.66,2.66,0,0,1-1.09.19,2,2,0,0,1-1.37-.45,1.65,1.65,0,0,1-.5-1.28c0-1.19.95-1.81,2.86-1.87l1,0v-.37a1.53,1.53,0,0,0-.29-1,1.24,1.24,0,0,0-1-.33,3.88,3.88,0,0,0-1.66.45l-.28-.68a4.45,4.45,0,0,1,2-.51A2.26,2.26,0,0,1,483,42a2,2,0,0,1,.5,1.5v4Zm-2-.63a1.81,1.81,0,0,0,1.31-.46,1.71,1.71,0,0,0,.47-1.28v-.53l-.89,0a3.1,3.1,0,0,0-1.53.33,1,1,0,0,0-.47.91,1,1,0,0,0,.29.74A1.27,1.27,0,0,0,480.86,46.93Z"/><path d="M487.27,46.93a2.32,2.32,0,0,0,.46,0,1.94,1.94,0,0,0,.35-.07v.68a1.51,1.51,0,0,1-.43.12,3.25,3.25,0,0,1-.51,0c-1.13,0-1.7-.6-1.7-1.79V42.36h-.85v-.43l.85-.37.37-1.25h.52v1.36H488v.69h-1.71v3.47a1.17,1.17,0,0,0,.25.81A.88.88,0,0,0,487.27,46.93Z"/><path d="M491.74,47.66a2.71,2.71,0,0,1-2.06-.79,3.1,3.1,0,0,1-.75-2.21,3.4,3.4,0,0,1,.7-2.26,2.32,2.32,0,0,1,1.88-.84,2.2,2.2,0,0,1,1.75.73,2.81,2.81,0,0,1,.65,1.92v.56h-4.06a2.31,2.31,0,0,0,.53,1.58,1.78,1.78,0,0,0,1.39.53,4.8,4.8,0,0,0,1.88-.39v.79a4.44,4.44,0,0,1-.89.3A5.86,5.86,0,0,1,491.74,47.66Zm-.24-5.35a1.45,1.45,0,0,0-1.13.46,2.13,2.13,0,0,0-.5,1.28H493a1.91,1.91,0,0,0-.38-1.29A1.31,1.31,0,0,0,491.5,42.31Z"/><path d="M499.22,46a1.47,1.47,0,0,1-.61,1.27,2.86,2.86,0,0,1-1.72.44,3.66,3.66,0,0,1-1.82-.37v-.82a4.26,4.26,0,0,0,.91.33,3.42,3.42,0,0,0,.93.13,2.23,2.23,0,0,0,1.08-.22.74.74,0,0,0,.37-.68.72.72,0,0,0-.29-.59,4.41,4.41,0,0,0-1.17-.58,6.84,6.84,0,0,1-1.17-.53,1.67,1.67,0,0,1-.51-.52,1.41,1.41,0,0,1-.17-.69,1.32,1.32,0,0,1,.59-1.14,2.69,2.69,0,0,1,1.6-.42,4.67,4.67,0,0,1,1.86.39l-.32.72a4.29,4.29,0,0,0-1.6-.36,1.88,1.88,0,0,0-1,.2.61.61,0,0,0-.32.55.68.68,0,0,0,.12.4,1.33,1.33,0,0,0,.39.32,8.94,8.94,0,0,0,1,.43,3.81,3.81,0,0,1,1.42.77A1.37,1.37,0,0,1,499.22,46Z"/><circle cx="36.68" cy="44" r="1.5" fill="#71b429"/><circle cx="92.68" cy="44" r="1.5" fill="#71b429"/><circle cx="131.68" cy="44" r="1.5" fill="#71b429"/><circle cx="218.68" cy="44" r="1.5" fill="#71b429"/><circle cx="308.68" cy="44" r="1.5" fill="#71b429"/><circle cx="403.68" cy="44" r="1.5" fill="#71b429"/><circle cx="114.87" cy="191.62" r="1.5"/><circle cx="120.87" cy="191.62" r="1.5"/><circle cx="126.87" cy="191.62" r="1.5"/><rect x="12.5" y="156.62" width="95" height="70" rx="5.24" fill="#0399ff"/><path d="M47.43,172.39H28.5a1.36,1.36,0,0,0-1.35,1.35v18.93A1.36,1.36,0,0,0,28.5,194H47.43a1.36,1.36,0,0,0,1.35-1.35V173.74A1.36,1.36,0,0,0,47.43,172.39Zm-13.67,18h-2.4V176h2.4Zm5.41,0H36.76V176h2.41Zm5.41,0H42.17V176h2.41Z" fill="#fff"/><path d="M91.43,172.39H72.5a1.36,1.36,0,0,0-1.35,1.35v18.93A1.36,1.36,0,0,0,72.5,194H91.43a1.36,1.36,0,0,0,1.35-1.35V173.74A1.36,1.36,0,0,0,91.43,172.39Zm-13.67,18h-2.4V176h2.4Zm5.41,0H80.76V176h2.41Zm5.41,0H86.17V176h2.41Z" fill="#fff"/><circle cx="54.65" cy="183.21" r="1.4" fill="#fff"/><circle cx="60.25" cy="183.21" r="1.4" fill="#fff"/><circle cx="65.85" cy="183.21" r="1.4" fill="#fff"/><path d="M101,268.3v3.27h-.92v-7.85h2.16a3.37,3.37,0,0,1,2.13.55,2,2,0,0,1,.69,1.67,2.08,2.08,0,0,1-1.58,2.1l2.14,3.53h-1.08l-1.91-3.27Zm0-.78h1.25a2.23,2.23,0,0,0,1.42-.38,1.44,1.44,0,0,0,.45-1.16,1.32,1.32,0,0,0-.46-1.12,2.51,2.51,0,0,0-1.48-.34H101Z"/><path d="M109.26,271.68a2.7,2.7,0,0,1-2.06-.8,3,3,0,0,1-.76-2.2,3.42,3.42,0,0,1,.7-2.27,2.36,2.36,0,0,1,1.88-.83,2.25,2.25,0,0,1,1.76.72,2.8,2.8,0,0,1,.64,1.92v.57h-4a2.29,2.29,0,0,0,.52,1.57,1.81,1.81,0,0,0,1.4.54,4.68,4.68,0,0,0,1.88-.4v.8a5.48,5.48,0,0,1-.9.29A4.91,4.91,0,0,1,109.26,271.68Zm-.25-5.36a1.46,1.46,0,0,0-1.13.47,2.1,2.1,0,0,0-.49,1.27h3.07a2,2,0,0,0-.37-1.29A1.33,1.33,0,0,0,109,266.32Z"/><path d="M117.76,265.68v.57l-1.09.13a1.86,1.86,0,0,1,.27.49,2.06,2.06,0,0,1,.11.68,1.71,1.71,0,0,1-.59,1.38,2.34,2.34,0,0,1-1.62.52,3.74,3.74,0,0,1-.49,0,.87.87,0,0,0-.57.75.38.38,0,0,0,.2.36,1.39,1.39,0,0,0,.68.12h1a2.32,2.32,0,0,1,1.47.4,1.41,1.41,0,0,1,.51,1.17,1.67,1.67,0,0,1-.78,1.49,4.22,4.22,0,0,1-2.29.51,3.1,3.1,0,0,1-1.78-.43,1.45,1.45,0,0,1-.28-2.14,1.74,1.74,0,0,1,1-.53,1,1,0,0,1-.37-.32.79.79,0,0,1-.16-.5.91.91,0,0,1,.18-.56,1.72,1.72,0,0,1,.54-.47,1.65,1.65,0,0,1-.75-.64,1.87,1.87,0,0,1-.28-1,1.9,1.9,0,0,1,.58-1.49,2.34,2.34,0,0,1,1.64-.52,3,3,0,0,1,.83.1Zm-4.7,6.88a.79.79,0,0,0,.41.72,2.16,2.16,0,0,0,1.15.25,3.26,3.26,0,0,0,1.66-.33,1,1,0,0,0,.54-.91.75.75,0,0,0-.29-.67,2.36,2.36,0,0,0-1.11-.18h-1.07a1.39,1.39,0,0,0-.95.29A1,1,0,0,0,113.06,272.56Zm.49-5a1.16,1.16,0,0,0,.35.93,1.38,1.38,0,0,0,1,.32,1.13,1.13,0,0,0,1.3-1.27,1.17,1.17,0,0,0-1.32-1.32,1.3,1.3,0,0,0-1,.33A1.36,1.36,0,0,0,113.55,267.57Z"/><path d="M118.89,264.09a.58.58,0,0,1,.15-.45.51.51,0,0,1,.38-.14.57.57,0,0,1,.37.14.75.75,0,0,1,0,.9.57.57,0,0,1-.37.14.56.56,0,0,1-.38-.14A.61.61,0,0,1,118.89,264.09Zm1,7.48H119v-5.89h.89Z"/><path d="M126.83,268.62a3.22,3.22,0,0,1-.73,2.25,2.54,2.54,0,0,1-2,.81,2.73,2.73,0,0,1-1.4-.37,2.48,2.48,0,0,1-1-1.07,3.72,3.72,0,0,1-.33-1.62,3.23,3.23,0,0,1,.72-2.24,2.54,2.54,0,0,1,2-.8,2.47,2.47,0,0,1,2,.82A3.21,3.21,0,0,1,126.83,268.62Zm-4.49,0a2.8,2.8,0,0,0,.46,1.72,1.57,1.57,0,0,0,1.32.59,1.55,1.55,0,0,0,1.33-.59,2.78,2.78,0,0,0,.46-1.72,2.71,2.71,0,0,0-.46-1.7,1.8,1.8,0,0,0-2.66,0A2.73,2.73,0,0,0,122.34,268.62Z"/><path d="M132.42,271.57v-3.81a1.51,1.51,0,0,0-.33-1.07,1.3,1.3,0,0,0-1-.36,1.72,1.72,0,0,0-1.36.5,2.59,2.59,0,0,0-.43,1.65v3.09h-.89v-5.89h.73l.14.81h.05a1.71,1.71,0,0,1,.76-.67,2.5,2.5,0,0,1,1.1-.24,2.27,2.27,0,0,1,1.61.51,2.21,2.21,0,0,1,.53,1.64v3.84Z"/><path d="M140.9,271.57H140V266c0-.46,0-.9,0-1.32l-.25.24-1.28,1.05-.47-.62,2.07-1.6h.76Z"/><path d="M36.55,204.81a2.58,2.58,0,0,0-2,.86,3.48,3.48,0,0,0-.75,2.36,3.59,3.59,0,0,0,.72,2.39,2.57,2.57,0,0,0,2.06.84,7,7,0,0,0,1.88-.3v.8a5.92,5.92,0,0,1-2,.31A3.4,3.4,0,0,1,33.72,211a4.37,4.37,0,0,1-.94-3,4.64,4.64,0,0,1,.46-2.13,3.28,3.28,0,0,1,1.31-1.4,3.94,3.94,0,0,1,2-.5,4.71,4.71,0,0,1,2.16.46l-.38.78A4.18,4.18,0,0,0,36.55,204.81Z" fill="#fff"/><path d="M45.08,209a3.27,3.27,0,0,1-.73,2.25,2.54,2.54,0,0,1-2,.81,2.68,2.68,0,0,1-1.4-.37,2.48,2.48,0,0,1-1-1.07,3.72,3.72,0,0,1-.33-1.62,3.23,3.23,0,0,1,.72-2.24,2.53,2.53,0,0,1,2-.81,2.49,2.49,0,0,1,2,.83A3.24,3.24,0,0,1,45.08,209Zm-4.49,0a2.82,2.82,0,0,0,.45,1.72,1.79,1.79,0,0,0,2.66,0,3.49,3.49,0,0,0,0-3.43,1.61,1.61,0,0,0-1.34-.58,1.55,1.55,0,0,0-1.32.58A2.73,2.73,0,0,0,40.59,209Z" fill="#fff"/><path d="M50.67,212v-3.81a1.51,1.51,0,0,0-.33-1.07,1.33,1.33,0,0,0-1-.36,1.71,1.71,0,0,0-1.35.5,2.49,2.49,0,0,0-.43,1.65V212h-.89v-5.89h.72l.15.81h0a1.89,1.89,0,0,1,.77-.68,2.5,2.5,0,0,1,1.1-.24,2.25,2.25,0,0,1,1.6.52,2.17,2.17,0,0,1,.54,1.64V212Z" fill="#fff"/><path d="M55.29,211.33a3.44,3.44,0,0,0,.46,0l.35-.08v.69a2,2,0,0,1-.43.11,3.36,3.36,0,0,1-.51,0c-1.14,0-1.7-.6-1.7-1.8v-3.5h-.85v-.43l.85-.38.37-1.25h.52v1.36h1.7v.7h-1.7v3.46a1.2,1.2,0,0,0,.25.82A.88.88,0,0,0,55.29,211.33Z" fill="#fff"/><path d="M60.89,212l-.17-.84h0a2.43,2.43,0,0,1-.87.75,2.74,2.74,0,0,1-1.1.2,2,2,0,0,1-1.37-.45,1.67,1.67,0,0,1-.5-1.29c0-1.19,1-1.81,2.86-1.87l1,0v-.37a1.48,1.48,0,0,0-.29-1,1.24,1.24,0,0,0-1-.33,3.88,3.88,0,0,0-1.66.45l-.28-.68a4.28,4.28,0,0,1,2-.5,2.25,2.25,0,0,1,1.56.46,1.94,1.94,0,0,1,.5,1.5v4Zm-2-.63a1.79,1.79,0,0,0,1.31-.46,1.7,1.7,0,0,0,.47-1.27v-.54l-.89,0a3.34,3.34,0,0,0-1.53.33,1,1,0,0,0-.47.91,1,1,0,0,0,.29.74A1.22,1.22,0,0,0,58.88,211.33Z" fill="#fff"/><path d="M63.32,204.48a.58.58,0,0,1,.15-.45.56.56,0,0,1,.74,0,.71.71,0,0,1,0,.9.56.56,0,0,1-.74,0A.61.61,0,0,1,63.32,204.48Zm1,7.48h-.89v-5.89h.89Z" fill="#fff"/><path d="M70.2,212v-3.81a1.55,1.55,0,0,0-.32-1.07,1.34,1.34,0,0,0-1-.36,1.68,1.68,0,0,0-1.35.5,2.49,2.49,0,0,0-.43,1.65V212h-.9v-5.89h.73l.14.81h0a1.82,1.82,0,0,1,.77-.68A2.44,2.44,0,0,1,69,206a2.25,2.25,0,0,1,1.6.52,2.17,2.17,0,0,1,.53,1.64V212Z" fill="#fff"/><path d="M75.41,212.07a2.72,2.72,0,0,1-2.06-.8,3.08,3.08,0,0,1-.75-2.21,3.41,3.41,0,0,1,.7-2.26,2.32,2.32,0,0,1,1.88-.84,2.23,2.23,0,0,1,1.75.73,2.81,2.81,0,0,1,.65,1.92v.57H73.52a2.3,2.3,0,0,0,.53,1.57,1.79,1.79,0,0,0,1.39.54,4.61,4.61,0,0,0,1.88-.4v.8a5.1,5.1,0,0,1-.89.29A5,5,0,0,1,75.41,212.07Zm-.24-5.36a1.48,1.48,0,0,0-1.13.46,2.16,2.16,0,0,0-.5,1.28h3.08a2,2,0,0,0-.37-1.29A1.34,1.34,0,0,0,75.17,206.71Z" fill="#fff"/><path d="M81.78,206a3.79,3.79,0,0,1,.71.07l-.13.83a2.66,2.66,0,0,0-.64-.08,1.54,1.54,0,0,0-1.22.58A2.08,2.08,0,0,0,80,208.8V212H79.1v-5.89h.73l.1,1.09h0a2.52,2.52,0,0,1,.79-.88A1.75,1.75,0,0,1,81.78,206Z" fill="#fff"/><path d="M87.38,210.35a1.47,1.47,0,0,1-.61,1.27,2.86,2.86,0,0,1-1.72.45,3.78,3.78,0,0,1-1.82-.37v-.83a4.9,4.9,0,0,0,.91.34,3.85,3.85,0,0,0,.94.12,2.11,2.11,0,0,0,1.07-.22.75.75,0,0,0,.38-.68.73.73,0,0,0-.3-.59,4.75,4.75,0,0,0-1.17-.58,6.32,6.32,0,0,1-1.16-.53,1.61,1.61,0,0,1-.52-.52,1.36,1.36,0,0,1-.17-.69,1.34,1.34,0,0,1,.59-1.14,2.69,2.69,0,0,1,1.6-.42,4.63,4.63,0,0,1,1.86.39l-.32.73a4.13,4.13,0,0,0-1.6-.37,1.91,1.91,0,0,0-1,.2.63.63,0,0,0-.32.55.65.65,0,0,0,.12.4,1.19,1.19,0,0,0,.39.32,8.94,8.94,0,0,0,1,.43,4,4,0,0,1,1.42.77A1.37,1.37,0,0,1,87.38,210.35Z" fill="#fff"/><path d="M35.85,244.08h-.91v-3.7H30.81v3.7h-.92v-7.85h.92v3.34h4.13v-3.34h.91Z"/><path d="M43,241.13a3.27,3.27,0,0,1-.72,2.25,2.54,2.54,0,0,1-2,.81,2.66,2.66,0,0,1-1.41-.38,2.44,2.44,0,0,1-.94-1.06,3.72,3.72,0,0,1-.33-1.62,3.23,3.23,0,0,1,.72-2.24,2.8,2.8,0,0,1,4,0A3.24,3.24,0,0,1,43,241.13Zm-4.48,0a2.82,2.82,0,0,0,.45,1.72,1.57,1.57,0,0,0,1.33.59,1.6,1.6,0,0,0,1.33-.59,2.8,2.8,0,0,0,.45-1.72,2.77,2.77,0,0,0-.45-1.71,1.63,1.63,0,0,0-1.34-.58,1.54,1.54,0,0,0-1.32.58A2.73,2.73,0,0,0,38.47,241.13Z"/><path d="M48.31,242.47a1.47,1.47,0,0,1-.61,1.27,2.86,2.86,0,0,1-1.72.45,3.68,3.68,0,0,1-1.82-.38V243a4.9,4.9,0,0,0,.91.34,3.85,3.85,0,0,0,.94.12,2.11,2.11,0,0,0,1.07-.22.75.75,0,0,0,.38-.68.73.73,0,0,0-.3-.59,4.75,4.75,0,0,0-1.17-.58,6.32,6.32,0,0,1-1.16-.53,1.61,1.61,0,0,1-.52-.52,1.38,1.38,0,0,1-.17-.69,1.34,1.34,0,0,1,.59-1.14,2.69,2.69,0,0,1,1.6-.42,4.63,4.63,0,0,1,1.86.39l-.32.73a4.13,4.13,0,0,0-1.6-.37,1.91,1.91,0,0,0-1,.2.61.61,0,0,0-.32.55.68.68,0,0,0,.12.4,1.19,1.19,0,0,0,.39.32,8.94,8.94,0,0,0,1,.43,4,4,0,0,1,1.42.77A1.37,1.37,0,0,1,48.31,242.47Z"/><path d="M51.67,243.45a3.29,3.29,0,0,0,.45,0,2.7,2.7,0,0,0,.35-.08V244a1.43,1.43,0,0,1-.42.12,3.36,3.36,0,0,1-.51.05q-1.71,0-1.71-1.8v-3.51H49v-.42l.84-.38.38-1.25h.51v1.36h1.71v.69H50.72v3.47a1.25,1.25,0,0,0,.25.82A.92.92,0,0,0,51.67,243.45Z"/><path d="M62.77,244.08h-1l-4.29-6.59h0c.05.77.08,1.48.08,2.13v4.46h-.84v-7.85h1L62,242.79h0c0-.1,0-.41,0-.93s0-.9,0-1.13v-4.5h.85Z"/><path d="M69.88,241.13a3.22,3.22,0,0,1-.73,2.25,2.54,2.54,0,0,1-2,.81,2.65,2.65,0,0,1-1.4-.38,2.46,2.46,0,0,1-1-1.06,3.72,3.72,0,0,1-.33-1.62,3.23,3.23,0,0,1,.72-2.24,2.54,2.54,0,0,1,2-.81,2.48,2.48,0,0,1,2,.83A3.2,3.2,0,0,1,69.88,241.13Zm-4.48,0a2.82,2.82,0,0,0,.45,1.72,1.78,1.78,0,0,0,2.65,0,2.73,2.73,0,0,0,.46-1.72,2.7,2.7,0,0,0-.46-1.71,1.61,1.61,0,0,0-1.34-.58,1.56,1.56,0,0,0-1.32.58A2.73,2.73,0,0,0,65.4,241.13Z"/><path d="M75.45,243.29h0a2.09,2.09,0,0,1-1.85.9,2.19,2.19,0,0,1-1.79-.79,3.49,3.49,0,0,1-.64-2.25,3.53,3.53,0,0,1,.64-2.26,2.38,2.38,0,0,1,3.63.06h.07l0-.42,0-.41v-2.4h.89v8.36h-.72Zm-1.78.15a1.61,1.61,0,0,0,1.32-.5,2.52,2.52,0,0,0,.41-1.6v-.19a2.91,2.91,0,0,0-.42-1.78,1.54,1.54,0,0,0-1.32-.54,1.34,1.34,0,0,0-1.2.61,3,3,0,0,0-.42,1.72,2.94,2.94,0,0,0,.41,1.7A1.4,1.4,0,0,0,73.67,243.44Z"/><path d="M80.67,244.19a2.7,2.7,0,0,1-2.06-.8,3.1,3.1,0,0,1-.75-2.21,3.4,3.4,0,0,1,.7-2.26,2.31,2.31,0,0,1,1.88-.84,2.23,2.23,0,0,1,1.75.73,2.81,2.81,0,0,1,.65,1.92v.57H78.78a2.34,2.34,0,0,0,.52,1.57,1.82,1.82,0,0,0,1.4.54,4.81,4.81,0,0,0,1.88-.4v.79a4.44,4.44,0,0,1-.89.3A5,5,0,0,1,80.67,244.19Zm-.24-5.36a1.45,1.45,0,0,0-1.13.46,2.16,2.16,0,0,0-.5,1.28h3.08a2,2,0,0,0-.38-1.29A1.32,1.32,0,0,0,80.43,238.83Z"/><path d="M90.11,244.08h-.87v-5.6c0-.46,0-.9,0-1.32-.07.08-.16.15-.25.24l-1.28,1-.47-.61,2.08-1.6h.75Z"/><rect x="133.5" y="156.62" width="95" height="70" rx="5.24" fill="#0399ff"/><path d="M168.43,172.39H149.5a1.36,1.36,0,0,0-1.35,1.35v18.93A1.36,1.36,0,0,0,149.5,194h18.93a1.36,1.36,0,0,0,1.35-1.35V173.74A1.36,1.36,0,0,0,168.43,172.39Zm-13.67,18h-2.4V176h2.4Zm5.41,0h-2.41V176h2.41Zm5.41,0h-2.41V176h2.41Z" fill="#fff"/><path d="M212.43,172.39H193.5a1.36,1.36,0,0,0-1.35,1.35v18.93A1.36,1.36,0,0,0,193.5,194h18.93a1.36,1.36,0,0,0,1.35-1.35V173.74A1.36,1.36,0,0,0,212.43,172.39Zm-13.67,18h-2.4V176h2.4Zm5.41,0h-2.41V176h2.41Zm5.41,0h-2.41V176h2.41Z" fill="#fff"/><circle cx="175.65" cy="183.21" r="1.4" fill="#fff"/><circle cx="181.25" cy="183.21" r="1.4" fill="#fff"/><circle cx="186.85" cy="183.21" r="1.4" fill="#fff"/><path d="M157.55,204.81a2.58,2.58,0,0,0-2,.86,3.48,3.48,0,0,0-.75,2.36,3.59,3.59,0,0,0,.72,2.39,2.57,2.57,0,0,0,2.06.84,7,7,0,0,0,1.88-.3v.8a5.92,5.92,0,0,1-2,.31,3.4,3.4,0,0,1-2.68-1.06,4.37,4.37,0,0,1-.94-3,4.64,4.64,0,0,1,.46-2.13,3.28,3.28,0,0,1,1.31-1.4,3.94,3.94,0,0,1,2-.5,4.71,4.71,0,0,1,2.16.46l-.38.78A4.18,4.18,0,0,0,157.55,204.81Z" fill="#fff"/><path d="M166.08,209a3.27,3.27,0,0,1-.73,2.25,2.54,2.54,0,0,1-2,.81,2.68,2.68,0,0,1-1.4-.37,2.48,2.48,0,0,1-.95-1.07,3.72,3.72,0,0,1-.33-1.62,3.23,3.23,0,0,1,.72-2.24,2.53,2.53,0,0,1,2-.81,2.49,2.49,0,0,1,2,.83A3.24,3.24,0,0,1,166.08,209Zm-4.49,0a2.82,2.82,0,0,0,.45,1.72,1.79,1.79,0,0,0,2.66,0,3.49,3.49,0,0,0,0-3.43,1.61,1.61,0,0,0-1.34-.58,1.55,1.55,0,0,0-1.32.58A2.73,2.73,0,0,0,161.59,209Z" fill="#fff"/><path d="M171.67,212v-3.81a1.51,1.51,0,0,0-.33-1.07,1.33,1.33,0,0,0-1-.36,1.71,1.71,0,0,0-1.35.5,2.49,2.49,0,0,0-.43,1.65V212h-.89v-5.89h.72l.15.81h0a1.89,1.89,0,0,1,.77-.68,2.5,2.5,0,0,1,1.1-.24,2.25,2.25,0,0,1,1.6.52,2.17,2.17,0,0,1,.54,1.64V212Z" fill="#fff"/><path d="M176.29,211.33a3.44,3.44,0,0,0,.46,0l.35-.08v.69a2,2,0,0,1-.43.11,3.36,3.36,0,0,1-.51,0c-1.14,0-1.7-.6-1.7-1.8v-3.5h-.85v-.43l.85-.38.37-1.25h.52v1.36h1.7v.7h-1.7v3.46a1.2,1.2,0,0,0,.25.82A.88.88,0,0,0,176.29,211.33Z" fill="#fff"/><path d="M181.89,212l-.17-.84h-.05a2.43,2.43,0,0,1-.87.75,2.74,2.74,0,0,1-1.1.2,2,2,0,0,1-1.37-.45,1.67,1.67,0,0,1-.5-1.29c0-1.19.95-1.81,2.86-1.87l1,0v-.37a1.48,1.48,0,0,0-.29-1,1.24,1.24,0,0,0-1-.33,3.88,3.88,0,0,0-1.66.45l-.28-.68a4.28,4.28,0,0,1,2-.5,2.25,2.25,0,0,1,1.56.46,1.94,1.94,0,0,1,.5,1.5v4Zm-2-.63a1.79,1.79,0,0,0,1.31-.46,1.7,1.7,0,0,0,.47-1.27v-.54l-.89,0a3.34,3.34,0,0,0-1.53.33,1,1,0,0,0-.47.91,1,1,0,0,0,.29.74A1.22,1.22,0,0,0,179.88,211.33Z" fill="#fff"/><path d="M184.32,204.48a.58.58,0,0,1,.15-.45.56.56,0,0,1,.74,0,.71.71,0,0,1,0,.9.56.56,0,0,1-.74,0A.61.61,0,0,1,184.32,204.48Zm1,7.48h-.89v-5.89h.89Z" fill="#fff"/><path d="M191.2,212v-3.81a1.55,1.55,0,0,0-.32-1.07,1.34,1.34,0,0,0-1-.36,1.68,1.68,0,0,0-1.35.5,2.49,2.49,0,0,0-.43,1.65V212h-.9v-5.89h.73l.14.81h.05a1.82,1.82,0,0,1,.77-.68A2.44,2.44,0,0,1,190,206a2.25,2.25,0,0,1,1.6.52,2.17,2.17,0,0,1,.53,1.64V212Z" fill="#fff"/><path d="M196.41,212.07a2.72,2.72,0,0,1-2.06-.8,3.08,3.08,0,0,1-.75-2.21,3.41,3.41,0,0,1,.7-2.26,2.32,2.32,0,0,1,1.88-.84,2.23,2.23,0,0,1,1.75.73,2.81,2.81,0,0,1,.65,1.92v.57h-4.06a2.3,2.3,0,0,0,.53,1.57,1.79,1.79,0,0,0,1.39.54,4.61,4.61,0,0,0,1.88-.4v.8a5.1,5.1,0,0,1-.89.29A5,5,0,0,1,196.41,212.07Zm-.24-5.36a1.48,1.48,0,0,0-1.13.46,2.16,2.16,0,0,0-.5,1.28h3.08a2,2,0,0,0-.37-1.29A1.34,1.34,0,0,0,196.17,206.71Z" fill="#fff"/><path d="M202.78,206a3.79,3.79,0,0,1,.71.07l-.13.83a2.66,2.66,0,0,0-.64-.08,1.54,1.54,0,0,0-1.22.58,2.08,2.08,0,0,0-.51,1.44V212h-.89v-5.89h.73l.1,1.09h0a2.52,2.52,0,0,1,.79-.88A1.75,1.75,0,0,1,202.78,206Z" fill="#fff"/><path d="M208.38,210.35a1.47,1.47,0,0,1-.61,1.27,2.86,2.86,0,0,1-1.72.45,3.78,3.78,0,0,1-1.82-.37v-.83a4.9,4.9,0,0,0,.91.34,3.85,3.85,0,0,0,.94.12,2.11,2.11,0,0,0,1.07-.22.75.75,0,0,0,.38-.68.73.73,0,0,0-.3-.59,4.75,4.75,0,0,0-1.17-.58,6.32,6.32,0,0,1-1.16-.53,1.61,1.61,0,0,1-.52-.52,1.36,1.36,0,0,1-.17-.69,1.34,1.34,0,0,1,.59-1.14,2.69,2.69,0,0,1,1.6-.42,4.63,4.63,0,0,1,1.86.39l-.32.73a4.13,4.13,0,0,0-1.6-.37,1.91,1.91,0,0,0-1,.2.63.63,0,0,0-.32.55.65.65,0,0,0,.12.4,1.19,1.19,0,0,0,.39.32,8.94,8.94,0,0,0,1,.43,4,4,0,0,1,1.42.77A1.37,1.37,0,0,1,208.38,210.35Z" fill="#fff"/><path d="M155.17,244.08h-.92v-3.7h-4.13v3.7h-.91v-7.85h.91v3.34h4.13v-3.34h.92Z"/><path d="M162.27,241.13a3.22,3.22,0,0,1-.73,2.25,2.54,2.54,0,0,1-2,.81,2.62,2.62,0,0,1-1.4-.38,2.46,2.46,0,0,1-.95-1.06,3.72,3.72,0,0,1-.33-1.62,3.23,3.23,0,0,1,.72-2.24,2.54,2.54,0,0,1,2-.81,2.48,2.48,0,0,1,2,.83A3.2,3.2,0,0,1,162.27,241.13Zm-4.49,0a2.75,2.75,0,0,0,.46,1.72,1.78,1.78,0,0,0,2.65,0,2.8,2.8,0,0,0,.45-1.72,2.77,2.77,0,0,0-.45-1.71,1.61,1.61,0,0,0-1.34-.58,1.56,1.56,0,0,0-1.32.58A2.73,2.73,0,0,0,157.78,241.13Z"/><path d="M167.63,242.47a1.5,1.5,0,0,1-.61,1.27,2.86,2.86,0,0,1-1.72.45,3.72,3.72,0,0,1-1.83-.38V243a5.18,5.18,0,0,0,.91.34,4,4,0,0,0,.94.12,2.08,2.08,0,0,0,1.07-.22.75.75,0,0,0,.38-.68.73.73,0,0,0-.3-.59,4.63,4.63,0,0,0-1.16-.58,6.16,6.16,0,0,1-1.17-.53,1.57,1.57,0,0,1-.51-.52,1.29,1.29,0,0,1-.17-.69,1.33,1.33,0,0,1,.58-1.14,2.72,2.72,0,0,1,1.61-.42,4.7,4.7,0,0,1,1.86.39l-.32.73a4.17,4.17,0,0,0-1.61-.37,1.84,1.84,0,0,0-1,.2.6.6,0,0,0-.33.55.62.62,0,0,0,.13.4,1.26,1.26,0,0,0,.38.32,9.34,9.34,0,0,0,1,.43,3.9,3.9,0,0,1,1.41.77A1.34,1.34,0,0,1,167.63,242.47Z"/><path d="M171,243.45a3.44,3.44,0,0,0,.46,0l.35-.08V244a1.51,1.51,0,0,1-.43.12,3.36,3.36,0,0,1-.51.05q-1.71,0-1.71-1.8v-3.51h-.84v-.42l.84-.38.38-1.25H170v1.36h1.7v.69H170v3.47a1.2,1.2,0,0,0,.25.82A.91.91,0,0,0,171,243.45Z"/><path d="M182.09,244.08h-1l-4.3-6.59h0q.09,1.15.09,2.13v4.46H176v-7.85h1l4.28,6.56h0c0-.1,0-.41-.05-.93s0-.9,0-1.13v-4.5h.86Z"/><path d="M189.19,241.13a3.27,3.27,0,0,1-.72,2.25,2.54,2.54,0,0,1-2,.81,2.66,2.66,0,0,1-1.41-.38,2.44,2.44,0,0,1-.94-1.06,3.72,3.72,0,0,1-.33-1.62,3.27,3.27,0,0,1,.71-2.24,2.56,2.56,0,0,1,2-.81,2.5,2.5,0,0,1,2,.83A3.24,3.24,0,0,1,189.19,241.13Zm-4.48,0a2.82,2.82,0,0,0,.45,1.72,1.57,1.57,0,0,0,1.33.59,1.6,1.6,0,0,0,1.33-.59,2.8,2.8,0,0,0,.45-1.72,2.77,2.77,0,0,0-.45-1.71,1.63,1.63,0,0,0-1.34-.58,1.54,1.54,0,0,0-1.32.58A2.73,2.73,0,0,0,184.71,241.13Z"/><path d="M194.76,243.29h0a2.11,2.11,0,0,1-1.85.9,2.21,2.21,0,0,1-1.8-.79,3.49,3.49,0,0,1-.64-2.25,3.53,3.53,0,0,1,.64-2.26,2.17,2.17,0,0,1,1.8-.81,2.15,2.15,0,0,1,1.84.87h.06l0-.42,0-.41v-2.4h.89v8.36h-.73Zm-1.78.15a1.61,1.61,0,0,0,1.32-.5,2.45,2.45,0,0,0,.42-1.6v-.19a2.91,2.91,0,0,0-.42-1.78,1.58,1.58,0,0,0-1.33-.54,1.36,1.36,0,0,0-1.2.61,3,3,0,0,0-.42,1.72,2.86,2.86,0,0,0,.42,1.7A1.38,1.38,0,0,0,193,243.44Z"/><path d="M200,244.19a2.72,2.72,0,0,1-2.06-.8,3.1,3.1,0,0,1-.75-2.21,3.4,3.4,0,0,1,.7-2.26,2.33,2.33,0,0,1,1.88-.84,2.22,2.22,0,0,1,1.75.73,2.81,2.81,0,0,1,.65,1.92v.57h-4.06a2.35,2.35,0,0,0,.53,1.57,1.81,1.81,0,0,0,1.4.54,4.85,4.85,0,0,0,1.88-.4v.79a4.74,4.74,0,0,1-.9.3A5,5,0,0,1,200,244.19Zm-.24-5.36a1.45,1.45,0,0,0-1.13.46,2.15,2.15,0,0,0-.49,1.28h3.07a2,2,0,0,0-.37-1.29A1.33,1.33,0,0,0,199.74,238.83Z"/><path d="M212.79,244.08h-1l-4.29-6.59h0c.06.77.08,1.48.08,2.13v4.46h-.84v-7.85h1l4.28,6.56H212c0-.1,0-.41-.05-.93s0-.9,0-1.13v-4.5h.85Z"/><path d="M505.5,255.45h-4v-1h4a4.49,4.49,0,0,0,2.83-1l.63.77A5.45,5.45,0,0,1,505.5,255.45Zm-8,0h-4v-1h4Zm-8,0h-4v-1h4Zm-8,0h-4v-1h4Zm-8,0h-4v-1h4Zm-8,0h-4v-1h4Zm-8,0h-4v-1h4Zm-8,0h-4v-1h4Zm-8,0h-4v-1h4Zm-8,0h-4v-1h4Zm-8,0h-4v-1h4Zm-8,0h-4v-1h4Zm-8,0h-4v-1h4Zm-8,0h-4v-1h4Zm-8,0h-4v-1h4Zm-8,0h-4v-1h4Zm-8,0h-4v-1h4Zm-8,0h-4v-1h4Zm-8,0h-4v-1h4Zm-8,0h-4v-1h4Zm-8,0h-4v-1h4Zm-8,0h-4v-1h4Zm-8,0h-4v-1h4Zm-8,0h-4v-1h4Zm-8,0h-4v-1h4Zm-8,0h-4v-1h4Zm-8,0h-4v-1h4Zm-8,0h-4v-1h4Zm-8,0h-4v-1h4Zm-8.14-.44a5.54,5.54,0,0,1-3-3.07l.93-.36a4.55,4.55,0,0,0,2.44,2.51ZM511,250.43l-1-.08c0-.14,0-.27,0-.4v-3.56h1V250C511,250.11,511,250.27,511,250.43ZM271,247.8h-1v-4h1Zm240-5.41h-1v-4h1ZM271,239.8h-1v-4h1Zm240-5.41h-1v-4h1ZM271,231.8h-1v-4h1Zm240-5.41h-1v-4h1ZM271,223.8h-1v-4h1Zm240-5.41h-1v-4h1ZM271,215.8h-1v-4h1Zm240-5.41h-1v-4h1ZM271,207.8h-1v-4h1Zm240-5.41h-1v-4h1ZM271,199.8h-1v-4h1Zm240-5.41h-1v-4h1ZM271,191.8h-1v-4h1Zm240-5.41h-1v-4h1ZM271,183.8h-1v-4h1Zm240-5.41h-1v-4h1ZM271,175.8h-1v-4h1Zm240-5.41h-1v-4h1ZM271,167.8h-1v-4h1Zm240-5.41h-1v-4h1ZM271,159.8h-1v-4h1Zm240-5.41h-1v-4h1ZM271,151.8h-1V150a5.46,5.46,0,0,1,.5-2.29l.91.42A4.47,4.47,0,0,0,271,150ZM508.9,147a4.49,4.49,0,0,0-3.13-1.55l.06-1a5.52,5.52,0,0,1,3.83,1.9ZM274,145.71l-.34-.94a5.48,5.48,0,0,1,1.84-.32h2.3v1h-2.3A4.46,4.46,0,0,0,274,145.71Zm227.8-.26h-4v-1h4Zm-8,0h-4v-1h4Zm-8,0h-4v-1h4Zm-8,0h-4v-1h4Zm-8,0h-4v-1h4Zm-8,0h-4v-1h4Zm-8,0h-4v-1h4Zm-8,0h-4v-1h4Zm-8,0h-4v-1h4Zm-8,0h-4v-1h4Zm-8,0h-4v-1h4Zm-8,0h-4v-1h4Zm-8,0h-4v-1h4Zm-8,0h-4v-1h4Zm-8,0h-4v-1h4Zm-8,0h-4v-1h4Zm-8,0h-4v-1h4Zm-8,0h-4v-1h4Zm-8,0h-4v-1h4Zm-8,0h-4v-1h4Zm-8,0h-4v-1h4Zm-8,0h-4v-1h4Zm-8,0h-4v-1h4Zm-8,0h-4v-1h4Zm-8,0h-4v-1h4Zm-8,0h-4v-1h4Zm-8,0h-4v-1h4Zm-8,0h-4v-1h4Z" fill="#0399ff"/><circle cx="384.87" cy="191.62" r="1.5"/><circle cx="390.87" cy="191.62" r="1.5"/><circle cx="396.87" cy="191.62" r="1.5"/><rect x="282.5" y="156.62" width="95" height="70" rx="5.24" fill="#0399ff"/><path d="M317.43,172.39H298.5a1.36,1.36,0,0,0-1.35,1.35v18.93A1.36,1.36,0,0,0,298.5,194h18.93a1.36,1.36,0,0,0,1.35-1.35V173.74A1.36,1.36,0,0,0,317.43,172.39Zm-13.67,18h-2.4V176h2.4Zm5.41,0h-2.41V176h2.41Zm5.41,0h-2.41V176h2.41Z" fill="#fff"/><path d="M361.43,172.39H342.5a1.36,1.36,0,0,0-1.35,1.35v18.93A1.36,1.36,0,0,0,342.5,194h18.93a1.36,1.36,0,0,0,1.35-1.35V173.74A1.36,1.36,0,0,0,361.43,172.39Zm-13.67,18h-2.4V176h2.4Zm5.41,0h-2.41V176h2.41Zm5.41,0h-2.41V176h2.41Z" fill="#fff"/><circle cx="324.65" cy="183.21" r="1.4" fill="#fff"/><circle cx="330.25" cy="183.21" r="1.4" fill="#fff"/><circle cx="335.85" cy="183.21" r="1.4" fill="#fff"/><path d="M370.33,268.3v3.27h-.91v-7.85h2.15a3.39,3.39,0,0,1,2.14.55,2,2,0,0,1,.69,1.67,2.09,2.09,0,0,1-1.58,2.1l2.13,3.53h-1.08L372,268.3Zm0-.78h1.25a2.19,2.19,0,0,0,1.42-.38,1.44,1.44,0,0,0,.45-1.16,1.3,1.3,0,0,0-.46-1.12,2.45,2.45,0,0,0-1.47-.34h-1.19Z"/><path d="M378.57,271.68a2.7,2.7,0,0,1-2.06-.8,3.07,3.07,0,0,1-.75-2.2,3.42,3.42,0,0,1,.7-2.27,2.34,2.34,0,0,1,1.88-.83,2.23,2.23,0,0,1,1.75.72,2.81,2.81,0,0,1,.65,1.92v.57h-4.06a2.3,2.3,0,0,0,.53,1.57,1.79,1.79,0,0,0,1.39.54,4.64,4.64,0,0,0,1.88-.4v.8a5.1,5.1,0,0,1-.89.29A5,5,0,0,1,378.57,271.68Zm-.24-5.36a1.46,1.46,0,0,0-1.13.47,2.1,2.1,0,0,0-.5,1.27h3.08a2,2,0,0,0-.38-1.29A1.32,1.32,0,0,0,378.33,266.32Z"/><path d="M387.07,265.68v.57l-1.09.13a1.86,1.86,0,0,1,.27.49,1.83,1.83,0,0,1,.12.68,1.74,1.74,0,0,1-.59,1.38,2.37,2.37,0,0,1-1.62.52,3.9,3.9,0,0,1-.5,0,.87.87,0,0,0-.57.75.4.4,0,0,0,.2.36,1.39,1.39,0,0,0,.68.12h1a2.36,2.36,0,0,1,1.47.4,1.41,1.41,0,0,1,.51,1.17,1.66,1.66,0,0,1-.79,1.49,4.19,4.19,0,0,1-2.28.51,3.08,3.08,0,0,1-1.78-.43,1.37,1.37,0,0,1-.63-1.21,1.35,1.35,0,0,1,.34-.93,1.77,1.77,0,0,1,1-.53,1,1,0,0,1-.38-.32.84.84,0,0,1-.15-.5,1,1,0,0,1,.17-.56,2,2,0,0,1,.54-.47,1.63,1.63,0,0,1-.74-.64,1.88,1.88,0,0,1-.29-1,1.93,1.93,0,0,1,.58-1.49,2.38,2.38,0,0,1,1.65-.52,3.1,3.1,0,0,1,.83.1Zm-4.69,6.88a.78.78,0,0,0,.4.72,2.2,2.2,0,0,0,1.16.25,3.26,3.26,0,0,0,1.66-.33,1,1,0,0,0,.54-.91.73.73,0,0,0-.3-.67,2.31,2.31,0,0,0-1.11-.18h-1.07a1.36,1.36,0,0,0-.94.29A1,1,0,0,0,382.38,272.56Zm.48-5a1.2,1.2,0,0,0,.35.93,1.42,1.42,0,0,0,1,.32,1.14,1.14,0,0,0,1.31-1.27,1.17,1.17,0,0,0-1.32-1.32,1.34,1.34,0,0,0-1,.33A1.4,1.4,0,0,0,382.86,267.57Z"/><path d="M388.21,264.09a.58.58,0,0,1,.15-.45.49.49,0,0,1,.37-.14.53.53,0,0,1,.37.14.71.71,0,0,1,0,.9.56.56,0,0,1-.74,0A.61.61,0,0,1,388.21,264.09Zm1,7.48h-.89v-5.89h.89Z"/><path d="M396.15,268.62a3.27,3.27,0,0,1-.73,2.25,2.54,2.54,0,0,1-2,.81,2.68,2.68,0,0,1-1.4-.37,2.42,2.42,0,0,1-.95-1.07,3.72,3.72,0,0,1-.33-1.62,3.23,3.23,0,0,1,.72-2.24,2.52,2.52,0,0,1,2-.8,2.49,2.49,0,0,1,2,.82A3.26,3.26,0,0,1,396.15,268.62Zm-4.49,0a2.8,2.8,0,0,0,.45,1.72,1.79,1.79,0,0,0,2.66,0,2.78,2.78,0,0,0,.45-1.72,2.72,2.72,0,0,0-.45-1.7,1.61,1.61,0,0,0-1.34-.59,1.56,1.56,0,0,0-1.32.58A2.73,2.73,0,0,0,391.66,268.62Z"/><path d="M401.74,271.57v-3.81a1.51,1.51,0,0,0-.33-1.07,1.33,1.33,0,0,0-1-.36,1.71,1.71,0,0,0-1.35.5,2.53,2.53,0,0,0-.43,1.65v3.09h-.89v-5.89h.72l.15.81h0a1.74,1.74,0,0,1,.77-.67,2.5,2.5,0,0,1,1.1-.24,2.24,2.24,0,0,1,1.6.51,2.17,2.17,0,0,1,.54,1.64v3.84Z"/><path d="M413.59,271.57h-1L408.25,265h0c.06.77.08,1.48.08,2.13v4.46h-.84v-7.85h1l4.28,6.56h.05c0-.1,0-.41-.05-.93s0-.9,0-1.13v-4.5h.86Z"/><path d="M306.55,204.81a2.58,2.58,0,0,0-2,.86,3.48,3.48,0,0,0-.75,2.36,3.59,3.59,0,0,0,.72,2.39,2.57,2.57,0,0,0,2.06.84,7,7,0,0,0,1.88-.3v.8a5.92,5.92,0,0,1-2,.31,3.4,3.4,0,0,1-2.68-1.06,4.37,4.37,0,0,1-.94-3,4.64,4.64,0,0,1,.46-2.13,3.28,3.28,0,0,1,1.31-1.4,3.94,3.94,0,0,1,2-.5,4.71,4.71,0,0,1,2.16.46l-.38.78A4.18,4.18,0,0,0,306.55,204.81Z" fill="#fff"/><path d="M315.08,209a3.27,3.27,0,0,1-.73,2.25,2.54,2.54,0,0,1-2,.81,2.68,2.68,0,0,1-1.4-.37,2.48,2.48,0,0,1-.95-1.07,3.72,3.72,0,0,1-.33-1.62,3.23,3.23,0,0,1,.72-2.24,2.53,2.53,0,0,1,2-.81,2.49,2.49,0,0,1,2,.83A3.24,3.24,0,0,1,315.08,209Zm-4.49,0a2.82,2.82,0,0,0,.45,1.72,1.79,1.79,0,0,0,2.66,0,3.49,3.49,0,0,0,0-3.43,1.61,1.61,0,0,0-1.34-.58,1.55,1.55,0,0,0-1.32.58A2.73,2.73,0,0,0,310.59,209Z" fill="#fff"/><path d="M320.67,212v-3.81a1.51,1.51,0,0,0-.33-1.07,1.33,1.33,0,0,0-1-.36,1.71,1.71,0,0,0-1.35.5,2.49,2.49,0,0,0-.43,1.65V212h-.89v-5.89h.72l.15.81h0a1.89,1.89,0,0,1,.77-.68,2.5,2.5,0,0,1,1.1-.24,2.25,2.25,0,0,1,1.6.52,2.17,2.17,0,0,1,.54,1.64V212Z" fill="#fff"/><path d="M325.29,211.33a3.44,3.44,0,0,0,.46,0l.35-.08v.69a2,2,0,0,1-.43.11,3.36,3.36,0,0,1-.51,0c-1.14,0-1.7-.6-1.7-1.8v-3.5h-.85v-.43l.85-.38.37-1.25h.52v1.36h1.7v.7h-1.7v3.46a1.2,1.2,0,0,0,.25.82A.88.88,0,0,0,325.29,211.33Z" fill="#fff"/><path d="M330.89,212l-.17-.84h-.05a2.43,2.43,0,0,1-.87.75,2.74,2.74,0,0,1-1.1.2,2,2,0,0,1-1.37-.45,1.67,1.67,0,0,1-.5-1.29c0-1.19.95-1.81,2.86-1.87l1,0v-.37a1.48,1.48,0,0,0-.29-1,1.24,1.24,0,0,0-1-.33,3.88,3.88,0,0,0-1.66.45l-.28-.68a4.28,4.28,0,0,1,2-.5,2.25,2.25,0,0,1,1.56.46,1.94,1.94,0,0,1,.5,1.5v4Zm-2-.63a1.79,1.79,0,0,0,1.31-.46,1.7,1.7,0,0,0,.47-1.27v-.54l-.89,0a3.34,3.34,0,0,0-1.53.33,1,1,0,0,0-.47.91,1,1,0,0,0,.29.74A1.22,1.22,0,0,0,328.88,211.33Z" fill="#fff"/><path d="M333.32,204.48a.58.58,0,0,1,.15-.45.56.56,0,0,1,.74,0,.71.71,0,0,1,0,.9.56.56,0,0,1-.74,0A.61.61,0,0,1,333.32,204.48Zm1,7.48h-.89v-5.89h.89Z" fill="#fff"/><path d="M340.2,212v-3.81a1.55,1.55,0,0,0-.32-1.07,1.34,1.34,0,0,0-1-.36,1.68,1.68,0,0,0-1.35.5,2.49,2.49,0,0,0-.43,1.65V212h-.9v-5.89h.73l.14.81h0a1.82,1.82,0,0,1,.77-.68A2.44,2.44,0,0,1,339,206a2.25,2.25,0,0,1,1.6.52,2.17,2.17,0,0,1,.53,1.64V212Z" fill="#fff"/><path d="M345.41,212.07a2.72,2.72,0,0,1-2.06-.8,3.08,3.08,0,0,1-.75-2.21,3.41,3.41,0,0,1,.7-2.26,2.32,2.32,0,0,1,1.88-.84,2.23,2.23,0,0,1,1.75.73,2.81,2.81,0,0,1,.65,1.92v.57h-4.06a2.3,2.3,0,0,0,.53,1.57,1.79,1.79,0,0,0,1.39.54,4.61,4.61,0,0,0,1.88-.4v.8a5.1,5.1,0,0,1-.89.29A5,5,0,0,1,345.41,212.07Zm-.24-5.36a1.48,1.48,0,0,0-1.13.46,2.16,2.16,0,0,0-.5,1.28h3.08a2,2,0,0,0-.37-1.29A1.34,1.34,0,0,0,345.17,206.71Z" fill="#fff"/><path d="M351.78,206a3.79,3.79,0,0,1,.71.07l-.13.83a2.66,2.66,0,0,0-.64-.08,1.54,1.54,0,0,0-1.22.58,2.08,2.08,0,0,0-.51,1.44V212h-.89v-5.89h.73l.1,1.09H350a2.52,2.52,0,0,1,.79-.88A1.75,1.75,0,0,1,351.78,206Z" fill="#fff"/><path d="M357.38,210.35a1.47,1.47,0,0,1-.61,1.27,2.86,2.86,0,0,1-1.72.45,3.78,3.78,0,0,1-1.82-.37v-.83a4.9,4.9,0,0,0,.91.34,3.85,3.85,0,0,0,.94.12,2.11,2.11,0,0,0,1.07-.22.75.75,0,0,0,.38-.68.73.73,0,0,0-.3-.59,4.75,4.75,0,0,0-1.17-.58,6.32,6.32,0,0,1-1.16-.53,1.61,1.61,0,0,1-.52-.52,1.36,1.36,0,0,1-.17-.69,1.34,1.34,0,0,1,.59-1.14,2.69,2.69,0,0,1,1.6-.42,4.63,4.63,0,0,1,1.86.39l-.32.73a4.13,4.13,0,0,0-1.6-.37,1.91,1.91,0,0,0-1,.2.63.63,0,0,0-.32.55.65.65,0,0,0,.12.4,1.19,1.19,0,0,0,.39.32,8.94,8.94,0,0,0,1,.43,4,4,0,0,1,1.42.77A1.37,1.37,0,0,1,357.38,210.35Z" fill="#fff"/><path d="M305.85,244.08h-.91v-3.7h-4.13v3.7h-.92v-7.85h.92v3.34h4.13v-3.34h.91Z"/><path d="M313,241.13a3.27,3.27,0,0,1-.72,2.25,2.54,2.54,0,0,1-2,.81,2.66,2.66,0,0,1-1.41-.38,2.44,2.44,0,0,1-.94-1.06,3.72,3.72,0,0,1-.33-1.62,3.23,3.23,0,0,1,.72-2.24,2.8,2.8,0,0,1,4,0A3.24,3.24,0,0,1,313,241.13Zm-4.48,0a2.82,2.82,0,0,0,.45,1.72,1.57,1.57,0,0,0,1.33.59,1.6,1.6,0,0,0,1.33-.59,2.8,2.8,0,0,0,.45-1.72,2.77,2.77,0,0,0-.45-1.71,1.63,1.63,0,0,0-1.34-.58,1.54,1.54,0,0,0-1.32.58A2.73,2.73,0,0,0,308.47,241.13Z"/><path d="M318.31,242.47a1.47,1.47,0,0,1-.61,1.27,2.86,2.86,0,0,1-1.72.45,3.68,3.68,0,0,1-1.82-.38V243a4.9,4.9,0,0,0,.91.34,3.85,3.85,0,0,0,.94.12,2.11,2.11,0,0,0,1.07-.22.75.75,0,0,0,.38-.68.73.73,0,0,0-.3-.59,4.75,4.75,0,0,0-1.17-.58,6.32,6.32,0,0,1-1.16-.53,1.61,1.61,0,0,1-.52-.52,1.38,1.38,0,0,1-.17-.69,1.34,1.34,0,0,1,.59-1.14,2.69,2.69,0,0,1,1.6-.42,4.63,4.63,0,0,1,1.86.39l-.32.73a4.13,4.13,0,0,0-1.6-.37,1.91,1.91,0,0,0-1,.2.61.61,0,0,0-.32.55.68.68,0,0,0,.12.4,1.19,1.19,0,0,0,.39.32,8.94,8.94,0,0,0,1,.43,4,4,0,0,1,1.42.77A1.37,1.37,0,0,1,318.31,242.47Z"/><path d="M321.67,243.45a3.29,3.29,0,0,0,.45,0,2.7,2.7,0,0,0,.35-.08V244a1.43,1.43,0,0,1-.42.12,3.36,3.36,0,0,1-.51.05q-1.71,0-1.71-1.8v-3.51H319v-.42l.84-.38.38-1.25h.51v1.36h1.71v.69h-1.71v3.47a1.25,1.25,0,0,0,.25.82A.92.92,0,0,0,321.67,243.45Z"/><path d="M332.77,244.08h-1l-4.29-6.59h0c.05.77.08,1.48.08,2.13v4.46h-.84v-7.85h1l4.28,6.56H332c0-.1,0-.41-.05-.93s0-.9,0-1.13v-4.5h.85Z"/><path d="M339.88,241.13a3.22,3.22,0,0,1-.73,2.25,2.54,2.54,0,0,1-2,.81,2.65,2.65,0,0,1-1.4-.38,2.46,2.46,0,0,1-.95-1.06,3.72,3.72,0,0,1-.33-1.62,3.23,3.23,0,0,1,.72-2.24,2.54,2.54,0,0,1,2-.81,2.48,2.48,0,0,1,2,.83A3.2,3.2,0,0,1,339.88,241.13Zm-4.48,0a2.82,2.82,0,0,0,.45,1.72,1.78,1.78,0,0,0,2.65,0,2.73,2.73,0,0,0,.46-1.72,2.7,2.7,0,0,0-.46-1.71,1.61,1.61,0,0,0-1.34-.58,1.56,1.56,0,0,0-1.32.58A2.73,2.73,0,0,0,335.4,241.13Z"/><path d="M345.45,243.29h-.05a2.09,2.09,0,0,1-1.85.9,2.19,2.19,0,0,1-1.79-.79,3.49,3.49,0,0,1-.64-2.25,3.53,3.53,0,0,1,.64-2.26,2.38,2.38,0,0,1,3.63.06h.07l0-.42,0-.41v-2.4h.89v8.36h-.72Zm-1.78.15a1.61,1.61,0,0,0,1.32-.5,2.52,2.52,0,0,0,.41-1.6v-.19a2.91,2.91,0,0,0-.42-1.78,1.54,1.54,0,0,0-1.32-.54,1.34,1.34,0,0,0-1.2.61,3,3,0,0,0-.42,1.72,2.94,2.94,0,0,0,.41,1.7A1.4,1.4,0,0,0,343.67,243.44Z"/><path d="M350.67,244.19a2.7,2.7,0,0,1-2.06-.8,3.1,3.1,0,0,1-.75-2.21,3.4,3.4,0,0,1,.7-2.26,2.31,2.31,0,0,1,1.88-.84,2.23,2.23,0,0,1,1.75.73,2.81,2.81,0,0,1,.65,1.92v.57h-4.06a2.34,2.34,0,0,0,.52,1.57,1.82,1.82,0,0,0,1.4.54,4.81,4.81,0,0,0,1.88-.4v.79a4.44,4.44,0,0,1-.89.3A5,5,0,0,1,350.67,244.19Zm-.24-5.36a1.45,1.45,0,0,0-1.13.46,2.16,2.16,0,0,0-.5,1.28h3.08a2,2,0,0,0-.38-1.29A1.32,1.32,0,0,0,350.43,238.83Z"/><path d="M360.11,244.08h-.87v-5.6c0-.46,0-.9,0-1.32-.07.08-.16.15-.25.24l-1.28,1-.47-.61,2.08-1.6h.75Z"/><rect x="403.5" y="156.62" width="95" height="70" rx="5.24" fill="#0399ff"/><path d="M438.43,172.39H419.5a1.36,1.36,0,0,0-1.35,1.35v18.93A1.36,1.36,0,0,0,419.5,194h18.93a1.36,1.36,0,0,0,1.35-1.35V173.74A1.36,1.36,0,0,0,438.43,172.39Zm-13.67,18h-2.4V176h2.4Zm5.41,0h-2.41V176h2.41Zm5.41,0h-2.41V176h2.41Z" fill="#fff"/><path d="M482.43,172.39H463.5a1.36,1.36,0,0,0-1.35,1.35v18.93A1.36,1.36,0,0,0,463.5,194h18.93a1.36,1.36,0,0,0,1.35-1.35V173.74A1.36,1.36,0,0,0,482.43,172.39Zm-13.67,18h-2.4V176h2.4Zm5.41,0h-2.41V176h2.41Zm5.41,0h-2.41V176h2.41Z" fill="#fff"/><circle cx="445.65" cy="183.21" r="1.4" fill="#fff"/><circle cx="451.25" cy="183.21" r="1.4" fill="#fff"/><circle cx="456.85" cy="183.21" r="1.4" fill="#fff"/><path d="M427.55,204.81a2.58,2.58,0,0,0-2,.86,3.48,3.48,0,0,0-.75,2.36,3.59,3.59,0,0,0,.72,2.39,2.57,2.57,0,0,0,2.06.84,7,7,0,0,0,1.88-.3v.8a5.92,5.92,0,0,1-2,.31,3.4,3.4,0,0,1-2.68-1.06,4.37,4.37,0,0,1-.94-3,4.64,4.64,0,0,1,.46-2.13,3.28,3.28,0,0,1,1.31-1.4,3.94,3.94,0,0,1,2-.5,4.71,4.71,0,0,1,2.16.46l-.38.78A4.18,4.18,0,0,0,427.55,204.81Z" fill="#fff"/><path d="M436.08,209a3.27,3.27,0,0,1-.73,2.25,2.54,2.54,0,0,1-2,.81,2.68,2.68,0,0,1-1.4-.37,2.48,2.48,0,0,1-.95-1.07,3.72,3.72,0,0,1-.33-1.62,3.23,3.23,0,0,1,.72-2.24,2.53,2.53,0,0,1,2-.81,2.49,2.49,0,0,1,2,.83A3.24,3.24,0,0,1,436.08,209Zm-4.49,0a2.82,2.82,0,0,0,.45,1.72,1.79,1.79,0,0,0,2.66,0,3.49,3.49,0,0,0,0-3.43,1.61,1.61,0,0,0-1.34-.58,1.55,1.55,0,0,0-1.32.58A2.73,2.73,0,0,0,431.59,209Z" fill="#fff"/><path d="M441.67,212v-3.81a1.51,1.51,0,0,0-.33-1.07,1.33,1.33,0,0,0-1-.36,1.71,1.71,0,0,0-1.35.5,2.49,2.49,0,0,0-.43,1.65V212h-.89v-5.89h.72l.15.81h0a1.89,1.89,0,0,1,.77-.68,2.5,2.5,0,0,1,1.1-.24,2.25,2.25,0,0,1,1.6.52,2.17,2.17,0,0,1,.54,1.64V212Z" fill="#fff"/><path d="M446.29,211.33a3.44,3.44,0,0,0,.46,0l.35-.08v.69a2,2,0,0,1-.43.11,3.36,3.36,0,0,1-.51,0c-1.14,0-1.7-.6-1.7-1.8v-3.5h-.85v-.43l.85-.38.37-1.25h.52v1.36h1.7v.7h-1.7v3.46a1.2,1.2,0,0,0,.25.82A.88.88,0,0,0,446.29,211.33Z" fill="#fff"/><path d="M451.89,212l-.17-.84h-.05a2.43,2.43,0,0,1-.87.75,2.74,2.74,0,0,1-1.1.2,2,2,0,0,1-1.37-.45,1.67,1.67,0,0,1-.5-1.29c0-1.19.95-1.81,2.86-1.87l1,0v-.37a1.48,1.48,0,0,0-.29-1,1.24,1.24,0,0,0-1-.33,3.88,3.88,0,0,0-1.66.45l-.28-.68a4.28,4.28,0,0,1,2-.5,2.25,2.25,0,0,1,1.56.46,1.94,1.94,0,0,1,.5,1.5v4Zm-2-.63a1.79,1.79,0,0,0,1.31-.46,1.7,1.7,0,0,0,.47-1.27v-.54l-.89,0a3.34,3.34,0,0,0-1.53.33,1,1,0,0,0-.47.91,1,1,0,0,0,.29.74A1.22,1.22,0,0,0,449.88,211.33Z" fill="#fff"/><path d="M454.32,204.48a.58.58,0,0,1,.15-.45.56.56,0,0,1,.74,0,.71.71,0,0,1,0,.9.56.56,0,0,1-.74,0A.61.61,0,0,1,454.32,204.48Zm1,7.48h-.89v-5.89h.89Z" fill="#fff"/><path d="M461.2,212v-3.81a1.55,1.55,0,0,0-.32-1.07,1.34,1.34,0,0,0-1-.36,1.68,1.68,0,0,0-1.35.5,2.49,2.49,0,0,0-.43,1.65V212h-.9v-5.89h.73l.14.81h0a1.82,1.82,0,0,1,.77-.68A2.44,2.44,0,0,1,460,206a2.25,2.25,0,0,1,1.6.52,2.17,2.17,0,0,1,.53,1.64V212Z" fill="#fff"/><path d="M466.41,212.07a2.72,2.72,0,0,1-2.06-.8,3.08,3.08,0,0,1-.75-2.21,3.41,3.41,0,0,1,.7-2.26,2.32,2.32,0,0,1,1.88-.84,2.23,2.23,0,0,1,1.75.73,2.81,2.81,0,0,1,.65,1.92v.57h-4.06a2.3,2.3,0,0,0,.53,1.57,1.79,1.79,0,0,0,1.39.54,4.61,4.61,0,0,0,1.88-.4v.8a5.1,5.1,0,0,1-.89.29A5,5,0,0,1,466.41,212.07Zm-.24-5.36a1.48,1.48,0,0,0-1.13.46,2.16,2.16,0,0,0-.5,1.28h3.08a2,2,0,0,0-.37-1.29A1.34,1.34,0,0,0,466.17,206.71Z" fill="#fff"/><path d="M472.78,206a3.79,3.79,0,0,1,.71.07l-.13.83a2.66,2.66,0,0,0-.64-.08,1.54,1.54,0,0,0-1.22.58,2.08,2.08,0,0,0-.51,1.44V212h-.89v-5.89h.73l.1,1.09H471a2.52,2.52,0,0,1,.79-.88A1.75,1.75,0,0,1,472.78,206Z" fill="#fff"/><path d="M478.38,210.35a1.47,1.47,0,0,1-.61,1.27,2.86,2.86,0,0,1-1.72.45,3.78,3.78,0,0,1-1.82-.37v-.83a4.9,4.9,0,0,0,.91.34,3.85,3.85,0,0,0,.94.12,2.11,2.11,0,0,0,1.07-.22.75.75,0,0,0,.38-.68.73.73,0,0,0-.3-.59,4.75,4.75,0,0,0-1.17-.58,6.32,6.32,0,0,1-1.16-.53,1.61,1.61,0,0,1-.52-.52,1.36,1.36,0,0,1-.17-.69,1.34,1.34,0,0,1,.59-1.14,2.69,2.69,0,0,1,1.6-.42,4.63,4.63,0,0,1,1.86.39l-.32.73a4.13,4.13,0,0,0-1.6-.37,1.91,1.91,0,0,0-1,.2.63.63,0,0,0-.32.55.65.65,0,0,0,.12.4,1.19,1.19,0,0,0,.39.32,8.94,8.94,0,0,0,1,.43,4,4,0,0,1,1.42.77A1.37,1.37,0,0,1,478.38,210.35Z" fill="#fff"/><path d="M425.17,244.08h-.91v-3.7h-4.14v3.7h-.91v-7.85h.91v3.34h4.14v-3.34h.91Z"/><path d="M432.27,241.13a3.22,3.22,0,0,1-.73,2.25,2.54,2.54,0,0,1-2,.81,2.62,2.62,0,0,1-1.4-.38,2.46,2.46,0,0,1-.95-1.06,3.72,3.72,0,0,1-.33-1.62,3.23,3.23,0,0,1,.72-2.24,2.54,2.54,0,0,1,2-.81,2.48,2.48,0,0,1,2,.83A3.2,3.2,0,0,1,432.27,241.13Zm-4.49,0a2.75,2.75,0,0,0,.46,1.72,1.78,1.78,0,0,0,2.65,0,2.8,2.8,0,0,0,.45-1.72,2.77,2.77,0,0,0-.45-1.71,1.61,1.61,0,0,0-1.34-.58,1.56,1.56,0,0,0-1.32.58A2.73,2.73,0,0,0,427.78,241.13Z"/><path d="M437.63,242.47a1.47,1.47,0,0,1-.61,1.27,2.86,2.86,0,0,1-1.72.45,3.72,3.72,0,0,1-1.83-.38V243a5.5,5.5,0,0,0,.91.34,4,4,0,0,0,.94.12,2.08,2.08,0,0,0,1.07-.22.75.75,0,0,0,.38-.68.73.73,0,0,0-.3-.59,4.63,4.63,0,0,0-1.16-.58,6.16,6.16,0,0,1-1.17-.53,1.57,1.57,0,0,1-.51-.52,1.29,1.29,0,0,1-.17-.69,1.33,1.33,0,0,1,.58-1.14,2.72,2.72,0,0,1,1.61-.42,4.7,4.7,0,0,1,1.86.39l-.32.73a4.17,4.17,0,0,0-1.61-.37,1.84,1.84,0,0,0-.95.2.6.6,0,0,0-.33.55.62.62,0,0,0,.13.4,1.26,1.26,0,0,0,.38.32,9.34,9.34,0,0,0,1,.43,3.9,3.9,0,0,1,1.41.77A1.34,1.34,0,0,1,437.63,242.47Z"/><path d="M441,243.45a3.44,3.44,0,0,0,.46,0l.35-.08V244a1.51,1.51,0,0,1-.43.12,3.36,3.36,0,0,1-.51.05q-1.71,0-1.71-1.8v-3.51h-.84v-.42l.84-.38.38-1.25H440v1.36h1.7v.69H440v3.47a1.2,1.2,0,0,0,.25.82A.91.91,0,0,0,441,243.45Z"/><path d="M452.09,244.08h-1l-4.29-6.59h-.05q.09,1.15.09,2.13v4.46H446v-7.85h1l4.28,6.56h0c0-.1,0-.41-.05-.93s0-.9,0-1.13v-4.5h.86Z"/><path d="M459.19,241.13a3.27,3.27,0,0,1-.72,2.25,2.54,2.54,0,0,1-2,.81,2.66,2.66,0,0,1-1.41-.38,2.44,2.44,0,0,1-.94-1.06,3.72,3.72,0,0,1-.33-1.62,3.23,3.23,0,0,1,.72-2.24,2.8,2.8,0,0,1,4,0A3.24,3.24,0,0,1,459.19,241.13Zm-4.48,0a2.82,2.82,0,0,0,.45,1.72,1.57,1.57,0,0,0,1.33.59,1.6,1.6,0,0,0,1.33-.59,2.8,2.8,0,0,0,.45-1.72,2.77,2.77,0,0,0-.45-1.71,1.63,1.63,0,0,0-1.34-.58,1.54,1.54,0,0,0-1.32.58A2.73,2.73,0,0,0,454.71,241.13Z"/><path d="M464.76,243.29h0a2.11,2.11,0,0,1-1.85.9,2.21,2.21,0,0,1-1.8-.79,3.49,3.49,0,0,1-.64-2.25,3.53,3.53,0,0,1,.64-2.26,2.17,2.17,0,0,1,1.8-.81,2.15,2.15,0,0,1,1.84.87h.06l0-.42,0-.41v-2.4h.89v8.36h-.73Zm-1.78.15a1.61,1.61,0,0,0,1.32-.5,2.45,2.45,0,0,0,.42-1.6v-.19a2.91,2.91,0,0,0-.42-1.78,1.58,1.58,0,0,0-1.33-.54,1.36,1.36,0,0,0-1.2.61,3,3,0,0,0-.42,1.72,2.86,2.86,0,0,0,.42,1.7A1.38,1.38,0,0,0,463,243.44Z"/><path d="M470,244.19a2.68,2.68,0,0,1-2.05-.8,3.06,3.06,0,0,1-.76-2.21,3.4,3.4,0,0,1,.7-2.26,2.33,2.33,0,0,1,1.88-.84,2.26,2.26,0,0,1,1.76.73,2.85,2.85,0,0,1,.64,1.92v.57h-4.06a2.35,2.35,0,0,0,.53,1.57,1.81,1.81,0,0,0,1.4.54,4.85,4.85,0,0,0,1.88-.4v.79a4.74,4.74,0,0,1-.9.3A5,5,0,0,1,470,244.19Zm-.24-5.36a1.45,1.45,0,0,0-1.13.46,2.15,2.15,0,0,0-.49,1.28h3.07a2,2,0,0,0-.37-1.29A1.33,1.33,0,0,0,469.74,238.83Z"/><path d="M482.79,244.08h-1l-4.29-6.59h0c.06.77.08,1.48.08,2.13v4.46h-.84v-7.85h1l4.28,6.56h0c0-.1,0-.41,0-.93s0-.9,0-1.13v-4.5h.85Z"/><circle cx="249.87" cy="200.02" r="1.5"/><circle cx="255.87" cy="200.02" r="1.5"/><circle cx="261.87" cy="200.02" r="1.5"/><path d="M179.13,7.41a2.3,2.3,0,0,1-.89,1.91,3.86,3.86,0,0,1-2.42.68,6.06,6.06,0,0,1-2.53-.42v-1a6.42,6.42,0,0,0,1.24.38,6.76,6.76,0,0,0,1.33.14,2.74,2.74,0,0,0,1.63-.41A1.34,1.34,0,0,0,178,7.51a1.45,1.45,0,0,0-.19-.79,1.69,1.69,0,0,0-.65-.57,9.19,9.19,0,0,0-1.38-.59A4.37,4.37,0,0,1,174,4.46a2.4,2.4,0,0,1-.55-1.65,2,2,0,0,1,.8-1.71,3.32,3.32,0,0,1,2.13-.64,6.24,6.24,0,0,1,2.55.51l-.34.94a5.75,5.75,0,0,0-2.23-.48A2.13,2.13,0,0,0,175,1.8a1.2,1.2,0,0,0-.48,1,1.57,1.57,0,0,0,.18.79,1.56,1.56,0,0,0,.6.56,7.66,7.66,0,0,0,1.29.57,5.18,5.18,0,0,1,2,1.12A2.22,2.22,0,0,1,179.13,7.41Z"/><path d="M185.63,9.88V5.38a1.8,1.8,0,0,0-.39-1.27A1.57,1.57,0,0,0,184,3.69a2,2,0,0,0-1.61.6,3,3,0,0,0-.5,2V9.88h-1.06V0h1.06V3a7,7,0,0,1,0,.89h.06a2.22,2.22,0,0,1,.89-.79,2.9,2.9,0,0,1,1.31-.28,2.68,2.68,0,0,1,1.91.6,2.55,2.55,0,0,1,.64,1.93V9.88Z"/><path d="M193.12,9.88l-.21-1h0a2.91,2.91,0,0,1-1,.88,3,3,0,0,1-1.29.23,2.29,2.29,0,0,1-1.62-.53A1.94,1.94,0,0,1,188.32,8c0-1.4,1.13-2.14,3.37-2.21l1.18,0V5.28a1.73,1.73,0,0,0-.35-1.21,1.44,1.44,0,0,0-1.12-.39,4.52,4.52,0,0,0-2,.53l-.33-.81A5.65,5.65,0,0,1,190.23,3a5.17,5.17,0,0,1,1.23-.15,2.63,2.63,0,0,1,1.84.55,2.31,2.31,0,0,1,.6,1.77V9.88Zm-2.38-.75a2.15,2.15,0,0,0,1.55-.54,2,2,0,0,0,.56-1.51V6.46l-1.06,0a3.86,3.86,0,0,0-1.81.39A1.18,1.18,0,0,0,189.43,8a1.09,1.09,0,0,0,.34.87A1.44,1.44,0,0,0,190.74,9.13Z"/><path d="M199.25,2.79a4.17,4.17,0,0,1,.83.08l-.15,1a3.18,3.18,0,0,0-.76-.1,1.85,1.85,0,0,0-1.44.69,2.47,2.47,0,0,0-.6,1.7V9.88h-1.06v-7h.87l.12,1.29h.05a3.11,3.11,0,0,1,.94-1A2.13,2.13,0,0,1,199.25,2.79Z"/><path d="M204.32,10a3.2,3.2,0,0,1-2.44-.94,3.63,3.63,0,0,1-.89-2.6,4.05,4.05,0,0,1,.83-2.68,2.76,2.76,0,0,1,2.23-1,2.64,2.64,0,0,1,2.07.86,3.35,3.35,0,0,1,.76,2.27v.67h-4.8a2.8,2.8,0,0,0,.62,1.86,2.16,2.16,0,0,0,1.66.63,5.47,5.47,0,0,0,2.22-.47v.94a5.7,5.7,0,0,1-1.06.35A5.91,5.91,0,0,1,204.32,10ZM204,3.68a1.71,1.71,0,0,0-1.33.54,2.53,2.53,0,0,0-.59,1.51h3.64a2.28,2.28,0,0,0-.45-1.52A1.54,1.54,0,0,0,204,3.68Z"/><path d="M213.41,8.94h-.06A2.46,2.46,0,0,1,211.17,10,2.61,2.61,0,0,1,209,9.07a4.14,4.14,0,0,1-.75-2.65,4.14,4.14,0,0,1,.76-2.67,2.81,2.81,0,0,1,4.29.07h.08l0-.5,0-.49V0h1.06V9.88h-.86Zm-2.11.18a1.91,1.91,0,0,0,1.57-.59,3,3,0,0,0,.48-1.89V6.42a3.47,3.47,0,0,0-.49-2.11,1.87,1.87,0,0,0-1.57-.63,1.62,1.62,0,0,0-1.42.72,3.54,3.54,0,0,0-.49,2,3.39,3.39,0,0,0,.49,2A1.62,1.62,0,0,0,211.3,9.12Z"/><path d="M220.17,9.88V.6h1.08V8.9h4.1v1Z"/><path d="M232.77,6.39a3.85,3.85,0,0,1-.86,2.66,3,3,0,0,1-2.37.95,3.12,3.12,0,0,1-1.65-.43,2.93,2.93,0,0,1-1.12-1.26,4.45,4.45,0,0,1-.39-1.92,3.84,3.84,0,0,1,.85-2.65,3,3,0,0,1,2.36-1,3,3,0,0,1,2.32,1A3.86,3.86,0,0,1,232.77,6.39Zm-5.3,0a3.32,3.32,0,0,0,.53,2,1.85,1.85,0,0,0,1.57.7,1.87,1.87,0,0,0,1.57-.69,3.29,3.29,0,0,0,.54-2,3.21,3.21,0,0,0-.54-2,1.88,1.88,0,0,0-1.58-.69,1.83,1.83,0,0,0-1.56.68A3.2,3.2,0,0,0,227.47,6.39Z"/><path d="M238.89,9.88l-.21-1h-.05a2.89,2.89,0,0,1-1,.88,3.12,3.12,0,0,1-1.3.23,2.31,2.31,0,0,1-1.62-.53A1.94,1.94,0,0,1,234.1,8c0-1.4,1.12-2.14,3.37-2.21l1.18,0V5.28a1.73,1.73,0,0,0-.36-1.21,1.44,1.44,0,0,0-1.12-.39,4.52,4.52,0,0,0-2,.53l-.32-.81A5.33,5.33,0,0,1,236,3a5.17,5.17,0,0,1,1.23-.15,2.66,2.66,0,0,1,1.85.55,2.31,2.31,0,0,1,.59,1.77V9.88Zm-2.38-.75a2.13,2.13,0,0,0,1.55-.54,2,2,0,0,0,.56-1.51V6.46l-1.05,0a3.83,3.83,0,0,0-1.81.39A1.18,1.18,0,0,0,235.2,8a1.09,1.09,0,0,0,.35.87A1.41,1.41,0,0,0,236.51,9.13Z"/><path d="M246.58,8.94h-.06A2.45,2.45,0,0,1,244.34,10a2.57,2.57,0,0,1-2.12-.93,4.08,4.08,0,0,1-.76-2.65,4.14,4.14,0,0,1,.76-2.67,2.56,2.56,0,0,1,2.12-1,2.53,2.53,0,0,1,2.17,1h.08l0-.5,0-.49V0h1.06V9.88h-.86Zm-2.11.18A1.9,1.9,0,0,0,246,8.53a3,3,0,0,0,.48-1.89V6.42A3.47,3.47,0,0,0,246,4.31a1.86,1.86,0,0,0-1.57-.63A1.62,1.62,0,0,0,243,4.4a3.54,3.54,0,0,0-.49,2,3.39,3.39,0,0,0,.49,2A1.64,1.64,0,0,0,244.47,9.12Z"/><path d="M253.35.6H256a4.93,4.93,0,0,1,2.67.55,2,2,0,0,1,.83,1.74A2.08,2.08,0,0,1,259,4.26a2.25,2.25,0,0,1-1.35.69V5c1.41.25,2.12,1,2.12,2.23a2.39,2.39,0,0,1-.84,1.94,3.62,3.62,0,0,1-2.35.7h-3.24Zm1.08,4h1.78a2.89,2.89,0,0,0,1.64-.36,1.39,1.39,0,0,0,.5-1.21,1.22,1.22,0,0,0-.56-1.12A3.48,3.48,0,0,0,256,1.53h-1.58Zm0,.91V9h1.93a2.73,2.73,0,0,0,1.69-.44,1.6,1.6,0,0,0,.57-1.36A1.43,1.43,0,0,0,258,5.89a3.08,3.08,0,0,0-1.77-.41Z"/><path d="M265.89,9.88l-.21-1h-.05a2.91,2.91,0,0,1-1,.88,3,3,0,0,1-1.29.23,2.29,2.29,0,0,1-1.62-.53A1.94,1.94,0,0,1,261.09,8c0-1.4,1.13-2.14,3.37-2.21l1.18,0V5.28a1.73,1.73,0,0,0-.35-1.21,1.45,1.45,0,0,0-1.13-.39,4.48,4.48,0,0,0-2,.53l-.33-.81A5.65,5.65,0,0,1,263,3a5.17,5.17,0,0,1,1.23-.15,2.63,2.63,0,0,1,1.84.55,2.31,2.31,0,0,1,.6,1.77V9.88Zm-2.38-.75a2.15,2.15,0,0,0,1.55-.54,2,2,0,0,0,.56-1.51V6.46l-1.06,0a3.86,3.86,0,0,0-1.81.39A1.18,1.18,0,0,0,262.2,8a1.09,1.09,0,0,0,.34.87A1.44,1.44,0,0,0,263.51,9.13Z"/><path d="M269.9,9.88h-1.06V0h1.06Z"/><path d="M276.41,9.88l-.21-1h-.05a2.91,2.91,0,0,1-1,.88,3,3,0,0,1-1.29.23,2.29,2.29,0,0,1-1.62-.53A1.94,1.94,0,0,1,271.61,8c0-1.4,1.12-2.14,3.37-2.21l1.18,0V5.28a1.78,1.78,0,0,0-.35-1.21,1.46,1.46,0,0,0-1.13-.39,4.55,4.55,0,0,0-2,.53l-.32-.81A5.42,5.42,0,0,1,273.52,3a5.17,5.17,0,0,1,1.23-.15,2.63,2.63,0,0,1,1.84.55,2.31,2.31,0,0,1,.6,1.77V9.88ZM274,9.13a2.13,2.13,0,0,0,1.54-.54,2,2,0,0,0,.57-1.51V6.46l-1.06,0a3.83,3.83,0,0,0-1.81.39A1.18,1.18,0,0,0,272.71,8a1.09,1.09,0,0,0,.35.87A1.42,1.42,0,0,0,274,9.13Z"/><path d="M284.12,9.88V5.38a1.8,1.8,0,0,0-.39-1.27,1.56,1.56,0,0,0-1.21-.42,2,2,0,0,0-1.6.59,3,3,0,0,0-.51,2V9.88h-1.05v-7h.86l.17,1h.05a2.13,2.13,0,0,1,.91-.79,2.92,2.92,0,0,1,1.3-.29,2.65,2.65,0,0,1,1.89.61,2.59,2.59,0,0,1,.63,1.94V9.88Z"/><path d="M290.12,10a3,3,0,0,1-2.34-.93A3.82,3.82,0,0,1,287,6.44a3.92,3.92,0,0,1,.84-2.69,3,3,0,0,1,2.4-1,4.86,4.86,0,0,1,1,.11,3.52,3.52,0,0,1,.79.25l-.32.9a5.36,5.36,0,0,0-.77-.23,3.37,3.37,0,0,0-.73-.09c-1.41,0-2.12.9-2.12,2.7a3.26,3.26,0,0,0,.52,2,1.8,1.8,0,0,0,1.53.68,4.7,4.7,0,0,0,1.79-.37v.93A3.83,3.83,0,0,1,290.12,10Z"/><path d="M296.47,10A3.2,3.2,0,0,1,294,9.06a3.63,3.63,0,0,1-.89-2.6A4.05,4.05,0,0,1,294,3.78a2.74,2.74,0,0,1,2.22-1,2.61,2.61,0,0,1,2.07.86A3.3,3.3,0,0,1,299,5.92v.67h-4.8a2.75,2.75,0,0,0,.62,1.86,2.14,2.14,0,0,0,1.65.63,5.52,5.52,0,0,0,2.23-.47v.94a4.93,4.93,0,0,1-2.26.45Zm-.29-6.32a1.71,1.71,0,0,0-1.33.54,2.47,2.47,0,0,0-.59,1.51h3.64a2.28,2.28,0,0,0-.45-1.52A1.54,1.54,0,0,0,296.18,3.68Z"/><path d="M304,2.79a4.25,4.25,0,0,1,.83.08l-.15,1a3.24,3.24,0,0,0-.76-.1,1.85,1.85,0,0,0-1.44.69,2.47,2.47,0,0,0-.6,1.7V9.88h-1.06v-7h.87l.12,1.29h.05a3.11,3.11,0,0,1,.94-1A2.13,2.13,0,0,1,304,2.79Z"/><path d="M308.91,6.32a9.72,9.72,0,0,1,.49-3.15A7.74,7.74,0,0,1,310.82.6h1a8.91,8.91,0,0,0-1.38,2.69,10.22,10.22,0,0,0-.46,3,9.72,9.72,0,0,0,.47,3,9.36,9.36,0,0,0,1.36,2.65h-1a7.42,7.42,0,0,1-1.42-2.52A9.44,9.44,0,0,1,308.91,6.32Z"/><path d="M318.75,7.41a2.3,2.3,0,0,1-.89,1.91,3.83,3.83,0,0,1-2.41.68,6.11,6.11,0,0,1-2.54-.42v-1a6.42,6.42,0,0,0,1.24.38,6.78,6.78,0,0,0,1.34.14,2.68,2.68,0,0,0,1.62-.41,1.35,1.35,0,0,0,.55-1.14,1.44,1.44,0,0,0-.2-.79,1.73,1.73,0,0,0-.64-.57,9.9,9.9,0,0,0-1.39-.59,4.37,4.37,0,0,1-1.85-1.1A2.4,2.4,0,0,1,313,2.81a2.07,2.07,0,0,1,.8-1.71A3.33,3.33,0,0,1,316,.46a6.23,6.23,0,0,1,2.54.51l-.33.94a5.79,5.79,0,0,0-2.24-.48,2.13,2.13,0,0,0-1.34.37,1.2,1.2,0,0,0-.48,1,1.57,1.57,0,0,0,.18.79,1.72,1.72,0,0,0,.6.56,7.66,7.66,0,0,0,1.29.57,5.18,5.18,0,0,1,2,1.12A2.18,2.18,0,0,1,318.75,7.41Z"/><path d="M320.65,9.88V.6h1.08V8.9h4.09v1Z"/><path d="M327.39.6H330a4.93,4.93,0,0,1,2.67.55,1.94,1.94,0,0,1,.82,1.74,2,2,0,0,1-.46,1.37,2.19,2.19,0,0,1-1.34.69V5c1.41.25,2.11,1,2.11,2.23A2.39,2.39,0,0,1,333,9.18a3.6,3.6,0,0,1-2.35.7h-3.24Zm1.08,4h1.78a2.86,2.86,0,0,0,1.64-.36A1.37,1.37,0,0,0,332.4,3a1.22,1.22,0,0,0-.56-1.12,3.53,3.53,0,0,0-1.78-.35h-1.59Zm0,.91V9h1.94a2.75,2.75,0,0,0,1.69-.44,1.6,1.6,0,0,0,.57-1.36,1.43,1.43,0,0,0-.58-1.27,3.13,3.13,0,0,0-1.77-.41Z"/><path d="M337.87,6.32a9.79,9.79,0,0,1-.49,3.11,7.57,7.57,0,0,1-1.42,2.5h-1a9,9,0,0,0,1.35-2.65,9.43,9.43,0,0,0,.47-3,9.9,9.9,0,0,0-.46-3A8.66,8.66,0,0,0,334.93.6h1a7.88,7.88,0,0,1,1.42,2.58A10,10,0,0,1,337.87,6.32Z"/></svg>