<?xml version="1.0" encoding="utf-8"?>
<!-- Generator: Adobe Illustrator 21.1.0, SVG Export Plug-In . SVG Version: 6.00 Build 0)  -->
<svg version="1.1" id="Слой_1" xmlns="http://www.w3.org/2000/svg" xmlns:xlink="http://www.w3.org/1999/xlink" x="0px" y="0px"
	 width="260px" height="125px" viewBox="0 0 260 125" enable-background="new 0 0 260 125" xml:space="preserve">
<g>
	<path fill="#61697F" d="M109.013,5.682h-97c-1.65,0-3,1.391-3,3.09v107.137c0,1.7,1.35,3.091,3,3.091h97c1.65,0,3-1.391,3-3.091
		V8.772C112.013,7.073,110.664,5.682,109.013,5.682z M111.013,108.759c0,1.1-0.9,2-2,2h-97c-1.1,0-2-0.9-2-2V8.712c0-1.1,0.9-2,2-2
		h97c1.1,0,2,0.9,2,2V108.759z"/>
	<path fill="#F4B400" d="M36.672,56.563c-9.985,0-18.078,3.906-18.078,8.725v25.128c0,4.818,8.094,8.725,18.078,8.725
		c9.984,0,18.078-3.906,18.078-8.725V65.288C54.751,60.469,46.657,56.563,36.672,56.563z M36.75,71.772c-9.113,0-16.5-3.134-16.5-7
		c0-3.866,7.387-7,16.5-7s16.5,3.134,16.5,7C53.25,68.638,45.863,71.772,36.75,71.772z"/>
	<path fill="#00B796" d="M100.078,14.223H72.841c-1.65,0-3,1.35-3,3V44.46c0,1.65,1.35,3,3,3h27.237c1.65,0,3-1.35,3-3V17.223
		C103.078,15.573,101.728,14.223,100.078,14.223z M79.997,41.92h-3.693V19.762h3.693V41.92z M88.306,41.92h-3.693V19.762h3.693
		V41.92z M96.616,41.92h-3.693V19.762h3.693V41.92z"/>
	<g>
		<path fill="#B3B3B3" d="M73.233,97.318h25.918c1.402,0,2.541-1.065,2.541-2.377V58.335c0-1.312-1.138-2.377-2.541-2.377H73.233
			c-1.402,0-2.541,1.065-2.541,2.377v36.607C70.692,96.253,71.831,97.318,73.233,97.318L73.233,97.318z M97.317,94.399
			c-0.844,0-1.525-0.637-1.525-1.426c0-0.789,0.681-1.426,1.525-1.426c0.843,0,1.525,0.637,1.525,1.426
			C98.841,93.762,98.16,94.399,97.317,94.399L97.317,94.399z M97.317,59.19c0.843,0,1.525,0.637,1.525,1.426
			c0,0.789-0.681,1.426-1.525,1.426c-0.844,0-1.525-0.637-1.525-1.426C95.792,59.827,96.473,59.19,97.317,59.19L97.317,59.19z
			 M86.192,60.255c6.586,0,11.928,4.996,11.928,11.158c0,6.162-5.341,11.158-11.928,11.158c-1.037,0-2.043-0.123-3.004-0.357
			l2.241-3.556c0.666-1.056-0.61-2.254-1.738-1.626l-5.199,2.867c-0.01,0.005-0.015,0.01-0.02,0.014
			c-2.571-2.044-4.203-5.097-4.203-8.501C74.265,65.252,79.606,60.255,86.192,60.255L86.192,60.255z M75.373,59.19
			c0.844,0,1.525,0.637,1.525,1.426c0,0.789-0.681,1.426-1.525,1.426c-0.844,0-1.525-0.637-1.525-1.426
			C73.848,59.827,74.529,59.19,75.373,59.19L75.373,59.19z M75.373,91.547c0.844,0,1.525,0.637,1.525,1.426
			c0,0.789-0.681,1.426-1.525,1.426c-0.844,0-1.525-0.637-1.525-1.426C73.848,92.189,74.529,91.547,75.373,91.547L75.373,91.547z
			 M75.373,91.547"/>
		<path fill="#B3B3B3" d="M89.379,71.413c0,1.646-1.427,2.981-3.186,2.981c-1.76,0-3.186-1.335-3.186-2.981
			c0-1.646,1.427-2.981,3.186-2.981C87.952,68.432,89.379,69.767,89.379,71.413L89.379,71.413z M89.379,71.413"/>
	</g>
	<g>
		<path d="M58.789,101h0.793l-2.283,6.333h-0.728L54.302,101h0.78l1.455,4.098c0.167,0.471,0.3,0.928,0.399,1.373
			c0.104-0.468,0.24-0.934,0.407-1.399L58.789,101z"/>
		<path d="M63.255,107.333l-2.149-5.614h-0.035c0.04,0.445,0.061,0.973,0.061,1.585v4.029h-0.68V101h1.109l2.006,5.224h0.035
			L65.625,101h1.1v6.333h-0.736v-4.081c0-0.468,0.02-0.976,0.061-1.525h-0.035l-2.166,5.605H63.255z"/>
	</g>
	<path fill="#61697F" d="M190.741,5.682h-47.472c-1.1,0-2,0.9-2,2v49.472c0,1.1,0.9,2,2,2h47.472c1.1,0,2-0.9,2-2V7.682
		C192.741,6.582,191.841,5.682,190.741,5.682z M192.005,54.418c0,1.1-0.9,2-2,2h-46c-1.1,0-2-0.9-2-2v-46c0-1.1,0.9-2,2-2h46
		c1.1,0,2,0.9,2,2V54.418z"/>
	<path fill="#61697F" d="M190.741,65.528h-47.472c-1.1,0-2,0.9-2,2V117c0,1.1,0.9,2,2,2h47.472c1.1,0,2-0.9,2-2V67.528
		C192.741,66.428,191.841,65.528,190.741,65.528z M192.005,114.264c0,1.1-0.9,2-2,2h-46c-1.1,0-2-0.9-2-2v-46c0-1.1,0.9-2,2-2h46
		c1.1,0,2,0.9,2,2V114.264z"/>
	<g>
		<path d="M155.362,53.392c-0.465,0-0.825-0.143-1.08-0.43c-0.255-0.285-0.383-0.69-0.383-1.214c0-0.537,0.13-0.952,0.389-1.245
			s0.627-0.439,1.105-0.439c0.154,0,0.309,0.017,0.463,0.05s0.275,0.072,0.363,0.117l-0.148,0.413
			c-0.107-0.043-0.225-0.078-0.352-0.107c-0.127-0.027-0.24-0.042-0.338-0.042c-0.652,0-0.979,0.416-0.979,1.248
			c0,0.395,0.08,0.697,0.239,0.908s0.396,0.316,0.708,0.316c0.268,0,0.541-0.058,0.822-0.173v0.431
			C155.958,53.336,155.688,53.392,155.362,53.392z"/>
		<path d="M159.706,51.725c0,0.523-0.131,0.933-0.395,1.226c-0.264,0.295-0.629,0.441-1.094,0.441c-0.287,0-0.541-0.067-0.764-0.202
			s-0.395-0.328-0.516-0.58s-0.182-0.547-0.182-0.885c0-0.523,0.131-0.931,0.393-1.224c0.262-0.291,0.625-0.438,1.09-0.438
			c0.449,0,0.806,0.149,1.07,0.448S159.706,51.215,159.706,51.725z M157.26,51.725c0,0.41,0.082,0.723,0.246,0.938
			s0.404,0.322,0.723,0.322s0.561-0.106,0.726-0.321c0.165-0.213,0.247-0.526,0.247-0.938c0-0.408-0.082-0.718-0.247-0.931
			c-0.165-0.211-0.409-0.317-0.731-0.317c-0.318,0-0.559,0.104-0.721,0.313S157.26,51.311,157.26,51.725z"/>
		<path d="M162.756,53.333v-2.077c0-0.262-0.061-0.457-0.18-0.586s-0.305-0.193-0.559-0.193c-0.336,0-0.582,0.091-0.738,0.272
			s-0.234,0.481-0.234,0.899v1.685h-0.486v-3.211h0.395l0.08,0.439h0.023c0.1-0.158,0.238-0.28,0.418-0.367s0.381-0.131,0.602-0.131
			c0.387,0,0.678,0.094,0.873,0.279c0.195,0.188,0.293,0.485,0.293,0.896v2.095H162.756z"/>
		<path d="M165.278,52.99c0.086,0,0.169-0.006,0.249-0.019s0.144-0.026,0.19-0.04v0.372c-0.053,0.025-0.131,0.046-0.232,0.062
			c-0.104,0.017-0.195,0.025-0.277,0.025c-0.621,0-0.932-0.327-0.932-0.981V50.5h-0.46v-0.234l0.46-0.202l0.205-0.686h0.281v0.744
			h0.932V50.5h-0.932v1.89c0,0.193,0.046,0.342,0.138,0.445S165.118,52.99,165.278,52.99z"/>
		<path d="M168.335,53.333l-0.097-0.457h-0.023c-0.16,0.201-0.32,0.338-0.479,0.408c-0.159,0.071-0.357,0.107-0.596,0.107
			c-0.318,0-0.568-0.082-0.748-0.246c-0.182-0.164-0.271-0.397-0.271-0.7c0-0.648,0.519-0.988,1.556-1.02l0.545-0.018v-0.199
			c0-0.252-0.054-0.438-0.163-0.558c-0.107-0.121-0.281-0.181-0.52-0.181c-0.268,0-0.57,0.082-0.908,0.246l-0.149-0.372
			c0.158-0.086,0.331-0.153,0.521-0.202c0.188-0.049,0.377-0.073,0.566-0.073c0.383,0,0.666,0.085,0.852,0.255
			c0.184,0.17,0.276,0.442,0.276,0.817v2.191H168.335z M167.236,52.99c0.303,0,0.54-0.083,0.714-0.249
			c0.172-0.166,0.259-0.398,0.259-0.697v-0.29l-0.486,0.021c-0.387,0.014-0.666,0.074-0.837,0.18
			c-0.171,0.107-0.256,0.272-0.256,0.497c0,0.176,0.053,0.31,0.16,0.401C166.895,52.944,167.044,52.99,167.236,52.99z"/>
		<path d="M169.655,49.252c0-0.111,0.027-0.192,0.082-0.245c0.055-0.051,0.123-0.077,0.205-0.077c0.078,0,0.146,0.026,0.202,0.079
			s0.085,0.134,0.085,0.243s-0.028,0.191-0.085,0.245s-0.124,0.08-0.202,0.08c-0.082,0-0.15-0.026-0.205-0.08
			S169.655,49.361,169.655,49.252z M170.182,53.333h-0.486v-3.211h0.486V53.333z"/>
		<path d="M173.411,53.333v-2.077c0-0.262-0.06-0.457-0.179-0.586s-0.306-0.193-0.56-0.193c-0.336,0-0.582,0.091-0.738,0.272
			s-0.234,0.481-0.234,0.899v1.685h-0.486v-3.211h0.396l0.079,0.439h0.023c0.1-0.158,0.239-0.28,0.419-0.367s0.38-0.131,0.601-0.131
			c0.387,0,0.678,0.094,0.873,0.279c0.195,0.188,0.293,0.485,0.293,0.896v2.095H173.411z"/>
		<path d="M176.253,53.392c-0.475,0-0.85-0.145-1.124-0.434s-0.411-0.69-0.411-1.204c0-0.518,0.128-0.929,0.382-1.233
			c0.256-0.305,0.598-0.457,1.027-0.457c0.402,0,0.721,0.133,0.955,0.396c0.234,0.266,0.352,0.614,0.352,1.048v0.308h-2.212
			c0.01,0.377,0.104,0.663,0.286,0.858c0.18,0.195,0.435,0.293,0.763,0.293c0.346,0,0.688-0.072,1.025-0.217v0.434
			c-0.172,0.074-0.335,0.128-0.487,0.159C176.655,53.376,176.47,53.392,176.253,53.392z M176.122,50.471
			c-0.258,0-0.464,0.084-0.617,0.252s-0.243,0.4-0.271,0.697h1.679c0-0.307-0.068-0.541-0.205-0.704S176.376,50.471,176.122,50.471z
			"/>
		<path d="M179.727,50.063c0.143,0,0.271,0.012,0.384,0.035l-0.067,0.451c-0.133-0.029-0.25-0.044-0.352-0.044
			c-0.26,0-0.482,0.105-0.666,0.316c-0.186,0.211-0.277,0.474-0.277,0.788v1.723h-0.486v-3.211h0.401l0.056,0.595h0.023
			c0.119-0.209,0.263-0.37,0.431-0.483S179.526,50.063,179.727,50.063z"/>
	</g>
	<g>
		<path d="M155.362,114.392c-0.465,0-0.825-0.143-1.08-0.43c-0.255-0.285-0.383-0.69-0.383-1.214c0-0.537,0.13-0.952,0.389-1.245
			s0.627-0.439,1.105-0.439c0.154,0,0.309,0.017,0.463,0.05s0.275,0.072,0.363,0.117l-0.148,0.413
			c-0.107-0.043-0.225-0.078-0.352-0.107c-0.127-0.027-0.24-0.042-0.338-0.042c-0.652,0-0.979,0.416-0.979,1.248
			c0,0.395,0.08,0.697,0.239,0.908s0.396,0.316,0.708,0.316c0.268,0,0.541-0.058,0.822-0.173v0.431
			C155.958,114.336,155.688,114.392,155.362,114.392z"/>
		<path d="M159.706,112.725c0,0.523-0.131,0.933-0.395,1.226c-0.264,0.295-0.629,0.441-1.094,0.441
			c-0.287,0-0.541-0.067-0.764-0.202s-0.395-0.328-0.516-0.58s-0.182-0.547-0.182-0.885c0-0.523,0.131-0.931,0.393-1.224
			c0.262-0.291,0.625-0.438,1.09-0.438c0.449,0,0.806,0.149,1.07,0.448S159.706,112.215,159.706,112.725z M157.26,112.725
			c0,0.41,0.082,0.723,0.246,0.938s0.404,0.322,0.723,0.322s0.561-0.106,0.726-0.321c0.165-0.213,0.247-0.526,0.247-0.938
			c0-0.408-0.082-0.718-0.247-0.931c-0.165-0.211-0.409-0.317-0.731-0.317c-0.318,0-0.559,0.104-0.721,0.313
			S157.26,112.311,157.26,112.725z"/>
		<path d="M162.756,114.333v-2.077c0-0.262-0.061-0.457-0.18-0.586s-0.305-0.193-0.559-0.193c-0.336,0-0.582,0.091-0.738,0.272
			s-0.234,0.481-0.234,0.899v1.685h-0.486v-3.211h0.395l0.08,0.439h0.023c0.1-0.158,0.238-0.28,0.418-0.367s0.381-0.131,0.602-0.131
			c0.387,0,0.678,0.094,0.873,0.279c0.195,0.188,0.293,0.485,0.293,0.896v2.095H162.756z"/>
		<path d="M165.278,113.99c0.086,0,0.169-0.006,0.249-0.019s0.144-0.026,0.19-0.04v0.372c-0.053,0.025-0.131,0.046-0.232,0.062
			c-0.104,0.017-0.195,0.025-0.277,0.025c-0.621,0-0.932-0.327-0.932-0.981v-1.91h-0.46v-0.234l0.46-0.202l0.205-0.686h0.281v0.744
			h0.932v0.378h-0.932v1.89c0,0.193,0.046,0.342,0.138,0.445S165.118,113.99,165.278,113.99z"/>
		<path d="M168.335,114.333l-0.097-0.457h-0.023c-0.16,0.201-0.32,0.338-0.479,0.408c-0.159,0.071-0.357,0.107-0.596,0.107
			c-0.318,0-0.568-0.082-0.748-0.246c-0.182-0.164-0.271-0.397-0.271-0.7c0-0.648,0.519-0.988,1.556-1.02l0.545-0.018v-0.199
			c0-0.252-0.054-0.438-0.163-0.558c-0.107-0.121-0.281-0.181-0.52-0.181c-0.268,0-0.57,0.082-0.908,0.246l-0.149-0.372
			c0.158-0.086,0.331-0.153,0.521-0.202c0.188-0.049,0.377-0.073,0.566-0.073c0.383,0,0.666,0.085,0.852,0.255
			c0.184,0.17,0.276,0.442,0.276,0.817v2.191H168.335z M167.236,113.99c0.303,0,0.54-0.083,0.714-0.249
			c0.172-0.166,0.259-0.398,0.259-0.697v-0.29l-0.486,0.021c-0.387,0.014-0.666,0.074-0.837,0.18
			c-0.171,0.107-0.256,0.272-0.256,0.497c0,0.176,0.053,0.31,0.16,0.401C166.895,113.944,167.044,113.99,167.236,113.99z"/>
		<path d="M169.655,110.252c0-0.111,0.027-0.192,0.082-0.245c0.055-0.051,0.123-0.077,0.205-0.077c0.078,0,0.146,0.026,0.202,0.079
			s0.085,0.134,0.085,0.243s-0.028,0.191-0.085,0.245s-0.124,0.08-0.202,0.08c-0.082,0-0.15-0.026-0.205-0.08
			S169.655,110.361,169.655,110.252z M170.182,114.333h-0.486v-3.211h0.486V114.333z"/>
		<path d="M173.411,114.333v-2.077c0-0.262-0.06-0.457-0.179-0.586s-0.306-0.193-0.56-0.193c-0.336,0-0.582,0.091-0.738,0.272
			s-0.234,0.481-0.234,0.899v1.685h-0.486v-3.211h0.396l0.079,0.439h0.023c0.1-0.158,0.239-0.28,0.419-0.367s0.38-0.131,0.601-0.131
			c0.387,0,0.678,0.094,0.873,0.279c0.195,0.188,0.293,0.485,0.293,0.896v2.095H173.411z"/>
		<path d="M176.253,114.392c-0.475,0-0.85-0.145-1.124-0.434s-0.411-0.69-0.411-1.204c0-0.518,0.128-0.929,0.382-1.233
			c0.256-0.305,0.598-0.457,1.027-0.457c0.402,0,0.721,0.133,0.955,0.396c0.234,0.266,0.352,0.614,0.352,1.048v0.308h-2.212
			c0.01,0.377,0.104,0.663,0.286,0.858c0.18,0.195,0.435,0.293,0.763,0.293c0.346,0,0.688-0.072,1.025-0.217v0.434
			c-0.172,0.074-0.335,0.128-0.487,0.159C176.655,114.376,176.47,114.392,176.253,114.392z M176.122,111.471
			c-0.258,0-0.464,0.084-0.617,0.252s-0.243,0.4-0.271,0.697h1.679c0-0.307-0.068-0.541-0.205-0.704
			S176.376,111.471,176.122,111.471z"/>
		<path d="M179.727,111.063c0.143,0,0.271,0.012,0.384,0.035l-0.067,0.451c-0.133-0.029-0.25-0.044-0.352-0.044
			c-0.26,0-0.482,0.105-0.666,0.316c-0.186,0.211-0.277,0.474-0.277,0.788v1.723h-0.486v-3.211h0.401l0.056,0.595h0.023
			c0.119-0.209,0.263-0.37,0.431-0.483S179.526,111.063,179.727,111.063z"/>
	</g>
	<path fill="#61697F" d="M249.811,5.682h-47.472c-1.1,0-2,0.9-2,2v49.472c0,1.1,0.9,2,2,2h47.472c1.1,0,2-0.9,2-2V7.682
		C251.811,6.582,250.911,5.682,249.811,5.682z M251.075,54.418c0,1.1-0.9,2-2,2h-46c-1.1,0-2-0.9-2-2v-46c0-1.1,0.9-2,2-2h46
		c1.1,0,2,0.9,2,2V54.418z"/>
	<path fill="#61697F" d="M249.811,65.528h-47.472c-1.1,0-2,0.9-2,2V117c0,1.1,0.9,2,2,2h47.472c1.1,0,2-0.9,2-2V67.528
		C251.811,66.428,250.911,65.528,249.811,65.528z M251.075,114.264c0,1.1-0.9,2-2,2h-46c-1.1,0-2-0.9-2-2v-46c0-1.1,0.9-2,2-2h46
		c1.1,0,2,0.9,2,2V114.264z"/>
	<g>
		<path d="M214.432,53.392c-0.465,0-0.825-0.143-1.08-0.43c-0.255-0.285-0.383-0.69-0.383-1.214c0-0.537,0.13-0.952,0.389-1.245
			s0.627-0.439,1.105-0.439c0.154,0,0.309,0.017,0.463,0.05s0.275,0.072,0.363,0.117l-0.148,0.413
			c-0.107-0.043-0.225-0.078-0.352-0.107c-0.127-0.027-0.24-0.042-0.338-0.042c-0.652,0-0.979,0.416-0.979,1.248
			c0,0.395,0.08,0.697,0.239,0.908s0.396,0.316,0.708,0.316c0.268,0,0.541-0.058,0.822-0.173v0.431
			C215.028,53.336,214.758,53.392,214.432,53.392z"/>
		<path d="M218.776,51.725c0,0.523-0.131,0.933-0.395,1.226c-0.264,0.295-0.629,0.441-1.094,0.441c-0.287,0-0.541-0.067-0.764-0.202
			s-0.395-0.328-0.516-0.58s-0.182-0.547-0.182-0.885c0-0.523,0.131-0.931,0.393-1.224c0.262-0.291,0.625-0.438,1.09-0.438
			c0.449,0,0.806,0.149,1.07,0.448S218.776,51.215,218.776,51.725z M216.33,51.725c0,0.41,0.082,0.723,0.246,0.938
			s0.404,0.322,0.723,0.322s0.561-0.106,0.726-0.321c0.165-0.213,0.247-0.526,0.247-0.938c0-0.408-0.082-0.718-0.247-0.931
			c-0.165-0.211-0.409-0.317-0.731-0.317c-0.318,0-0.559,0.104-0.721,0.313S216.33,51.311,216.33,51.725z"/>
		<path d="M221.827,53.333v-2.077c0-0.262-0.061-0.457-0.18-0.586s-0.305-0.193-0.559-0.193c-0.336,0-0.582,0.091-0.738,0.272
			s-0.234,0.481-0.234,0.899v1.685h-0.486v-3.211h0.395l0.08,0.439h0.023c0.1-0.158,0.238-0.28,0.418-0.367s0.381-0.131,0.602-0.131
			c0.387,0,0.678,0.094,0.873,0.279c0.195,0.188,0.293,0.485,0.293,0.896v2.095H221.827z"/>
		<path d="M224.348,52.99c0.086,0,0.169-0.006,0.249-0.019s0.144-0.026,0.19-0.04v0.372c-0.053,0.025-0.131,0.046-0.232,0.062
			c-0.104,0.017-0.195,0.025-0.277,0.025c-0.621,0-0.932-0.327-0.932-0.981V50.5h-0.46v-0.234l0.46-0.202l0.205-0.686h0.281v0.744
			h0.932V50.5h-0.932v1.89c0,0.193,0.046,0.342,0.138,0.445S224.188,52.99,224.348,52.99z"/>
		<path d="M227.405,53.333l-0.097-0.457h-0.023c-0.16,0.201-0.32,0.338-0.479,0.408c-0.159,0.071-0.357,0.107-0.596,0.107
			c-0.318,0-0.568-0.082-0.748-0.246c-0.182-0.164-0.271-0.397-0.271-0.7c0-0.648,0.519-0.988,1.556-1.02l0.545-0.018v-0.199
			c0-0.252-0.054-0.438-0.163-0.558c-0.107-0.121-0.281-0.181-0.52-0.181c-0.268,0-0.57,0.082-0.908,0.246l-0.149-0.372
			c0.158-0.086,0.331-0.153,0.521-0.202c0.188-0.049,0.377-0.073,0.566-0.073c0.383,0,0.666,0.085,0.852,0.255
			c0.184,0.17,0.276,0.442,0.276,0.817v2.191H227.405z M226.306,52.99c0.303,0,0.54-0.083,0.714-0.249
			c0.172-0.166,0.259-0.398,0.259-0.697v-0.29l-0.486,0.021c-0.387,0.014-0.666,0.074-0.837,0.18
			c-0.171,0.107-0.256,0.272-0.256,0.497c0,0.176,0.053,0.31,0.16,0.401C225.965,52.944,226.115,52.99,226.306,52.99z"/>
		<path d="M228.725,49.252c0-0.111,0.027-0.192,0.082-0.245c0.055-0.051,0.123-0.077,0.205-0.077c0.078,0,0.146,0.026,0.202,0.079
			s0.085,0.134,0.085,0.243s-0.028,0.191-0.085,0.245s-0.124,0.08-0.202,0.08c-0.082,0-0.15-0.026-0.205-0.08
			S228.725,49.361,228.725,49.252z M229.252,53.333h-0.486v-3.211h0.486V53.333z"/>
		<path d="M232.481,53.333v-2.077c0-0.262-0.06-0.457-0.179-0.586s-0.306-0.193-0.56-0.193c-0.336,0-0.582,0.091-0.738,0.272
			s-0.234,0.481-0.234,0.899v1.685h-0.486v-3.211h0.396l0.079,0.439h0.023c0.1-0.158,0.239-0.28,0.419-0.367s0.38-0.131,0.601-0.131
			c0.387,0,0.678,0.094,0.873,0.279c0.195,0.188,0.293,0.485,0.293,0.896v2.095H232.481z"/>
		<path d="M235.324,53.392c-0.475,0-0.85-0.145-1.124-0.434s-0.411-0.69-0.411-1.204c0-0.518,0.128-0.929,0.382-1.233
			c0.256-0.305,0.598-0.457,1.027-0.457c0.402,0,0.721,0.133,0.955,0.396c0.234,0.266,0.352,0.614,0.352,1.048v0.308h-2.212
			c0.01,0.377,0.104,0.663,0.286,0.858c0.18,0.195,0.435,0.293,0.763,0.293c0.346,0,0.688-0.072,1.025-0.217v0.434
			c-0.172,0.074-0.335,0.128-0.487,0.159C235.725,53.376,235.54,53.392,235.324,53.392z M235.192,50.471
			c-0.258,0-0.464,0.084-0.617,0.252s-0.243,0.4-0.271,0.697h1.679c0-0.307-0.068-0.541-0.205-0.704S235.446,50.471,235.192,50.471z
			"/>
		<path d="M238.797,50.063c0.143,0,0.271,0.012,0.384,0.035l-0.067,0.451c-0.133-0.029-0.25-0.044-0.352-0.044
			c-0.26,0-0.482,0.105-0.666,0.316c-0.186,0.211-0.277,0.474-0.277,0.788v1.723h-0.486v-3.211h0.401l0.056,0.595h0.023
			c0.119-0.209,0.263-0.37,0.431-0.483S238.596,50.063,238.797,50.063z"/>
	</g>
	<g>
		<path d="M214.432,114.392c-0.465,0-0.825-0.143-1.08-0.43c-0.255-0.285-0.383-0.69-0.383-1.214c0-0.537,0.13-0.952,0.389-1.245
			s0.627-0.439,1.105-0.439c0.154,0,0.309,0.017,0.463,0.05s0.275,0.072,0.363,0.117l-0.148,0.413
			c-0.107-0.043-0.225-0.078-0.352-0.107c-0.127-0.027-0.24-0.042-0.338-0.042c-0.652,0-0.979,0.416-0.979,1.248
			c0,0.395,0.08,0.697,0.239,0.908s0.396,0.316,0.708,0.316c0.268,0,0.541-0.058,0.822-0.173v0.431
			C215.028,114.336,214.758,114.392,214.432,114.392z"/>
		<path d="M218.776,112.725c0,0.523-0.131,0.933-0.395,1.226c-0.264,0.295-0.629,0.441-1.094,0.441
			c-0.287,0-0.541-0.067-0.764-0.202s-0.395-0.328-0.516-0.58s-0.182-0.547-0.182-0.885c0-0.523,0.131-0.931,0.393-1.224
			c0.262-0.291,0.625-0.438,1.09-0.438c0.449,0,0.806,0.149,1.07,0.448S218.776,112.215,218.776,112.725z M216.33,112.725
			c0,0.41,0.082,0.723,0.246,0.938s0.404,0.322,0.723,0.322s0.561-0.106,0.726-0.321c0.165-0.213,0.247-0.526,0.247-0.938
			c0-0.408-0.082-0.718-0.247-0.931c-0.165-0.211-0.409-0.317-0.731-0.317c-0.318,0-0.559,0.104-0.721,0.313
			S216.33,112.311,216.33,112.725z"/>
		<path d="M221.827,114.333v-2.077c0-0.262-0.061-0.457-0.18-0.586s-0.305-0.193-0.559-0.193c-0.336,0-0.582,0.091-0.738,0.272
			s-0.234,0.481-0.234,0.899v1.685h-0.486v-3.211h0.395l0.08,0.439h0.023c0.1-0.158,0.238-0.28,0.418-0.367s0.381-0.131,0.602-0.131
			c0.387,0,0.678,0.094,0.873,0.279c0.195,0.188,0.293,0.485,0.293,0.896v2.095H221.827z"/>
		<path d="M224.348,113.99c0.086,0,0.169-0.006,0.249-0.019s0.144-0.026,0.19-0.04v0.372c-0.053,0.025-0.131,0.046-0.232,0.062
			c-0.104,0.017-0.195,0.025-0.277,0.025c-0.621,0-0.932-0.327-0.932-0.981v-1.91h-0.46v-0.234l0.46-0.202l0.205-0.686h0.281v0.744
			h0.932v0.378h-0.932v1.89c0,0.193,0.046,0.342,0.138,0.445S224.188,113.99,224.348,113.99z"/>
		<path d="M227.405,114.333l-0.097-0.457h-0.023c-0.16,0.201-0.32,0.338-0.479,0.408c-0.159,0.071-0.357,0.107-0.596,0.107
			c-0.318,0-0.568-0.082-0.748-0.246c-0.182-0.164-0.271-0.397-0.271-0.7c0-0.648,0.519-0.988,1.556-1.02l0.545-0.018v-0.199
			c0-0.252-0.054-0.438-0.163-0.558c-0.107-0.121-0.281-0.181-0.52-0.181c-0.268,0-0.57,0.082-0.908,0.246l-0.149-0.372
			c0.158-0.086,0.331-0.153,0.521-0.202c0.188-0.049,0.377-0.073,0.566-0.073c0.383,0,0.666,0.085,0.852,0.255
			c0.184,0.17,0.276,0.442,0.276,0.817v2.191H227.405z M226.306,113.99c0.303,0,0.54-0.083,0.714-0.249
			c0.172-0.166,0.259-0.398,0.259-0.697v-0.29l-0.486,0.021c-0.387,0.014-0.666,0.074-0.837,0.18
			c-0.171,0.107-0.256,0.272-0.256,0.497c0,0.176,0.053,0.31,0.16,0.401C225.965,113.944,226.115,113.99,226.306,113.99z"/>
		<path d="M228.725,110.252c0-0.111,0.027-0.192,0.082-0.245c0.055-0.051,0.123-0.077,0.205-0.077c0.078,0,0.146,0.026,0.202,0.079
			s0.085,0.134,0.085,0.243s-0.028,0.191-0.085,0.245s-0.124,0.08-0.202,0.08c-0.082,0-0.15-0.026-0.205-0.08
			S228.725,110.361,228.725,110.252z M229.252,114.333h-0.486v-3.211h0.486V114.333z"/>
		<path d="M232.481,114.333v-2.077c0-0.262-0.06-0.457-0.179-0.586s-0.306-0.193-0.56-0.193c-0.336,0-0.582,0.091-0.738,0.272
			s-0.234,0.481-0.234,0.899v1.685h-0.486v-3.211h0.396l0.079,0.439h0.023c0.1-0.158,0.239-0.28,0.419-0.367s0.38-0.131,0.601-0.131
			c0.387,0,0.678,0.094,0.873,0.279c0.195,0.188,0.293,0.485,0.293,0.896v2.095H232.481z"/>
		<path d="M235.324,114.392c-0.475,0-0.85-0.145-1.124-0.434s-0.411-0.69-0.411-1.204c0-0.518,0.128-0.929,0.382-1.233
			c0.256-0.305,0.598-0.457,1.027-0.457c0.402,0,0.721,0.133,0.955,0.396c0.234,0.266,0.352,0.614,0.352,1.048v0.308h-2.212
			c0.01,0.377,0.104,0.663,0.286,0.858c0.18,0.195,0.435,0.293,0.763,0.293c0.346,0,0.688-0.072,1.025-0.217v0.434
			c-0.172,0.074-0.335,0.128-0.487,0.159C235.725,114.376,235.54,114.392,235.324,114.392z M235.192,111.471
			c-0.258,0-0.464,0.084-0.617,0.252s-0.243,0.4-0.271,0.697h1.679c0-0.307-0.068-0.541-0.205-0.704
			S235.446,111.471,235.192,111.471z"/>
		<path d="M238.797,111.063c0.143,0,0.271,0.012,0.384,0.035l-0.067,0.451c-0.133-0.029-0.25-0.044-0.352-0.044
			c-0.26,0-0.482,0.105-0.666,0.316c-0.186,0.211-0.277,0.474-0.277,0.788v1.723h-0.486v-3.211h0.401l0.056,0.595h0.023
			c0.119-0.209,0.263-0.37,0.431-0.483S238.596,111.063,238.797,111.063z"/>
	</g>
	<path fill="#00B796" d="M239.694,11.223h-27.237c-1.65,0-3,1.35-3,3V41.46c0,1.65,1.35,3,3,3h27.237c1.65,0,3-1.35,3-3V14.223
		C242.694,12.573,241.344,11.223,239.694,11.223z M219.612,38.92h-3.693V16.762h3.693V38.92z M227.922,38.92h-3.693V16.762h3.693
		V38.92z M236.231,38.92h-3.693V16.762h3.693V38.92z"/>
	<g>
		<path fill="#B3B3B3" d="M214.137,107.06h23.876c1.292,0,2.341-0.981,2.341-2.19V71.147c0-1.209-1.049-2.19-2.341-2.19h-23.876
			c-1.292,0-2.341,0.981-2.341,2.19v33.723C211.796,106.079,212.845,107.06,214.137,107.06L214.137,107.06z M236.323,104.371
			c-0.777,0-1.404-0.587-1.404-1.314c0-0.727,0.627-1.314,1.404-1.314c0.777,0,1.404,0.587,1.404,1.314
			C237.728,103.784,237.1,104.371,236.323,104.371L236.323,104.371z M236.323,71.936c0.777,0,1.404,0.587,1.404,1.314
			c0,0.727-0.628,1.314-1.404,1.314c-0.777,0-1.404-0.587-1.404-1.314C234.919,72.523,235.546,71.936,236.323,71.936L236.323,71.936
			z M226.075,72.917c6.067,0,10.988,4.603,10.988,10.279c0,5.676-4.921,10.279-10.988,10.279c-0.955,0-1.882-0.114-2.767-0.328
			l2.065-3.276c0.613-0.972-0.562-2.076-1.601-1.498l-4.789,2.641c-0.009,0.004-0.014,0.009-0.019,0.013
			c-2.369-1.883-3.872-4.695-3.872-7.831C215.087,77.52,220.008,72.917,226.075,72.917L226.075,72.917z M216.108,71.936
			c0.777,0,1.404,0.587,1.404,1.314c0,0.727-0.627,1.314-1.404,1.314c-0.777,0-1.404-0.587-1.404-1.314
			C214.703,72.523,215.331,71.936,216.108,71.936L216.108,71.936z M216.108,101.743c0.777,0,1.404,0.587,1.404,1.314
			c0,0.727-0.627,1.314-1.404,1.314c-0.777,0-1.404-0.587-1.404-1.314C214.703,102.334,215.331,101.743,216.108,101.743
			L216.108,101.743z M216.108,101.743"/>
		<path fill="#B3B3B3" d="M229.01,83.195c0,1.517-1.314,2.746-2.935,2.746c-1.621,0-2.935-1.229-2.935-2.746
			c0-1.516,1.314-2.746,2.935-2.746C227.696,80.45,229.01,81.679,229.01,83.195L229.01,83.195z M229.01,83.195"/>
	</g>
	<g>
		<path fill="#61697F" d="M133.841,67.734l-0.409-2.87l-1.644,1.289c-1.233-1.344-3.445-2.317-5.404-2.963
			c-0.971-0.32-2.019-0.605-3.103-0.849c1.084-0.243,2.132-0.528,3.103-0.849c1.959-0.646,4.172-1.619,5.404-2.964l1.644,1.289
			l0.409-2.87l0.409-2.87l-2.69,1.081l-2.69,1.081l1.428,1.119c-0.181,0.183-0.403,0.368-0.665,0.554
			c-0.894,0.634-2.221,1.252-3.84,1.785c-3.175,1.047-7.214,1.698-10.542,1.698h-0.001v1.889c3.328,0,7.368,0.651,10.543,1.698
			c1.618,0.534,2.946,1.151,3.84,1.785c0.261,0.186,0.484,0.371,0.665,0.554l-1.428,1.119l2.69,1.081l2.69,1.081L133.841,67.734z"/>
	</g>
	<g>
		<path fill="#30BBFF" d="M21,27.285v6.629c0,0.55,0.176,1.053,0.47,1.467h32.823c0.294-0.414,0.47-0.917,0.47-1.467v-6.629
			c0-0.55-0.176-1.052-0.47-1.467H21.47C21.176,26.233,21,26.738,21,27.285L21,27.285z M50.262,30.881c0.31,0,0.56,0.253,0.56,0.563
			c0,0.31-0.25,0.563-0.56,0.563c-0.311,0-0.563-0.253-0.563-0.563C49.699,31.134,49.951,30.881,50.262,30.881L50.262,30.881z
			 M49.135,29.194c0.31,0,0.563,0.25,0.563,0.56c0,0.311-0.253,0.563-0.563,0.563s-0.563-0.253-0.563-0.563
			C48.572,29.444,48.825,29.194,49.135,29.194L49.135,29.194z M48.009,30.881c0.311,0,0.563,0.253,0.563,0.563
			c0,0.31-0.252,0.563-0.563,0.563c-0.31,0-0.56-0.253-0.56-0.563C47.449,31.134,47.698,30.881,48.009,30.881L48.009,30.881z
			 M46.885,29.194c0.31,0,0.563,0.25,0.563,0.56c0,0.311-0.253,0.563-0.563,0.563c-0.311,0-0.563-0.253-0.563-0.563
			C46.322,29.444,46.574,29.194,46.885,29.194L46.885,29.194z M45.758,30.881c0.311,0,0.563,0.253,0.563,0.563
			c0,0.31-0.253,0.563-0.563,0.563c-0.31,0-0.563-0.253-0.563-0.563C45.195,31.134,45.448,30.881,45.758,30.881L45.758,30.881z
			 M44.635,29.194c0.31,0,0.56,0.25,0.56,0.56c0,0.311-0.25,0.563-0.56,0.563c-0.311,0-0.563-0.253-0.563-0.563
			C44.072,29.444,44.324,29.194,44.635,29.194L44.635,29.194z M43.508,30.881c0.31,0,0.563,0.253,0.563,0.563
			c0,0.31-0.253,0.563-0.563,0.563s-0.563-0.253-0.563-0.563C42.945,31.134,43.198,30.881,43.508,30.881L43.508,30.881z
			 M42.381,29.194c0.311,0,0.563,0.25,0.563,0.56c0,0.311-0.253,0.563-0.563,0.563c-0.31,0-0.56-0.253-0.56-0.563
			C41.822,29.444,42.071,29.194,42.381,29.194L42.381,29.194z M41.258,30.881c0.31,0,0.563,0.253,0.563,0.563
			c0,0.31-0.253,0.563-0.563,0.563c-0.311,0-0.563-0.253-0.563-0.563C40.695,31.134,40.947,30.881,41.258,30.881L41.258,30.881z
			 M40.131,29.194c0.311,0,0.563,0.25,0.563,0.56c0,0.311-0.253,0.563-0.563,0.563c-0.31,0-0.563-0.253-0.563-0.563
			C39.568,29.444,39.821,29.194,40.131,29.194L40.131,29.194z M26.907,28.068c1.399,0,2.534,1.135,2.534,2.534
			c0,1.395-1.135,2.53-2.534,2.53c-1.396,0-2.53-1.135-2.53-2.53C24.377,29.202,25.511,28.068,26.907,28.068L26.907,28.068z
			 M26.907,28.068"/>
		<path fill="#30BBFF" d="M54.293,24.691c0.294-0.415,0.47-0.92,0.47-1.467v-6.63c0-1.431-1.162-2.593-2.594-2.593H23.594
			C22.162,14,21,15.162,21,16.593v6.63c0,0.547,0.176,1.049,0.47,1.467H54.293z M50.262,20.19c0.31,0,0.56,0.253,0.56,0.563
			c0,0.31-0.25,0.56-0.56,0.56c-0.311,0-0.563-0.25-0.563-0.56C49.699,20.443,49.951,20.19,50.262,20.19L50.262,20.19z M49.135,18.5
			c0.31,0,0.563,0.253,0.563,0.563c0,0.311-0.253,0.563-0.563,0.563s-0.563-0.253-0.563-0.563
			C48.572,18.753,48.825,18.5,49.135,18.5L49.135,18.5z M48.009,20.19c0.311,0,0.563,0.253,0.563,0.563
			c0,0.31-0.252,0.56-0.563,0.56c-0.31,0-0.56-0.25-0.56-0.56C47.449,20.443,47.698,20.19,48.009,20.19L48.009,20.19z M46.885,18.5
			c0.31,0,0.563,0.253,0.563,0.563c0,0.311-0.253,0.563-0.563,0.563c-0.311,0-0.563-0.253-0.563-0.563
			C46.322,18.753,46.574,18.5,46.885,18.5L46.885,18.5z M45.758,20.19c0.311,0,0.563,0.253,0.563,0.563
			c0,0.31-0.253,0.56-0.563,0.56c-0.31,0-0.563-0.25-0.563-0.56C45.195,20.443,45.448,20.19,45.758,20.19L45.758,20.19z
			 M44.635,18.5c0.31,0,0.56,0.253,0.56,0.563c0,0.311-0.25,0.563-0.56,0.563c-0.311,0-0.563-0.253-0.563-0.563
			C44.072,18.753,44.324,18.5,44.635,18.5L44.635,18.5z M43.508,20.19c0.31,0,0.563,0.253,0.563,0.563c0,0.31-0.253,0.56-0.563,0.56
			s-0.563-0.25-0.563-0.56C42.945,20.443,43.198,20.19,43.508,20.19L43.508,20.19z M42.381,18.5c0.311,0,0.563,0.253,0.563,0.563
			c0,0.311-0.253,0.563-0.563,0.563c-0.31,0-0.56-0.253-0.56-0.563C41.822,18.753,42.071,18.5,42.381,18.5L42.381,18.5z
			 M41.258,20.19c0.31,0,0.563,0.253,0.563,0.563c0,0.31-0.253,0.56-0.563,0.56c-0.311,0-0.563-0.25-0.563-0.56
			C40.695,20.443,40.947,20.19,41.258,20.19L41.258,20.19z M40.131,18.5c0.311,0,0.563,0.253,0.563,0.563
			c0,0.311-0.253,0.563-0.563,0.563c-0.31,0-0.563-0.253-0.563-0.563C39.568,18.753,39.821,18.5,40.131,18.5L40.131,18.5z
			 M26.907,17.377c1.399,0,2.534,1.135,2.534,2.53c0,1.399-1.135,2.534-2.534,2.534c-1.396,0-2.53-1.135-2.53-2.534
			C24.377,18.512,25.511,17.377,26.907,17.377L26.907,17.377z M26.907,17.377"/>
		<path fill="#30BBFF" d="M21.47,36.508C21.176,36.926,21,37.429,21,37.976v6.63c0,1.431,1.162,2.593,2.594,2.593h28.574
			c1.429,0,2.594-1.162,2.594-2.593v-6.63c0-0.547-0.179-1.049-0.47-1.467H21.47z M26.907,43.822c-1.396,0-2.53-1.135-2.53-2.53
			c0-1.396,1.135-2.534,2.53-2.534c1.399,0,2.534,1.137,2.534,2.534C29.441,42.688,28.306,43.822,26.907,43.822L26.907,43.822z
			 M40.131,41.009c-0.31,0-0.563-0.25-0.563-0.56c0-0.311,0.253-0.563,0.563-0.563c0.311,0,0.563,0.252,0.563,0.563
			C40.695,40.759,40.442,41.009,40.131,41.009L40.131,41.009z M41.258,42.699c-0.311,0-0.563-0.253-0.563-0.563
			c0-0.31,0.253-0.563,0.563-0.563c0.31,0,0.563,0.253,0.563,0.563C41.822,42.446,41.568,42.699,41.258,42.699L41.258,42.699z
			 M42.381,41.009c-0.31,0-0.56-0.25-0.56-0.56c0-0.311,0.25-0.563,0.56-0.563c0.311,0,0.563,0.252,0.563,0.563
			C42.945,40.759,42.692,41.009,42.381,41.009L42.381,41.009z M43.508,42.699c-0.31,0-0.563-0.253-0.563-0.563
			c0-0.31,0.253-0.563,0.563-0.563s0.563,0.253,0.563,0.563C44.072,42.446,43.818,42.699,43.508,42.699L43.508,42.699z
			 M44.635,41.009c-0.311,0-0.563-0.25-0.563-0.56c0-0.311,0.253-0.563,0.563-0.563c0.31,0,0.56,0.252,0.56,0.563
			C45.195,40.759,44.945,41.009,44.635,41.009L44.635,41.009z M45.758,42.699c-0.31,0-0.563-0.253-0.563-0.563
			c0-0.31,0.253-0.563,0.563-0.563c0.311,0,0.563,0.253,0.563,0.563C46.322,42.446,46.069,42.699,45.758,42.699L45.758,42.699z
			 M46.885,41.009c-0.311,0-0.563-0.25-0.563-0.56c0-0.311,0.252-0.563,0.563-0.563c0.31,0,0.563,0.252,0.563,0.563
			C47.449,40.759,47.195,41.009,46.885,41.009L46.885,41.009z M48.009,42.699c-0.31,0-0.56-0.253-0.56-0.563
			c0-0.31,0.25-0.563,0.56-0.563c0.311,0,0.563,0.253,0.563,0.563C48.572,42.446,48.319,42.699,48.009,42.699L48.009,42.699z
			 M49.135,41.009c-0.31,0-0.563-0.25-0.563-0.56c0-0.311,0.253-0.563,0.563-0.563s0.563,0.252,0.563,0.563
			C49.699,40.759,49.446,41.009,49.135,41.009L49.135,41.009z M50.262,42.699c-0.311,0-0.563-0.253-0.563-0.563
			c0-0.31,0.253-0.563,0.563-0.563c0.31,0,0.56,0.253,0.56,0.563C50.822,42.446,50.572,42.699,50.262,42.699L50.262,42.699z
			 M50.262,42.699"/>
	</g>
	<g>
		<path fill="#30BBFF" d="M150,24.508v6.629c0,0.55,0.176,1.053,0.47,1.467h32.823c0.294-0.414,0.47-0.917,0.47-1.467v-6.629
			c0-0.55-0.176-1.052-0.47-1.467H150.47C150.176,23.456,150,23.961,150,24.508L150,24.508z M179.262,28.104
			c0.31,0,0.56,0.253,0.56,0.563c0,0.31-0.25,0.563-0.56,0.563c-0.311,0-0.563-0.253-0.563-0.563
			C178.699,28.357,178.951,28.104,179.262,28.104L179.262,28.104z M178.135,26.417c0.31,0,0.563,0.25,0.563,0.56
			c0,0.311-0.253,0.563-0.563,0.563c-0.31,0-0.563-0.253-0.563-0.563C177.572,26.667,177.825,26.417,178.135,26.417L178.135,26.417z
			 M177.009,28.104c0.311,0,0.563,0.253,0.563,0.563c0,0.31-0.253,0.563-0.563,0.563c-0.31,0-0.56-0.253-0.56-0.563
			C176.449,28.357,176.698,28.104,177.009,28.104L177.009,28.104z M175.885,26.417c0.31,0,0.563,0.25,0.563,0.56
			c0,0.311-0.253,0.563-0.563,0.563c-0.311,0-0.563-0.253-0.563-0.563C175.322,26.667,175.574,26.417,175.885,26.417L175.885,26.417
			z M174.758,28.104c0.311,0,0.563,0.253,0.563,0.563c0,0.31-0.253,0.563-0.563,0.563c-0.31,0-0.563-0.253-0.563-0.563
			C174.195,28.357,174.448,28.104,174.758,28.104L174.758,28.104z M173.635,26.417c0.31,0,0.56,0.25,0.56,0.56
			c0,0.311-0.25,0.563-0.56,0.563c-0.311,0-0.563-0.253-0.563-0.563C173.072,26.667,173.324,26.417,173.635,26.417L173.635,26.417z
			 M172.508,28.104c0.31,0,0.563,0.253,0.563,0.563c0,0.31-0.253,0.563-0.563,0.563s-0.563-0.253-0.563-0.563
			C171.945,28.357,172.198,28.104,172.508,28.104L172.508,28.104z M171.381,26.417c0.311,0,0.563,0.25,0.563,0.56
			c0,0.311-0.253,0.563-0.563,0.563c-0.31,0-0.56-0.253-0.56-0.563C170.822,26.667,171.071,26.417,171.381,26.417L171.381,26.417z
			 M170.258,28.104c0.31,0,0.563,0.253,0.563,0.563c0,0.31-0.253,0.563-0.563,0.563c-0.311,0-0.563-0.253-0.563-0.563
			C169.695,28.357,169.947,28.104,170.258,28.104L170.258,28.104z M169.131,26.417c0.311,0,0.563,0.25,0.563,0.56
			c0,0.311-0.253,0.563-0.563,0.563c-0.31,0-0.563-0.253-0.563-0.563C168.568,26.667,168.821,26.417,169.131,26.417L169.131,26.417z
			 M155.907,25.291c1.399,0,2.534,1.135,2.534,2.534c0,1.395-1.135,2.53-2.534,2.53c-1.396,0-2.53-1.135-2.53-2.53
			C153.377,26.425,154.511,25.291,155.907,25.291L155.907,25.291z M155.907,25.291"/>
		<path fill="#30BBFF" d="M183.293,21.914c0.294-0.415,0.47-0.92,0.47-1.467v-6.63c0-1.431-1.162-2.593-2.594-2.593h-28.574
			c-1.432,0-2.594,1.162-2.594,2.593v6.63c0,0.547,0.176,1.049,0.47,1.467H183.293z M179.262,17.413c0.31,0,0.56,0.253,0.56,0.563
			c0,0.31-0.25,0.56-0.56,0.56c-0.311,0-0.563-0.25-0.563-0.56C178.699,17.666,178.951,17.413,179.262,17.413L179.262,17.413z
			 M178.135,15.723c0.31,0,0.563,0.253,0.563,0.563c0,0.311-0.253,0.563-0.563,0.563c-0.31,0-0.563-0.252-0.563-0.563
			C177.572,15.976,177.825,15.723,178.135,15.723L178.135,15.723z M177.009,17.413c0.311,0,0.563,0.253,0.563,0.563
			c0,0.31-0.253,0.56-0.563,0.56c-0.31,0-0.56-0.25-0.56-0.56C176.449,17.666,176.698,17.413,177.009,17.413L177.009,17.413z
			 M175.885,15.723c0.31,0,0.563,0.253,0.563,0.563c0,0.311-0.253,0.563-0.563,0.563c-0.311,0-0.563-0.252-0.563-0.563
			C175.322,15.976,175.574,15.723,175.885,15.723L175.885,15.723z M174.758,17.413c0.311,0,0.563,0.253,0.563,0.563
			c0,0.31-0.253,0.56-0.563,0.56c-0.31,0-0.563-0.25-0.563-0.56C174.195,17.666,174.448,17.413,174.758,17.413L174.758,17.413z
			 M173.635,15.723c0.31,0,0.56,0.253,0.56,0.563c0,0.311-0.25,0.563-0.56,0.563c-0.311,0-0.563-0.252-0.563-0.563
			C173.072,15.976,173.324,15.723,173.635,15.723L173.635,15.723z M172.508,17.413c0.31,0,0.563,0.253,0.563,0.563
			c0,0.31-0.253,0.56-0.563,0.56s-0.563-0.25-0.563-0.56C171.945,17.666,172.198,17.413,172.508,17.413L172.508,17.413z
			 M171.381,15.723c0.311,0,0.563,0.253,0.563,0.563c0,0.311-0.253,0.563-0.563,0.563c-0.31,0-0.56-0.252-0.56-0.563
			C170.822,15.976,171.071,15.723,171.381,15.723L171.381,15.723z M170.258,17.413c0.31,0,0.563,0.253,0.563,0.563
			c0,0.31-0.253,0.56-0.563,0.56c-0.311,0-0.563-0.25-0.563-0.56C169.695,17.666,169.947,17.413,170.258,17.413L170.258,17.413z
			 M169.131,15.723c0.311,0,0.563,0.253,0.563,0.563c0,0.311-0.253,0.563-0.563,0.563c-0.31,0-0.563-0.252-0.563-0.563
			C168.568,15.976,168.821,15.723,169.131,15.723L169.131,15.723z M155.907,14.6c1.399,0,2.534,1.135,2.534,2.53
			c0,1.399-1.135,2.534-2.534,2.534c-1.396,0-2.53-1.135-2.53-2.534C153.377,15.735,154.511,14.6,155.907,14.6L155.907,14.6z
			 M155.907,14.6"/>
		<path fill="#30BBFF" d="M150.47,33.731c-0.294,0.418-0.47,0.921-0.47,1.467v6.63c0,1.431,1.162,2.593,2.594,2.593h28.574
			c1.429,0,2.594-1.162,2.594-2.593v-6.63c0-0.547-0.179-1.049-0.47-1.467H150.47z M155.907,41.045c-1.396,0-2.53-1.135-2.53-2.53
			c0-1.396,1.135-2.534,2.53-2.534c1.399,0,2.534,1.137,2.534,2.534C158.441,39.911,157.306,41.045,155.907,41.045L155.907,41.045z
			 M169.131,38.232c-0.31,0-0.563-0.25-0.563-0.56c0-0.311,0.253-0.563,0.563-0.563c0.311,0,0.563,0.252,0.563,0.563
			C169.695,37.982,169.442,38.232,169.131,38.232L169.131,38.232z M170.258,39.922c-0.311,0-0.563-0.253-0.563-0.563
			s0.253-0.563,0.563-0.563c0.31,0,0.563,0.253,0.563,0.563S170.568,39.922,170.258,39.922L170.258,39.922z M171.381,38.232
			c-0.31,0-0.56-0.25-0.56-0.56c0-0.311,0.25-0.563,0.56-0.563c0.311,0,0.563,0.252,0.563,0.563
			C171.945,37.982,171.692,38.232,171.381,38.232L171.381,38.232z M172.508,39.922c-0.31,0-0.563-0.253-0.563-0.563
			s0.253-0.563,0.563-0.563s0.563,0.253,0.563,0.563S172.818,39.922,172.508,39.922L172.508,39.922z M173.635,38.232
			c-0.311,0-0.563-0.25-0.563-0.56c0-0.311,0.253-0.563,0.563-0.563c0.31,0,0.56,0.252,0.56,0.563
			C174.195,37.982,173.945,38.232,173.635,38.232L173.635,38.232z M174.758,39.922c-0.31,0-0.563-0.253-0.563-0.563
			s0.253-0.563,0.563-0.563c0.311,0,0.563,0.253,0.563,0.563S175.069,39.922,174.758,39.922L174.758,39.922z M175.885,38.232
			c-0.311,0-0.563-0.25-0.563-0.56c0-0.311,0.253-0.563,0.563-0.563c0.31,0,0.563,0.252,0.563,0.563
			C176.449,37.982,176.195,38.232,175.885,38.232L175.885,38.232z M177.009,39.922c-0.31,0-0.56-0.253-0.56-0.563
			s0.25-0.563,0.56-0.563c0.311,0,0.563,0.253,0.563,0.563S177.319,39.922,177.009,39.922L177.009,39.922z M178.135,38.232
			c-0.31,0-0.563-0.25-0.563-0.56c0-0.311,0.253-0.563,0.563-0.563c0.31,0,0.563,0.252,0.563,0.563
			C178.699,37.982,178.446,38.232,178.135,38.232L178.135,38.232z M179.262,39.922c-0.311,0-0.563-0.253-0.563-0.563
			s0.253-0.563,0.563-0.563c0.31,0,0.56,0.253,0.56,0.563S179.572,39.922,179.262,39.922L179.262,39.922z M179.262,39.922"/>
	</g>
	<path fill="#F4B400" d="M166.922,68.563c-9.018,0-16.328,3.528-16.328,7.88v22.695c0,4.352,7.31,7.88,16.328,7.88
		c9.018,0,16.328-3.528,16.328-7.88V76.443C183.25,72.091,175.94,68.563,166.922,68.563z M166.992,82.299
		c-8.23,0-14.902-2.831-14.902-6.322c0-3.492,6.672-6.322,14.902-6.322s14.902,2.831,14.902,6.322
		C181.894,79.469,175.222,82.299,166.992,82.299z"/>
</g>
</svg>
