<?xml version="1.0" encoding="utf-8"?>
<!-- Generator: Adobe Illustrator 21.1.0, SVG Export Plug-In . SVG Version: 6.00 Build 0)  -->
<svg version="1.1" id="Слой_1" xmlns="http://www.w3.org/2000/svg" xmlns:xlink="http://www.w3.org/1999/xlink" x="0px" y="0px"
	 width="600px" height="240px" viewBox="0 0 600 240" enable-background="new 0 0 600 240" xml:space="preserve">
<g>
	<path fill="#0089FB" d="M140.071,84.104c0,0.975-1.533,1.766-3.423,1.766H10.495c-1.891,0-3.423-0.791-3.423-1.766V59.637
		c0-0.975,1.533-1.766,3.423-1.766h126.153c1.891,0,3.423,0.791,3.423,1.766V84.104z"/>
	<path fill="#0089FB" d="M290.05,84.104c0,0.975-1.533,1.766-3.423,1.766H160.473c-1.891,0-3.423-0.791-3.423-1.766V59.637
		c0-0.975,1.533-1.766,3.423-1.766h126.153c1.891,0,3.423,0.791,3.423,1.766V84.104z"/>
	<path fill="#0089FB" d="M440.692,84.104c0,0.975-1.533,1.766-3.423,1.766H311.115c-1.891,0-3.423-0.791-3.423-1.766V59.637
		c0-0.975,1.533-1.766,3.423-1.766h126.153c1.891,0,3.423,0.791,3.423,1.766V84.104z"/>
	<path fill="#0089FB" d="M590.828,84.104c0,0.975-1.533,1.766-3.423,1.766H461.251c-1.891,0-3.423-0.791-3.423-1.766V59.637
		c0-0.975,1.533-1.766,3.423-1.766h126.153c1.891,0,3.423,0.791,3.423,1.766V84.104z"/>
	<g>
		<line fill="#A2B0C7" stroke="#A2B0C7" stroke-miterlimit="10" x1="30.453" y1="89.667" x2="30.453" y2="139.667"/>
		<g>
			<path fill="#A2B0C7" d="M41.577,109.197l-4.227-1.72l0.572,1.72l-0.574,1.719L41.577,109.197z M41.577,109.197"/>
			<line fill="none" stroke="#A2B0C7" stroke-miterlimit="10" x1="30.91" y1="109.136" x2="38.077" y2="109.136"/>
		</g>
		<g>
			<path fill="#A2B0C7" d="M41.577,139.239l-4.227-1.72l0.572,1.72l-0.574,1.719L41.577,139.239z M41.577,139.239"/>
			<line fill="none" stroke="#A2B0C7" stroke-miterlimit="10" x1="30.91" y1="139.177" x2="38.077" y2="139.177"/>
		</g>
	</g>
	<g>
		<line fill="#A2B0C7" stroke="#A2B0C7" stroke-miterlimit="10" x1="330.835" y1="89.667" x2="330.835" y2="139.667"/>
		<g>
			<path fill="#A2B0C7" d="M341.959,109.197l-4.227-1.72l0.572,1.72l-0.574,1.719L341.959,109.197z M341.959,109.197"/>
			<line fill="none" stroke="#A2B0C7" stroke-miterlimit="10" x1="331.292" y1="109.136" x2="338.459" y2="109.136"/>
		</g>
		<g>
			<path fill="#A2B0C7" d="M341.959,139.239l-4.227-1.72l0.572,1.72l-0.574,1.719L341.959,139.239z M341.959,139.239"/>
			<line fill="none" stroke="#A2B0C7" stroke-miterlimit="10" x1="331.292" y1="139.177" x2="338.459" y2="139.177"/>
		</g>
	</g>
	<g>
		<line fill="#A2B0C7" stroke="#A2B0C7" stroke-miterlimit="10" x1="180.631" y1="89.667" x2="180.631" y2="169.667"/>
		<g>
			<g>
				<path fill="#A2B0C7" d="M191.754,109.197l-4.227-1.72l0.572,1.72l-0.574,1.719L191.754,109.197z M191.754,109.197"/>
				<line fill="none" stroke="#A2B0C7" stroke-miterlimit="10" x1="181.088" y1="109.136" x2="188.254" y2="109.136"/>
			</g>
			<g>
				<path fill="#A2B0C7" d="M191.754,139.239l-4.227-1.72l0.572,1.72l-0.574,1.719L191.754,139.239z M191.754,139.239"/>
				<line fill="none" stroke="#A2B0C7" stroke-miterlimit="10" x1="181.088" y1="139.177" x2="188.254" y2="139.177"/>
			</g>
		</g>
		<g>
			<path fill="#A2B0C7" d="M191.754,169.241l-4.227-1.72l0.572,1.72l-0.574,1.719L191.754,169.241z M191.754,169.241"/>
			<line fill="none" stroke="#A2B0C7" stroke-miterlimit="10" x1="181.088" y1="169.179" x2="188.254" y2="169.179"/>
		</g>
	</g>
	<g>
		<line fill="#A2B0C7" stroke="#A2B0C7" stroke-miterlimit="10" x1="481.115" y1="89.667" x2="481.115" y2="229.693"/>
		<g>
			<path fill="#A2B0C7" d="M492.239,109.197l-4.227-1.72l0.572,1.72l-0.574,1.719L492.239,109.197z M492.239,109.197"/>
			<line fill="none" stroke="#A2B0C7" stroke-miterlimit="10" x1="481.572" y1="109.136" x2="488.738" y2="109.136"/>
		</g>
		<g>
			<path fill="#A2B0C7" d="M492.239,139.239l-4.227-1.72l0.572,1.72l-0.574,1.719L492.239,139.239z M492.239,139.239"/>
			<line fill="none" stroke="#A2B0C7" stroke-miterlimit="10" x1="481.572" y1="139.177" x2="488.738" y2="139.177"/>
		</g>
		<g>
			<g>
				<path fill="#A2B0C7" d="M492.239,169.241l-4.227-1.72l0.572,1.72l-0.574,1.719L492.239,169.241z M492.239,169.241"/>
				<line fill="none" stroke="#A2B0C7" stroke-miterlimit="10" x1="481.572" y1="169.179" x2="488.738" y2="169.179"/>
			</g>
			<path fill="#A2B0C7" d="M492.239,199.243l-4.227-1.72l0.572,1.72l-0.574,1.719L492.239,199.243z M492.239,199.243"/>
			<line fill="none" stroke="#A2B0C7" stroke-miterlimit="10" x1="481.572" y1="199.181" x2="488.738" y2="199.181"/>
		</g>
		<path fill="#A2B0C7" d="M492.239,229.244l-4.227-1.72l0.572,1.72l-0.574,1.719L492.239,229.244z M492.239,229.244"/>
		<line fill="none" stroke="#A2B0C7" stroke-miterlimit="10" x1="481.572" y1="229.183" x2="488.738" y2="229.183"/>
	</g>
	<g>
		<path fill="#FFFFFF" d="M57.089,71.797c0,1.414-0.384,2.495-1.151,3.243s-1.872,1.122-3.313,1.122h-2.373v-8.566h2.625
			c1.332,0,2.367,0.369,3.105,1.107S57.089,70.473,57.089,71.797z M56.034,71.832c0-1.117-0.28-1.959-0.841-2.525
			s-1.394-0.85-2.499-0.85h-1.447v6.844h1.213c1.188,0,2.08-0.292,2.678-0.876S56.034,72.977,56.034,71.832z"/>
		<path fill="#FFFFFF" d="M64.384,76.162l-1.066-2.725h-3.434l-1.055,2.725h-1.008l3.387-8.602h0.838l3.369,8.602H64.384z
			 M63.007,72.541l-0.996-2.654c-0.129-0.336-0.262-0.748-0.398-1.236c-0.086,0.375-0.209,0.787-0.369,1.236l-1.008,2.654H63.007z"
			/>
		<path fill="#FFFFFF" d="M71.427,73.883c0,0.754-0.273,1.342-0.82,1.764s-1.289,0.633-2.227,0.633
			c-1.016,0-1.797-0.131-2.344-0.393v-0.961c0.352,0.148,0.734,0.266,1.148,0.352s0.824,0.129,1.23,0.129
			c0.664,0,1.164-0.126,1.5-0.378s0.504-0.603,0.504-1.052c0-0.297-0.06-0.54-0.179-0.729s-0.318-0.364-0.598-0.524
			s-0.704-0.342-1.274-0.545c-0.797-0.285-1.366-0.623-1.708-1.014s-0.513-0.9-0.513-1.529c0-0.66,0.248-1.186,0.744-1.576
			s1.152-0.586,1.969-0.586c0.852,0,1.635,0.156,2.35,0.469l-0.311,0.867c-0.707-0.297-1.395-0.445-2.062-0.445
			c-0.527,0-0.939,0.113-1.236,0.34s-0.445,0.541-0.445,0.943c0,0.297,0.055,0.54,0.164,0.729s0.294,0.363,0.554,0.521
			s0.657,0.333,1.192,0.524c0.898,0.32,1.517,0.664,1.854,1.031S71.427,73.297,71.427,73.883z"/>
		<path fill="#FFFFFF" d="M79.682,76.162h-0.996v-4.031h-4.512v4.031h-0.996v-8.566h0.996v3.645h4.512v-3.645h0.996V76.162z"/>
		<path fill="#FFFFFF" d="M82.032,67.596h2.42c1.137,0,1.959,0.17,2.467,0.51s0.762,0.877,0.762,1.611
			c0,0.508-0.142,0.927-0.425,1.257s-0.696,0.544-1.239,0.642v0.059c1.301,0.223,1.951,0.906,1.951,2.051
			c0,0.766-0.259,1.363-0.776,1.793s-1.241,0.645-2.171,0.645h-2.988V67.596z M83.028,71.264h1.641c0.703,0,1.209-0.11,1.518-0.331
			s0.463-0.593,0.463-1.116c0-0.48-0.172-0.827-0.516-1.04s-0.891-0.319-1.641-0.319h-1.465V71.264z M83.028,72.108v3.205h1.787
			c0.691,0,1.212-0.134,1.562-0.401s0.524-0.687,0.524-1.257c0-0.531-0.179-0.922-0.536-1.172s-0.901-0.375-1.632-0.375H83.028z"/>
		<path fill="#FFFFFF" d="M97.243,71.867c0,1.371-0.347,2.449-1.04,3.234s-1.657,1.178-2.892,1.178
			c-1.262,0-2.235-0.386-2.921-1.157s-1.028-1.86-1.028-3.267c0-1.395,0.344-2.476,1.031-3.243s1.664-1.151,2.93-1.151
			c1.23,0,2.191,0.391,2.883,1.172S97.243,70.492,97.243,71.867z M90.417,71.867c0,1.16,0.247,2.04,0.741,2.64
			s1.212,0.899,2.153,0.899c0.949,0,1.666-0.299,2.15-0.896s0.727-1.479,0.727-2.643c0-1.152-0.241-2.026-0.724-2.622
			s-1.196-0.894-2.142-0.894c-0.949,0-1.671,0.3-2.165,0.899S90.417,70.723,90.417,71.867z"/>
		<path fill="#FFFFFF" d="M104.538,76.162l-1.066-2.725h-3.434l-1.055,2.725h-1.008l3.387-8.602h0.838l3.369,8.602H104.538z
			 M103.161,72.541l-0.996-2.654c-0.129-0.336-0.262-0.748-0.398-1.236c-0.086,0.375-0.209,0.787-0.369,1.236l-1.008,2.654H103.161z
			"/>
		<path fill="#FFFFFF" d="M107.743,72.6v3.562h-0.996v-8.566h2.35c1.051,0,1.827,0.201,2.329,0.604s0.753,1.008,0.753,1.816
			c0,1.133-0.574,1.898-1.723,2.297l2.326,3.85h-1.178L109.53,72.6H107.743z M107.743,71.744h1.365c0.703,0,1.219-0.14,1.547-0.419
			s0.492-0.698,0.492-1.257c0-0.566-0.167-0.975-0.501-1.225s-0.87-0.375-1.608-0.375h-1.295V71.744z"/>
		<path fill="#FFFFFF" d="M121.003,71.797c0,1.414-0.384,2.495-1.151,3.243s-1.872,1.122-3.313,1.122h-2.373v-8.566h2.625
			c1.332,0,2.367,0.369,3.105,1.107S121.003,70.473,121.003,71.797z M119.948,71.832c0-1.117-0.28-1.959-0.841-2.525
			s-1.394-0.85-2.499-0.85h-1.447v6.844h1.213c1.188,0,2.08-0.292,2.678-0.876S119.948,72.977,119.948,71.832z"/>
	</g>
	<g>
		<path fill="#FFFFFF" d="M228.258,67.59h1.072l-3.088,8.566h-0.984l-3.07-8.566h1.055l1.969,5.543
			c0.227,0.637,0.406,1.256,0.539,1.857c0.141-0.633,0.324-1.264,0.551-1.893L228.258,67.59z"/>
		<path fill="#FFFFFF" d="M234.176,68.358c-0.941,0-1.685,0.313-2.229,0.94s-0.817,1.485-0.817,2.575
			c0,1.121,0.263,1.987,0.788,2.599s1.274,0.917,2.247,0.917c0.598,0,1.279-0.107,2.045-0.322v0.873
			c-0.594,0.223-1.326,0.334-2.197,0.334c-1.262,0-2.235-0.383-2.921-1.148s-1.028-1.854-1.028-3.264
			c0-0.883,0.165-1.656,0.495-2.32s0.807-1.176,1.43-1.535s1.356-0.539,2.2-0.539c0.898,0,1.684,0.164,2.355,0.492l-0.422,0.855
			C235.472,68.51,234.824,68.358,234.176,68.358z"/>
		<path fill="#FFFFFF" d="M242.912,73.877c0,0.754-0.273,1.342-0.82,1.764s-1.289,0.633-2.227,0.633
			c-1.016,0-1.797-0.131-2.344-0.393V74.92c0.352,0.148,0.734,0.266,1.148,0.352s0.824,0.129,1.23,0.129
			c0.664,0,1.164-0.126,1.5-0.378s0.504-0.603,0.504-1.052c0-0.297-0.06-0.54-0.179-0.729s-0.318-0.364-0.598-0.524
			s-0.704-0.342-1.274-0.545c-0.797-0.285-1.366-0.623-1.708-1.014s-0.513-0.9-0.513-1.529c0-0.66,0.248-1.186,0.744-1.576
			s1.152-0.586,1.969-0.586c0.852,0,1.635,0.156,2.35,0.469l-0.311,0.867c-0.707-0.297-1.395-0.445-2.062-0.445
			c-0.527,0-0.939,0.113-1.236,0.34s-0.445,0.541-0.445,0.943c0,0.297,0.055,0.54,0.164,0.729s0.294,0.363,0.554,0.521
			s0.657,0.333,1.192,0.524c0.898,0.32,1.517,0.664,1.854,1.031S242.912,73.291,242.912,73.877z"/>
	</g>
	<g>
		<path fill="#FFFFFF" d="M352.275,76.156h-0.996v-4.031h-4.512v4.031h-0.996V67.59h0.996v3.645h4.512V67.59h0.996V76.156z"/>
		<path fill="#FFFFFF" d="M361.093,67.59v5.543c0,0.977-0.295,1.744-0.885,2.303s-1.4,0.838-2.432,0.838s-1.829-0.281-2.394-0.844
			s-0.847-1.336-0.847-2.32v-5.52h0.996v5.59c0,0.715,0.195,1.264,0.586,1.646s0.965,0.574,1.723,0.574
			c0.723,0,1.279-0.192,1.67-0.577s0.586-0.937,0.586-1.655V67.59H361.093z"/>
		<path fill="#FFFFFF" d="M363.361,67.59h2.42c1.137,0,1.959,0.17,2.467,0.51s0.762,0.877,0.762,1.611
			c0,0.508-0.142,0.927-0.425,1.257s-0.696,0.544-1.239,0.642v0.059c1.301,0.223,1.951,0.906,1.951,2.051
			c0,0.766-0.259,1.363-0.776,1.793s-1.241,0.645-2.171,0.645h-2.988V67.59z M364.357,71.258h1.641c0.703,0,1.209-0.11,1.518-0.331
			s0.463-0.593,0.463-1.116c0-0.48-0.172-0.827-0.516-1.04s-0.891-0.319-1.641-0.319h-1.465V71.258z M364.357,72.102v3.205h1.787
			c0.691,0,1.212-0.134,1.562-0.401s0.524-0.687,0.524-1.257c0-0.531-0.179-0.922-0.536-1.172s-0.901-0.375-1.632-0.375H364.357z"/>
		<path fill="#FFFFFF" d="M375.249,72.594v3.562h-0.996V67.59h2.35c1.051,0,1.827,0.201,2.329,0.604s0.753,1.008,0.753,1.816
			c0,1.133-0.574,1.898-1.723,2.297l2.326,3.85h-1.178l-2.074-3.562H375.249z M375.249,71.738h1.365c0.703,0,1.219-0.14,1.547-0.419
			s0.492-0.698,0.492-1.257c0-0.566-0.167-0.975-0.501-1.225s-0.87-0.375-1.608-0.375h-1.295V71.738z"/>
		<path fill="#FFFFFF" d="M386.447,76.156h-4.775V67.59h4.775v0.885h-3.779v2.76h3.551v0.879h-3.551v3.152h3.779V76.156z"/>
		<path fill="#FFFFFF" d="M392.113,71.668h2.912v4.166c-0.453,0.145-0.914,0.254-1.383,0.328s-1.012,0.111-1.629,0.111
			c-1.297,0-2.307-0.386-3.029-1.157s-1.084-1.853-1.084-3.243c0-0.891,0.179-1.671,0.536-2.341s0.872-1.182,1.544-1.535
			s1.459-0.53,2.361-0.53c0.914,0,1.766,0.168,2.555,0.504l-0.387,0.879c-0.773-0.328-1.518-0.492-2.232-0.492
			c-1.043,0-1.857,0.311-2.443,0.932s-0.879,1.482-0.879,2.584c0,1.156,0.282,2.033,0.847,2.631s1.394,0.896,2.487,0.896
			c0.594,0,1.174-0.068,1.74-0.205v-2.637h-1.916V71.668z"/>
		<path fill="#FFFFFF" d="M397.081,76.156V67.59h0.996v8.566H397.081z"/>
		<path fill="#FFFFFF" d="M405.261,73.877c0,0.754-0.273,1.342-0.82,1.764s-1.289,0.633-2.227,0.633
			c-1.016,0-1.797-0.131-2.344-0.393V74.92c0.352,0.148,0.734,0.266,1.148,0.352s0.824,0.129,1.23,0.129
			c0.664,0,1.164-0.126,1.5-0.378s0.504-0.603,0.504-1.052c0-0.297-0.06-0.54-0.179-0.729s-0.318-0.364-0.598-0.524
			s-0.704-0.342-1.274-0.545c-0.797-0.285-1.366-0.623-1.708-1.014s-0.513-0.9-0.513-1.529c0-0.66,0.248-1.186,0.744-1.576
			s1.152-0.586,1.969-0.586c0.852,0,1.635,0.156,2.35,0.469l-0.311,0.867c-0.707-0.297-1.395-0.445-2.062-0.445
			c-0.527,0-0.939,0.113-1.236,0.34s-0.445,0.541-0.445,0.943c0,0.297,0.055,0.54,0.164,0.729s0.294,0.363,0.554,0.521
			s0.657,0.333,1.192,0.524c0.898,0.32,1.517,0.664,1.854,1.031S405.261,73.291,405.261,73.877z"/>
		<path fill="#FFFFFF" d="M409.65,76.156h-0.996v-7.682h-2.713V67.59h6.422v0.885h-2.713V76.156z"/>
		<path fill="#FFFFFF" d="M414.648,72.594v3.562h-0.996V67.59h2.35c1.051,0,1.827,0.201,2.329,0.604s0.753,1.008,0.753,1.816
			c0,1.133-0.574,1.898-1.723,2.297l2.326,3.85h-1.178l-2.074-3.562H414.648z M414.648,71.738h1.365c0.703,0,1.219-0.14,1.547-0.419
			s0.492-0.698,0.492-1.257c0-0.566-0.167-0.975-0.501-1.225s-0.87-0.375-1.608-0.375h-1.295V71.738z"/>
		<path fill="#FFFFFF" d="M423.249,71.873l2.285-4.283h1.078l-2.859,5.244v3.322h-1.008v-3.275l-2.854-5.291h1.09L423.249,71.873z"
			/>
	</g>
	<g>
		<path fill="#FFFFFF" d="M516.683,70.086c0,0.867-0.296,1.534-0.888,2.001s-1.438,0.7-2.54,0.7h-1.008v3.369h-0.996V67.59h2.221
			C515.613,67.59,516.683,68.422,516.683,70.086z M512.248,71.932h0.896c0.883,0,1.521-0.143,1.916-0.428s0.592-0.742,0.592-1.371
			c0-0.566-0.186-0.988-0.557-1.266s-0.949-0.416-1.734-0.416h-1.113V71.932z"/>
		<path fill="#FFFFFF" d="M518.476,76.156V67.59h0.996v7.664h3.779v0.902H518.476z"/>
		<path fill="#FFFFFF" d="M531.174,67.59v5.543c0,0.977-0.295,1.744-0.885,2.303s-1.4,0.838-2.432,0.838s-1.829-0.281-2.394-0.844
			s-0.847-1.336-0.847-2.32v-5.52h0.996v5.59c0,0.715,0.195,1.264,0.586,1.646s0.965,0.574,1.723,0.574
			c0.723,0,1.279-0.192,1.67-0.577s0.586-0.937,0.586-1.655V67.59H531.174z"/>
		<path fill="#FFFFFF" d="M537.209,71.668h2.912v4.166c-0.453,0.145-0.914,0.254-1.383,0.328s-1.012,0.111-1.629,0.111
			c-1.297,0-2.307-0.386-3.029-1.157s-1.084-1.853-1.084-3.243c0-0.891,0.179-1.671,0.536-2.341s0.872-1.182,1.544-1.535
			s1.459-0.53,2.361-0.53c0.914,0,1.766,0.168,2.555,0.504l-0.387,0.879c-0.773-0.328-1.518-0.492-2.232-0.492
			c-1.043,0-1.857,0.311-2.443,0.932s-0.879,1.482-0.879,2.584c0,1.156,0.282,2.033,0.847,2.631s1.394,0.896,2.487,0.896
			c0.594,0,1.174-0.068,1.74-0.205v-2.637h-1.916V71.668z"/>
		<path fill="#FFFFFF" d="M542.178,76.156V67.59h0.996v8.566H542.178z"/>
		<path fill="#FFFFFF" d="M552.215,76.156h-1.137l-4.682-7.189h-0.047c0.062,0.844,0.094,1.617,0.094,2.32v4.869h-0.92V67.59h1.125
			l4.67,7.16h0.047c-0.008-0.105-0.025-0.444-0.053-1.017s-0.037-0.981-0.029-1.228V67.59h0.932V76.156z"/>
		<path fill="#FFFFFF" d="M559.404,73.877c0,0.754-0.273,1.342-0.82,1.764s-1.289,0.633-2.227,0.633
			c-1.016,0-1.797-0.131-2.344-0.393V74.92c0.352,0.148,0.734,0.266,1.148,0.352s0.824,0.129,1.23,0.129
			c0.664,0,1.164-0.126,1.5-0.378s0.504-0.603,0.504-1.052c0-0.297-0.06-0.54-0.179-0.729s-0.318-0.364-0.598-0.524
			s-0.704-0.342-1.274-0.545c-0.797-0.285-1.366-0.623-1.708-1.014s-0.513-0.9-0.513-1.529c0-0.66,0.248-1.186,0.744-1.576
			s1.152-0.586,1.969-0.586c0.852,0,1.635,0.156,2.35,0.469l-0.311,0.867c-0.707-0.297-1.395-0.445-2.062-0.445
			c-0.527,0-0.939,0.113-1.236,0.34s-0.445,0.541-0.445,0.943c0,0.297,0.055,0.54,0.164,0.729s0.294,0.363,0.554,0.521
			s0.657,0.333,1.192,0.524c0.898,0.32,1.517,0.664,1.854,1.031S559.404,73.291,559.404,73.877z"/>
	</g>
	<g>
		<path d="M54.35,111.833l-0.978-2.497h-3.147l-0.967,2.497h-0.924l3.104-7.885h0.768l3.088,7.885H54.35z M53.088,108.514
			l-0.913-2.433c-0.118-0.309-0.24-0.686-0.365-1.134c-0.079,0.344-0.191,0.722-0.338,1.134l-0.924,2.433H53.088z"/>
		<path d="M58.926,105.839c0.261,0,0.496,0.021,0.704,0.064l-0.124,0.827c-0.244-0.054-0.458-0.08-0.645-0.08
			c-0.476,0-0.884,0.193-1.222,0.58c-0.339,0.387-0.508,0.868-0.508,1.444v3.158h-0.892v-5.887h0.736l0.102,1.091h0.043
			c0.218-0.384,0.481-0.679,0.79-0.887C58.219,105.944,58.557,105.839,58.926,105.839z"/>
		<path d="M63.083,111.941c-0.852,0-1.512-0.262-1.979-0.787c-0.467-0.524-0.701-1.267-0.701-2.226c0-0.985,0.237-1.746,0.711-2.283
			c0.475-0.537,1.15-0.806,2.028-0.806c0.283,0,0.566,0.03,0.849,0.092c0.283,0.061,0.505,0.132,0.666,0.215l-0.274,0.757
			c-0.197-0.078-0.412-0.144-0.645-0.196c-0.233-0.052-0.438-0.077-0.618-0.077c-1.196,0-1.794,0.763-1.794,2.288
			c0,0.723,0.146,1.278,0.438,1.665c0.292,0.387,0.724,0.58,1.297,0.58c0.491,0,0.994-0.105,1.509-0.317v0.79
			C64.177,111.839,63.681,111.941,63.083,111.941z"/>
		<path d="M69.996,111.833v-3.808c0-0.48-0.109-0.838-0.328-1.074s-0.561-0.354-1.026-0.354c-0.62,0-1.071,0.168-1.356,0.505
			c-0.284,0.336-0.427,0.888-0.427,1.654v3.077h-0.892v-8.357h0.892v2.53c0,0.304-0.014,0.557-0.043,0.757h0.054
			c0.175-0.282,0.425-0.506,0.749-0.669c0.324-0.162,0.694-0.244,1.109-0.244c0.72,0,1.26,0.171,1.619,0.513
			c0.36,0.343,0.54,0.886,0.54,1.631v3.84H69.996z"/>
		<path d="M72.644,104.352c0-0.204,0.05-0.354,0.15-0.449c0.1-0.095,0.226-0.142,0.376-0.142c0.143,0,0.267,0.048,0.371,0.145
			s0.156,0.245,0.156,0.446c0,0.2-0.052,0.35-0.156,0.448s-0.228,0.147-0.371,0.147c-0.15,0-0.276-0.049-0.376-0.147
			S72.644,104.552,72.644,104.352z M73.611,111.833h-0.892v-5.887h0.892V111.833z"/>
		<path d="M76.79,111.833l-2.234-5.887h0.956l1.268,3.491c0.287,0.816,0.455,1.347,0.505,1.59h0.043
			c0.04-0.189,0.164-0.583,0.373-1.179c0.21-0.597,0.68-1.896,1.41-3.902h0.956l-2.234,5.887H76.79z"/>
		<path d="M83.499,111.941c-0.87,0-1.557-0.265-2.06-0.795c-0.503-0.529-0.754-1.266-0.754-2.207c0-0.949,0.234-1.703,0.701-2.262
			c0.468-0.559,1.095-0.838,1.883-0.838c0.738,0,1.321,0.243,1.751,0.728c0.43,0.485,0.645,1.126,0.645,1.921v0.563h-4.055
			c0.018,0.691,0.192,1.216,0.524,1.574c0.331,0.357,0.797,0.537,1.399,0.537c0.634,0,1.26-0.133,1.88-0.397v0.795
			c-0.315,0.136-0.613,0.233-0.894,0.292C84.236,111.911,83.896,111.941,83.499,111.941z M83.257,106.586
			c-0.473,0-0.85,0.153-1.131,0.462c-0.281,0.308-0.446,0.733-0.497,1.278h3.078c0-0.562-0.125-0.993-0.376-1.292
			S83.722,106.586,83.257,106.586z"/>
	</g>
	<g>
		<path d="M55.344,134.481v5.081c0,0.896-0.271,1.599-0.811,2.111c-0.541,0.512-1.284,0.768-2.229,0.768s-1.677-0.258-2.194-0.773
			c-0.518-0.516-0.776-1.225-0.776-2.127v-5.06h0.913v5.124c0,0.655,0.179,1.158,0.537,1.51c0.358,0.351,0.884,0.526,1.579,0.526
			c0.663,0,1.173-0.177,1.531-0.529s0.537-0.858,0.537-1.518v-5.113H55.344z"/>
		<path d="M58.335,139.068v3.266h-0.913v-7.853h2.154c0.963,0,1.675,0.185,2.135,0.554c0.46,0.368,0.69,0.924,0.69,1.665
			c0,1.038-0.526,1.74-1.579,2.105l2.132,3.528h-1.08l-1.901-3.266H58.335z M58.335,138.284h1.251c0.645,0,1.117-0.128,1.418-0.384
			s0.451-0.64,0.451-1.152c0-0.519-0.153-0.894-0.459-1.122c-0.307-0.229-0.798-0.344-1.475-0.344h-1.187V138.284z"/>
		<path d="M64.222,142.333v-7.853h0.913v7.025h3.464v0.827H64.222z"/>
	</g>
	<g>
		<path d="M202.868,107.719h2.669v3.819c-0.416,0.132-0.838,0.232-1.268,0.301c-0.43,0.067-0.927,0.102-1.493,0.102
			c-1.189,0-2.114-0.354-2.777-1.061s-0.994-1.698-0.994-2.973c0-0.816,0.164-1.532,0.492-2.146
			c0.327-0.613,0.799-1.083,1.415-1.407c0.616-0.323,1.337-0.485,2.165-0.485c0.838,0,1.619,0.153,2.342,0.462l-0.354,0.806
			c-0.709-0.301-1.391-0.451-2.046-0.451c-0.956,0-1.703,0.284-2.24,0.854s-0.806,1.359-0.806,2.369c0,1.06,0.259,1.863,0.776,2.411
			c0.518,0.548,1.278,0.822,2.28,0.822c0.544,0,1.076-0.062,1.595-0.188v-2.417h-1.756V107.719z"/>
		<path d="M207.422,111.833v-7.853h0.913v7.853H207.422z"/>
		<path d="M212.906,111.833h-0.913v-7.041h-2.487v-0.812h5.887v0.812h-2.487V111.833z"/>
	</g>
	<g>
		<path d="M203.845,140.244c0,0.69-0.25,1.229-0.752,1.616s-1.182,0.58-2.041,0.58c-0.931,0-1.647-0.12-2.148-0.359v-0.881
			c0.322,0.136,0.673,0.243,1.053,0.322c0.379,0.078,0.755,0.118,1.128,0.118c0.609,0,1.067-0.116,1.375-0.347
			c0.308-0.231,0.462-0.553,0.462-0.964c0-0.272-0.055-0.495-0.164-0.669c-0.109-0.174-0.292-0.334-0.548-0.48
			c-0.256-0.147-0.645-0.313-1.168-0.5c-0.73-0.261-1.252-0.571-1.565-0.929c-0.313-0.358-0.47-0.825-0.47-1.402
			c0-0.604,0.228-1.087,0.682-1.444c0.455-0.358,1.056-0.537,1.805-0.537c0.781,0,1.499,0.143,2.154,0.43l-0.285,0.795
			c-0.648-0.272-1.278-0.408-1.891-0.408c-0.483,0-0.861,0.104-1.133,0.312c-0.272,0.207-0.408,0.496-0.408,0.864
			c0,0.272,0.05,0.495,0.15,0.669s0.27,0.333,0.507,0.478c0.238,0.146,0.603,0.306,1.093,0.481c0.824,0.293,1.39,0.608,1.7,0.945
			C203.69,139.27,203.845,139.707,203.845,140.244z"/>
		<path d="M209.936,134.481h0.983l-2.831,7.853h-0.902l-2.814-7.853h0.967l1.805,5.081c0.208,0.584,0.373,1.151,0.494,1.703
			c0.129-0.58,0.297-1.158,0.505-1.735L209.936,134.481z"/>
		<path d="M218.132,142.333h-1.042l-4.292-6.59h-0.043c0.057,0.773,0.086,1.482,0.086,2.127v4.463h-0.843v-7.853h1.031l4.281,6.563
			h0.043c-0.007-0.097-0.023-0.407-0.048-0.932s-0.034-0.899-0.027-1.125v-4.507h0.854V142.333z"/>
	</g>
	<g>
		<path d="M199.414,164.481h2.218c1.042,0,1.796,0.156,2.261,0.468s0.698,0.804,0.698,1.477c0,0.466-0.13,0.85-0.389,1.152
			c-0.26,0.303-0.639,0.499-1.136,0.588v0.054c1.192,0.204,1.789,0.831,1.789,1.88c0,0.702-0.237,1.25-0.712,1.644
			c-0.474,0.395-1.138,0.591-1.99,0.591h-2.739V164.481z M200.327,167.843h1.504c0.645,0,1.108-0.101,1.391-0.304
			c0.283-0.202,0.424-0.543,0.424-1.022c0-0.44-0.158-0.759-0.473-0.954c-0.315-0.194-0.816-0.292-1.504-0.292h-1.343V167.843z
			 M200.327,168.617v2.938h1.638c0.634,0,1.111-0.123,1.432-0.368c0.32-0.245,0.48-0.629,0.48-1.152
			c0-0.486-0.164-0.845-0.491-1.074c-0.328-0.229-0.827-0.344-1.496-0.344H200.327z"/>
		<path d="M206.332,164.852c0-0.204,0.05-0.354,0.15-0.449c0.1-0.095,0.226-0.142,0.376-0.142c0.143,0,0.267,0.048,0.371,0.145
			s0.156,0.245,0.156,0.446c0,0.2-0.052,0.35-0.156,0.448s-0.228,0.147-0.371,0.147c-0.15,0-0.276-0.049-0.376-0.147
			S206.332,165.052,206.332,164.852z M207.299,172.333h-0.892v-5.887h0.892V172.333z"/>
		<path d="M211.091,171.705c0.158,0,0.31-0.012,0.457-0.035s0.263-0.048,0.349-0.072v0.682c-0.097,0.047-0.239,0.085-0.427,0.115
			c-0.188,0.031-0.357,0.046-0.508,0.046c-1.139,0-1.708-0.6-1.708-1.799v-3.502h-0.843v-0.43l0.843-0.371l0.376-1.257h0.516v1.364
			h1.708v0.693h-1.708v3.464c0,0.354,0.084,0.627,0.252,0.816C210.566,171.611,210.797,171.705,211.091,171.705z"/>
		<path d="M215.812,166.35c0.773,0,1.374,0.265,1.802,0.792c0.428,0.528,0.642,1.276,0.642,2.243s-0.216,1.718-0.647,2.253
			c-0.432,0.535-1.031,0.803-1.797,0.803c-0.383,0-0.733-0.07-1.05-0.212c-0.317-0.142-0.583-0.359-0.798-0.652H213.9l-0.188,0.757
			h-0.639v-8.357h0.892v2.03c0,0.455-0.014,0.863-0.043,1.225h0.043C214.38,166.644,214.995,166.35,215.812,166.35z
			 M215.683,167.097c-0.609,0-1.047,0.174-1.316,0.523c-0.269,0.349-0.403,0.938-0.403,1.765s0.138,1.419,0.414,1.774
			c0.276,0.356,0.718,0.535,1.327,0.535c0.548,0,0.956-0.2,1.225-0.6c0.269-0.398,0.403-0.973,0.403-1.721
			c0-0.767-0.134-1.338-0.403-1.714S216.245,167.097,215.683,167.097z"/>
		<path d="M220.651,166.447v3.819c0,0.479,0.109,0.838,0.328,1.074s0.561,0.354,1.026,0.354c0.616,0,1.066-0.169,1.351-0.505
			c0.285-0.337,0.427-0.887,0.427-1.649v-3.094h0.892v5.887h-0.736l-0.129-0.789h-0.048c-0.183,0.29-0.436,0.512-0.76,0.666
			c-0.324,0.153-0.693,0.23-1.109,0.23c-0.716,0-1.252-0.17-1.609-0.51c-0.356-0.341-0.534-0.885-0.534-1.633v-3.852H220.651z"/>
		<path d="M228.917,172.441c-0.852,0-1.512-0.262-1.979-0.787c-0.467-0.524-0.701-1.267-0.701-2.226
			c0-0.985,0.237-1.746,0.711-2.283c0.475-0.537,1.15-0.806,2.028-0.806c0.283,0,0.566,0.03,0.849,0.092
			c0.283,0.061,0.505,0.132,0.666,0.215l-0.274,0.757c-0.197-0.078-0.412-0.144-0.645-0.196c-0.233-0.052-0.438-0.077-0.618-0.077
			c-1.196,0-1.794,0.763-1.794,2.288c0,0.723,0.146,1.278,0.438,1.665c0.292,0.387,0.724,0.58,1.297,0.58
			c0.491,0,0.994-0.105,1.509-0.317v0.79C230.011,172.339,229.515,172.441,228.917,172.441z"/>
		<path d="M232.682,169.321c0.154-0.219,0.389-0.505,0.704-0.859l1.901-2.015h1.058l-2.385,2.509l2.551,3.378h-1.08l-2.079-2.782
			l-0.671,0.58v2.202h-0.881v-8.357h0.881v4.432c0,0.196-0.014,0.501-0.043,0.913H232.682z"/>
		<path d="M240.062,172.441c-0.87,0-1.557-0.265-2.06-0.795c-0.503-0.529-0.754-1.266-0.754-2.207c0-0.949,0.234-1.703,0.701-2.262
			c0.468-0.559,1.095-0.838,1.883-0.838c0.738,0,1.321,0.243,1.751,0.728c0.43,0.485,0.645,1.126,0.645,1.921v0.563h-4.055
			c0.018,0.691,0.192,1.216,0.524,1.574c0.331,0.357,0.797,0.537,1.399,0.537c0.634,0,1.26-0.133,1.88-0.397v0.795
			c-0.315,0.136-0.613,0.233-0.894,0.292C240.799,172.411,240.46,172.441,240.062,172.441z M239.821,167.086
			c-0.473,0-0.85,0.153-1.131,0.462c-0.281,0.308-0.446,0.733-0.497,1.278h3.078c0-0.562-0.125-0.993-0.376-1.292
			S240.286,167.086,239.821,167.086z"/>
		<path d="M245.648,171.705c0.158,0,0.31-0.012,0.457-0.035s0.263-0.048,0.349-0.072v0.682c-0.097,0.047-0.239,0.085-0.427,0.115
			c-0.188,0.031-0.357,0.046-0.508,0.046c-1.139,0-1.708-0.6-1.708-1.799v-3.502h-0.843v-0.43l0.843-0.371l0.376-1.257h0.516v1.364
			h1.708v0.693h-1.708v3.464c0,0.354,0.084,0.627,0.252,0.816C245.124,171.611,245.355,171.705,245.648,171.705z"/>
	</g>
	<g>
		<path d="M354.892,106.269c0,0.795-0.271,1.406-0.813,1.834c-0.543,0.429-1.319,0.643-2.329,0.643h-0.924v3.088h-0.913v-7.853
			h2.036C353.911,103.981,354.892,104.743,354.892,106.269z M350.827,107.961h0.822c0.809,0,1.395-0.131,1.756-0.393
			c0.362-0.261,0.542-0.68,0.542-1.257c0-0.519-0.17-0.905-0.51-1.16c-0.34-0.254-0.87-0.381-1.59-0.381h-1.021V107.961z"/>
		<path d="M357.24,105.947v3.819c0,0.479,0.109,0.838,0.328,1.074s0.561,0.354,1.026,0.354c0.616,0,1.066-0.169,1.351-0.505
			c0.285-0.337,0.427-0.887,0.427-1.649v-3.094h0.892v5.887h-0.736l-0.129-0.789h-0.048c-0.183,0.29-0.436,0.512-0.76,0.666
			c-0.324,0.153-0.693,0.23-1.109,0.23c-0.716,0-1.252-0.17-1.609-0.51c-0.356-0.341-0.534-0.885-0.534-1.633v-3.852H357.24z"/>
		<path d="M365.892,105.85c0.773,0,1.374,0.265,1.802,0.792c0.428,0.528,0.642,1.276,0.642,2.243s-0.216,1.718-0.647,2.253
			c-0.432,0.535-1.031,0.803-1.797,0.803c-0.383,0-0.733-0.07-1.05-0.212c-0.317-0.142-0.583-0.359-0.798-0.652h-0.064l-0.188,0.757
			h-0.639v-8.357h0.892v2.03c0,0.455-0.014,0.863-0.043,1.225h0.043C364.46,106.144,365.076,105.85,365.892,105.85z
			 M365.764,106.597c-0.609,0-1.047,0.174-1.316,0.523c-0.269,0.349-0.403,0.938-0.403,1.765s0.138,1.419,0.414,1.774
			c0.276,0.356,0.718,0.535,1.327,0.535c0.548,0,0.956-0.2,1.225-0.6c0.269-0.398,0.403-0.973,0.403-1.721
			c0-0.767-0.134-1.338-0.403-1.714S366.326,106.597,365.764,106.597z"/>
		<path d="M370.785,111.833h-0.892v-8.357h0.892V111.833z"/>
		<path d="M372.601,104.352c0-0.204,0.05-0.354,0.15-0.449c0.1-0.095,0.226-0.142,0.376-0.142c0.143,0,0.267,0.048,0.371,0.145
			s0.156,0.245,0.156,0.446c0,0.2-0.052,0.35-0.156,0.448s-0.228,0.147-0.371,0.147c-0.15,0-0.276-0.049-0.376-0.147
			S372.601,104.552,372.601,104.352z M373.568,111.833h-0.892v-5.887h0.892V111.833z"/>
		<path d="M377.811,111.941c-0.852,0-1.512-0.262-1.979-0.787c-0.467-0.524-0.701-1.267-0.701-2.226
			c0-0.985,0.237-1.746,0.711-2.283c0.475-0.537,1.15-0.806,2.028-0.806c0.283,0,0.566,0.03,0.849,0.092
			c0.283,0.061,0.505,0.132,0.666,0.215l-0.274,0.757c-0.197-0.078-0.412-0.144-0.645-0.196c-0.233-0.052-0.438-0.077-0.618-0.077
			c-1.196,0-1.794,0.763-1.794,2.288c0,0.723,0.146,1.278,0.438,1.665c0.292,0.387,0.724,0.58,1.297,0.58
			c0.491,0,0.994-0.105,1.509-0.317v0.79C378.905,111.839,378.409,111.941,377.811,111.941z"/>
	</g>
	<g>
		<path d="M354.892,136.769c0,0.795-0.271,1.406-0.813,1.834c-0.543,0.429-1.319,0.643-2.329,0.643h-0.924v3.088h-0.913v-7.853
			h2.036C353.911,134.481,354.892,135.243,354.892,136.769z M350.827,138.461h0.822c0.809,0,1.395-0.131,1.756-0.393
			c0.362-0.261,0.542-0.68,0.542-1.257c0-0.519-0.17-0.905-0.51-1.16c-0.34-0.254-0.87-0.381-1.59-0.381h-1.021V138.461z"/>
		<path d="M359.087,136.339c0.261,0,0.496,0.021,0.704,0.064l-0.124,0.827c-0.244-0.054-0.458-0.08-0.645-0.08
			c-0.476,0-0.884,0.193-1.222,0.58c-0.339,0.387-0.508,0.868-0.508,1.444v3.158h-0.892v-5.887h0.736l0.102,1.091h0.043
			c0.218-0.384,0.481-0.679,0.79-0.887C358.38,136.444,358.719,136.339,359.087,136.339z"/>
		<path d="M360.817,134.852c0-0.204,0.05-0.354,0.15-0.449c0.1-0.095,0.226-0.142,0.376-0.142c0.143,0,0.267,0.048,0.371,0.145
			s0.156,0.245,0.156,0.446c0,0.2-0.052,0.35-0.156,0.448s-0.228,0.147-0.371,0.147c-0.15,0-0.276-0.049-0.376-0.147
			S360.817,135.052,360.817,134.852z M361.784,142.333h-0.892v-5.887h0.892V142.333z"/>
		<path d="M364.963,142.333l-2.234-5.887h0.956l1.268,3.491c0.287,0.816,0.455,1.347,0.505,1.59h0.043
			c0.04-0.189,0.164-0.583,0.373-1.179c0.21-0.597,0.68-1.896,1.41-3.902h0.956l-2.234,5.887H364.963z"/>
		<path d="M372.805,142.333l-0.177-0.838h-0.043c-0.293,0.369-0.586,0.619-0.878,0.749c-0.292,0.131-0.656,0.196-1.093,0.196
			c-0.583,0-1.041-0.15-1.372-0.451c-0.332-0.301-0.497-0.729-0.497-1.283c0-1.189,0.951-1.812,2.852-1.869l0.999-0.032v-0.365
			c0-0.462-0.099-0.804-0.298-1.023c-0.198-0.221-0.516-0.33-0.953-0.33c-0.491,0-1.045,0.15-1.665,0.451l-0.274-0.683
			c0.29-0.157,0.608-0.281,0.954-0.37c0.345-0.09,0.692-0.135,1.039-0.135c0.702,0,1.222,0.156,1.561,0.468
			c0.338,0.312,0.507,0.811,0.507,1.498v4.018H372.805z M370.791,141.705c0.555,0,0.991-0.152,1.308-0.457
			c0.316-0.304,0.475-0.73,0.475-1.278v-0.531l-0.892,0.037c-0.709,0.025-1.22,0.136-1.534,0.33c-0.313,0.195-0.47,0.499-0.47,0.911
			c0,0.322,0.098,0.567,0.293,0.735C370.167,141.621,370.44,141.705,370.791,141.705z"/>
		<path d="M377.204,141.705c0.158,0,0.31-0.012,0.457-0.035s0.263-0.048,0.349-0.072v0.682c-0.097,0.047-0.239,0.085-0.427,0.115
			c-0.188,0.031-0.357,0.046-0.508,0.046c-1.139,0-1.708-0.6-1.708-1.799v-3.502h-0.843v-0.43l0.843-0.371l0.376-1.257h0.516v1.364
			h1.708v0.693h-1.708v3.464c0,0.354,0.084,0.627,0.252,0.816C376.68,141.611,376.91,141.705,377.204,141.705z"/>
		<path d="M381.673,142.441c-0.87,0-1.557-0.265-2.06-0.795c-0.503-0.529-0.754-1.266-0.754-2.207c0-0.949,0.234-1.703,0.701-2.262
			c0.468-0.559,1.095-0.838,1.883-0.838c0.738,0,1.321,0.243,1.751,0.728c0.43,0.485,0.645,1.126,0.645,1.921v0.563h-4.055
			c0.018,0.691,0.192,1.216,0.524,1.574c0.331,0.357,0.797,0.537,1.399,0.537c0.634,0,1.26-0.133,1.88-0.397v0.795
			c-0.315,0.136-0.613,0.233-0.894,0.292C382.41,142.411,382.07,142.441,381.673,142.441z M381.431,137.086
			c-0.473,0-0.85,0.153-1.131,0.462c-0.281,0.308-0.446,0.733-0.497,1.278h3.078c0-0.562-0.125-0.993-0.376-1.292
			S381.896,137.086,381.431,137.086z"/>
	</g>
	<g>
		<path d="M504.291,111.833h-4.378v-7.853h4.378v0.812h-3.465v2.529h3.255v0.806h-3.255v2.89h3.465V111.833z"/>
		<path d="M508.249,111.941c-0.852,0-1.512-0.262-1.979-0.787c-0.467-0.524-0.7-1.267-0.7-2.226c0-0.985,0.237-1.746,0.711-2.283
			c0.475-0.537,1.15-0.806,2.028-0.806c0.282,0,0.565,0.03,0.849,0.092c0.282,0.061,0.505,0.132,0.666,0.215l-0.274,0.757
			c-0.196-0.078-0.411-0.144-0.645-0.196c-0.232-0.052-0.438-0.077-0.617-0.077c-1.196,0-1.794,0.763-1.794,2.288
			c0,0.723,0.146,1.278,0.438,1.665s0.725,0.58,1.297,0.58c0.491,0,0.994-0.105,1.51-0.317v0.79
			C509.343,111.839,508.848,111.941,508.249,111.941z"/>
		<path d="M512.026,111.833h-0.892v-8.357h0.892V111.833z"/>
		<path d="M513.841,104.352c0-0.204,0.05-0.354,0.15-0.449c0.1-0.095,0.226-0.142,0.376-0.142c0.143,0,0.267,0.048,0.37,0.145
			c0.104,0.097,0.156,0.245,0.156,0.446c0,0.2-0.052,0.35-0.156,0.448c-0.104,0.099-0.228,0.147-0.37,0.147
			c-0.15,0-0.276-0.049-0.376-0.147C513.891,104.701,513.841,104.552,513.841,104.352z M514.808,111.833h-0.892v-5.887h0.892
			V111.833z"/>
		<path d="M519.438,111.941c-0.384,0-0.733-0.07-1.05-0.212c-0.317-0.142-0.583-0.359-0.798-0.652h-0.064
			c0.043,0.344,0.064,0.669,0.064,0.978v2.422h-0.892v-8.529h0.725l0.124,0.806h0.043c0.229-0.322,0.496-0.555,0.8-0.698
			c0.305-0.143,0.653-0.215,1.048-0.215c0.78,0,1.383,0.267,1.808,0.801c0.424,0.533,0.636,1.281,0.636,2.245
			c0,0.967-0.216,1.718-0.646,2.253C520.803,111.673,520.203,111.941,519.438,111.941z M519.309,106.597
			c-0.602,0-1.037,0.166-1.306,0.499s-0.406,0.863-0.413,1.59v0.199c0,0.827,0.138,1.419,0.413,1.774
			c0.276,0.356,0.718,0.535,1.327,0.535c0.508,0,0.906-0.206,1.195-0.618c0.288-0.411,0.432-0.979,0.432-1.702
			c0-0.734-0.144-1.298-0.432-1.689C520.237,106.792,519.831,106.597,519.309,106.597z"/>
		<path d="M527.237,110.228c0,0.548-0.204,0.97-0.612,1.268c-0.408,0.297-0.981,0.445-1.719,0.445c-0.781,0-1.39-0.123-1.826-0.37
			v-0.827c0.282,0.143,0.586,0.256,0.91,0.338c0.324,0.083,0.637,0.124,0.938,0.124c0.465,0,0.823-0.074,1.074-0.224
			c0.25-0.148,0.376-0.375,0.376-0.679c0-0.229-0.1-0.426-0.299-0.589c-0.198-0.162-0.586-0.354-1.162-0.577
			c-0.548-0.204-0.938-0.382-1.169-0.534c-0.23-0.152-0.402-0.325-0.516-0.519c-0.112-0.193-0.169-0.424-0.169-0.692
			c0-0.48,0.195-0.858,0.586-1.137c0.39-0.277,0.926-0.416,1.605-0.416c0.634,0,1.254,0.129,1.858,0.387l-0.316,0.726
			c-0.591-0.244-1.126-0.365-1.606-0.365c-0.422,0-0.741,0.066-0.956,0.198c-0.215,0.133-0.322,0.315-0.322,0.548
			c0,0.158,0.04,0.292,0.121,0.403c0.08,0.11,0.21,0.217,0.39,0.316c0.179,0.101,0.522,0.245,1.031,0.436
			c0.698,0.254,1.17,0.51,1.415,0.768S527.237,109.837,527.237,110.228z"/>
		<path d="M531.173,111.941c-0.87,0-1.557-0.265-2.06-0.795c-0.503-0.529-0.755-1.266-0.755-2.207c0-0.949,0.234-1.703,0.701-2.262
			c0.468-0.559,1.095-0.838,1.883-0.838c0.737,0,1.321,0.243,1.751,0.728c0.43,0.485,0.645,1.126,0.645,1.921v0.563h-4.056
			c0.019,0.691,0.192,1.216,0.524,1.574c0.331,0.357,0.797,0.537,1.398,0.537c0.634,0,1.261-0.133,1.88-0.397v0.795
			c-0.314,0.136-0.613,0.233-0.894,0.292C531.91,111.911,531.571,111.941,531.173,111.941z M530.932,106.586
			c-0.473,0-0.85,0.153-1.131,0.462c-0.281,0.308-0.446,0.733-0.497,1.278h3.078c0-0.562-0.126-0.993-0.376-1.292
			C531.755,106.736,531.397,106.586,530.932,106.586z"/>
	</g>
	<g>
		<path d="M499.913,142.333v-7.853h0.913v7.853H499.913z"/>
		<path d="M506.874,142.333v-3.808c0-0.48-0.109-0.838-0.327-1.074c-0.219-0.236-0.561-0.354-1.026-0.354
			c-0.615,0-1.066,0.166-1.353,0.499c-0.286,0.333-0.43,0.883-0.43,1.649v3.088h-0.892v-5.887h0.726l0.145,0.806h0.043
			c0.183-0.29,0.438-0.515,0.769-0.674c0.329-0.159,0.696-0.239,1.101-0.239c0.709,0,1.243,0.171,1.601,0.513
			c0.358,0.343,0.537,0.89,0.537,1.642v3.84H506.874z"/>
		<path d="M511.499,141.705c0.157,0,0.31-0.012,0.456-0.035c0.147-0.023,0.264-0.048,0.35-0.072v0.682
			c-0.097,0.047-0.239,0.085-0.427,0.115c-0.188,0.031-0.357,0.046-0.508,0.046c-1.139,0-1.708-0.6-1.708-1.799v-3.502h-0.844v-0.43
			l0.844-0.371l0.376-1.257h0.516v1.364h1.708v0.693h-1.708v3.464c0,0.354,0.084,0.627,0.252,0.816
			C510.975,141.611,511.205,141.705,511.499,141.705z"/>
		<path d="M515.968,142.441c-0.87,0-1.557-0.265-2.061-0.795c-0.503-0.529-0.754-1.266-0.754-2.207c0-0.949,0.233-1.703,0.7-2.262
			c0.468-0.559,1.096-0.838,1.883-0.838c0.738,0,1.321,0.243,1.751,0.728c0.43,0.485,0.645,1.126,0.645,1.921v0.563h-4.055
			c0.018,0.691,0.192,1.216,0.523,1.574c0.331,0.357,0.798,0.537,1.399,0.537c0.634,0,1.26-0.133,1.88-0.397v0.795
			c-0.315,0.136-0.613,0.233-0.895,0.292C516.704,142.411,516.366,142.441,515.968,142.441z M515.726,137.086
			c-0.473,0-0.85,0.153-1.131,0.462c-0.28,0.308-0.446,0.733-0.496,1.278h3.077c0-0.562-0.125-0.993-0.376-1.292
			C516.55,137.236,516.192,137.086,515.726,137.086z"/>
		<path d="M520.544,142.333h-0.892v-8.357h0.892V142.333z"/>
		<path d="M523.326,142.333h-0.892v-8.357h0.892V142.333z"/>
		<path d="M525.142,134.852c0-0.204,0.05-0.354,0.15-0.449c0.1-0.095,0.226-0.142,0.376-0.142c0.143,0,0.267,0.048,0.37,0.145
			c0.104,0.097,0.156,0.245,0.156,0.446c0,0.2-0.052,0.35-0.156,0.448c-0.104,0.099-0.228,0.147-0.37,0.147
			c-0.15,0-0.276-0.049-0.376-0.147C525.192,135.201,525.142,135.052,525.142,134.852z M526.109,142.333h-0.892v-5.887h0.892
			V142.333z"/>
		<path d="M527.284,144.976c-0.34,0-0.615-0.045-0.827-0.134v-0.726c0.247,0.072,0.491,0.107,0.73,0.107
			c0.279,0,0.484-0.076,0.615-0.229c0.131-0.151,0.196-0.384,0.196-0.695v-6.854h0.892v6.789
			C528.891,144.396,528.356,144.976,527.284,144.976z M527.924,134.852c0-0.204,0.05-0.354,0.15-0.449
			c0.1-0.095,0.226-0.142,0.376-0.142c0.143,0,0.267,0.048,0.37,0.145c0.104,0.097,0.156,0.245,0.156,0.446
			c0,0.2-0.052,0.35-0.156,0.448c-0.104,0.099-0.228,0.147-0.37,0.147c-0.15,0-0.276-0.049-0.376-0.147
			C527.974,135.201,527.924,135.052,527.924,134.852z"/>
		<path d="M533.773,142.333v-7.853h0.913v7.853H533.773z"/>
		<path d="M543.108,138.332c0,1.296-0.352,2.287-1.056,2.973c-0.703,0.686-1.716,1.028-3.037,1.028h-2.175v-7.853h2.406
			c1.221,0,2.17,0.339,2.847,1.016S543.108,137.118,543.108,138.332z M542.141,138.365c0-1.024-0.257-1.796-0.771-2.315
			c-0.514-0.519-1.277-0.778-2.291-0.778h-1.326v6.273h1.111c1.089,0,1.907-0.268,2.455-0.804
			C541.867,140.205,542.141,139.413,542.141,138.365z"/>
		<path d="M549.237,142.333h-4.378v-7.853h4.378v0.812h-3.465v2.529h3.255v0.806h-3.255v2.89h3.465V142.333z"/>
		<path d="M555.912,142.333l-0.978-2.497h-3.147l-0.967,2.497h-0.924l3.104-7.885h0.769l3.088,7.885H555.912z M554.651,139.014
			l-0.913-2.433c-0.118-0.309-0.24-0.686-0.365-1.134c-0.079,0.344-0.191,0.722-0.339,1.134l-0.924,2.433H554.651z"/>
	</g>
	<g>
		<path d="M506.047,172.333h-1.042l-4.291-6.59h-0.043c0.057,0.773,0.086,1.482,0.086,2.127v4.463h-0.844v-7.853h1.031l4.281,6.563
			h0.043c-0.008-0.097-0.023-0.407-0.049-0.932c-0.024-0.524-0.034-0.899-0.026-1.125v-4.507h0.854V172.333z"/>
		<path d="M510.559,172.441c-0.87,0-1.557-0.265-2.06-0.795c-0.503-0.529-0.755-1.266-0.755-2.207c0-0.949,0.234-1.703,0.701-2.262
			c0.468-0.559,1.095-0.838,1.883-0.838c0.737,0,1.321,0.243,1.751,0.728c0.43,0.485,0.645,1.126,0.645,1.921v0.563h-4.056
			c0.019,0.691,0.192,1.216,0.524,1.574c0.331,0.357,0.797,0.537,1.398,0.537c0.634,0,1.261-0.133,1.88-0.397v0.795
			c-0.314,0.136-0.613,0.233-0.894,0.292C511.296,172.411,510.956,172.441,510.559,172.441z M510.318,167.086
			c-0.473,0-0.85,0.153-1.131,0.462c-0.281,0.308-0.446,0.733-0.497,1.278h3.078c0-0.562-0.126-0.993-0.376-1.292
			C511.141,167.236,510.783,167.086,510.318,167.086z"/>
		<path d="M516.145,171.705c0.158,0,0.31-0.012,0.457-0.035c0.146-0.023,0.263-0.048,0.349-0.072v0.682
			c-0.097,0.047-0.239,0.085-0.427,0.115c-0.188,0.031-0.357,0.046-0.508,0.046c-1.139,0-1.708-0.6-1.708-1.799v-3.502h-0.843v-0.43
			l0.843-0.371l0.376-1.257h0.516v1.364h1.708v0.693H515.2v3.464c0,0.354,0.084,0.627,0.253,0.816
			C515.62,171.611,515.852,171.705,516.145,171.705z"/>
		<path d="M520.867,166.35c0.773,0,1.374,0.265,1.802,0.792c0.428,0.528,0.642,1.276,0.642,2.243s-0.216,1.718-0.646,2.253
			c-0.432,0.535-1.031,0.803-1.797,0.803c-0.384,0-0.733-0.07-1.05-0.212c-0.317-0.142-0.583-0.359-0.798-0.652h-0.064l-0.188,0.757
			h-0.639v-8.357h0.892v2.03c0,0.455-0.015,0.863-0.043,1.225h0.043C519.434,166.644,520.05,166.35,520.867,166.35z
			 M520.738,167.097c-0.609,0-1.048,0.174-1.316,0.523c-0.269,0.349-0.402,0.938-0.402,1.765s0.138,1.419,0.413,1.774
			c0.276,0.356,0.718,0.535,1.327,0.535c0.548,0,0.956-0.2,1.225-0.6c0.269-0.398,0.402-0.973,0.402-1.721
			c0-0.767-0.134-1.338-0.402-1.714S521.299,167.097,520.738,167.097z"/>
		<path d="M527.355,172.441c-0.87,0-1.557-0.265-2.061-0.795c-0.503-0.529-0.754-1.266-0.754-2.207c0-0.949,0.233-1.703,0.7-2.262
			c0.468-0.559,1.096-0.838,1.883-0.838c0.738,0,1.321,0.243,1.751,0.728c0.43,0.485,0.645,1.126,0.645,1.921v0.563h-4.055
			c0.018,0.691,0.192,1.216,0.523,1.574c0.331,0.357,0.798,0.537,1.399,0.537c0.634,0,1.26-0.133,1.88-0.397v0.795
			c-0.315,0.136-0.613,0.233-0.895,0.292C528.091,172.411,527.752,172.441,527.355,172.441z M527.113,167.086
			c-0.473,0-0.85,0.153-1.131,0.462c-0.28,0.308-0.446,0.733-0.496,1.278h3.077c0-0.562-0.125-0.993-0.376-1.292
			C527.937,167.236,527.578,167.086,527.113,167.086z"/>
		<path d="M534.659,172.333l-0.178-0.838h-0.043c-0.293,0.369-0.586,0.619-0.878,0.749c-0.292,0.131-0.656,0.196-1.093,0.196
			c-0.584,0-1.041-0.15-1.372-0.451c-0.332-0.301-0.497-0.729-0.497-1.283c0-1.189,0.95-1.812,2.852-1.869l0.999-0.032v-0.365
			c0-0.462-0.099-0.804-0.298-1.023c-0.198-0.221-0.517-0.33-0.953-0.33c-0.491,0-1.046,0.15-1.665,0.451l-0.274-0.683
			c0.29-0.157,0.608-0.281,0.954-0.37c0.345-0.09,0.691-0.135,1.039-0.135c0.701,0,1.222,0.156,1.561,0.468
			c0.338,0.312,0.507,0.811,0.507,1.498v4.018H534.659z M532.645,171.705c0.556,0,0.991-0.152,1.309-0.457
			c0.316-0.304,0.475-0.73,0.475-1.278v-0.531l-0.892,0.037c-0.709,0.025-1.22,0.136-1.533,0.33c-0.313,0.195-0.47,0.499-0.47,0.911
			c0,0.322,0.098,0.567,0.293,0.735C532.021,171.621,532.294,171.705,532.645,171.705z"/>
		<path d="M541.185,172.333v-3.808c0-0.48-0.109-0.838-0.327-1.074c-0.219-0.236-0.561-0.354-1.026-0.354
			c-0.615,0-1.066,0.166-1.354,0.499c-0.286,0.333-0.43,0.883-0.43,1.649v3.088h-0.892v-5.887h0.726l0.145,0.806h0.043
			c0.183-0.29,0.438-0.515,0.769-0.674c0.329-0.159,0.696-0.239,1.101-0.239c0.709,0,1.243,0.171,1.601,0.513
			c0.358,0.343,0.537,0.89,0.537,1.642v3.84H541.185z"/>
		<path d="M547.705,170.728c0,0.548-0.204,0.97-0.612,1.268c-0.408,0.297-0.98,0.445-1.719,0.445c-0.78,0-1.389-0.123-1.826-0.37
			v-0.827c0.283,0.143,0.587,0.256,0.911,0.338c0.323,0.083,0.636,0.124,0.937,0.124c0.466,0,0.824-0.074,1.074-0.224
			c0.251-0.148,0.376-0.375,0.376-0.679c0-0.229-0.099-0.426-0.298-0.589c-0.198-0.162-0.586-0.354-1.163-0.577
			c-0.548-0.204-0.937-0.382-1.168-0.534c-0.23-0.152-0.402-0.325-0.516-0.519c-0.112-0.193-0.169-0.424-0.169-0.692
			c0-0.48,0.195-0.858,0.585-1.137c0.391-0.277,0.926-0.416,1.606-0.416c0.634,0,1.253,0.129,1.858,0.387l-0.317,0.726
			c-0.591-0.244-1.126-0.365-1.605-0.365c-0.423,0-0.741,0.066-0.956,0.198c-0.215,0.133-0.322,0.315-0.322,0.548
			c0,0.158,0.04,0.292,0.121,0.403c0.08,0.11,0.21,0.217,0.389,0.316c0.18,0.101,0.523,0.245,1.031,0.436
			c0.698,0.254,1.17,0.51,1.416,0.768C547.583,170.013,547.705,170.337,547.705,170.728z"/>
	</g>
	<g>
		<path d="M503.389,201.833l-2.664-6.961h-0.043c0.05,0.552,0.075,1.207,0.075,1.966v4.995h-0.844v-7.853h1.375l2.487,6.478h0.043
			l2.508-6.478h1.364v7.853h-0.913v-5.06c0-0.58,0.025-1.21,0.075-1.891h-0.043l-2.686,6.95H503.389z"/>
		<path d="M513.33,201.833l-0.177-0.838h-0.043c-0.294,0.369-0.587,0.619-0.879,0.749c-0.291,0.131-0.655,0.196-1.093,0.196
			c-0.583,0-1.041-0.15-1.372-0.451s-0.497-0.729-0.497-1.283c0-1.189,0.951-1.812,2.853-1.869l0.999-0.032v-0.365
			c0-0.462-0.1-0.804-0.299-1.023c-0.198-0.221-0.516-0.33-0.953-0.33c-0.49,0-1.045,0.15-1.665,0.451l-0.273-0.683
			c0.29-0.157,0.607-0.281,0.953-0.37c0.346-0.09,0.692-0.135,1.039-0.135c0.702,0,1.222,0.156,1.561,0.468
			c0.338,0.312,0.508,0.811,0.508,1.498v4.018H513.33z M511.317,201.205c0.555,0,0.99-0.152,1.308-0.457
			c0.316-0.304,0.476-0.73,0.476-1.278v-0.531l-0.892,0.037c-0.709,0.025-1.221,0.136-1.534,0.33
			c-0.312,0.195-0.47,0.499-0.47,0.911c0,0.322,0.098,0.567,0.293,0.735C510.693,201.121,510.965,201.205,511.317,201.205z"/>
		<path d="M517.117,201.833l-2.234-5.887h0.956l1.268,3.491c0.286,0.816,0.454,1.347,0.505,1.59h0.043
			c0.039-0.189,0.164-0.583,0.373-1.179c0.21-0.597,0.68-1.896,1.41-3.902h0.956l-2.234,5.887H517.117z"/>
		<path d="M523.826,201.941c-0.87,0-1.557-0.265-2.06-0.795c-0.503-0.529-0.755-1.266-0.755-2.207c0-0.949,0.234-1.703,0.701-2.262
			c0.468-0.559,1.095-0.838,1.883-0.838c0.737,0,1.321,0.243,1.751,0.728c0.43,0.485,0.645,1.126,0.645,1.921v0.563h-4.056
			c0.019,0.691,0.192,1.216,0.524,1.574c0.331,0.357,0.797,0.537,1.398,0.537c0.634,0,1.261-0.133,1.88-0.397v0.795
			c-0.314,0.136-0.613,0.233-0.894,0.292C524.563,201.911,524.223,201.941,523.826,201.941z M523.584,196.586
			c-0.473,0-0.85,0.153-1.131,0.462c-0.281,0.308-0.446,0.733-0.497,1.278h3.078c0-0.562-0.126-0.993-0.376-1.292
			C524.408,196.736,524.049,196.586,523.584,196.586z"/>
		<path d="M531.538,201.833v-3.808c0-0.48-0.109-0.838-0.327-1.074c-0.219-0.236-0.561-0.354-1.026-0.354
			c-0.615,0-1.066,0.166-1.354,0.499c-0.286,0.333-0.43,0.883-0.43,1.649v3.088h-0.892v-5.887h0.726l0.145,0.806h0.043
			c0.183-0.29,0.438-0.515,0.769-0.674c0.329-0.159,0.696-0.239,1.101-0.239c0.709,0,1.243,0.171,1.601,0.513
			c0.358,0.343,0.537,0.89,0.537,1.642v3.84H531.538z"/>
	</g>
	<g>
		<path d="M504.85,231.333l-0.978-2.497h-3.147l-0.967,2.497h-0.924l3.104-7.885h0.768l3.089,7.885H504.85z M503.587,228.015
			l-0.913-2.434c-0.118-0.309-0.239-0.686-0.365-1.133c-0.078,0.344-0.191,0.721-0.338,1.133l-0.924,2.434H503.587z"/>
		<path d="M509.48,231.441c-0.384,0-0.733-0.07-1.05-0.211c-0.317-0.143-0.583-0.359-0.798-0.653h-0.064
			c0.043,0.344,0.064,0.669,0.064,0.978v2.422h-0.892v-8.529h0.725l0.124,0.807h0.043c0.229-0.322,0.496-0.556,0.8-0.699
			c0.305-0.143,0.653-0.215,1.048-0.215c0.78,0,1.383,0.268,1.808,0.801c0.424,0.533,0.636,1.281,0.636,2.245
			c0,0.967-0.216,1.718-0.646,2.253C510.845,231.173,510.245,231.441,509.48,231.441z M509.351,226.097
			c-0.602,0-1.037,0.166-1.306,0.5c-0.269,0.332-0.406,0.862-0.413,1.59v0.198c0,0.827,0.138,1.419,0.413,1.774
			c0.276,0.357,0.718,0.535,1.327,0.535c0.508,0,0.906-0.206,1.195-0.617c0.288-0.412,0.432-0.98,0.432-1.703
			c0-0.734-0.144-1.297-0.432-1.689C510.279,226.292,509.873,226.097,509.351,226.097z"/>
		<path d="M517.101,231.333l-0.177-0.838h-0.043c-0.294,0.369-0.587,0.619-0.879,0.75c-0.291,0.131-0.655,0.195-1.093,0.195
			c-0.583,0-1.041-0.15-1.372-0.451s-0.497-0.729-0.497-1.283c0-1.189,0.951-1.812,2.853-1.869l0.999-0.032v-0.365
			c0-0.462-0.1-0.804-0.299-1.022c-0.198-0.221-0.516-0.331-0.953-0.331c-0.49,0-1.045,0.15-1.665,0.451l-0.273-0.683
			c0.29-0.157,0.607-0.281,0.953-0.37s0.692-0.134,1.039-0.134c0.702,0,1.222,0.155,1.561,0.467
			c0.338,0.312,0.508,0.811,0.508,1.498v4.018H517.101z M515.087,230.705c0.555,0,0.99-0.152,1.308-0.456
			c0.316-0.305,0.476-0.73,0.476-1.279v-0.531l-0.892,0.037c-0.709,0.025-1.221,0.136-1.534,0.33c-0.312,0.195-0.47,0.5-0.47,0.911
			c0,0.322,0.098,0.567,0.293,0.735C514.463,230.621,514.736,230.705,515.087,230.705z"/>
		<path d="M521.951,231.441c-0.853,0-1.512-0.262-1.979-0.787c-0.467-0.523-0.701-1.266-0.701-2.226
			c0-0.985,0.237-1.745,0.712-2.282s1.15-0.807,2.027-0.807c0.283,0,0.566,0.031,0.849,0.092c0.283,0.061,0.505,0.133,0.666,0.215
			l-0.273,0.758c-0.197-0.079-0.412-0.145-0.645-0.197c-0.233-0.051-0.438-0.077-0.618-0.077c-1.195,0-1.794,0.763-1.794,2.288
			c0,0.723,0.146,1.278,0.438,1.665c0.291,0.387,0.724,0.58,1.297,0.58c0.49,0,0.993-0.105,1.509-0.317v0.79
			C523.045,231.339,522.549,231.441,521.951,231.441z"/>
		<path d="M528.864,231.333v-3.808c0-0.479-0.109-0.838-0.327-1.074c-0.219-0.236-0.561-0.354-1.026-0.354
			c-0.619,0-1.071,0.168-1.356,0.505c-0.284,0.337-0.427,0.888-0.427,1.654v3.077h-0.892v-8.357h0.892v2.53
			c0,0.304-0.014,0.557-0.043,0.757h0.054c0.176-0.282,0.426-0.506,0.749-0.668c0.324-0.163,0.694-0.244,1.109-0.244
			c0.72,0,1.26,0.17,1.619,0.512c0.36,0.343,0.54,0.887,0.54,1.631v3.84H528.864z"/>
		<path d="M534.074,231.441c-0.87,0-1.557-0.265-2.06-0.795c-0.503-0.529-0.755-1.266-0.755-2.207c0-0.949,0.234-1.703,0.701-2.262
			c0.468-0.559,1.095-0.838,1.883-0.838c0.737,0,1.321,0.243,1.751,0.729c0.43,0.484,0.645,1.125,0.645,1.92v0.564h-4.056
			c0.019,0.69,0.192,1.215,0.524,1.573c0.331,0.358,0.797,0.537,1.398,0.537c0.634,0,1.261-0.132,1.88-0.397v0.795
			c-0.314,0.137-0.613,0.234-0.894,0.293C534.811,231.411,534.471,231.441,534.074,231.441z M533.832,226.086
			c-0.473,0-0.85,0.153-1.131,0.462s-0.446,0.734-0.497,1.278h3.078c0-0.562-0.126-0.993-0.376-1.292
			C534.656,226.236,534.297,226.086,533.832,226.086z"/>
		<path d="M545.686,231.333l-0.978-2.497h-3.147l-0.967,2.497h-0.924l3.104-7.885h0.769l3.088,7.885H545.686z M544.424,228.015
			l-0.913-2.434c-0.118-0.309-0.24-0.686-0.365-1.133c-0.079,0.344-0.191,0.721-0.339,1.133l-0.924,2.434H544.424z"/>
		<path d="M551.605,231.333v-3.808c0-0.479-0.109-0.838-0.327-1.074c-0.219-0.236-0.561-0.354-1.026-0.354
			c-0.615,0-1.066,0.166-1.354,0.5c-0.286,0.332-0.43,0.883-0.43,1.648v3.088h-0.892v-5.887h0.726l0.145,0.807h0.043
			c0.183-0.291,0.438-0.516,0.769-0.674c0.329-0.16,0.696-0.24,1.101-0.24c0.709,0,1.243,0.172,1.601,0.514
			c0.358,0.342,0.537,0.889,0.537,1.641v3.84H551.605z"/>
		<path d="M556.23,230.705c0.157,0,0.31-0.012,0.456-0.034c0.147-0.023,0.264-0.049,0.35-0.073v0.683
			c-0.097,0.046-0.239,0.084-0.427,0.115c-0.188,0.03-0.357,0.045-0.508,0.045c-1.139,0-1.708-0.6-1.708-1.799v-3.502h-0.844v-0.43
			l0.844-0.371l0.376-1.256h0.516v1.363h1.708v0.693h-1.708v3.465c0,0.354,0.084,0.626,0.252,0.816
			C555.705,230.611,555.936,230.705,556.23,230.705z"/>
	</g>
	<path fill="#FFA425" d="M365.188,32.124c0,1.523-1.275,2.758-2.848,2.758H235.036c-1.573,0-2.848-1.235-2.848-2.758V9.641
		c0-1.523,1.275-2.758,2.848-2.758H362.34c1.573,0,2.848,1.235,2.848,2.758V32.124z"/>
	<g>
		<path fill="#FFFFFF" d="M261.839,20.892c0,1.65-0.448,2.911-1.343,3.784s-2.184,1.309-3.866,1.309h-2.769v-9.994h3.063
			c1.554,0,2.762,0.431,3.623,1.292S261.839,19.347,261.839,20.892z M260.609,20.933c0-1.303-0.327-2.286-0.981-2.946
			s-1.626-0.991-2.916-0.991h-1.688v7.984h1.415c1.385,0,2.427-0.341,3.124-1.022S260.609,22.268,260.609,20.933z"/>
		<path fill="#FFFFFF" d="M269.639,25.985h-5.571v-9.994h5.571v1.032h-4.409v3.22h4.143v1.025h-4.143v3.678h4.409V25.985z"/>
		<path fill="#FFFFFF" d="M278.191,18.903c0,1.012-0.345,1.79-1.036,2.334s-1.678,0.817-2.963,0.817h-1.176v3.931h-1.162v-9.994
			h2.591C276.942,15.991,278.191,16.961,278.191,18.903z M273.016,21.056h1.046c1.03,0,1.775-0.167,2.235-0.499s0.69-0.866,0.69-1.6
			c0-0.661-0.216-1.153-0.649-1.477s-1.107-0.485-2.023-0.485h-1.299V21.056z"/>
		<path fill="#FFFFFF" d="M280.282,25.985v-9.994h1.162v8.941h4.409v1.053H280.282z"/>
		<path fill="#FFFFFF" d="M296.224,20.974c0,1.6-0.404,2.857-1.213,3.773s-1.934,1.374-3.374,1.374c-1.472,0-2.608-0.45-3.408-1.35
			s-1.2-2.17-1.2-3.811c0-1.627,0.401-2.888,1.203-3.784s1.941-1.343,3.418-1.343c1.436,0,2.557,0.456,3.363,1.367
			S296.224,19.37,296.224,20.974z M288.26,20.974c0,1.354,0.288,2.38,0.865,3.08s1.414,1.049,2.512,1.049
			c1.107,0,1.944-0.349,2.509-1.046s0.848-1.725,0.848-3.083c0-1.344-0.281-2.364-0.844-3.059s-1.396-1.042-2.499-1.042
			c-1.107,0-1.949,0.35-2.526,1.049S288.26,19.639,288.26,20.974z"/>
		<path fill="#FFFFFF" d="M300.995,20.988l2.666-4.997h1.258l-3.336,6.118v3.876h-1.176v-3.821l-3.329-6.173h1.271L300.995,20.988z"
			/>
		<path fill="#FFFFFF" d="M310.716,25.985l-3.391-8.859h-0.055c0.064,0.702,0.096,1.536,0.096,2.502v6.357h-1.073v-9.994h1.75
			l3.165,8.244h0.055l3.192-8.244h1.736v9.994h-1.162v-6.439c0-0.738,0.032-1.541,0.096-2.406h-0.055l-3.418,8.846H310.716z"/>
		<path fill="#FFFFFF" d="M324.504,25.985h-5.571v-9.994h5.571v1.032h-4.409v3.22h4.143v1.025h-4.143v3.678h4.409V25.985z"/>
		<path fill="#FFFFFF" d="M334.526,25.985h-1.326l-5.462-8.388h-0.055c0.073,0.984,0.109,1.887,0.109,2.707v5.681h-1.073v-9.994
			h1.312l5.448,8.354h0.055c-0.009-0.123-0.03-0.519-0.062-1.186s-0.043-1.145-0.034-1.432v-5.735h1.087V25.985z"/>
		<path fill="#FFFFFF" d="M340.35,25.985h-1.162v-8.962h-3.165v-1.032h7.492v1.032h-3.165V25.985z"/>
	</g>
	<line fill="#A2B0C7" stroke="#A2B0C7" stroke-miterlimit="10" x1="73.571" y1="45.987" x2="73.571" y2="54.188"/>
	<line fill="#A2B0C7" stroke="#A2B0C7" stroke-miterlimit="10" x1="223.55" y1="45.987" x2="223.55" y2="54.188"/>
	<line fill="#A2B0C7" stroke="#A2B0C7" stroke-miterlimit="10" x1="374.192" y1="45.987" x2="374.192" y2="54.188"/>
	<line fill="#A2B0C7" stroke="#A2B0C7" stroke-miterlimit="10" x1="524.328" y1="45.987" x2="524.328" y2="54.188"/>
	<line fill="#A2B0C7" stroke="#A2B0C7" stroke-miterlimit="10" x1="72.841" y1="46.338" x2="524.535" y2="46.338"/>
	<line fill="#A2B0C7" stroke="#A2B0C7" stroke-miterlimit="10" x1="298.688" y1="37.664" x2="298.688" y2="45.866"/>
	<g>
		<path fill="#FFFFFF" d="M336.764,67.793l-8.747-3.573c-0.3-0.122-0.636-0.122-0.936,0.003l-8.598,3.569
			c-0.229,0.095-0.379,0.319-0.379,0.567v1.279c0,0.339,0.275,0.614,0.614,0.614h0.461c0.085,0,0.154,0.069,0.154,0.154v8.139
			c0,0.763,0.619,1.382,1.382,1.382h0.401v-7.385h13.018v7.385h0.401c0.763,0,1.382-0.619,1.382-1.382v-8.139
			c0-0.085,0.069-0.154,0.154-0.154h0.461c0.339,0,0.614-0.275,0.614-0.614v-1.277C337.146,68.112,336.995,67.888,336.764,67.793
			L336.764,67.793z M324.247,70.253h-3.071v-1.382h3.071V70.253z M329.161,70.253h-3.071v-1.382h3.071V70.253z M334.075,70.253
			h-3.071v-1.382h3.071V70.253z M325.046,76.857h-0.874v1.206h-0.408v-1.206h-0.879c-0.318,0-0.576,0.258-0.576,0.575v1.919
			c0,0.318,0.258,0.576,0.576,0.576h2.162c0.318,0,0.576-0.258,0.576-0.576v-1.919C325.621,77.115,325.363,76.857,325.046,76.857
			L325.046,76.857z M328.707,76.857h-0.874v1.206h-0.408v-1.206h-0.879c-0.318,0-0.576,0.258-0.576,0.575v1.919
			c0,0.318,0.258,0.576,0.576,0.576h2.162c0.318,0,0.576-0.258,0.576-0.576v-1.919C329.283,77.115,329.025,76.857,328.707,76.857
			L328.707,76.857z M332.437,76.857h-0.874v1.206h-0.408v-1.206h-0.879c-0.318,0-0.576,0.258-0.576,0.575v1.919
			c0,0.318,0.258,0.576,0.576,0.576h2.162c0.318,0,0.575-0.258,0.575-0.576v-1.919C333.012,77.115,332.754,76.857,332.437,76.857
			L332.437,76.857z M326.884,73.394h-0.874V74.6h-0.408v-1.206h-0.879c-0.318,0-0.575,0.258-0.575,0.576v1.919
			c0,0.318,0.258,0.576,0.575,0.576h2.162c0.318,0,0.575-0.258,0.575-0.576v-1.919C327.459,73.651,327.202,73.394,326.884,73.394
			L326.884,73.394z M330.635,73.394h-0.874V74.6h-0.408v-1.206h-0.879c-0.318,0-0.576,0.258-0.576,0.576v1.919
			c0,0.318,0.258,0.576,0.576,0.576h2.162c0.318,0,0.576-0.258,0.576-0.576v-1.919C331.21,73.651,330.953,73.394,330.635,73.394
			L330.635,73.394z M330.635,73.394"/>
	</g>
	<g>
		<path fill="#FFFFFF" d="M29.344,65.719h1.304v1.304h-1.304V65.719z M26.737,65.719h1.304v1.304h-1.304V65.719z M24.13,65.719
			h1.304v1.304H24.13V65.719z M39.773,78.755H24.13V68.326h15.643V78.755z M39.773,67.023h-7.821v-1.304h7.821V67.023z
			 M41.076,65.719c0-0.72-0.584-1.304-1.304-1.304H24.13c-0.72,0-1.304,0.584-1.304,1.304v13.036c0,0.72,0.584,1.304,1.304,1.304
			h15.643c0.72,0,1.304-0.584,1.304-1.304V65.719z"/>
		<g>
			<g>
				<path fill="#FFFFFF" d="M30.531,72.156h-4.25c-0.327,0-0.594-0.267-0.594-0.594l0,0c0-0.327,0.267-0.594,0.594-0.594h4.25
					c0.327,0,0.594,0.267,0.594,0.594l0,0C31.125,71.889,30.858,72.156,30.531,72.156z"/>
				<path fill="#FFFFFF" d="M30.531,74.156h-4.25c-0.327,0-0.594-0.267-0.594-0.594l0,0c0-0.327,0.267-0.594,0.594-0.594h4.25
					c0.327,0,0.594,0.267,0.594,0.594l0,0C31.125,73.889,30.858,74.156,30.531,74.156z"/>
				<path fill="#FFFFFF" d="M30.531,76.156h-4.25c-0.327,0-0.594-0.267-0.594-0.594l0,0c0-0.327,0.267-0.594,0.594-0.594h4.25
					c0.327,0,0.594,0.267,0.594,0.594l0,0C31.125,75.889,30.858,76.156,30.531,76.156z"/>
			</g>
			<path fill="#FFFFFF" d="M37.215,76.156h-4.121c-0.552,0-1-0.448-1-1v-3.219c0-0.552,0.448-1,1-1h4.121c0.552,0,1,0.448,1,1v3.219
				C38.215,75.709,37.768,76.156,37.215,76.156z"/>
		</g>
	</g>
	<path fill="#FFFFFF" d="M500.941,70.828h-1.135v-3.027c0-0.836-0.677-1.514-1.514-1.514h-3.027v-1.135
		c0-1.044-0.848-1.892-1.892-1.892c-1.044,0-1.892,0.848-1.892,1.892v1.135h-3.027c-0.836,0-1.506,0.677-1.506,1.514l-0.004,2.876
		h1.132c1.128,0,2.044,0.916,2.044,2.044c0,1.128-0.916,2.044-2.044,2.044h-1.132l-0.004,2.876c0,0.836,0.677,1.514,1.514,1.514
		h2.876v-1.135c0-1.128,0.916-2.044,2.044-2.044c1.128,0,2.044,0.916,2.044,2.044v1.135h2.876c0.836,0,1.514-0.677,1.514-1.514
		v-3.027h1.135c1.044,0,1.892-0.848,1.892-1.892S501.986,70.828,500.941,70.828z"/>
	<g>
		<path fill="#FFFFFF" d="M215.369,71.403l-7.878-7.877c-0.453-0.454-1.189-0.454-1.643,0l-1.636,1.636l2.075,2.075
			c0.482-0.163,1.035-0.054,1.42,0.331c0.386,0.387,0.495,0.944,0.328,1.428l2,2c0.484-0.167,1.042-0.059,1.429,0.328
			c0.54,0.54,0.54,1.415,0,1.955c-0.54,0.54-1.415,0.54-1.956,0c-0.406-0.406-0.507-1.003-0.301-1.504l-1.865-1.865l0,4.908
			c0.132,0.065,0.256,0.152,0.366,0.261c0.54,0.54,0.54,1.415,0,1.956c-0.54,0.54-1.416,0.54-1.955,0
			c-0.54-0.541-0.54-1.416,0-1.956c0.134-0.133,0.288-0.234,0.453-0.302v-4.954c-0.165-0.067-0.319-0.168-0.453-0.302
			c-0.409-0.409-0.508-1.009-0.298-1.512l-2.046-2.046l-5.402,5.401c-0.454,0.454-0.454,1.19,0,1.644l7.878,7.877
			c0.454,0.454,1.189,0.454,1.643,0l7.841-7.841C215.823,72.593,215.823,71.857,215.369,71.403z"/>
	</g>
</g>
</svg>
