<svg id="a343a49d-df24-47dc-8e5d-cdfcc2aa997a" data-name="Слой 1" xmlns="http://www.w3.org/2000/svg" xmlns:xlink="http://www.w3.org/1999/xlink" width="298.27" height="107.44" viewBox="0 0 298.27 107.44"><defs><linearGradient id="bbc9b44a-6ede-45df-bbf2-7ffea433637b" x1="26.41" y1="51.82" x2="27.62" y2="10.35" gradientUnits="userSpaceOnUse"><stop offset="0" stop-color="#fff"/><stop offset="1" stop-color="#fff" stop-opacity="0"/></linearGradient><linearGradient id="a7ccb9db-698e-4f40-87d1-85986e02d5e2" x1="-808.99" y1="-1700.04" x2="-795.98" y2="-1717.92" gradientTransform="matrix(0.67, 0.03, 0.09, -0.74, 714.22, -1202.2)" gradientUnits="userSpaceOnUse"><stop offset="0" stop-color="#b7ed26"/><stop offset="1" stop-color="#47610f"/></linearGradient><linearGradient id="f052adc1-757f-46b1-aea2-429807488e7e" x1="3368.92" y1="-3927.8" x2="3369.77" y2="-3931.39" gradientTransform="matrix(0.74, 0, 0, -0.74, -2448.87, -2858.49)" gradientUnits="userSpaceOnUse"><stop offset="0" stop-color="#1e1500"/><stop offset="1" stop-color="#663e00"/></linearGradient><linearGradient id="f267b114-208f-4ad8-adaf-cea14feebea6" x1="-801.95" y1="-1706.32" x2="-788.92" y2="-1724.35" gradientTransform="matrix(0.67, 0.03, 0.09, -0.74, 709.82, -1207.36)" gradientUnits="userSpaceOnUse"><stop offset="0" stop-color="#b7ed26"/><stop offset="1" stop-color="#5b7c13"/></linearGradient><radialGradient id="f6be0e20-d887-4f3f-9647-22eed47d3e36" cx="3773" cy="-3194.38" r="13.64" gradientTransform="matrix(0.64, 0.36, 0.61, -1.08, -437.65, -4794.14)" gradientUnits="userSpaceOnUse"><stop offset="0" stop-color="#9d6e00"/><stop offset="1" stop-color="#623b00"/></radialGradient><radialGradient id="b4b3017f-f792-43b6-abc9-eced5144d3c1" cx="3094.97" cy="-3876.89" r="13.64" gradientTransform="matrix(0.91, -0.12, -0.11, -0.83, -3223.16, -2807.63)" gradientUnits="userSpaceOnUse"><stop offset="0" stop-color="#ffc022"/><stop offset="1" stop-color="#804d00" stop-opacity="0"/></radialGradient><radialGradient id="e0895608-7fb3-4c6e-9dd2-b5cec088884f" cx="2995.37" cy="-3619.55" r="13.64" gradientTransform="matrix(1.04, -0.14, -0.18, -1.27, -3719.67, -4123.43)" xlink:href="#b4b3017f-f792-43b6-abc9-eced5144d3c1"/><linearGradient id="b10d7790-1f05-422e-b723-45937f93a35d" x1="999.14" y1="-2694.95" x2="1003.75" y2="-2693.95" gradientTransform="matrix(0.42, 0, 0.01, -0.47, -359.71, -1253.84)" gradientUnits="userSpaceOnUse"><stop offset="0" stop-color="#2d2d2d"/><stop offset="1" stop-color="#2d2d2d" stop-opacity="0"/></linearGradient><radialGradient id="b3a437c6-c90c-4c60-8c63-fcf42ccdaf81" cx="2293.23" cy="-3684.42" r="4.8" gradientTransform="matrix(0.96, -1.35, -1.23, -0.88, -6724.3, -112.89)" gradientUnits="userSpaceOnUse"><stop offset="0" stop-color="#fff"/><stop offset="0.45" stop-color="#ededed"/><stop offset="1" stop-color="#838383"/></radialGradient><linearGradient id="b25b9f1a-172a-49bd-9c39-07fee9e9ee7d" x1="3366.53" y1="-3913.75" x2="3371.08" y2="-3918.3" gradientTransform="matrix(0.74, 0, 0, -0.74, -2448.87, -2858.49)" xlink:href="#bbc9b44a-6ede-45df-bbf2-7ffea433637b"/><radialGradient id="a8f0d917-d5d2-4d4a-bbca-39eabf562aa9" cx="2266.2" cy="-3758.43" r="4.8" gradientTransform="matrix(0.96, -1.57, -1.11, -0.68, -6312, 1037.78)" gradientUnits="userSpaceOnUse"><stop offset="0" stop-color="#fff"/><stop offset="1" stop-color="#838383"/></radialGradient><linearGradient id="b3f898a5-0c09-48b0-85c7-d9768eeac391" x1="3814.59" y1="-1761.25" x2="3817.56" y2="-1763.67" gradientTransform="matrix(0.74, 0, 0, -0.74, -2787.67, -1274.06)" xlink:href="#bbc9b44a-6ede-45df-bbf2-7ffea433637b"/><linearGradient id="e28b4315-c1ea-4e5e-8579-1e9828b8b4f1" x1="3349.08" y1="-3932.87" x2="3348.52" y2="-3912.29" gradientTransform="matrix(0.74, 0, 0, -0.74, -2442.98, -2857.02)" gradientUnits="userSpaceOnUse"><stop offset="0" stop-color="#fff" stop-opacity="0"/><stop offset="0.69" stop-color="#fff" stop-opacity="0.4"/><stop offset="1" stop-color="#fff" stop-opacity="0"/></linearGradient><linearGradient id="bbf34b2f-7444-4409-b15e-b39ec906db0d" x1="3356.61" y1="-3934.77" x2="3356.06" y2="-3914.19" gradientTransform="matrix(0.74, 0, 0, -0.74, -2448.87, -2858.49)" xlink:href="#e28b4315-c1ea-4e5e-8579-1e9828b8b4f1"/><linearGradient id="acf11c2d-dbb4-47d2-8797-1667fe6f05bd" x1="5388.94" y1="-2418.41" x2="5379.51" y2="-2415.59" gradientTransform="matrix(0.18, 0.14, 0.43, -0.16, 101.81, -1156.96)" xlink:href="#b10d7790-1f05-422e-b723-45937f93a35d"/><linearGradient id="e45eb17c-31cb-47ca-a43c-1d843dc90881" x1="884.43" y1="-1954.83" x2="877.08" y2="-1966.95" gradientTransform="matrix(0.74, 0, 0, -0.74, -626.69, -1401.26)" gradientUnits="userSpaceOnUse"><stop offset="0" stop-color="#dadada"/><stop offset="1" stop-color="#fff" stop-opacity="0"/></linearGradient><linearGradient id="b512ba9e-1c0c-49ca-a983-0901319b4a23" x1="2779.47" y1="-3119.17" x2="2779.52" y2="-3119.8" gradientTransform="matrix(2.78, 0.1, 0.13, -3.59, -7305.12, -11448.11)" xlink:href="#bbc9b44a-6ede-45df-bbf2-7ffea433637b"/><linearGradient id="f37d61e7-32e5-4f0e-9d15-945d2f8d8b47" x1="2968.63" y1="-3337.91" x2="2968.68" y2="-3339.59" gradientTransform="matrix(1.49, 0, 0, -1.77, -4378.92, -5898.64)" xlink:href="#bbc9b44a-6ede-45df-bbf2-7ffea433637b"/><linearGradient id="a3352ffa-a13a-432e-818b-5be24697b305" x1="107.41" y1="51.82" x2="108.62" y2="10.35" xlink:href="#bbc9b44a-6ede-45df-bbf2-7ffea433637b"/><linearGradient id="bb06ba04-116c-47c4-ab6b-ea7ba19f191e" x1="-689.46" y1="-1694.65" x2="-676.45" y2="-1712.53" xlink:href="#a7ccb9db-698e-4f40-87d1-85986e02d5e2"/><linearGradient id="ef671d7c-f835-498e-ac2e-c036a1904f08" x1="3478.97" y1="-3927.8" x2="3479.82" y2="-3931.39" xlink:href="#f052adc1-757f-46b1-aea2-429807488e7e"/><linearGradient id="a0529575-d8cf-43e1-99fe-2222e0e851db" x1="-682.42" y1="-1700.93" x2="-669.39" y2="-1718.96" xlink:href="#f267b114-208f-4ad8-adaf-cea14feebea6"/><radialGradient id="faa87890-96ba-48b8-9aba-d360d3ae7c54" cx="3868.75" cy="-3162.2" r="13.64" xlink:href="#f6be0e20-d887-4f3f-9647-22eed47d3e36"/><radialGradient id="be102170-1267-40a3-86b8-8adae71c91c4" cx="3182.66" cy="-3890.07" r="13.64" xlink:href="#b4b3017f-f792-43b6-abc9-eced5144d3c1"/><radialGradient id="a0929bdf-dd4f-4b1a-beab-08408d6bb91f" cx="3072.08" cy="-3628.23" r="13.64" gradientTransform="matrix(1.04, -0.14, -0.18, -1.27, -3719.67, -4123.43)" xlink:href="#b4b3017f-f792-43b6-abc9-eced5144d3c1"/><linearGradient id="b64d5f1f-b39d-44b7-ad89-4cf3991c0750" x1="1191.19" y1="-2714.54" x2="1195.79" y2="-2713.54" gradientTransform="matrix(0.42, 0, 0.01, -0.47, -359.09, -1263.88)" xlink:href="#b10d7790-1f05-422e-b723-45937f93a35d"/><radialGradient id="b65187f5-f1af-4fcf-9c57-42a2e6146148" cx="2321.55" cy="-3727.99" r="4.8" xlink:href="#b3a437c6-c90c-4c60-8c63-fcf42ccdaf81"/><linearGradient id="bdef3797-b4e2-4e9f-9d85-d79b4bf142bb" x1="3476.57" y1="-3913.75" x2="3481.13" y2="-3918.3" gradientTransform="matrix(0.74, 0, 0, -0.74, -2448.87, -2858.49)" xlink:href="#bbc9b44a-6ede-45df-bbf2-7ffea433637b"/><radialGradient id="b5e632fb-ae7b-41ab-ba32-e83793d63f17" cx="2289.17" cy="-3811.74" r="4.8" xlink:href="#a8f0d917-d5d2-4d4a-bbca-39eabf562aa9"/><linearGradient id="e736fda5-2f4c-46c1-a9a0-18fa9c8a7e1a" x1="3924.64" y1="-1761.25" x2="3927.61" y2="-1763.67" gradientTransform="matrix(0.74, 0, 0, -0.74, -2787.67, -1274.06)" xlink:href="#bbc9b44a-6ede-45df-bbf2-7ffea433637b"/><linearGradient id="af599165-fa45-41b1-a2aa-859377ebecde" x1="3459.13" y1="-3932.87" x2="3458.57" y2="-3912.29" xlink:href="#e28b4315-c1ea-4e5e-8579-1e9828b8b4f1"/><linearGradient id="f1e7c257-5ec3-45e3-9de5-8a17e42d510d" x1="3466.66" y1="-3934.77" x2="3466.11" y2="-3914.19" gradientTransform="matrix(0.74, 0, 0, -0.74, -2448.87, -2858.49)" xlink:href="#e28b4315-c1ea-4e5e-8579-1e9828b8b4f1"/><linearGradient id="b9f879a2-9a09-438f-9a7a-5f3c05ff53a2" x1="5661.28" y1="-2356.7" x2="5651.85" y2="-2353.88" gradientTransform="matrix(0.18, 0.14, 0.43, -0.16, 107.25, -1186.16)" xlink:href="#b10d7790-1f05-422e-b723-45937f93a35d"/><linearGradient id="a85cc150-9155-492d-b69c-d885ad6d50a4" x1="994.47" y1="-1954.83" x2="987.13" y2="-1966.95" xlink:href="#e45eb17c-31cb-47ca-a43c-1d843dc90881"/><linearGradient id="a51bbf4e-3997-41fc-88f1-3925245525db" x1="2808.54" y1="-3118.35" x2="2808.58" y2="-3118.97" gradientTransform="matrix(2.78, 0.1, 0.13, -3.59, -7305.12, -11448.11)" xlink:href="#bbc9b44a-6ede-45df-bbf2-7ffea433637b"/><linearGradient id="fe3a4c77-6399-4f95-8917-a0e26a7a922b" x1="3023.17" y1="-3337.91" x2="3023.22" y2="-3339.59" gradientTransform="matrix(1.49, 0, 0, -1.77, -4378.92, -5898.64)" xlink:href="#bbc9b44a-6ede-45df-bbf2-7ffea433637b"/><linearGradient id="ba1dd48d-20e1-44f4-bf7f-bdfda85e0285" x1="188.41" y1="51.82" x2="189.62" y2="10.35" xlink:href="#bbc9b44a-6ede-45df-bbf2-7ffea433637b"/><linearGradient id="f359ff2e-e0d3-49cd-9542-c4bc6d1e02e6" x1="-569.93" y1="-1689.26" x2="-556.92" y2="-1707.14" xlink:href="#a7ccb9db-698e-4f40-87d1-85986e02d5e2"/><linearGradient id="ac3351ad-a982-4219-9f54-91ea22fe870a" x1="3589.01" y1="-3927.8" x2="3589.87" y2="-3931.39" xlink:href="#f052adc1-757f-46b1-aea2-429807488e7e"/><linearGradient id="b758ce42-2ab7-4e93-99f9-108437ae3904" x1="-562.89" y1="-1695.54" x2="-549.86" y2="-1713.57" xlink:href="#f267b114-208f-4ad8-adaf-cea14feebea6"/><radialGradient id="e4ae8164-ac6f-4d3a-a3ec-320243af169d" cx="3964.49" cy="-3130.02" r="13.64" xlink:href="#f6be0e20-d887-4f3f-9647-22eed47d3e36"/><radialGradient id="bdba5c0d-b332-4451-a8c1-fca558f0aa71" cx="3270.36" cy="-3903.25" r="13.64" xlink:href="#b4b3017f-f792-43b6-abc9-eced5144d3c1"/><radialGradient id="af869b02-df81-4bbb-b014-ef557af061d9" cx="3148.78" cy="-3636.92" r="13.64" gradientTransform="matrix(1.04, -0.14, -0.18, -1.27, -3719.67, -4123.43)" xlink:href="#b4b3017f-f792-43b6-abc9-eced5144d3c1"/><linearGradient id="a77f2f4c-ea67-4718-98d1-a481ee93898c" x1="1383.23" y1="-2734.12" x2="1387.84" y2="-2733.12" gradientTransform="matrix(0.42, 0, 0.01, -0.47, -358.46, -1273.92)" xlink:href="#b10d7790-1f05-422e-b723-45937f93a35d"/><radialGradient id="add904f9-7021-411b-837f-2a5a60fade21" cx="2349.86" cy="-3771.56" r="4.8" xlink:href="#b3a437c6-c90c-4c60-8c63-fcf42ccdaf81"/><linearGradient id="fed50a13-4bc2-44db-914c-e4a96b63d9b8" x1="3586.62" y1="-3913.75" x2="3591.17" y2="-3918.3" gradientTransform="matrix(0.74, 0, 0, -0.74, -2448.87, -2858.49)" xlink:href="#bbc9b44a-6ede-45df-bbf2-7ffea433637b"/><radialGradient id="e68ce6a6-4935-420c-a475-53e51a571abc" cx="2312.14" cy="-3865.06" r="4.8" xlink:href="#a8f0d917-d5d2-4d4a-bbca-39eabf562aa9"/><linearGradient id="b56bf4ba-05c4-4d9f-a564-635e3436c33a" x1="4034.69" y1="-1761.25" x2="4037.65" y2="-1763.67" gradientTransform="matrix(0.74, 0, 0, -0.74, -2787.67, -1274.06)" xlink:href="#bbc9b44a-6ede-45df-bbf2-7ffea433637b"/><linearGradient id="b80fee7d-ba34-40ef-961a-989546ab7501" x1="3569.17" y1="-3932.87" x2="3568.62" y2="-3912.29" xlink:href="#e28b4315-c1ea-4e5e-8579-1e9828b8b4f1"/><linearGradient id="f3127c19-de7f-4330-98e4-13bb3683bb90" x1="3576.71" y1="-3934.77" x2="3576.15" y2="-3914.19" gradientTransform="matrix(0.74, 0, 0, -0.74, -2448.87, -2858.49)" xlink:href="#e28b4315-c1ea-4e5e-8579-1e9828b8b4f1"/><linearGradient id="e6291f35-cd6b-47f3-b844-8c39f08bb22f" x1="5933.61" y1="-2295" x2="5924.19" y2="-2292.17" gradientTransform="matrix(0.18, 0.14, 0.43, -0.16, 112.69, -1215.35)" xlink:href="#b10d7790-1f05-422e-b723-45937f93a35d"/><linearGradient id="bf57ec29-1d63-4cd1-ac0f-722c3bb1726b" x1="1104.52" y1="-1954.83" x2="1097.18" y2="-1966.95" xlink:href="#e45eb17c-31cb-47ca-a43c-1d843dc90881"/><linearGradient id="fea8ad0e-3836-4679-b80a-28a8fbc0e67d" x1="2837.6" y1="-3117.52" x2="2837.65" y2="-3118.15" gradientTransform="matrix(2.78, 0.1, 0.13, -3.59, -7305.12, -11448.11)" xlink:href="#bbc9b44a-6ede-45df-bbf2-7ffea433637b"/><linearGradient id="b2d3aaff-80fd-4abb-abf1-89a528d9c79d" x1="3077.71" y1="-3337.91" x2="3077.76" y2="-3339.59" gradientTransform="matrix(1.49, 0, 0, -1.77, -4378.92, -5898.64)" xlink:href="#bbc9b44a-6ede-45df-bbf2-7ffea433637b"/><linearGradient id="b10ed7d4-eab6-4e51-8ef5-0e833689ab6d" x1="269.41" y1="51.82" x2="270.62" y2="10.35" xlink:href="#bbc9b44a-6ede-45df-bbf2-7ffea433637b"/><linearGradient id="b95df89b-4ccf-4daa-a0bd-0328d84c710d" x1="-450.4" y1="-1683.87" x2="-437.39" y2="-1701.75" xlink:href="#a7ccb9db-698e-4f40-87d1-85986e02d5e2"/><linearGradient id="ba7c4e44-0c2a-4711-be4b-682724bf64c7" x1="3699.06" y1="-3927.8" x2="3699.91" y2="-3931.39" xlink:href="#f052adc1-757f-46b1-aea2-429807488e7e"/><linearGradient id="b122f3ed-3ad3-4e77-a8a1-9c106b35e823" x1="-443.36" y1="-1690.15" x2="-430.33" y2="-1708.17" xlink:href="#f267b114-208f-4ad8-adaf-cea14feebea6"/><radialGradient id="b51c3351-9485-4ce7-b62a-49e28a1ae41f" cx="4060.24" cy="-3097.84" r="13.64" xlink:href="#f6be0e20-d887-4f3f-9647-22eed47d3e36"/><radialGradient id="e810d213-899e-4d7e-a33f-ec89eed1749b" cx="3358.06" cy="-3916.43" r="13.64" xlink:href="#b4b3017f-f792-43b6-abc9-eced5144d3c1"/><radialGradient id="a71689c8-0b20-4ccf-bd11-bb6415396da8" cx="3225.48" cy="-3645.61" r="13.64" gradientTransform="matrix(1.04, -0.14, -0.18, -1.27, -3719.67, -4123.43)" xlink:href="#b4b3017f-f792-43b6-abc9-eced5144d3c1"/><linearGradient id="aba0804b-0534-4377-bbb8-3ba34e2b8116" x1="1575.27" y1="-2753.7" x2="1579.88" y2="-2752.7" gradientTransform="matrix(0.42, 0, 0.01, -0.47, -357.84, -1283.96)" xlink:href="#b10d7790-1f05-422e-b723-45937f93a35d"/><radialGradient id="ab9cb9d9-ecbd-4a7a-87e6-2233745e97d9" cx="2378.18" cy="-3815.13" r="4.8" xlink:href="#b3a437c6-c90c-4c60-8c63-fcf42ccdaf81"/><linearGradient id="a37f476e-b650-4871-afc8-769235b28fc9" x1="3696.67" y1="-3913.75" x2="3701.22" y2="-3918.3" gradientTransform="matrix(0.74, 0, 0, -0.74, -2448.87, -2858.49)" xlink:href="#bbc9b44a-6ede-45df-bbf2-7ffea433637b"/><radialGradient id="b5bf268f-fc12-429e-96da-b7780636efd6" cx="2335.11" cy="-3918.37" r="4.8" xlink:href="#a8f0d917-d5d2-4d4a-bbca-39eabf562aa9"/><linearGradient id="a31b832e-6590-4585-8a0c-4414df0d02e8" x1="4144.74" y1="-1761.25" x2="4147.7" y2="-1763.67" gradientTransform="matrix(0.74, 0, 0, -0.74, -2787.67, -1274.06)" xlink:href="#bbc9b44a-6ede-45df-bbf2-7ffea433637b"/><linearGradient id="afe3e51e-0b1e-4868-9b64-a173da4b1d3e" x1="3679.22" y1="-3932.87" x2="3678.67" y2="-3912.29" xlink:href="#e28b4315-c1ea-4e5e-8579-1e9828b8b4f1"/><linearGradient id="abf62f91-042c-4a35-bb05-65c5c323bef7" x1="3686.76" y1="-3934.77" x2="3686.2" y2="-3914.19" gradientTransform="matrix(0.74, 0, 0, -0.74, -2448.87, -2858.49)" xlink:href="#e28b4315-c1ea-4e5e-8579-1e9828b8b4f1"/><linearGradient id="a59785cc-c511-44c2-9867-e4c5036f3b50" x1="6205.95" y1="-2233.29" x2="6196.53" y2="-2230.46" gradientTransform="matrix(0.18, 0.14, 0.43, -0.16, 118.14, -1244.54)" xlink:href="#b10d7790-1f05-422e-b723-45937f93a35d"/><linearGradient id="abd58cde-ddef-4cf6-b62e-4e8ce5db50f1" x1="1214.57" y1="-1954.83" x2="1207.22" y2="-1966.95" xlink:href="#e45eb17c-31cb-47ca-a43c-1d843dc90881"/><linearGradient id="b5660abb-53d9-4071-b537-562c6ad53948" x1="2866.67" y1="-3116.69" x2="2866.72" y2="-3117.32" gradientTransform="matrix(2.78, 0.1, 0.13, -3.59, -7305.12, -11448.11)" xlink:href="#bbc9b44a-6ede-45df-bbf2-7ffea433637b"/><linearGradient id="f761c6f2-4496-4409-a37d-ad1350fecb6e" x1="3132.25" y1="-3337.91" x2="3132.3" y2="-3339.59" gradientTransform="matrix(1.49, 0, 0, -1.77, -4378.92, -5898.64)" xlink:href="#bbc9b44a-6ede-45df-bbf2-7ffea433637b"/></defs><rect x="81.58" y="0.58" width="54.67" height="54.67" rx="3" fill="#fff"/><path d="M133.24,55.82H84.58A3.59,3.59,0,0,1,81,52.24V3.58A3.59,3.59,0,0,1,84.58,0h48.66a3.59,3.59,0,0,1,3.58,3.58V52.24A3.59,3.59,0,0,1,133.24,55.82ZM84.58,1.15a2.43,2.43,0,0,0-2.43,2.43V52.24a2.43,2.43,0,0,0,2.43,2.43h48.66a2.43,2.43,0,0,0,2.43-2.43V3.58a2.43,2.43,0,0,0-2.43-2.43Z" fill="#879fc1"/><rect x="161.88" y="0.61" width="54.67" height="54.67" rx="3" fill="#fff"/><path d="M213.54,55.86H164.88a3.59,3.59,0,0,1-3.58-3.58V3.62A3.58,3.58,0,0,1,164.88,0h48.66a3.58,3.58,0,0,1,3.58,3.58V52.28A3.58,3.58,0,0,1,213.54,55.86ZM164.88,1.19a2.43,2.43,0,0,0-2.43,2.43V52.28a2.43,2.43,0,0,0,2.43,2.43h48.66A2.43,2.43,0,0,0,216,52.28V3.62a2.43,2.43,0,0,0-2.43-2.43Z" fill="#879fc1"/><g opacity="0.5"><path d="M294.72,55.82h-3.46V54.67h3.43Zm-6.31,0H285V54.67h3.43Zm-6.28,0H278.7V54.67h3.43Zm-6.28,0h-3.43V54.67h3.43Zm-6.28,0h-3.42V54.67h3.42Zm-6.28,0h-3.42V54.67h3.42Zm-6.28,0h-3.42V54.67H257Zm-6.28,0h-3.42V54.67h3.42Zm-6.49-.48a3.59,3.59,0,0,1-1.79-3.1V52h1.15v.28a2.43,2.43,0,0,0,1.21,2.1Zm53.38-1.05-.94-.66a2.46,2.46,0,0,0,.44-1.39v-1.6h1.15v1.6A3.59,3.59,0,0,1,297.62,54.29Zm-54-5.18h-1.15V45.69h1.15Zm54.67-1.32h-1.15V44.37h1.15Zm-54.67-5h-1.15V39.41h1.15Zm54.67-1.32h-1.15V38.09h1.15Zm-54.67-5h-1.15V33.13h1.15Zm54.67-1.32h-1.15V31.81h1.15Zm-54.67-5h-1.15V26.85h1.15ZM298.27,29h-1.15V25.53h1.15ZM243.6,24h-1.15V20.57h1.15Zm54.67-1.33h-1.15V19.25h1.15Zm-54.67-5h-1.15V14.29h1.15Zm54.67-1.32h-1.15V13h1.15Zm-54.67-5h-1.15V8h1.15Zm54.67-1.32h-1.15V6.69h1.15Zm-54.67-5h-1.15V3.58a3.52,3.52,0,0,1,.65-2.06l.94.66a2.42,2.42,0,0,0-.44,1.4Zm54.67-1.32h-1.15V3.58a2.44,2.44,0,0,0-1.24-2.11l.57-1a3.6,3.6,0,0,1,1.82,3.11Zm-4.89-2.69H290V0h3.42Zm-6.27,0h-3.43V0h3.43Zm-6.28,0H277.4V0h3.43Zm-6.28,0h-3.43V0h3.43Zm-6.28,0h-3.43V0h3.43Zm-6.28,0h-3.43V0H262Zm-6.28,0h-3.42V0h3.42Zm-6.28,0H246V0h3.42Z" fill="#879fc1"/></g><rect x="189.1" y="67.67" width="1.15" height="21.29" fill="#879fc1"/><rect x="109.17" y="66.83" width="1.15" height="22.13" fill="#879fc1"/><polygon points="189.68 64.02 187.09 69.39 192.27 69.39 189.68 64.02" fill="#879fc1"/><polygon points="109.68 64.02 107.09 69.39 112.27 69.39 109.68 64.02" fill="#879fc1"/><rect x="28.1" y="67.67" width="1.15" height="21.29" fill="#879fc1"/><polygon points="28.68 64.02 26.09 69.39 31.27 69.39 28.68 64.02" fill="#879fc1"/><polygon points="271.16 64.02 268.57 69.39 273.75 69.39 271.16 64.02" fill="#879fc1" opacity="0.5"/><rect x="109.17" y="88.96" width="81.14" height="1.15" fill="#879fc1"/><rect x="28.17" y="88.96" width="81.14" height="1.15" fill="#879fc1"/><g opacity="0.5"><rect x="270.3" y="70.55" width="1.15" height="1.73" fill="#879fc1"/><path d="M271.45,84.93H270.3V81.48h1.15Zm0-6.33H270.3V75.15h1.15Z" fill="#879fc1"/><polygon points="271.45 90.11 269.15 90.11 269.15 88.96 270.3 88.96 270.3 87.81 271.45 87.81 271.45 90.11" fill="#879fc1"/><path d="M266.16,90.11h-3.59V89h3.59Zm-6.58,0H256V89h3.59Zm-6.58,0h-3.59V89H253Zm-6.59,0h-3.59V89h3.59Zm-6.58,0h-3.59V89h3.59Zm-6.58,0h-3.59V89h3.59Zm-6.58,0h-3.59V89h3.59Zm-6.58,0H216.5V89h3.59Zm-6.58,0h-3.59V89h3.59Zm-6.58,0h-3.59V89h3.59Zm-6.59,0h-3.59V89h3.59Z" fill="#879fc1"/><rect x="192.04" y="88.96" width="1.73" height="1.15" fill="#879fc1"/></g><circle cx="234.05" cy="27.95" r="1.44" fill="#5e6981"/><circle cx="229.44" cy="27.95" r="1.44" fill="#5e6981"/><circle cx="224.84" cy="27.95" r="1.44" fill="#5e6981"/><rect x="0.58" y="0.58" width="54.67" height="54.67" rx="3" fill="#fff"/><path d="M52.24,55.82H3.58A3.59,3.59,0,0,1,0,52.24V3.58A3.59,3.59,0,0,1,3.58,0H52.24a3.59,3.59,0,0,1,3.58,3.58V52.24A3.59,3.59,0,0,1,52.24,55.82ZM3.58,1.15A2.43,2.43,0,0,0,1.15,3.58V52.24a2.43,2.43,0,0,0,2.43,2.43H52.24a2.43,2.43,0,0,0,2.43-2.43V3.58a2.43,2.43,0,0,0-2.43-2.43Z" fill="#879fc1"/><g style="isolation:isolate"><path d="M26.34,46.75a20.75,20.75,0,0,1-8.21-1.64A22.22,22.22,0,0,1,10,39.18c-.32-.36-.63-.73-.93-1.12l-.25-.32.27-.31A16.92,16.92,0,0,1,15.26,33a18,18,0,0,1,2.6-.86.29.29,0,0,1,0-.09,19.38,19.38,0,0,1-.47-3.15,3.51,3.51,0,0,1-1-1.1,4.09,4.09,0,0,1-.52-1.68,5.91,5.91,0,0,1,.74-3.26A6.93,6.93,0,0,1,18,21,4.89,4.89,0,0,1,20,19.77a4.17,4.17,0,0,1,.86-.14,10.07,10.07,0,0,1,1.07-.83c.28-.18.57-.34.88-.51a23.38,23.38,0,0,0,.54-2.5,20.3,20.3,0,0,0,.25-2.45v-.13a23.58,23.58,0,0,1-3.06,2A13.24,13.24,0,0,1,17,16.31a4.24,4.24,0,0,1-.58,0,1.13,1.13,0,0,1-1-.42.69.69,0,0,1,0-.73A3.7,3.7,0,0,1,17,14c.42-.2,1-.44,1.55-.68l.93-.4a29.21,29.21,0,0,0,4.69-1.7l.65-.31.08.91c0,.49.08,1,.12,1.36s.11,1.45.17,2.65c0,.61,0,1.14.06,1.58a9.3,9.3,0,0,1,1.52-.26,8.27,8.27,0,0,1,1-.05,11,11,0,0,1,3.35.52l.28.08c.57-.78,1.25-1.71,2-2.85.92-1.4,1.67-2.67,1.9-3.13s.66-1.26,1-2l.44-.82.44.82a32.1,32.1,0,0,0,4.55,6.31c.75.94,1.32,1.58,1.82,2.16l.92,1.08c.64.78.91,1.22.72,1.63a.63.63,0,0,1-.61.36h-.12c-1.1-.11-3-1.52-4.7-3.58a28,28,0,0,1-3.07-5.81L36.28,13c-.19.44-.78,1.75-1.47,3.22-.46,1-.85,1.76-1.15,2.37a.5.5,0,0,1,0,.13,10.05,10.05,0,0,1,1.5,1.05,9.76,9.76,0,0,1,3.34,5.41,8.14,8.14,0,0,1-.87,5.72,2.3,2.3,0,0,1,0,.28,6.18,6.18,0,0,1-.84,2.26A8.92,8.92,0,0,1,35.5,35l0,0a5.76,5.76,0,0,1,1.08,1.67,3.77,3.77,0,0,1,.19,2.62,1.22,1.22,0,0,1-.29.41,3.56,3.56,0,0,1-.48,2.8c-1.27,2.06-4.57,3.82-7.69,4.1C27.67,46.72,27,46.75,26.34,46.75Z" fill="url(#bbc9b44a-6ede-45df-bbf2-7ffea433637b)"/><path d="M36.8,10a33.3,33.3,0,0,0,4.61,6.4c1.22,1.52,2,2.28,2.73,3.23.6.72.87,1.17.5,1.17h-.06c-.94-.09-2.68-1.4-4.38-3.41a28,28,0,0,1-3.41-6.81l-1,2.21h0c-.18.44-.77,1.75-1.46,3.2-.52,1.09-1,2-1.27,2.61a.49.49,0,0,1,.13.27.27.27,0,0,1,0,.13,9.55,9.55,0,0,1,1.68,1.14,9.33,9.33,0,0,1,3.17,5.13,7.67,7.67,0,0,1-.87,5.47c0,.12,0,.24,0,.36a5.42,5.42,0,0,1-.77,2.07A8.76,8.76,0,0,1,34.81,35c.11.11.22.24.32.36a5.36,5.36,0,0,1,1,1.56c.29.68.64,2.33-.24,2.61,1.29,3.22-3.65,6.27-7.61,6.62q-1,.09-1.95.09a20.43,20.43,0,0,1-8-1.6,21.79,21.79,0,0,1-7.93-5.8c-.32-.35-.62-.72-.91-1.09a16.31,16.31,0,0,1,6-4.35,17.75,17.75,0,0,1,3-.95c-.05-.19-.11-.38-.15-.57a18.35,18.35,0,0,1-.47-3.3l-.05-.05a3,3,0,0,1-1-1A3.65,3.65,0,0,1,16.36,26,5.6,5.6,0,0,1,17,23a6.5,6.5,0,0,1,1.27-1.72,4.41,4.41,0,0,1,1.83-1.07,4.09,4.09,0,0,1,.93-.13,10.14,10.14,0,0,1,1.15-.9c.33-.21.67-.4,1-.58a24.3,24.3,0,0,0,.61-2.78,21,21,0,0,0,.26-2.52c0-.36,0-.75,0-1.16a28.08,28.08,0,0,1-3.81,2.64,13,13,0,0,1-3.41,1l-.52,0c-.52,0-.75-.13-.59-.39a3.48,3.48,0,0,1,1.44-1c.66-.31,1.61-.69,2.47-1.07a29.07,29.07,0,0,0,4.7-1.71l.14,1.56h0c0,.34.11,1.43.17,2.62,0,1,.06,1.7.07,2.21a11.14,11.14,0,0,1,2-.42c.32,0,.64,0,1,0a10.59,10.59,0,0,1,3.2.5c.2.05.41.12.61.19.63-.85,1.38-1.87,2.24-3.17s1.69-2.7,1.93-3.17.65-1.25,1-1.95m0-2.11L35.92,9.5c-.39.71-.73,1.37-1,2-.23.45-1,1.7-1.87,3.08-.66,1-1.26,1.84-1.79,2.55a11.69,11.69,0,0,0-3.43-.52c-.35,0-.71,0-1.05.05s-.66.08-1,.14c0-.3,0-.63,0-1-.06-1.21-.14-2.31-.17-2.68s-.08-.88-.13-1.38v-.16l-.12-1.44L24,10.75a29.13,29.13,0,0,1-4.54,1.65l-.07,0-.06,0-.92.4c-.59.25-1.14.48-1.58.69a4.36,4.36,0,0,0-1.87,1.41,1.21,1.21,0,0,0,0,1.23,1.63,1.63,0,0,0,1.49.68,5.1,5.1,0,0,0,.64,0,13.89,13.89,0,0,0,3.69-1.08h0l.05,0a22.15,22.15,0,0,0,2.25-1.44c0,.41-.1.92-.19,1.46A22.16,22.16,0,0,1,22.39,18c-.25.13-.49.28-.72.43a9,9,0,0,0-1,.75,5,5,0,0,0-.79.15,5.41,5.41,0,0,0-2.26,1.3,7.32,7.32,0,0,0-1.46,2,6.46,6.46,0,0,0-.8,3.54A5,5,0,0,0,15.94,28a4,4,0,0,0,1,1.1,19.39,19.39,0,0,0,.38,2.63,18.51,18.51,0,0,0-2.21.76A17.55,17.55,0,0,0,8.72,37.1l-.54.62.51.65c.29.38.61.76,1,1.15a22.85,22.85,0,0,0,8.29,6,21.26,21.26,0,0,0,8.41,1.68q1,0,2-.09c2.77-.25,6.54-1.86,8.06-4.34a4.05,4.05,0,0,0,.61-2.92,2.77,2.77,0,0,0,.2-.34,4.42,4.42,0,0,0-.18-3,6.23,6.23,0,0,0-.9-1.49,8.4,8.4,0,0,0,1.07-1.4,6.47,6.47,0,0,0,.9-2.44,1.36,1.36,0,0,0,0-.2A8.67,8.67,0,0,0,39,25a10.28,10.28,0,0,0-3.51-5.7,11.34,11.34,0,0,0-1.25-.9c.28-.56.61-1.25,1-2.05.67-1.42,1.27-2.75,1.48-3.23h0a27,27,0,0,0,2.64,4.78l0,0,0,0c.71.83,3.16,3.56,5,3.76h.17a1.13,1.13,0,0,0,1.06-.65c.37-.77-.25-1.51-.79-2.16-.3-.37-.6-.72-.93-1.09-.49-.56-1-1.21-1.79-2.12v0l0,0A31.85,31.85,0,0,1,37.68,9.5l-.87-1.63Z" fill="#fff"/></g><path d="M23.49,32.19a20.21,20.21,0,0,0-7.82,1.48,16.4,16.4,0,0,0-6,4.34,21.66,21.66,0,0,0,8.63,6.64,20.72,20.72,0,0,0,10,1.51c4-.35,8.9-3.4,7.61-6.62.88-.28.53-1.93.24-2.61a6.55,6.55,0,0,0-3.28-3.22,15.09,15.09,0,0,0-4.53-1.19,32.62,32.62,0,0,0-4.84-.33Z" fill="url(#a7ccb9db-698e-4f40-87d1-85986e02d5e2)"/><path d="M28.66,30.44a24.37,24.37,0,0,0-2.25,6.47A17.73,17.73,0,0,0,26,41.14c0,.23,0,.46,0,.69.64-.56,1.3-1.1,2-1.62,1.74-1.34,3.56-2.58,5.3-3.92a12.05,12.05,0,0,0,3.1-3.15,5.42,5.42,0,0,0,.77-2.07,4.09,4.09,0,0,0-.25-2.19,3.71,3.71,0,0,0-1.71-1.83,3.81,3.81,0,0,0-2.48-.34,4.86,4.86,0,0,0-2.43,1.4,9.83,9.83,0,0,0-1.62,2.33Z" fill="url(#f052adc1-757f-46b1-aea2-429807488e7e)"/><path d="M23.58,31.93h-.3a20.68,20.68,0,0,0-7.83,1.48,16.31,16.31,0,0,0-6,4.35,21.84,21.84,0,0,0,8.63,6.64,19.72,19.72,0,0,0,10,1.51,10.52,10.52,0,0,0,6.36-2.77c1.49-1.28,1.87-2.67,1.36-3.68,1-.71.45-2,.13-2.79a6.52,6.52,0,0,0-3.29-3.21,14.93,14.93,0,0,0-4.53-1.19,34.14,34.14,0,0,0-4.53-.34Z" fill="url(#f267b114-208f-4ad8-adaf-cea14feebea6)"/><path d="M10.57,37.62c6.84-.66,18.37-.27,25.08,1.82-.07-6.25-11.85-10.81-25.08-1.82Z" fill="#fff" opacity="0.18" style="isolation:isolate"/><g opacity="0.12"><path d="M10.23,37.67c8.68-1.47,20.76-.25,25.48,1.78C31,38.53,17.89,36.81,10.23,37.67Z"/><path d="M24.33,45.07a48,48,0,0,1,6.09-6.63l.79.11a44.43,44.43,0,0,0-6.88,6.52Z"/><path d="M18.9,43.7c1.11-1.65,5-5.26,6.24-5.82l.8.11c-1.6.56-5.41,3.55-7,5.71Z"/><path d="M14.18,41.47A14.5,14.5,0,0,1,19,37.32l.79.11a14.53,14.53,0,0,0-5.61,4Z"/><path d="M27.22,32.45c1.47,1.5,3.44,4.5,3.65,5.67l.95.3a21.5,21.5,0,0,0-4.6-6Z"/><path d="M21.54,32.6c1.62,1.46,3.75,3.69,3.95,4.86l.8-.11c-1-1.88-2.61-3.14-4.75-4.75Z"/><path d="M15.35,33.82c1.06.69,2.78,1.91,3.34,3.34l.8-.11a10.3,10.3,0,0,0-4.14-3.23Z"/></g><path d="M34.35,34.83c.22,1.23-1.56,1.51-5.84,2.27S23.15,38.28,22,38.82c-.39-1.32,1.3-3.83,5.58-4.58S34.13,33.59,34.35,34.83Z" opacity="0.75" style="isolation:isolate"/><path d="M19,22.87a10.71,10.71,0,0,0-1.1,4.46,17.23,17.23,0,0,0,.47,4.58,18.1,18.1,0,0,0,2.42,5.93c.23.33.46.65.71,1a18.27,18.27,0,0,1,4-2.26c1.41-.56,2.88-.95,4.32-1.39a20.12,20.12,0,0,0,3.77-1.49,8.76,8.76,0,0,0,3.06-2.61,7.59,7.59,0,0,0,1.12-5.87,9.29,9.29,0,0,0-3.17-5.13,10.65,10.65,0,0,0-7.74-2.4,10.11,10.11,0,0,0-4.61,1.6A9.42,9.42,0,0,0,19,22.87Z" fill="url(#f6be0e20-d887-4f3f-9647-22eed47d3e36)"/><path d="M19,22.85a10.7,10.7,0,0,0-1.1,4.45,16.91,16.91,0,0,0,.48,4.59,17.54,17.54,0,0,0,2.42,5.92,11.4,11.4,0,0,0,.7,1,18.12,18.12,0,0,1,4-2.26c1.4-.56,2.87-1,4.31-1.39a20.12,20.12,0,0,0,3.77-1.49A8.76,8.76,0,0,0,36.62,31a7.6,7.6,0,0,0,1.12-5.87A9.32,9.32,0,0,0,34.57,20a10.65,10.65,0,0,0-7.74-2.4,10.27,10.27,0,0,0-4.61,1.6A9.44,9.44,0,0,0,19,22.85Z" fill="url(#b4b3017f-f792-43b6-abc9-eced5144d3c1)"/><path d="M21.29,20.22a3.08,3.08,0,0,0-.89.19,3.8,3.8,0,0,0-1.74.94,6.93,6.93,0,0,0-1.18,1.77,6.08,6.08,0,0,0-.64,3.05,3.91,3.91,0,0,0,.42,1.51c.53.86.54,1.08,1.41,1.32a16,16,0,0,1,1.67-4.16A11.5,11.5,0,0,1,22,22.29c.51-.47.88-1.06,1.53-1.21a2.64,2.64,0,0,0-1-.71,3.6,3.6,0,0,0-1.27-.15Z" opacity="0.53" style="isolation:isolate"/><path d="M24.54,13.21c0,.34.11,1.43.17,2.62s.07,2.2.08,2.67a1.64,1.64,0,0,1-.83.44.73.73,0,0,1-.74-.21,26.13,26.13,0,0,0,.63-2.87,21,21,0,0,0,.26-2.52c0-.36,0-.75,0-1.16a28.08,28.08,0,0,1-3.81,2.64,13,13,0,0,1-3.41,1c-.87.1-1.31,0-1.11-.36a3.48,3.48,0,0,1,1.44-1c.66-.31,1.61-.69,2.47-1.07a29.07,29.07,0,0,0,4.7-1.71l.14,1.56Z" fill="#2d2d2d"/><path d="M19.26,22.93a10.79,10.79,0,0,0-1.1,4.46A17,17,0,0,0,18.64,32a17.63,17.63,0,0,0,2.42,5.92c.22.33.45.65.7,1a17.56,17.56,0,0,1,4-2.26c1.4-.57,2.87-1,4.32-1.4a20,20,0,0,0,3.76-1.48,8.9,8.9,0,0,0,3.06-2.62,7.54,7.54,0,0,0,1.12-5.87,9.33,9.33,0,0,0-3.17-5.13,10.64,10.64,0,0,0-7.74-2.4,10.15,10.15,0,0,0-4.61,1.6,9.5,9.5,0,0,0-3.27,3.62Z" opacity="0.52" fill="url(#e0895608-7fb3-4c6e-9dd2-b5cec088884f)" style="isolation:isolate"/><ellipse cx="32.25" cy="18.95" rx="0.98" ry="0.67" transform="translate(-2.1 4.14) rotate(-7.12)" opacity="0.37" fill="url(#b10d7790-1f05-422e-b723-45937f93a35d)" style="isolation:isolate"/><path d="M35.82,12.76c-.18.44-.77,1.75-1.46,3.2s-1.31,2.7-1.6,3.27a1.62,1.62,0,0,1-1,.16.56.56,0,0,1-.5-.63c.69-.93,1.58-2.11,2.6-3.66s1.69-2.7,1.93-3.17.65-1.25,1-1.95a33.3,33.3,0,0,0,4.61,6.4c1.22,1.52,2,2.28,2.73,3.23.63.76.9,1.21.44,1.16-.94-.09-2.68-1.4-4.38-3.41a28,28,0,0,1-3.41-6.81l-1,2.21Z" fill="#2d2d2d"/><path d="M29.77,21a3.66,3.66,0,0,1,2.4.82A4.16,4.16,0,0,1,33.53,24a5.12,5.12,0,0,1,0,2.49,7.37,7.37,0,0,1-1,2.28A6.41,6.41,0,0,1,29.9,31.2a4.27,4.27,0,0,1-1.76.4,3.38,3.38,0,0,1-3.06-1.85,4.41,4.41,0,0,1-.49-1.88,7.18,7.18,0,0,1,1.05-3.73A7.33,7.33,0,0,1,27.31,22a4.12,4.12,0,0,1,2.46-1Z" opacity="0.5" style="isolation:isolate"/><path d="M29.63,20.76a3.68,3.68,0,0,1,2.4.82,4.2,4.2,0,0,1,1.36,2.16,5.12,5.12,0,0,1,0,2.49,7.37,7.37,0,0,1-1,2.28A6.54,6.54,0,0,1,29.76,31a4.27,4.27,0,0,1-1.76.4,3.36,3.36,0,0,1-3.06-1.85,4.41,4.41,0,0,1-.49-1.88,7.18,7.18,0,0,1,1.05-3.73,7.33,7.33,0,0,1,1.67-2.12,4.12,4.12,0,0,1,2.46-1Z" fill="url(#b3a437c6-c90c-4c60-8c63-fcf42ccdaf81)"/><path d="M29.82,21.75h-.1a3.3,3.3,0,0,0-1.58.5,3.74,3.74,0,0,0-.78.65A5.38,5.38,0,0,1,29,22.57a4,4,0,0,1,1.94.32,2.42,2.42,0,0,1,.8.58,2.15,2.15,0,0,1,.5.85.25.25,0,0,0,0,.07,2.33,2.33,0,0,0,0-1.05,2.14,2.14,0,0,0-1-1.22,2.66,2.66,0,0,0-1.43-.37Z" opacity="0.61" fill="url(#b25b9f1a-172a-49bd-9c39-07fee9e9ee7d)" style="isolation:isolate"/><path d="M21.1,20.12a4,4,0,0,0-1,.13,4.41,4.41,0,0,0-1.83,1.07A6.5,6.5,0,0,0,17,23a5.6,5.6,0,0,0-.68,3,3.65,3.65,0,0,0,.45,1.47,3,3,0,0,0,1.08,1.1,2.7,2.7,0,0,0,.7.28c.31.28,1.13-2.59,1.74-4A11.85,11.85,0,0,1,23.41,21a3.16,3.16,0,0,0-1.08-.69,3.43,3.43,0,0,0-1.23-.22Z" fill="url(#a8f0d917-d5d2-4d4a-bbca-39eabf562aa9)"/><path d="M20.37,21.31a1.86,1.86,0,0,0-.52.07,2.27,2.27,0,0,0-1,.6,3.29,3.29,0,0,0-.54.69,3.28,3.28,0,0,1,1-.5,2.69,2.69,0,0,1,1.66.06,2.24,2.24,0,0,1,.57.31l.34-.39a1.79,1.79,0,0,0-.86-.72,1.89,1.89,0,0,0-.67-.12Z" opacity="0.63" fill="url(#b3f898a5-0c09-48b0-85c7-d9768eeac391)" style="isolation:isolate"/><path d="M23.89,21.1c-4.36,5.1-5.62,12.06-2.36,17C21.8,31.38,24.07,25.6,23.89,21.1Z" fill="url(#e28b4315-c1ea-4e5e-8579-1e9828b8b4f1)"/><path d="M23.6,21c-6.58,5.1-4.18,14.71-2.36,17C17.92,29.87,21.13,25.67,23.6,21Z" opacity="0.37" fill="url(#bbf34b2f-7444-4409-b15e-b39ec906db0d)" style="isolation:isolate"/><ellipse cx="24.05" cy="18.6" rx="0.74" ry="0.41" transform="translate(-5.09 9.92) rotate(-21.12)" opacity="0.48" fill="url(#acf11c2d-dbb4-47d2-8797-1667fe6f05bd)" style="isolation:isolate"/><path d="M11.68,37.88c5.47.06,18.3.71,23.64,2-6.25,7.17-17.21,3.81-23.64-2Z" opacity="0.22" fill="url(#e45eb17c-31cb-47ca-a43c-1d843dc90881)" style="isolation:isolate"/><path d="M30.29,24.48h-.08a2,2,0,0,0-1.72,1.23,2.68,2.68,0,0,0-.25,1.45,2.34,2.34,0,0,0,1.48,2.11,1.78,1.78,0,0,0,1.75-.38,2.72,2.72,0,0,0-.07-4,1.74,1.74,0,0,0-1.11-.4Z" fill="#1d1d1d"/><path d="M19.56,23.56H19.5a1.44,1.44,0,0,0-1.26,1.06,2,2,0,0,0,0,1.25,1.41,1.41,0,0,0,1.07.91c.13,0,.34.07.36-.11a19.81,19.81,0,0,1,.91-2.24c.1-.22-.12-.38-.25-.52a1.17,1.17,0,0,0-.8-.35Z" fill="#1d1d1d"/><path d="M19.5,23.58a1.5,1.5,0,0,0-1.33,1.55v.13a4.3,4.3,0,0,1,2.44-1,1.3,1.3,0,0,0-1-.65H19.5Z" opacity="0.32" fill="url(#b512ba9e-1c0c-49ca-a983-0901319b4a23)" style="isolation:isolate"/><path d="M30.27,24.49a2.26,2.26,0,0,0-2,2.42,2.47,2.47,0,0,0,0,.39,4.41,4.41,0,0,1,3.54-1.59H32a2,2,0,0,0-1.76-1.23Z" opacity="0.31" fill="url(#f37d61e7-32e5-4f0e-9d15-945d2f8d8b47)" style="isolation:isolate"/><g style="isolation:isolate"><path d="M107.34,46.75a20.75,20.75,0,0,1-8.21-1.64A22.22,22.22,0,0,1,91,39.18c-.32-.36-.63-.73-.93-1.12l-.25-.32.27-.31A16.92,16.92,0,0,1,96.26,33a18,18,0,0,1,2.6-.86.29.29,0,0,1,0-.09,19.38,19.38,0,0,1-.47-3.15,3.51,3.51,0,0,1-1-1.1,4.09,4.09,0,0,1-.52-1.68,5.91,5.91,0,0,1,.74-3.26A6.93,6.93,0,0,1,99,21,4.89,4.89,0,0,1,101,19.77a4.17,4.17,0,0,1,.86-.14,10.07,10.07,0,0,1,1.07-.83c.28-.18.57-.34.88-.51a23.38,23.38,0,0,0,.54-2.5,20.3,20.3,0,0,0,.25-2.45v-.13a23.58,23.58,0,0,1-3.06,2A13.24,13.24,0,0,1,98,16.31a4.24,4.24,0,0,1-.58,0,1.13,1.13,0,0,1-1-.42.69.69,0,0,1,0-.73A3.7,3.7,0,0,1,98,14c.42-.2,1-.44,1.55-.68l.93-.4a29.21,29.21,0,0,0,4.69-1.7l.65-.31.08.91c0,.49.08,1,.12,1.36s.11,1.45.17,2.65c0,.61,0,1.14.06,1.58a9.3,9.3,0,0,1,1.52-.26,8.27,8.27,0,0,1,1-.05,11,11,0,0,1,3.35.52l.28.08c.57-.78,1.25-1.71,2-2.85.92-1.4,1.67-2.67,1.9-3.13s.66-1.26,1-2l.44-.82.44.82a32.1,32.1,0,0,0,4.55,6.31c.75.94,1.32,1.58,1.82,2.16l.92,1.08c.64.78.91,1.22.72,1.63a.63.63,0,0,1-.61.36h-.12c-1.1-.11-3-1.52-4.7-3.58a28,28,0,0,1-3.07-5.81L117.28,13c-.19.44-.78,1.75-1.47,3.22-.46,1-.85,1.76-1.15,2.37a.5.5,0,0,1,0,.13,10.05,10.05,0,0,1,1.5,1.05,9.76,9.76,0,0,1,3.34,5.41,8.14,8.14,0,0,1-.87,5.72,2.3,2.3,0,0,1,0,.28,6.18,6.18,0,0,1-.84,2.26A8.92,8.92,0,0,1,116.5,35l0,0a5.76,5.76,0,0,1,1.08,1.67,3.77,3.77,0,0,1,.19,2.62,1.22,1.22,0,0,1-.29.41,3.56,3.56,0,0,1-.48,2.8c-1.27,2.06-4.57,3.82-7.69,4.1C108.67,46.72,108,46.75,107.34,46.75Z" fill="url(#a3352ffa-a13a-432e-818b-5be24697b305)"/><path d="M117.8,10a33.3,33.3,0,0,0,4.61,6.4c1.22,1.52,2,2.28,2.73,3.23.6.72.87,1.17.5,1.17h-.06c-.94-.09-2.68-1.4-4.38-3.41a28,28,0,0,1-3.41-6.81l-1,2.21h0c-.18.44-.77,1.75-1.46,3.2-.52,1.09-1,2-1.27,2.61a.49.49,0,0,1,.13.27.27.27,0,0,1,0,.13,9.55,9.55,0,0,1,1.68,1.14,9.33,9.33,0,0,1,3.17,5.13,7.67,7.67,0,0,1-.87,5.47c0,.12,0,.24,0,.36a5.42,5.42,0,0,1-.77,2.07A8.76,8.76,0,0,1,115.81,35c.11.11.22.24.32.36a5.36,5.36,0,0,1,1,1.56c.29.68.64,2.33-.24,2.61,1.29,3.22-3.65,6.27-7.61,6.62q-1,.09-2,.09a20.43,20.43,0,0,1-8-1.6,21.79,21.79,0,0,1-7.93-5.8c-.32-.35-.62-.72-.91-1.09a16.31,16.31,0,0,1,6-4.35,17.75,17.75,0,0,1,3-.95c0-.19-.11-.38-.15-.57a18.35,18.35,0,0,1-.47-3.3l0-.05a3,3,0,0,1-1-1A3.65,3.65,0,0,1,97.36,26,5.6,5.6,0,0,1,98,23a6.5,6.5,0,0,1,1.27-1.72,4.41,4.41,0,0,1,1.83-1.07,4.09,4.09,0,0,1,.93-.13,10.14,10.14,0,0,1,1.15-.9c.33-.21.67-.4,1-.58a24.3,24.3,0,0,0,.61-2.78,21,21,0,0,0,.26-2.52c0-.36,0-.75,0-1.16a28.08,28.08,0,0,1-3.81,2.64,13,13,0,0,1-3.41,1l-.52,0c-.52,0-.75-.13-.59-.39a3.48,3.48,0,0,1,1.44-1c.66-.31,1.61-.69,2.47-1.07a29.07,29.07,0,0,0,4.7-1.71l.14,1.56h0c0,.34.11,1.43.17,2.62,0,1,.06,1.7.07,2.21a11.14,11.14,0,0,1,2-.42c.32,0,.64,0,1,0a10.59,10.59,0,0,1,3.2.5c.2.05.41.12.61.19.63-.85,1.38-1.87,2.24-3.17s1.69-2.7,1.93-3.17.65-1.25,1-1.95m0-2.11-.89,1.63c-.39.71-.73,1.37-1,2-.23.45-1,1.7-1.87,3.08-.66,1-1.26,1.84-1.79,2.55a11.69,11.69,0,0,0-3.43-.52c-.35,0-.71,0-1.05.05s-.66.08-1,.14c0-.3,0-.63,0-1-.06-1.21-.14-2.31-.17-2.68s-.08-.88-.13-1.38v-.16l-.12-1.44-1.31.62a29.13,29.13,0,0,1-4.54,1.65l-.07,0-.06,0-.92.4c-.59.25-1.14.48-1.58.69a4.36,4.36,0,0,0-1.87,1.41,1.21,1.21,0,0,0,0,1.23,1.63,1.63,0,0,0,1.49.68,5.1,5.1,0,0,0,.64,0,13.89,13.89,0,0,0,3.69-1.08h0l0,0a22.15,22.15,0,0,0,2.25-1.44c0,.41-.1.92-.19,1.46a22.16,22.16,0,0,1-.47,2.25c-.25.13-.49.28-.72.43a9,9,0,0,0-1,.75,5,5,0,0,0-.79.15,5.41,5.41,0,0,0-2.26,1.3,7.32,7.32,0,0,0-1.46,2,6.46,6.46,0,0,0-.8,3.54A5,5,0,0,0,96.94,28a4,4,0,0,0,1,1.1,19.39,19.39,0,0,0,.38,2.63,18.51,18.51,0,0,0-2.21.76,17.55,17.55,0,0,0-6.34,4.61l-.54.62.51.65c.29.38.61.76,1,1.15a22.85,22.85,0,0,0,8.29,6,21.26,21.26,0,0,0,8.41,1.68q1,0,2-.09c2.77-.25,6.54-1.86,8.06-4.34a4.05,4.05,0,0,0,.61-2.92,2.77,2.77,0,0,0,.2-.34,4.42,4.42,0,0,0-.18-3,6.23,6.23,0,0,0-.9-1.49,8.4,8.4,0,0,0,1.07-1.4,6.47,6.47,0,0,0,.9-2.44,1.36,1.36,0,0,0,0-.2,8.67,8.67,0,0,0,.87-6,10.28,10.28,0,0,0-3.51-5.7,11.34,11.34,0,0,0-1.25-.9c.28-.56.61-1.25,1-2.05.67-1.42,1.27-2.75,1.48-3.23h0a27,27,0,0,0,2.64,4.78l0,0,0,0c.71.83,3.16,3.56,5,3.76h.17a1.13,1.13,0,0,0,1.06-.65c.37-.77-.25-1.51-.79-2.16-.3-.37-.6-.72-.93-1.09-.49-.56-1-1.21-1.79-2.12v0l0,0a31.85,31.85,0,0,1-4.48-6.22l-.87-1.63Z" fill="#fff"/></g><path d="M104.49,32.19a20.21,20.21,0,0,0-7.82,1.48,16.4,16.4,0,0,0-6,4.34,21.66,21.66,0,0,0,8.63,6.64,20.72,20.72,0,0,0,10,1.51c4-.35,8.9-3.4,7.61-6.62.88-.28.53-1.93.24-2.61a6.55,6.55,0,0,0-3.28-3.22,15.09,15.09,0,0,0-4.53-1.19,32.62,32.62,0,0,0-4.84-.33Z" fill="url(#bb06ba04-116c-47c4-ab6b-ea7ba19f191e)"/><path d="M109.66,30.44a24.37,24.37,0,0,0-2.25,6.47,17.73,17.73,0,0,0-.44,4.23c0,.23,0,.46,0,.69.64-.56,1.3-1.1,2-1.62,1.74-1.34,3.56-2.58,5.3-3.92a12.05,12.05,0,0,0,3.1-3.15,5.42,5.42,0,0,0,.77-2.07,4.09,4.09,0,0,0-.25-2.19,3.71,3.71,0,0,0-1.71-1.83,3.81,3.81,0,0,0-2.48-.34,4.86,4.86,0,0,0-2.43,1.4,9.83,9.83,0,0,0-1.62,2.33Z" fill="url(#ef671d7c-f835-498e-ac2e-c036a1904f08)"/><path d="M104.58,31.93h-.3a20.68,20.68,0,0,0-7.83,1.48,16.31,16.31,0,0,0-6,4.35,21.84,21.84,0,0,0,8.63,6.64,19.72,19.72,0,0,0,10,1.51,10.52,10.52,0,0,0,6.36-2.77c1.49-1.28,1.87-2.67,1.36-3.68,1-.71.45-2,.13-2.79a6.52,6.52,0,0,0-3.29-3.21,14.93,14.93,0,0,0-4.53-1.19,34.14,34.14,0,0,0-4.53-.34Z" fill="url(#a0529575-d8cf-43e1-99fe-2222e0e851db)"/><path d="M91.57,37.62c6.84-.66,18.37-.27,25.08,1.82-.07-6.25-11.85-10.81-25.08-1.82Z" fill="#fff" opacity="0.18" style="isolation:isolate"/><g opacity="0.12"><path d="M91.23,37.67c8.68-1.47,20.76-.25,25.48,1.78C112,38.53,98.89,36.81,91.23,37.67Z"/><path d="M105.33,45.07a48,48,0,0,1,6.09-6.63l.79.11a44.43,44.43,0,0,0-6.88,6.52Z"/><path d="M99.9,43.7c1.11-1.65,5-5.26,6.24-5.82l.8.11c-1.6.56-5.41,3.55-7,5.71Z"/><path d="M95.18,41.47A14.5,14.5,0,0,1,100,37.32l.79.11a14.53,14.53,0,0,0-5.61,4Z"/><path d="M108.22,32.45c1.47,1.5,3.44,4.5,3.65,5.67l.95.3a21.5,21.5,0,0,0-4.6-6Z"/><path d="M102.54,32.6c1.62,1.46,3.75,3.69,3.95,4.86l.8-.11c-1-1.88-2.61-3.14-4.75-4.75Z"/><path d="M96.35,33.82c1.06.69,2.78,1.91,3.34,3.34l.8-.11a10.3,10.3,0,0,0-4.14-3.23Z"/></g><path d="M115.35,34.83c.22,1.23-1.56,1.51-5.84,2.27s-5.36,1.18-6.55,1.72c-.39-1.32,1.3-3.83,5.58-4.58S115.13,33.59,115.35,34.83Z" opacity="0.75" style="isolation:isolate"/><path d="M100,22.87a10.71,10.71,0,0,0-1.1,4.46,17.23,17.23,0,0,0,.47,4.58,18.1,18.1,0,0,0,2.42,5.93c.23.33.46.65.71,1a18.27,18.27,0,0,1,4-2.26c1.41-.56,2.88-.95,4.32-1.39a20.12,20.12,0,0,0,3.77-1.49,8.76,8.76,0,0,0,3.06-2.61,7.59,7.59,0,0,0,1.12-5.87,9.29,9.29,0,0,0-3.17-5.13,10.65,10.65,0,0,0-7.74-2.4,10.11,10.11,0,0,0-4.61,1.6A9.42,9.42,0,0,0,100,22.87Z" fill="url(#faa87890-96ba-48b8-9aba-d360d3ae7c54)"/><path d="M100,22.85a10.7,10.7,0,0,0-1.1,4.45,16.91,16.91,0,0,0,.48,4.59,17.54,17.54,0,0,0,2.42,5.92,11.4,11.4,0,0,0,.7,1,18.12,18.12,0,0,1,4-2.26c1.4-.56,2.87-1,4.31-1.39a20.12,20.12,0,0,0,3.77-1.49A8.76,8.76,0,0,0,117.62,31a7.6,7.6,0,0,0,1.12-5.87A9.32,9.32,0,0,0,115.57,20a10.65,10.65,0,0,0-7.74-2.4,10.27,10.27,0,0,0-4.61,1.6A9.44,9.44,0,0,0,100,22.85Z" fill="url(#be102170-1267-40a3-86b8-8adae71c91c4)"/><path d="M102.29,20.22a3.08,3.08,0,0,0-.89.19,3.8,3.8,0,0,0-1.74.94,6.93,6.93,0,0,0-1.18,1.77,6.08,6.08,0,0,0-.64,3.05,3.91,3.91,0,0,0,.42,1.51c.53.86.54,1.08,1.41,1.32a16,16,0,0,1,1.67-4.16A11.5,11.5,0,0,1,103,22.29c.51-.47.88-1.06,1.53-1.21a2.64,2.64,0,0,0-1-.71,3.6,3.6,0,0,0-1.27-.15Z" opacity="0.53" style="isolation:isolate"/><path d="M105.54,13.21c0,.34.11,1.43.17,2.62s.07,2.2.08,2.67a1.64,1.64,0,0,1-.83.44.73.73,0,0,1-.74-.21,26.13,26.13,0,0,0,.63-2.87,21,21,0,0,0,.26-2.52c0-.36,0-.75,0-1.16a28.08,28.08,0,0,1-3.81,2.64,13,13,0,0,1-3.41,1c-.87.1-1.31,0-1.11-.36a3.48,3.48,0,0,1,1.44-1c.66-.31,1.61-.69,2.47-1.07a29.07,29.07,0,0,0,4.7-1.71l.14,1.56Z" fill="#2d2d2d"/><path d="M100.26,22.93a10.79,10.79,0,0,0-1.1,4.46A17,17,0,0,0,99.64,32a17.63,17.63,0,0,0,2.42,5.92c.22.33.45.65.7,1a17.56,17.56,0,0,1,4-2.26c1.4-.57,2.87-1,4.32-1.4a20,20,0,0,0,3.76-1.48,8.9,8.9,0,0,0,3.06-2.62,7.54,7.54,0,0,0,1.12-5.87,9.33,9.33,0,0,0-3.17-5.13,10.64,10.64,0,0,0-7.74-2.4,10.15,10.15,0,0,0-4.61,1.6,9.5,9.5,0,0,0-3.27,3.62Z" opacity="0.52" fill="url(#a0929bdf-dd4f-4b1a-beab-08408d6bb91f)" style="isolation:isolate"/><ellipse cx="113.25" cy="18.95" rx="0.98" ry="0.67" transform="translate(-1.48 14.18) rotate(-7.12)" opacity="0.37" fill="url(#b64d5f1f-b39d-44b7-ad89-4cf3991c0750)" style="isolation:isolate"/><path d="M116.82,12.76c-.18.44-.77,1.75-1.46,3.2s-1.31,2.7-1.6,3.27a1.62,1.62,0,0,1-1,.16.56.56,0,0,1-.5-.63c.69-.93,1.58-2.11,2.6-3.66s1.69-2.7,1.93-3.17.65-1.25,1-1.95a33.3,33.3,0,0,0,4.61,6.4c1.22,1.52,2,2.28,2.73,3.23.63.76.9,1.21.44,1.16-.94-.09-2.68-1.4-4.38-3.41a28,28,0,0,1-3.41-6.81l-1,2.21Z" fill="#2d2d2d"/><path d="M110.77,21a3.66,3.66,0,0,1,2.4.82A4.16,4.16,0,0,1,114.53,24a5.12,5.12,0,0,1,0,2.49,7.37,7.37,0,0,1-1,2.28,6.41,6.41,0,0,1-2.62,2.44,4.27,4.27,0,0,1-1.76.4,3.38,3.38,0,0,1-3.06-1.85,4.41,4.41,0,0,1-.49-1.88,7.18,7.18,0,0,1,1-3.73A7.33,7.33,0,0,1,108.31,22a4.12,4.12,0,0,1,2.46-1Z" opacity="0.5" style="isolation:isolate"/><path d="M110.63,20.76a3.68,3.68,0,0,1,2.4.82,4.2,4.2,0,0,1,1.36,2.16,5.12,5.12,0,0,1,0,2.49,7.37,7.37,0,0,1-1,2.28A6.54,6.54,0,0,1,110.76,31a4.27,4.27,0,0,1-1.76.4,3.36,3.36,0,0,1-3.06-1.85,4.41,4.41,0,0,1-.49-1.88,7.18,7.18,0,0,1,1-3.73,7.33,7.33,0,0,1,1.67-2.12,4.12,4.12,0,0,1,2.46-1Z" fill="url(#b65187f5-f1af-4fcf-9c57-42a2e6146148)"/><path d="M110.82,21.75h-.1a3.3,3.3,0,0,0-1.58.5,3.74,3.74,0,0,0-.78.65,5.38,5.38,0,0,1,1.64-.33,4,4,0,0,1,1.94.32,2.42,2.42,0,0,1,.8.58,2.15,2.15,0,0,1,.5.85.25.25,0,0,0,0,.07,2.33,2.33,0,0,0,0-1.05,2.14,2.14,0,0,0-1-1.22,2.66,2.66,0,0,0-1.43-.37Z" opacity="0.61" fill="url(#bdef3797-b4e2-4e9f-9d85-d79b4bf142bb)" style="isolation:isolate"/><path d="M102.1,20.12a4,4,0,0,0-1,.13,4.41,4.41,0,0,0-1.83,1.07A6.5,6.5,0,0,0,98,23a5.6,5.6,0,0,0-.68,3,3.65,3.65,0,0,0,.45,1.47,3,3,0,0,0,1.08,1.1,2.7,2.7,0,0,0,.7.28c.31.28,1.13-2.59,1.74-4A11.85,11.85,0,0,1,104.41,21a3.16,3.16,0,0,0-1.08-.69,3.43,3.43,0,0,0-1.23-.22Z" fill="url(#b5e632fb-ae7b-41ab-ba32-e83793d63f17)"/><path d="M101.37,21.31a1.86,1.86,0,0,0-.52.07,2.27,2.27,0,0,0-1,.6,3.29,3.29,0,0,0-.54.69,3.28,3.28,0,0,1,1-.5,2.69,2.69,0,0,1,1.66.06,2.24,2.24,0,0,1,.57.31l.34-.39a1.79,1.79,0,0,0-.86-.72,1.89,1.89,0,0,0-.67-.12Z" opacity="0.63" fill="url(#e736fda5-2f4c-46c1-a9a0-18fa9c8a7e1a)" style="isolation:isolate"/><path d="M104.89,21.1c-4.36,5.1-5.62,12.06-2.36,17C102.8,31.38,105.07,25.6,104.89,21.1Z" fill="url(#af599165-fa45-41b1-a2aa-859377ebecde)"/><path d="M104.6,21c-6.58,5.1-4.18,14.71-2.36,17C98.92,29.87,102.13,25.67,104.6,21Z" opacity="0.37" fill="url(#f1e7c257-5ec3-45e3-9de5-8a17e42d510d)" style="isolation:isolate"/><ellipse cx="105.05" cy="18.6" rx="0.74" ry="0.41" transform="translate(0.36 39.11) rotate(-21.12)" opacity="0.48" fill="url(#b9f879a2-9a09-438f-9a7a-5f3c05ff53a2)" style="isolation:isolate"/><path d="M92.68,37.88c5.47.06,18.3.71,23.64,2-6.25,7.17-17.21,3.81-23.64-2Z" opacity="0.22" fill="url(#a85cc150-9155-492d-b69c-d885ad6d50a4)" style="isolation:isolate"/><path d="M111.29,24.48h-.08a2,2,0,0,0-1.72,1.23,2.68,2.68,0,0,0-.25,1.45,2.34,2.34,0,0,0,1.48,2.11,1.78,1.78,0,0,0,1.75-.38,2.72,2.72,0,0,0-.07-4,1.74,1.74,0,0,0-1.11-.4Z" fill="#1d1d1d"/><path d="M100.56,23.56h-.06a1.44,1.44,0,0,0-1.26,1.06,2,2,0,0,0,0,1.25,1.41,1.41,0,0,0,1.07.91c.13,0,.34.07.36-.11a19.81,19.81,0,0,1,.91-2.24c.1-.22-.12-.38-.25-.52a1.17,1.17,0,0,0-.8-.35Z" fill="#1d1d1d"/><path d="M100.5,23.58a1.5,1.5,0,0,0-1.33,1.55v.13a4.3,4.3,0,0,1,2.44-1,1.3,1.3,0,0,0-1-.65h-.07Z" opacity="0.32" fill="url(#a51bbf4e-3997-41fc-88f1-3925245525db)" style="isolation:isolate"/><path d="M111.27,24.49a2.26,2.26,0,0,0-2,2.42,2.47,2.47,0,0,0,0,.39,4.41,4.41,0,0,1,3.54-1.59H113a2,2,0,0,0-1.76-1.23Z" opacity="0.31" fill="url(#fe3a4c77-6399-4f95-8917-a0e26a7a922b)" style="isolation:isolate"/><g style="isolation:isolate"><path d="M188.34,46.75a20.75,20.75,0,0,1-8.21-1.64A22.22,22.22,0,0,1,172,39.18c-.32-.36-.63-.73-.93-1.12l-.25-.32.27-.31A16.92,16.92,0,0,1,177.26,33a18,18,0,0,1,2.6-.86.29.29,0,0,1,0-.09,19.38,19.38,0,0,1-.47-3.15,3.51,3.51,0,0,1-1-1.1,4.09,4.09,0,0,1-.52-1.68,5.91,5.91,0,0,1,.74-3.26A6.93,6.93,0,0,1,180,21a4.89,4.89,0,0,1,2-1.19,4.17,4.17,0,0,1,.86-.14,10.07,10.07,0,0,1,1.07-.83c.28-.18.57-.34.88-.51a23.38,23.38,0,0,0,.54-2.5,20.3,20.3,0,0,0,.25-2.45v-.13a23.58,23.58,0,0,1-3.06,2A13.24,13.24,0,0,1,179,16.31a4.24,4.24,0,0,1-.58,0,1.13,1.13,0,0,1-1-.42.69.69,0,0,1,0-.73A3.7,3.7,0,0,1,179,14c.42-.2,1-.44,1.55-.68l.93-.4a29.21,29.21,0,0,0,4.69-1.7l.65-.31.08.91c0,.49.08,1,.12,1.36s.11,1.45.17,2.65c0,.61,0,1.14.06,1.58a9.3,9.3,0,0,1,1.52-.26,8.27,8.27,0,0,1,1-.05,11,11,0,0,1,3.35.52l.28.08c.57-.78,1.25-1.71,2-2.85.92-1.4,1.67-2.67,1.9-3.13s.66-1.26,1-2l.44-.82.44.82a32.1,32.1,0,0,0,4.55,6.31c.75.94,1.32,1.58,1.82,2.16l.92,1.08c.64.78.91,1.22.72,1.63a.63.63,0,0,1-.61.36h-.12c-1.1-.11-3-1.52-4.7-3.58a28,28,0,0,1-3.07-5.81L198.28,13c-.19.44-.78,1.75-1.47,3.22-.46,1-.85,1.76-1.15,2.37a.5.5,0,0,1,0,.13,10.05,10.05,0,0,1,1.5,1.05,9.76,9.76,0,0,1,3.34,5.41,8.14,8.14,0,0,1-.87,5.72,2.3,2.3,0,0,1,0,.28,6.18,6.18,0,0,1-.84,2.26A8.92,8.92,0,0,1,197.5,35l0,0a5.76,5.76,0,0,1,1.08,1.67,3.77,3.77,0,0,1,.19,2.62,1.22,1.22,0,0,1-.29.41,3.56,3.56,0,0,1-.48,2.8c-1.27,2.06-4.57,3.82-7.69,4.1C189.67,46.72,189,46.75,188.34,46.75Z" fill="url(#ba1dd48d-20e1-44f4-bf7f-bdfda85e0285)"/><path d="M198.8,10a33.3,33.3,0,0,0,4.61,6.4c1.22,1.52,2,2.28,2.73,3.23.6.72.87,1.17.5,1.17h-.06c-.94-.09-2.68-1.4-4.38-3.41a28,28,0,0,1-3.41-6.81l-1,2.21h0c-.18.44-.77,1.75-1.46,3.2-.52,1.09-1,2-1.27,2.61a.49.49,0,0,1,.13.27.27.27,0,0,1,0,.13,9.55,9.55,0,0,1,1.68,1.14,9.33,9.33,0,0,1,3.17,5.13,7.67,7.67,0,0,1-.87,5.47c0,.12,0,.24,0,.36a5.42,5.42,0,0,1-.77,2.07A8.76,8.76,0,0,1,196.81,35c.11.11.22.24.32.36a5.36,5.36,0,0,1,1,1.56c.29.68.64,2.33-.24,2.61,1.29,3.22-3.65,6.27-7.61,6.62q-1,.09-1.95.09a20.43,20.43,0,0,1-8-1.6,21.79,21.79,0,0,1-7.93-5.8c-.32-.35-.62-.72-.91-1.09a16.31,16.31,0,0,1,6-4.35,17.75,17.75,0,0,1,3-.95c0-.19-.11-.38-.15-.57a18.35,18.35,0,0,1-.47-3.3l-.05-.05a3,3,0,0,1-1-1,3.65,3.65,0,0,1-.45-1.47,5.6,5.6,0,0,1,.68-3,6.5,6.5,0,0,1,1.27-1.72,4.41,4.41,0,0,1,1.83-1.07,4.09,4.09,0,0,1,.93-.13,10.14,10.14,0,0,1,1.15-.9c.33-.21.67-.4,1-.58a24.3,24.3,0,0,0,.61-2.78,21,21,0,0,0,.26-2.52c0-.36,0-.75,0-1.16a28.08,28.08,0,0,1-3.81,2.64,13,13,0,0,1-3.41,1l-.52,0c-.52,0-.75-.13-.59-.39a3.48,3.48,0,0,1,1.44-1c.66-.31,1.61-.69,2.47-1.07a29.07,29.07,0,0,0,4.7-1.71l.14,1.56h0c0,.34.11,1.43.17,2.62,0,1,.06,1.7.07,2.21a11.14,11.14,0,0,1,2.05-.42c.32,0,.64,0,1,0a10.59,10.59,0,0,1,3.2.5c.2.05.41.12.61.19.63-.85,1.38-1.87,2.24-3.17s1.69-2.7,1.93-3.17.65-1.25,1-1.95m0-2.11-.89,1.63c-.39.71-.73,1.37-1,2-.23.45-1,1.7-1.87,3.08-.66,1-1.26,1.84-1.79,2.55a11.69,11.69,0,0,0-3.43-.52c-.35,0-.71,0-1,.05s-.66.08-1,.14c0-.3,0-.63,0-1-.06-1.21-.14-2.31-.17-2.68s-.08-.88-.13-1.38v-.16l-.12-1.44-1.31.62a29.13,29.13,0,0,1-4.54,1.65l-.07,0-.06,0-.92.4c-.59.25-1.14.48-1.58.69a4.36,4.36,0,0,0-1.87,1.41,1.21,1.21,0,0,0,0,1.23,1.63,1.63,0,0,0,1.49.68,5.1,5.1,0,0,0,.64,0,13.89,13.89,0,0,0,3.69-1.08h0l.05,0a22.15,22.15,0,0,0,2.25-1.44c0,.41-.1.92-.19,1.46a22.16,22.16,0,0,1-.47,2.25c-.25.13-.49.28-.72.43a9,9,0,0,0-1,.75,5,5,0,0,0-.79.15,5.41,5.41,0,0,0-2.26,1.3,7.32,7.32,0,0,0-1.46,2,6.46,6.46,0,0,0-.8,3.54,5,5,0,0,0,.58,1.88,4,4,0,0,0,.95,1.1,19.39,19.39,0,0,0,.38,2.63,18.51,18.51,0,0,0-2.21.76,17.55,17.55,0,0,0-6.34,4.61l-.54.62.51.65c.29.38.61.76.95,1.15a22.85,22.85,0,0,0,8.29,6,21.26,21.26,0,0,0,8.41,1.68q1,0,2-.09c2.77-.25,6.54-1.86,8.06-4.34a4.05,4.05,0,0,0,.61-2.92,2.77,2.77,0,0,0,.2-.34,4.42,4.42,0,0,0-.18-3,6.23,6.23,0,0,0-.9-1.49,8.4,8.4,0,0,0,1.07-1.4,6.47,6.47,0,0,0,.9-2.44,1.36,1.36,0,0,0,0-.2,8.67,8.67,0,0,0,.87-6,10.28,10.28,0,0,0-3.51-5.7,11.34,11.34,0,0,0-1.25-.9c.28-.56.61-1.25,1-2.05.67-1.42,1.27-2.75,1.48-3.23h0a27,27,0,0,0,2.64,4.78l0,0,0,0c.71.83,3.16,3.56,5,3.76h.17a1.13,1.13,0,0,0,1.06-.65c.37-.77-.25-1.51-.79-2.16-.3-.37-.6-.72-.93-1.09-.49-.56-1-1.21-1.79-2.12v0l0,0a31.85,31.85,0,0,1-4.48-6.22l-.87-1.63Z" fill="#fff"/></g><path d="M185.49,32.19a20.21,20.21,0,0,0-7.82,1.48,16.4,16.4,0,0,0-6,4.34,21.66,21.66,0,0,0,8.63,6.64,20.72,20.72,0,0,0,10,1.51c4-.35,8.9-3.4,7.61-6.62.88-.28.53-1.93.24-2.61a6.55,6.55,0,0,0-3.28-3.22,15.09,15.09,0,0,0-4.53-1.19,32.62,32.62,0,0,0-4.84-.33Z" fill="url(#f359ff2e-e0d3-49cd-9542-c4bc6d1e02e6)"/><path d="M190.66,30.44a24.37,24.37,0,0,0-2.25,6.47,17.73,17.73,0,0,0-.44,4.23c0,.23,0,.46,0,.69.64-.56,1.3-1.1,2-1.62,1.74-1.34,3.56-2.58,5.3-3.92a12.05,12.05,0,0,0,3.1-3.15,5.42,5.42,0,0,0,.77-2.07,4.09,4.09,0,0,0-.25-2.19,3.71,3.71,0,0,0-1.71-1.83,3.81,3.81,0,0,0-2.48-.34,4.86,4.86,0,0,0-2.43,1.4,9.83,9.83,0,0,0-1.62,2.33Z" fill="url(#ac3351ad-a982-4219-9f54-91ea22fe870a)"/><path d="M185.58,31.93h-.3a20.68,20.68,0,0,0-7.83,1.48,16.31,16.31,0,0,0-6,4.35,21.84,21.84,0,0,0,8.63,6.64,19.72,19.72,0,0,0,10,1.51,10.52,10.52,0,0,0,6.36-2.77c1.49-1.28,1.87-2.67,1.36-3.68,1-.71.45-2,.13-2.79a6.52,6.52,0,0,0-3.29-3.21,14.93,14.93,0,0,0-4.53-1.19,34.14,34.14,0,0,0-4.53-.34Z" fill="url(#b758ce42-2ab7-4e93-99f9-108437ae3904)"/><path d="M172.57,37.62c6.84-.66,18.37-.27,25.08,1.82-.07-6.25-11.85-10.81-25.08-1.82Z" fill="#fff" opacity="0.18" style="isolation:isolate"/><g opacity="0.12"><path d="M172.23,37.67c8.68-1.47,20.76-.25,25.48,1.78C193,38.53,179.89,36.81,172.23,37.67Z"/><path d="M186.33,45.07a48,48,0,0,1,6.09-6.63l.79.11a44.43,44.43,0,0,0-6.88,6.52Z"/><path d="M180.9,43.7c1.11-1.65,5-5.26,6.24-5.82l.8.11c-1.6.56-5.41,3.55-7,5.71Z"/><path d="M176.18,41.47A14.5,14.5,0,0,1,181,37.32l.79.11a14.53,14.53,0,0,0-5.61,4Z"/><path d="M189.22,32.45c1.47,1.5,3.44,4.5,3.65,5.67l.95.3a21.5,21.5,0,0,0-4.6-6Z"/><path d="M183.54,32.6c1.62,1.46,3.75,3.69,4,4.86l.8-.11c-1-1.88-2.61-3.14-4.75-4.75Z"/><path d="M177.35,33.82c1.06.69,2.78,1.91,3.34,3.34l.8-.11a10.3,10.3,0,0,0-4.14-3.23Z"/></g><path d="M196.35,34.83c.22,1.23-1.56,1.51-5.84,2.27s-5.36,1.18-6.55,1.72c-.39-1.32,1.3-3.83,5.58-4.58S196.13,33.59,196.35,34.83Z" opacity="0.75" style="isolation:isolate"/><path d="M181,22.87a10.71,10.71,0,0,0-1.1,4.46,17.23,17.23,0,0,0,.47,4.58,18.1,18.1,0,0,0,2.42,5.93c.23.33.46.65.71,1a18.27,18.27,0,0,1,4-2.26c1.41-.56,2.88-.95,4.32-1.39a20.12,20.12,0,0,0,3.77-1.49,8.76,8.76,0,0,0,3.06-2.61,7.59,7.59,0,0,0,1.12-5.87,9.29,9.29,0,0,0-3.17-5.13,10.65,10.65,0,0,0-7.74-2.4,10.11,10.11,0,0,0-4.61,1.6A9.42,9.42,0,0,0,181,22.87Z" fill="url(#e4ae8164-ac6f-4d3a-a3ec-320243af169d)"/><path d="M181,22.85a10.7,10.7,0,0,0-1.1,4.45,16.91,16.91,0,0,0,.48,4.59,17.54,17.54,0,0,0,2.42,5.92,11.4,11.4,0,0,0,.7,1,18.12,18.12,0,0,1,4-2.26c1.4-.56,2.87-1,4.31-1.39a20.12,20.12,0,0,0,3.77-1.49A8.76,8.76,0,0,0,198.62,31a7.6,7.6,0,0,0,1.12-5.87A9.32,9.32,0,0,0,196.57,20a10.65,10.65,0,0,0-7.74-2.4,10.27,10.27,0,0,0-4.61,1.6A9.44,9.44,0,0,0,181,22.85Z" fill="url(#bdba5c0d-b332-4451-a8c1-fca558f0aa71)"/><path d="M183.29,20.22a3.08,3.08,0,0,0-.89.19,3.8,3.8,0,0,0-1.74.94,6.93,6.93,0,0,0-1.18,1.77,6.08,6.08,0,0,0-.64,3.05,3.91,3.91,0,0,0,.42,1.51c.53.86.54,1.08,1.41,1.32a16,16,0,0,1,1.67-4.16A11.5,11.5,0,0,1,184,22.29c.51-.47.88-1.06,1.53-1.21a2.64,2.64,0,0,0-1-.71,3.6,3.6,0,0,0-1.27-.15Z" opacity="0.53" style="isolation:isolate"/><path d="M186.54,13.21c0,.34.11,1.43.17,2.62s.07,2.2.08,2.67a1.64,1.64,0,0,1-.83.44.73.73,0,0,1-.74-.21,26.13,26.13,0,0,0,.63-2.87,21,21,0,0,0,.26-2.52c0-.36,0-.75,0-1.16a28.08,28.08,0,0,1-3.81,2.64,13,13,0,0,1-3.41,1c-.87.1-1.31,0-1.11-.36a3.48,3.48,0,0,1,1.44-1c.66-.31,1.61-.69,2.47-1.07a29.07,29.07,0,0,0,4.7-1.71l.14,1.56Z" fill="#2d2d2d"/><path d="M181.26,22.93a10.79,10.79,0,0,0-1.1,4.46,17,17,0,0,0,.48,4.59,17.63,17.63,0,0,0,2.42,5.92c.22.33.45.65.7,1a17.56,17.56,0,0,1,4-2.26c1.4-.57,2.87-1,4.32-1.4a20,20,0,0,0,3.76-1.48,8.9,8.9,0,0,0,3.06-2.62,7.54,7.54,0,0,0,1.12-5.87,9.33,9.33,0,0,0-3.17-5.13,10.64,10.64,0,0,0-7.74-2.4,10.15,10.15,0,0,0-4.61,1.6,9.5,9.5,0,0,0-3.27,3.62Z" opacity="0.52" fill="url(#af869b02-df81-4bbb-b014-ef557af061d9)" style="isolation:isolate"/><ellipse cx="194.25" cy="18.95" rx="0.98" ry="0.67" transform="translate(-0.85 24.22) rotate(-7.12)" opacity="0.37" fill="url(#a77f2f4c-ea67-4718-98d1-a481ee93898c)" style="isolation:isolate"/><path d="M197.82,12.76c-.18.44-.77,1.75-1.46,3.2s-1.31,2.7-1.6,3.27a1.62,1.62,0,0,1-1,.16.56.56,0,0,1-.5-.63c.69-.93,1.58-2.11,2.6-3.66s1.69-2.7,1.93-3.17.65-1.25,1-1.95a33.3,33.3,0,0,0,4.61,6.4c1.22,1.52,2,2.28,2.73,3.23.63.76.9,1.21.44,1.16-.94-.09-2.68-1.4-4.38-3.41a28,28,0,0,1-3.41-6.81l-1,2.21Z" fill="#2d2d2d"/><path d="M191.77,21a3.66,3.66,0,0,1,2.4.82A4.16,4.16,0,0,1,195.53,24a5.12,5.12,0,0,1,0,2.49,7.37,7.37,0,0,1-1,2.28,6.41,6.41,0,0,1-2.62,2.44,4.27,4.27,0,0,1-1.76.4,3.38,3.38,0,0,1-3.06-1.85,4.41,4.41,0,0,1-.49-1.88,7.18,7.18,0,0,1,1-3.73A7.33,7.33,0,0,1,189.31,22a4.12,4.12,0,0,1,2.46-1Z" opacity="0.5" style="isolation:isolate"/><path d="M191.63,20.76a3.68,3.68,0,0,1,2.4.82,4.2,4.2,0,0,1,1.36,2.16,5.12,5.12,0,0,1,0,2.49,7.37,7.37,0,0,1-1,2.28A6.54,6.54,0,0,1,191.76,31a4.27,4.27,0,0,1-1.76.4,3.36,3.36,0,0,1-3.06-1.85,4.41,4.41,0,0,1-.49-1.88,7.18,7.18,0,0,1,1.05-3.73,7.33,7.33,0,0,1,1.67-2.12,4.12,4.12,0,0,1,2.46-1Z" fill="url(#add904f9-7021-411b-837f-2a5a60fade21)"/><path d="M191.82,21.75h-.1a3.3,3.3,0,0,0-1.58.5,3.74,3.74,0,0,0-.78.65,5.38,5.38,0,0,1,1.64-.33,4,4,0,0,1,1.94.32,2.42,2.42,0,0,1,.8.58,2.15,2.15,0,0,1,.5.85.25.25,0,0,0,0,.07,2.33,2.33,0,0,0,0-1.05,2.14,2.14,0,0,0-1-1.22,2.66,2.66,0,0,0-1.43-.37Z" opacity="0.61" fill="url(#fed50a13-4bc2-44db-914c-e4a96b63d9b8)" style="isolation:isolate"/><path d="M183.1,20.12a4,4,0,0,0-1,.13,4.41,4.41,0,0,0-1.83,1.07A6.5,6.5,0,0,0,179,23a5.6,5.6,0,0,0-.68,3,3.65,3.65,0,0,0,.45,1.47,3,3,0,0,0,1.08,1.1,2.7,2.7,0,0,0,.7.28c.31.28,1.13-2.59,1.74-4A11.85,11.85,0,0,1,185.41,21a3.16,3.16,0,0,0-1.08-.69,3.43,3.43,0,0,0-1.23-.22Z" fill="url(#e68ce6a6-4935-420c-a475-53e51a571abc)"/><path d="M182.37,21.31a1.86,1.86,0,0,0-.52.07,2.27,2.27,0,0,0-1,.6,3.29,3.29,0,0,0-.54.69,3.28,3.28,0,0,1,1-.5,2.69,2.69,0,0,1,1.66.06,2.24,2.24,0,0,1,.57.31l.34-.39a1.79,1.79,0,0,0-.86-.72,1.89,1.89,0,0,0-.67-.12Z" opacity="0.63" fill="url(#b56bf4ba-05c4-4d9f-a564-635e3436c33a)" style="isolation:isolate"/><path d="M185.89,21.1c-4.36,5.1-5.62,12.06-2.36,17C183.8,31.38,186.07,25.6,185.89,21.1Z" fill="url(#b80fee7d-ba34-40ef-961a-989546ab7501)"/><path d="M185.6,21c-6.58,5.1-4.18,14.71-2.36,17C179.92,29.87,183.13,25.67,185.6,21Z" opacity="0.37" fill="url(#f3127c19-de7f-4330-98e4-13bb3683bb90)" style="isolation:isolate"/><ellipse cx="186.05" cy="18.6" rx="0.74" ry="0.41" transform="translate(5.8 68.3) rotate(-21.12)" opacity="0.48" fill="url(#e6291f35-cd6b-47f3-b844-8c39f08bb22f)" style="isolation:isolate"/><path d="M173.68,37.88c5.47.06,18.3.71,23.64,2-6.25,7.17-17.21,3.81-23.64-2Z" opacity="0.22" fill="url(#bf57ec29-1d63-4cd1-ac0f-722c3bb1726b)" style="isolation:isolate"/><path d="M192.29,24.48h-.08a2,2,0,0,0-1.72,1.23,2.68,2.68,0,0,0-.25,1.45,2.34,2.34,0,0,0,1.48,2.11,1.78,1.78,0,0,0,1.75-.38,2.72,2.72,0,0,0-.07-4,1.74,1.74,0,0,0-1.11-.4Z" fill="#1d1d1d"/><path d="M181.56,23.56h-.06a1.44,1.44,0,0,0-1.26,1.06,2,2,0,0,0,0,1.25,1.41,1.41,0,0,0,1.07.91c.13,0,.34.07.36-.11a19.81,19.81,0,0,1,.91-2.24c.1-.22-.12-.38-.25-.52a1.17,1.17,0,0,0-.8-.35Z" fill="#1d1d1d"/><path d="M181.5,23.58a1.5,1.5,0,0,0-1.33,1.55v.13a4.3,4.3,0,0,1,2.44-1,1.3,1.3,0,0,0-1-.65h-.07Z" opacity="0.32" fill="url(#fea8ad0e-3836-4679-b80a-28a8fbc0e67d)" style="isolation:isolate"/><path d="M192.27,24.49a2.26,2.26,0,0,0-2,2.42,2.47,2.47,0,0,0,0,.39,4.41,4.41,0,0,1,3.54-1.59H194a2,2,0,0,0-1.76-1.23Z" opacity="0.31" fill="url(#b2d3aaff-80fd-4abb-abf1-89a528d9c79d)" style="isolation:isolate"/><g style="isolation:isolate"><path d="M269.34,46.75a20.75,20.75,0,0,1-8.21-1.64A22.22,22.22,0,0,1,253,39.18c-.32-.36-.63-.73-.93-1.12l-.25-.32.27-.31A16.92,16.92,0,0,1,258.26,33a18,18,0,0,1,2.6-.86.29.29,0,0,1,0-.09,19.38,19.38,0,0,1-.47-3.15,3.51,3.51,0,0,1-1-1.1,4.09,4.09,0,0,1-.52-1.68,5.91,5.91,0,0,1,.74-3.26A6.93,6.93,0,0,1,261,21,4.89,4.89,0,0,1,263,19.77a4.17,4.17,0,0,1,.86-.14,10.07,10.07,0,0,1,1.07-.83c.28-.18.57-.34.88-.51a23.38,23.38,0,0,0,.54-2.5,20.3,20.3,0,0,0,.25-2.45v-.13a23.58,23.58,0,0,1-3.06,2A13.24,13.24,0,0,1,260,16.31a4.24,4.24,0,0,1-.58,0,1.13,1.13,0,0,1-1.05-.42.69.69,0,0,1,0-.73A3.7,3.7,0,0,1,260,14c.42-.2,1-.44,1.55-.68l.93-.4a29.21,29.21,0,0,0,4.69-1.7l.65-.31.08.91c0,.49.08,1,.12,1.36s.11,1.45.17,2.65c0,.61,0,1.14.06,1.58a9.3,9.3,0,0,1,1.52-.26,8.27,8.27,0,0,1,1-.05,11,11,0,0,1,3.35.52l.28.08c.57-.78,1.25-1.71,2-2.85.92-1.4,1.67-2.67,1.9-3.13s.66-1.26,1-2l.44-.82.44.82a32.1,32.1,0,0,0,4.55,6.31c.75.94,1.32,1.58,1.82,2.16l.92,1.08c.64.78.91,1.22.72,1.63a.63.63,0,0,1-.61.36h-.12c-1.1-.11-2.95-1.52-4.7-3.58a28,28,0,0,1-3.07-5.81L279.28,13c-.19.44-.78,1.75-1.47,3.22-.46,1-.85,1.76-1.15,2.37a.5.5,0,0,1,0,.13,10.05,10.05,0,0,1,1.5,1.05,9.76,9.76,0,0,1,3.34,5.41,8.14,8.14,0,0,1-.87,5.72,2.3,2.3,0,0,1,0,.28,6.18,6.18,0,0,1-.84,2.26A8.92,8.92,0,0,1,278.5,35l0,0a5.76,5.76,0,0,1,1.08,1.67,3.77,3.77,0,0,1,.19,2.62,1.22,1.22,0,0,1-.29.41,3.56,3.56,0,0,1-.48,2.8c-1.27,2.06-4.57,3.82-7.69,4.1C270.67,46.72,270,46.75,269.34,46.75Z" fill="url(#b10ed7d4-eab6-4e51-8ef5-0e833689ab6d)"/><path d="M279.8,10a33.3,33.3,0,0,0,4.61,6.4c1.22,1.52,1.95,2.28,2.73,3.23.6.72.87,1.17.5,1.17h-.06c-.94-.09-2.68-1.4-4.38-3.41a28,28,0,0,1-3.41-6.81l-1,2.21h0c-.18.44-.77,1.75-1.46,3.2-.52,1.09-.95,2-1.27,2.61a.49.49,0,0,1,.13.27.27.27,0,0,1,0,.13,9.55,9.55,0,0,1,1.68,1.14,9.33,9.33,0,0,1,3.17,5.13,7.67,7.67,0,0,1-.87,5.47c0,.12,0,.24,0,.36a5.42,5.42,0,0,1-.77,2.07A8.76,8.76,0,0,1,277.81,35c.11.11.22.24.32.36a5.36,5.36,0,0,1,1,1.56c.29.68.64,2.33-.24,2.61,1.29,3.22-3.65,6.27-7.61,6.62q-1,.09-2,.09a20.43,20.43,0,0,1-8-1.6,21.79,21.79,0,0,1-7.93-5.8c-.32-.35-.62-.72-.91-1.09a16.31,16.31,0,0,1,6-4.35,17.75,17.75,0,0,1,3-.95c-.05-.19-.11-.38-.15-.57a18.35,18.35,0,0,1-.47-3.3l-.05-.05a3,3,0,0,1-1-1,3.65,3.65,0,0,1-.45-1.47,5.6,5.6,0,0,1,.68-3,6.5,6.5,0,0,1,1.27-1.72,4.41,4.41,0,0,1,1.83-1.07,4.09,4.09,0,0,1,.93-.13,10.14,10.14,0,0,1,1.15-.9c.33-.21.67-.4,1-.58a24.3,24.3,0,0,0,.61-2.78,21,21,0,0,0,.26-2.52c0-.36,0-.75,0-1.16a28.08,28.08,0,0,1-3.81,2.64,13,13,0,0,1-3.41,1l-.52,0c-.52,0-.75-.13-.59-.39a3.48,3.48,0,0,1,1.44-1c.66-.31,1.61-.69,2.47-1.07a29.07,29.07,0,0,0,4.7-1.71l.14,1.56h0c0,.34.11,1.43.17,2.62,0,1,.06,1.7.07,2.21a11.14,11.14,0,0,1,2.05-.42c.32,0,.64,0,1,0a10.59,10.59,0,0,1,3.2.5c.2.05.41.12.61.19.63-.85,1.38-1.87,2.24-3.17s1.69-2.7,1.93-3.17.65-1.25,1-1.95m0-2.11-.89,1.63c-.39.71-.73,1.37-1,2-.23.45-1,1.7-1.87,3.08-.66,1-1.26,1.84-1.79,2.55a11.69,11.69,0,0,0-3.43-.52c-.35,0-.71,0-1.05.05s-.66.08-1,.14c0-.3,0-.63,0-1-.06-1.21-.14-2.31-.17-2.68s-.08-.88-.13-1.38v-.16l-.12-1.44-1.31.62a29.13,29.13,0,0,1-4.54,1.65l-.07,0-.06,0-.92.4c-.59.25-1.14.48-1.58.69a4.36,4.36,0,0,0-1.87,1.41,1.21,1.21,0,0,0,0,1.23,1.63,1.63,0,0,0,1.49.68,5.1,5.1,0,0,0,.64,0,13.89,13.89,0,0,0,3.69-1.08h0l.05,0a22.15,22.15,0,0,0,2.25-1.44c0,.41-.1.92-.19,1.46a22.16,22.16,0,0,1-.47,2.25c-.25.13-.49.28-.72.43a9,9,0,0,0-1,.75,5,5,0,0,0-.79.15,5.41,5.41,0,0,0-2.26,1.3,7.32,7.32,0,0,0-1.46,2,6.46,6.46,0,0,0-.8,3.54,5,5,0,0,0,.58,1.88,4,4,0,0,0,.95,1.1,19.39,19.39,0,0,0,.38,2.63,18.51,18.51,0,0,0-2.21.76,17.55,17.55,0,0,0-6.34,4.61l-.54.62.51.65c.29.38.61.76.95,1.15a22.85,22.85,0,0,0,8.29,6,21.26,21.26,0,0,0,8.41,1.68q1,0,2-.09c2.77-.25,6.54-1.86,8.06-4.34a4.05,4.05,0,0,0,.61-2.92,2.77,2.77,0,0,0,.2-.34,4.42,4.42,0,0,0-.18-3,6.23,6.23,0,0,0-.9-1.49,8.4,8.4,0,0,0,1.07-1.4,6.47,6.47,0,0,0,.9-2.44,1.36,1.36,0,0,0,0-.2,8.67,8.67,0,0,0,.87-6,10.28,10.28,0,0,0-3.51-5.7,11.34,11.34,0,0,0-1.25-.9c.28-.56.61-1.25,1-2.05.67-1.42,1.27-2.75,1.48-3.23h0a27,27,0,0,0,2.64,4.78l0,0,0,0c.71.83,3.16,3.56,5,3.76h.17a1.13,1.13,0,0,0,1.06-.65c.37-.77-.25-1.51-.79-2.16-.3-.37-.6-.72-.93-1.09-.49-.56-1.05-1.21-1.79-2.12v0l0,0a31.85,31.85,0,0,1-4.48-6.22l-.87-1.63Z" fill="#fff"/></g><path d="M266.49,32.19a20.21,20.21,0,0,0-7.82,1.48,16.4,16.4,0,0,0-6,4.34,21.66,21.66,0,0,0,8.63,6.64,20.72,20.72,0,0,0,10,1.51c4-.35,8.9-3.4,7.61-6.62.88-.28.53-1.93.24-2.61a6.55,6.55,0,0,0-3.28-3.22,15.09,15.09,0,0,0-4.53-1.19,32.62,32.62,0,0,0-4.84-.33Z" fill="url(#b95df89b-4ccf-4daa-a0bd-0328d84c710d)"/><path d="M271.66,30.44a24.37,24.37,0,0,0-2.25,6.47,17.73,17.73,0,0,0-.44,4.23c0,.23,0,.46,0,.69.64-.56,1.3-1.1,2-1.62,1.74-1.34,3.56-2.58,5.3-3.92a12.05,12.05,0,0,0,3.1-3.15,5.42,5.42,0,0,0,.77-2.07,4.09,4.09,0,0,0-.25-2.19,3.71,3.71,0,0,0-1.71-1.83,3.81,3.81,0,0,0-2.48-.34,4.86,4.86,0,0,0-2.43,1.4,9.83,9.83,0,0,0-1.62,2.33Z" fill="url(#ba7c4e44-0c2a-4711-be4b-682724bf64c7)"/><path d="M266.58,31.93h-.3a20.68,20.68,0,0,0-7.83,1.48,16.31,16.31,0,0,0-6,4.35,21.84,21.84,0,0,0,8.63,6.64,19.72,19.72,0,0,0,10,1.51,10.52,10.52,0,0,0,6.36-2.77c1.49-1.28,1.87-2.67,1.36-3.68,1-.71.45-2,.13-2.79a6.52,6.52,0,0,0-3.29-3.21,14.93,14.93,0,0,0-4.53-1.19,34.14,34.14,0,0,0-4.53-.34Z" fill="url(#b122f3ed-3ad3-4e77-a8a1-9c106b35e823)"/><path d="M253.57,37.62c6.84-.66,18.37-.27,25.08,1.82-.07-6.25-11.85-10.81-25.08-1.82Z" fill="#fff" opacity="0.18" style="isolation:isolate"/><g opacity="0.12"><path d="M253.23,37.67c8.68-1.47,20.76-.25,25.48,1.78C274,38.53,260.89,36.81,253.23,37.67Z"/><path d="M267.33,45.07a48,48,0,0,1,6.09-6.63l.79.11a44.43,44.43,0,0,0-6.88,6.52Z"/><path d="M261.9,43.7c1.11-1.65,5-5.26,6.24-5.82l.8.11c-1.6.56-5.41,3.55-7,5.71Z"/><path d="M257.18,41.47A14.5,14.5,0,0,1,262,37.32l.79.11a14.53,14.53,0,0,0-5.61,4Z"/><path d="M270.22,32.45c1.47,1.5,3.44,4.5,3.65,5.67l.95.3a21.5,21.5,0,0,0-4.6-6Z"/><path d="M264.54,32.6c1.62,1.46,3.75,3.69,3.95,4.86l.8-.11c-1-1.88-2.61-3.14-4.75-4.75Z"/><path d="M258.35,33.82c1.06.69,2.78,1.91,3.34,3.34l.8-.11a10.3,10.3,0,0,0-4.14-3.23Z"/></g><path d="M277.35,34.83c.22,1.23-1.56,1.51-5.84,2.27s-5.36,1.18-6.55,1.72c-.39-1.32,1.3-3.83,5.58-4.58S277.13,33.59,277.35,34.83Z" opacity="0.75" style="isolation:isolate"/><path d="M262,22.87a10.71,10.71,0,0,0-1.1,4.46,17.23,17.23,0,0,0,.47,4.58,18.1,18.1,0,0,0,2.42,5.93c.23.33.46.65.71,1a18.27,18.27,0,0,1,4-2.26c1.41-.56,2.88-.95,4.32-1.39a20.12,20.12,0,0,0,3.77-1.49,8.76,8.76,0,0,0,3.06-2.61,7.59,7.59,0,0,0,1.12-5.87,9.29,9.29,0,0,0-3.17-5.13,10.65,10.65,0,0,0-7.74-2.4,10.11,10.11,0,0,0-4.61,1.6A9.42,9.42,0,0,0,262,22.87Z" fill="url(#b51c3351-9485-4ce7-b62a-49e28a1ae41f)"/><path d="M262,22.85a10.7,10.7,0,0,0-1.1,4.45,16.91,16.91,0,0,0,.48,4.59,17.54,17.54,0,0,0,2.42,5.92,11.4,11.4,0,0,0,.7,1,18.12,18.12,0,0,1,4-2.26c1.4-.56,2.87-1,4.31-1.39a20.12,20.12,0,0,0,3.77-1.49A8.76,8.76,0,0,0,279.62,31a7.6,7.6,0,0,0,1.12-5.87A9.32,9.32,0,0,0,277.57,20a10.65,10.65,0,0,0-7.74-2.4,10.27,10.27,0,0,0-4.61,1.6A9.44,9.44,0,0,0,262,22.85Z" fill="url(#e810d213-899e-4d7e-a33f-ec89eed1749b)"/><path d="M264.29,20.22a3.08,3.08,0,0,0-.89.19,3.8,3.8,0,0,0-1.74.94,6.93,6.93,0,0,0-1.18,1.77,6.08,6.08,0,0,0-.64,3.05,3.91,3.91,0,0,0,.42,1.51c.53.86.54,1.08,1.41,1.32a16,16,0,0,1,1.67-4.16A11.5,11.5,0,0,1,265,22.29c.51-.47.88-1.06,1.53-1.21a2.64,2.64,0,0,0-1-.71,3.6,3.6,0,0,0-1.27-.15Z" opacity="0.53" style="isolation:isolate"/><path d="M267.54,13.21c0,.34.11,1.43.17,2.62s.07,2.2.08,2.67a1.64,1.64,0,0,1-.83.44.73.73,0,0,1-.74-.21,26.13,26.13,0,0,0,.63-2.87,21,21,0,0,0,.26-2.52c0-.36,0-.75,0-1.16a28.08,28.08,0,0,1-3.81,2.64,13,13,0,0,1-3.41,1c-.87.1-1.31,0-1.11-.36a3.48,3.48,0,0,1,1.44-1c.66-.31,1.61-.69,2.47-1.07a29.07,29.07,0,0,0,4.7-1.71l.14,1.56Z" fill="#2d2d2d"/><path d="M262.26,22.93a10.79,10.79,0,0,0-1.1,4.46,17,17,0,0,0,.48,4.59,17.63,17.63,0,0,0,2.42,5.92c.22.33.45.65.7,1a17.56,17.56,0,0,1,4-2.26c1.4-.57,2.87-1,4.32-1.4a20,20,0,0,0,3.76-1.48,8.9,8.9,0,0,0,3.06-2.62,7.54,7.54,0,0,0,1.12-5.87,9.33,9.33,0,0,0-3.17-5.13,10.64,10.64,0,0,0-7.74-2.4,10.15,10.15,0,0,0-4.61,1.6,9.5,9.5,0,0,0-3.27,3.62Z" opacity="0.52" fill="url(#a71689c8-0b20-4ccf-bd11-bb6415396da8)" style="isolation:isolate"/><ellipse cx="275.25" cy="18.95" rx="0.98" ry="0.67" transform="translate(-0.23 34.26) rotate(-7.12)" opacity="0.37" fill="url(#aba0804b-0534-4377-bbb8-3ba34e2b8116)" style="isolation:isolate"/><path d="M278.82,12.76c-.18.44-.77,1.75-1.46,3.2s-1.31,2.7-1.6,3.27a1.62,1.62,0,0,1-1,.16.56.56,0,0,1-.5-.63c.69-.93,1.58-2.11,2.6-3.66s1.69-2.7,1.93-3.17.65-1.25,1-1.95a33.3,33.3,0,0,0,4.61,6.4c1.22,1.52,1.95,2.28,2.73,3.23.63.76.9,1.21.44,1.16-.94-.09-2.68-1.4-4.38-3.41a28,28,0,0,1-3.41-6.81l-1,2.21Z" fill="#2d2d2d"/><path d="M272.77,21a3.66,3.66,0,0,1,2.4.82A4.16,4.16,0,0,1,276.53,24a5.12,5.12,0,0,1,0,2.49,7.37,7.37,0,0,1-1,2.28,6.41,6.41,0,0,1-2.62,2.44,4.27,4.27,0,0,1-1.76.4,3.38,3.38,0,0,1-3.06-1.85,4.41,4.41,0,0,1-.49-1.88,7.18,7.18,0,0,1,1.05-3.73A7.33,7.33,0,0,1,270.31,22a4.12,4.12,0,0,1,2.46-1Z" opacity="0.5" style="isolation:isolate"/><path d="M272.63,20.76a3.68,3.68,0,0,1,2.4.82,4.2,4.2,0,0,1,1.36,2.16,5.12,5.12,0,0,1,0,2.49,7.37,7.37,0,0,1-1,2.28A6.54,6.54,0,0,1,272.76,31a4.27,4.27,0,0,1-1.76.4,3.36,3.36,0,0,1-3.06-1.85,4.41,4.41,0,0,1-.49-1.88,7.18,7.18,0,0,1,1.05-3.73,7.33,7.33,0,0,1,1.67-2.12,4.12,4.12,0,0,1,2.46-1Z" fill="url(#ab9cb9d9-ecbd-4a7a-87e6-2233745e97d9)"/><path d="M272.82,21.75h-.1a3.3,3.3,0,0,0-1.58.5,3.74,3.74,0,0,0-.78.65,5.38,5.38,0,0,1,1.64-.33,4,4,0,0,1,1.94.32,2.42,2.42,0,0,1,.8.58,2.15,2.15,0,0,1,.5.85.25.25,0,0,0,0,.07,2.33,2.33,0,0,0,0-1.05,2.14,2.14,0,0,0-1-1.22,2.66,2.66,0,0,0-1.43-.37Z" opacity="0.61" fill="url(#a37f476e-b650-4871-afc8-769235b28fc9)" style="isolation:isolate"/><path d="M264.1,20.12a4,4,0,0,0-1,.13,4.41,4.41,0,0,0-1.83,1.07A6.5,6.5,0,0,0,260,23a5.6,5.6,0,0,0-.68,3,3.65,3.65,0,0,0,.45,1.47,3,3,0,0,0,1.08,1.1,2.7,2.7,0,0,0,.7.28c.31.28,1.13-2.59,1.74-4A11.85,11.85,0,0,1,266.41,21a3.16,3.16,0,0,0-1.08-.69,3.43,3.43,0,0,0-1.23-.22Z" fill="url(#b5bf268f-fc12-429e-96da-b7780636efd6)"/><path d="M263.37,21.31a1.86,1.86,0,0,0-.52.07,2.27,2.27,0,0,0-1,.6,3.29,3.29,0,0,0-.54.69,3.28,3.28,0,0,1,1-.5,2.69,2.69,0,0,1,1.66.06,2.24,2.24,0,0,1,.57.31l.34-.39a1.79,1.79,0,0,0-.86-.72,1.89,1.89,0,0,0-.67-.12Z" opacity="0.63" fill="url(#a31b832e-6590-4585-8a0c-4414df0d02e8)" style="isolation:isolate"/><path d="M266.89,21.1c-4.36,5.1-5.62,12.06-2.36,17C264.8,31.38,267.07,25.6,266.89,21.1Z" fill="url(#afe3e51e-0b1e-4868-9b64-a173da4b1d3e)"/><path d="M266.6,21c-6.58,5.1-4.18,14.71-2.36,17C260.92,29.87,264.13,25.67,266.6,21Z" opacity="0.37" fill="url(#abf62f91-042c-4a35-bb05-65c5c323bef7)" style="isolation:isolate"/><ellipse cx="267.05" cy="18.6" rx="0.74" ry="0.41" transform="translate(11.24 97.49) rotate(-21.12)" opacity="0.48" fill="url(#a59785cc-c511-44c2-9867-e4c5036f3b50)" style="isolation:isolate"/><path d="M254.68,37.88c5.47.06,18.3.71,23.64,2-6.25,7.17-17.21,3.81-23.64-2Z" opacity="0.22" fill="url(#abd58cde-ddef-4cf6-b62e-4e8ce5db50f1)" style="isolation:isolate"/><path d="M273.29,24.48h-.08a2,2,0,0,0-1.72,1.23,2.68,2.68,0,0,0-.25,1.45,2.34,2.34,0,0,0,1.48,2.11,1.78,1.78,0,0,0,1.75-.38,2.72,2.72,0,0,0-.07-4,1.74,1.74,0,0,0-1.11-.4Z" fill="#1d1d1d"/><path d="M262.56,23.56h-.06a1.44,1.44,0,0,0-1.26,1.06,2,2,0,0,0,0,1.25,1.41,1.41,0,0,0,1.07.91c.13,0,.34.07.36-.11a19.81,19.81,0,0,1,.91-2.24c.1-.22-.12-.38-.25-.52a1.17,1.17,0,0,0-.8-.35Z" fill="#1d1d1d"/><path d="M262.5,23.58a1.5,1.5,0,0,0-1.33,1.55v.13a4.3,4.3,0,0,1,2.44-1,1.3,1.3,0,0,0-1-.65h-.07Z" opacity="0.32" fill="url(#b5660abb-53d9-4071-b537-562c6ad53948)" style="isolation:isolate"/><path d="M273.27,24.49a2.26,2.26,0,0,0-2,2.42,2.47,2.47,0,0,0,0,.39,4.41,4.41,0,0,1,3.54-1.59H275a2,2,0,0,0-1.76-1.23Z" opacity="0.31" fill="url(#f761c6f2-4496-4409-a37d-ad1350fecb6e)" style="isolation:isolate"/><path d="M129,107a7.27,7.27,0,0,1-2.49.45,3.79,3.79,0,0,1-4.15-4.08,4,4,0,0,1,4.37-4.18,5,5,0,0,1,2,.38l-.26.85a4,4,0,0,0-1.79-.35,3,3,0,0,0-3.25,3.25,3,3,0,0,0,3.12,3.26,3.43,3.43,0,0,0,1.39-.21v-2.41h-1.63v-.84H129Z"/><path d="M130.52,98.8h1.06v8.51h-1.06Z"/><path d="M138.21,105.72c0,.61,0,1.14,0,1.59h-.94l-.06-.94h0a2.18,2.18,0,0,1-1.92,1.07c-.91,0-2-.51-2-2.54v-3.39h1.05v3.2c0,1.1.35,1.86,1.3,1.86a1.51,1.51,0,0,0,1.39-1,1.49,1.49,0,0,0,.1-.54v-3.55h1.05Z"/><path d="M139.82,106.25a3,3,0,0,0,1.4.4c.76,0,1.12-.37,1.12-.86s-.3-.77-1.07-1.06c-1.05-.38-1.54-.94-1.54-1.64a1.79,1.79,0,0,1,2-1.7,2.61,2.61,0,0,1,1.41.36l-.25.76a2.31,2.31,0,0,0-1.19-.34c-.62,0-.95.36-.95.79s.33.69,1.09,1c1,.38,1.52.88,1.52,1.74,0,1-.8,1.75-2.16,1.75a3.33,3.33,0,0,1-1.63-.4Z"/><path d="M146,100.12v1.39h1.51v.8H146v3.13c0,.72.2,1.13.79,1.13a2.21,2.21,0,0,0,.61-.07l.05.8a3,3,0,0,1-.94.14,1.5,1.5,0,0,1-1.14-.44,2.3,2.3,0,0,1-.4-1.52v-3.17h-.9v-.8h.9v-1.08Z"/><path d="M149.21,104.6a1.85,1.85,0,0,0,2,2,3.71,3.71,0,0,0,1.6-.3l.2.75a4.75,4.75,0,0,1-1.95.37,2.69,2.69,0,0,1-2.85-2.93c0-1.76,1-3.12,2.72-3.12a2.44,2.44,0,0,1,2.4,2.72,2.08,2.08,0,0,1,0,.49Zm3.09-.75a1.51,1.51,0,0,0-1.46-1.71,1.73,1.73,0,0,0-1.62,1.71Z"/><path d="M154.63,103.32c0-.69,0-1.27,0-1.81h.92l.05,1.15h0a1.75,1.75,0,0,1,1.62-1.27l.29,0v1a1.34,1.34,0,0,0-.36,0,1.47,1.47,0,0,0-1.42,1.35,3.6,3.6,0,0,0,0,.49v3.09h-1.05Z"/><path d="M158.58,99.23h4.35v.87h-3.3v2.69h3.05v.86h-3.05v3.66h-1Z"/><path d="M164.3,106a3.55,3.55,0,0,0,1.86.53c1.07,0,1.69-.57,1.69-1.38s-.43-1.19-1.52-1.6c-1.32-.47-2.14-1.17-2.14-2.3a2.33,2.33,0,0,1,2.62-2.19,3.67,3.67,0,0,1,1.77.39l-.29.85a3,3,0,0,0-1.52-.38c-1.1,0-1.52.66-1.52,1.21,0,.76.49,1.13,1.6,1.56,1.37.53,2.06,1.19,2.06,2.38s-.91,2.33-2.82,2.33a4.32,4.32,0,0,1-2.07-.52Z"/></svg>