<svg id="eece11a8-1654-40f8-a9e0-18a01bb0b405" data-name="Capa 1" xmlns="http://www.w3.org/2000/svg" xmlns:xlink="http://www.w3.org/1999/xlink" width="174.18" height="179.31" viewBox="0 0 174.18 179.31"><defs><linearGradient id="accf4014-edf6-452b-b687-c69b2050c073" x1="38.76" y1="-1303.86" x2="66.04" y2="-1303.86" gradientTransform="matrix(1, 0, 0, -1, 0, -1211.72)" gradientUnits="userSpaceOnUse"><stop offset="0" stop-color="#0079e3"/><stop offset="0.16" stop-color="#057de4"/><stop offset="0.34" stop-color="#1388e7"/><stop offset="0.54" stop-color="#2b9aec"/><stop offset="0.74" stop-color="#4cb3f4"/><stop offset="0.96" stop-color="#76d4fd"/><stop offset="1" stop-color="#80dbff"/></linearGradient><linearGradient id="b39312fc-0df3-4fbe-9d14-e4ed3f2d9d93" x1="46.8" y1="-1282.65" x2="119.91" y2="-1282.65" xlink:href="#accf4014-edf6-452b-b687-c69b2050c073"/><linearGradient id="b20c2ac1-42c1-4028-b632-4d370068b830" x1="73.49" y1="-1318.25" x2="103.27" y2="-1318.25" xlink:href="#accf4014-edf6-452b-b687-c69b2050c073"/><linearGradient id="ed5963d5-5e2c-4812-81f1-8554e3bd308c" x1="111.52" y1="-1301.24" x2="135.6" y2="-1301.24" xlink:href="#accf4014-edf6-452b-b687-c69b2050c073"/><linearGradient id="a9b404a6-b11e-463d-92ad-a8523b914da7" x1="30.76" y1="-1291.94" x2="143.6" y2="-1291.94" xlink:href="#accf4014-edf6-452b-b687-c69b2050c073"/><linearGradient id="b361f4f3-0219-4633-9e8a-d613d23bed1b" x1="-503.25" y1="203.51" x2="-390.41" y2="203.51" gradientTransform="translate(-116.33 -366.62) rotate(-90)" gradientUnits="userSpaceOnUse"><stop offset="0" stop-color="#fff"/><stop offset="0.28" stop-color="#fff"/><stop offset="0.55" stop-color="#fff" stop-opacity="0.5"/><stop offset="0.75" stop-color="#fff" stop-opacity="0.4"/><stop offset="0.96" stop-color="#76d4fd" stop-opacity="0"/><stop offset="1" stop-color="#80dbff" stop-opacity="0"/></linearGradient></defs><path d="M38.76,80.22A48.43,48.43,0,0,0,66,123.78L42.93,60.49A48.9,48.9,0,0,0,38.76,80.22Z" fill="url(#accf4014-edf6-452b-b687-c69b2050c073)"/><path d="M119.86,77.76c0-6-2.16-10.1-4-13.34-2.45-4-4.76-7.36-4.76-11.33a8.38,8.38,0,0,1,8.15-8.59c.19,0,.44,0,.64,0a48.35,48.35,0,0,0-68.35,3,54,54,0,0,0-4.76,6.08c1.13,0,2.21,0,3.14,0,5.06,0,12.91-.59,12.91-.59a2,2,0,0,1,.29,4s-2.65.29-5.54.44L75.21,110l10.6-31.8L78.2,57.55c-2.6-.15-5-.44-5-.44-2.6-.15-2.31-4.12.29-4,0,0,8,.59,12.76.59,5,0,12.9-.59,12.9-.59a2,2,0,0,1,.3,4s-2.65.29-5.55.44l17.47,52,4.81-16.15C118.24,86.74,119.86,81.93,119.86,77.76Z" fill="url(#b39312fc-0df3-4fbe-9d14-e4ed3f2d9d93)"/><path d="M88,84.44,73.49,126.63a48.27,48.27,0,0,0,29.78-.79,3.32,3.32,0,0,1-.34-.68Z" fill="url(#b20c2ac1-42c1-4028-b632-4d370068b830)"/><path d="M129.62,57a41.33,41.33,0,0,1,.34,5,45.67,45.67,0,0,1-3.68,17.31L111.52,122a48.32,48.32,0,0,0,18.1-65Z" fill="url(#ed5963d5-5e2c-4812-81f1-8554e3bd308c)"/><path d="M87.18,23.8A56.42,56.42,0,1,0,143.6,80.22,56.43,56.43,0,0,0,87.18,23.8Zm0,110.29A53.83,53.83,0,1,1,141,80.22h0a54,54,0,0,1-53.82,53.87Z" fill="url(#a9b404a6-b11e-463d-92ad-a8523b914da7)"/><circle cx="87.18" cy="80.22" r="56.42" fill="url(#b361f4f3-0219-4633-9e8a-d613d23bed1b)"/><circle cx="87.18" cy="80.22" r="56.42" opacity="0.65" fill="url(#b361f4f3-0219-4633-9e8a-d613d23bed1b)"/><path d="M105.2,8.28a.93.93,0,0,1,0,.33l-2.39,9.68a1.09,1.09,0,0,1-1.07.81l-14.47.07H72.72a1.1,1.1,0,0,1-1.07-.81l-2.4-9.71a.93.93,0,0,1,0-.33,2.3,2.3,0,1,1,2.88-1.51,2.47,2.47,0,0,1-.74,1.1l3,3a4.16,4.16,0,0,0,5.83,0,4.55,4.55,0,0,0,.37-.44l5-6.57a2.3,2.3,0,1,1,3.29,0h0l5,6.6a4.09,4.09,0,0,0,3.28,1.66A4.31,4.31,0,0,0,100,11l3-3a2.31,2.31,0,0,1,2.88-3.62,2.32,2.32,0,0,1,.37,3.25,5.43,5.43,0,0,1-1.07.66ZM102.54,22.6a1.08,1.08,0,0,0-1.1-1.1H73.05a1.09,1.09,0,0,0-1.11,1.1v2.62a1.09,1.09,0,0,0,1.11,1.11h28.39a1.09,1.09,0,0,0,1.1-1.11Z" fill="#ffc107"/><path d="M69.55,119.85H104V127H69.55Z" fill="#007de9"/><path d="M99.53,119.85H104V127H99.53Z" fill="#006ae8"/><path d="M110.41,121H63.59A1.59,1.59,0,0,1,62,119.38v-11a1.6,1.6,0,0,1,1.59-1.6h46.82a1.6,1.6,0,0,1,1.59,1.6v11A1.59,1.59,0,0,1,110.41,121Z" fill="#03a5fe"/><path d="M68.87,113.89a1.05,1.05,0,1,1-1.05-1A1,1,0,0,1,68.87,113.89Z" fill="#64d3ff"/><path d="M73.41,113.89a1.06,1.06,0,1,1-1.06-1A1.05,1.05,0,0,1,73.41,113.89Z" fill="#64d3ff"/><path d="M77.94,113.89a1.06,1.06,0,1,1-1-1A1,1,0,0,1,77.94,113.89Z" fill="#64d3ff"/><path d="M82.47,113.89a1,1,0,1,1-1-1A1,1,0,0,1,82.47,113.89Z" fill="#64d3ff"/><path d="M107,116.46H87a.92.92,0,0,1-.93-.93V112.4a.93.93,0,0,1,.93-.93H107a.93.93,0,0,1,.93.93v3.13A.92.92,0,0,1,107,116.46Z" fill="#ddebfd"/><path d="M110.41,106.81h-4.49a1.6,1.6,0,0,1,1.59,1.6v11a1.59,1.59,0,0,1-1.59,1.59h4.49a1.59,1.59,0,0,0,1.59-1.59v-11A1.6,1.6,0,0,0,110.41,106.81Z" fill="#0088f9"/><path d="M107,111.47h-4.48a.93.93,0,0,1,.93.93v3.13a.93.93,0,0,1-.93.93H107a.92.92,0,0,0,.93-.93V112.4A.93.93,0,0,0,107,111.47Z" fill="#8fdfff"/><path d="M69.55,138.85H104V146H69.55Z" fill="#007de9"/><path d="M99.53,138.85H104V146H99.53Z" fill="#006ae8"/><path d="M110.41,159H63.59a1.6,1.6,0,0,1-1.59-1.6v-11a1.6,1.6,0,0,1,1.59-1.6h46.82a1.6,1.6,0,0,1,1.59,1.6v11A1.6,1.6,0,0,1,110.41,159Z" fill="#03a5fe"/><circle cx="67.82" cy="151.96" r="1.05" fill="#64d3ff"/><circle cx="72.35" cy="151.96" r="1.05" fill="#64d3ff"/><circle cx="76.89" cy="151.96" r="1.05" fill="#64d3ff"/><circle cx="81.42" cy="151.96" r="1.05" fill="#64d3ff"/><path d="M107,154.53H87a.92.92,0,0,1-.93-.93v-3.13a.93.93,0,0,1,.93-.93H107a.93.93,0,0,1,.93.93v3.13A.92.92,0,0,1,107,154.53Z" fill="#ddebfd"/><path d="M110.41,140H63.59A1.59,1.59,0,0,1,62,138.38v-11a1.6,1.6,0,0,1,1.59-1.6h46.82a1.6,1.6,0,0,1,1.59,1.6v11A1.59,1.59,0,0,1,110.41,140Z" fill="#03a5fe"/><path d="M68.87,132.89a1.05,1.05,0,1,1-1.05-1A1,1,0,0,1,68.87,132.89Z" fill="#64d3ff"/><path d="M73.41,132.89a1.06,1.06,0,1,1-1.06-1A1.05,1.05,0,0,1,73.41,132.89Z" fill="#64d3ff"/><path d="M77.94,132.89a1.06,1.06,0,1,1-1-1A1,1,0,0,1,77.94,132.89Z" fill="#64d3ff"/><path d="M82.47,132.89a1,1,0,1,1-1-1A1,1,0,0,1,82.47,132.89Z" fill="#64d3ff"/><path d="M107,135.46H87a.92.92,0,0,1-.93-.93V131.4a.93.93,0,0,1,.93-.93H107a.93.93,0,0,1,.93.93v3.13A.92.92,0,0,1,107,135.46Z" fill="#ddebfd"/><path d="M110.41,144.88h-4.49a1.6,1.6,0,0,1,1.59,1.6v11a1.6,1.6,0,0,1-1.59,1.6h4.49a1.6,1.6,0,0,0,1.59-1.6v-11A1.6,1.6,0,0,0,110.41,144.88Z" fill="#0088f9"/><path d="M107,149.54h-4.48a.93.93,0,0,1,.93.93v3.13a.93.93,0,0,1-.93.93H107a.92.92,0,0,0,.93-.93v-3.13A.93.93,0,0,0,107,149.54Z" fill="#8fdfff"/><path d="M110.41,125.81h-4.49a1.6,1.6,0,0,1,1.59,1.6v11a1.59,1.59,0,0,1-1.59,1.59h4.49a1.59,1.59,0,0,0,1.59-1.59v-11A1.6,1.6,0,0,0,110.41,125.81Z" fill="#0088f9"/><path d="M107,130.47h-4.48a.93.93,0,0,1,.93.93v3.13a.93.93,0,0,1-.93.93H107a.92.92,0,0,0,.93-.93V131.4A.93.93,0,0,0,107,130.47Z" fill="#8fdfff"/><path d="M48.59,154.88H44.1a1.6,1.6,0,0,1,1.6,1.6v11a1.6,1.6,0,0,1-1.6,1.6h4.49a1.6,1.6,0,0,0,1.59-1.6v-11A1.6,1.6,0,0,0,48.59,154.88Z" fill="#0088f9"/><path d="M45.2,159.54H40.72a.93.93,0,0,1,.93.93v3.13a.93.93,0,0,1-.93.93H45.2a.93.93,0,0,0,.94-.93v-3.13A.94.94,0,0,0,45.2,159.54Z" fill="#8fdfff"/><path d="M48.59,135.93H44.1a1.6,1.6,0,0,1,1.6,1.59v11a1.6,1.6,0,0,1-1.6,1.59h4.49a1.59,1.59,0,0,0,1.59-1.59v-11A1.59,1.59,0,0,0,48.59,135.93Z" fill="#0088f9"/><path d="M45.2,140.59H40.72a.93.93,0,0,1,.93.93v3.13a.93.93,0,0,1-.93.93H45.2a.94.94,0,0,0,.94-.93v-3.13A.93.93,0,0,0,45.2,140.59Z" fill="#8fdfff"/><path d="M48.59,116.86H44.1a1.6,1.6,0,0,1,1.6,1.59v11A1.6,1.6,0,0,1,44.1,131h4.49a1.59,1.59,0,0,0,1.59-1.59v-11A1.59,1.59,0,0,0,48.59,116.86Z" fill="#0088f9"/><path d="M45.2,121.52H40.72a.93.93,0,0,1,.93.93v3.13a.93.93,0,0,1-.93.93H45.2a.94.94,0,0,0,.94-.93v-3.13A.93.93,0,0,0,45.2,121.52Z" fill="#8fdfff"/><path d="M22.5,113.92a.88.88,0,0,1-.32-.07.75.75,0,0,1-.41-.72v-5.72a.72.72,0,0,1,.28-.58l7.37-5.65a.53.53,0,0,0,0-.39l-.61-.93a.73.73,0,0,1,.09-.92l.94-.93L26.59,94.7a.73.73,0,0,1,0-1l3-3.82a.66.66,0,0,1,.53-.27h0a.71.71,0,0,1,.54.2l7.06,7.06a1.5,1.5,0,0,1,0,2.1L23.05,113.7A.75.75,0,0,1,22.5,113.92Z" fill="#fff"/><path d="M30.15,90.21h.12l7.06,7.06a1,1,0,0,1,0,1.31L30,105.93l-5,5-1.67,1.67-.46.46-.13.13c-.07.05-.09.09-.16.09h-.06c-.09,0-.09-.12-.09-.22v-5.73a.15.15,0,0,1,0-.12l7.37-5.65a1,1,0,0,0,.19-1.13l-.66-1a.17.17,0,0,1,0-.19l.94-.94a.6.6,0,0,0,.18-.43.55.55,0,0,0-.18-.44L27,94.26a.17.17,0,0,1,0-.21l3-3.82a.13.13,0,0,1,.11,0h0m0-1.13h0a1.3,1.3,0,0,0-.95.48l-3,3.91a1.29,1.29,0,0,0,.16,1.65L29.11,98l-.57.58a1.27,1.27,0,0,0-.16,1.62l.48.74-7.09,5.48a1.29,1.29,0,0,0-.5,1v5.73a1.29,1.29,0,0,0,2.24.95l.12-.12.21-.21.26-.26.75-.75.92-.92L29,108.63l1.86-1.87,7.35-7.34a2.06,2.06,0,0,0,0-2.91l-7.09-7.06a1.31,1.31,0,0,0-.92-.37Z" fill="#fff"/><path d="M20.17,105.87a.69.69,0,0,1-.51-.22l-7-7.06a1.49,1.49,0,0,1,0-2.11h0L27.29,81.79a.78.78,0,0,1,.52-.21.74.74,0,0,1,.56.26h0a.8.8,0,0,1,.18.47v5.8a.72.72,0,0,1-.28.56l-7.38,5.65a.31.31,0,0,0-.06.39l.65.92a.74.74,0,0,1-.08.92l-.94.94,3.24,3.31a.71.71,0,0,1,0,1l-3,3.83a.73.73,0,0,1-.53.27Z" fill="#fff"/><path d="M27.82,82.14a.24.24,0,0,1,.12,0h0a.14.14,0,0,1,0,.09v5.88a.14.14,0,0,1-.06.12L20.5,93.88A.88.88,0,0,0,20.32,95l.65.92a.15.15,0,0,1,0,.2l-.94.94a.6.6,0,0,0,0,.86l3.24,3.24a.15.15,0,0,1,0,.2l-3,3.87a.16.16,0,0,1-.11.05h0a.13.13,0,0,1-.12,0L13,98.2a.93.93,0,0,1,0-1.31h0L27.69,82.2a.2.2,0,0,1,.11,0h0m0-1.13h0a1.26,1.26,0,0,0-.9.37L12.21,96.13a2.06,2.06,0,0,0,0,2.91h0l7.05,7a1.33,1.33,0,0,0,.91.37h.13a1.23,1.23,0,0,0,.88-.49l3-3.82a1.28,1.28,0,0,0-.1-1.7L21.2,97.54l.57-.57a1.29,1.29,0,0,0,.15-1.64l-.48-.76,7.11-5.44a1.36,1.36,0,0,0,.51-1v-5.8a1.31,1.31,0,0,0-.26-.78h0a1.33,1.33,0,0,0-.92-.52Z" fill="#fff"/><path d="M18.28,110.14a.92.92,0,0,1-.71-.47,1,1,0,0,1,.19-1.13l6.37-8.09-3.49-5a1.37,1.37,0,0,1,.28-1.84l10.38-8a1.14,1.14,0,0,1,.64-.26.87.87,0,0,1,.78.49,1,1,0,0,1-.2,1.06L26.15,95l3.53,5.11a1.44,1.44,0,0,1-.3,1.79l-10.34,8a1.16,1.16,0,0,1-.71.27h0Z" fill="#fff"/><path d="M31.94,85.93a.31.31,0,0,1,.27.17.4.4,0,0,1-.13.46h0l-6.46,8.2a.42.42,0,0,0,0,.43l3.61,5.23h0a.9.9,0,0,1-.17,1l-10.37,8a.62.62,0,0,1-.37.16.35.35,0,0,1-.24-.17.45.45,0,0,1,.12-.48l6.46-8.2a.39.39,0,0,0,0-.44l-3.58-5.17h0a.8.8,0,0,1,.17-1.08l10.38-8a.54.54,0,0,1,.34-.16m0-1.13a1.7,1.7,0,0,0-1,.38l-10.39,8a1.94,1.94,0,0,0-.41,2.61l3.28,4.71-6.1,7.76a1.52,1.52,0,0,0-.26,1.67,1.47,1.47,0,0,0,1.13.81h.19a1.76,1.76,0,0,0,1-.4l10.38-8a2,2,0,0,0,.41-2.57l-3-4.37L26.91,95,33,87.25a1.48,1.48,0,0,0,.26-1.66,1.41,1.41,0,0,0-1.34-.79Z" fill="#fff"/><path d="M37.32,97.32l-7-7.06a.13.13,0,0,0-.12,0h0a.16.16,0,0,0-.11,0l-3,3.82a.15.15,0,0,0,0,.2l3.25,3.25a.63.63,0,0,1,.18.44.64.64,0,0,1-.18.43l-.94.93a.18.18,0,0,0,0,.2l.65,1a1,1,0,0,1-.19,1.13l-7.36,5.65a.14.14,0,0,0-.06.12v5.73c0,.06,0,.17.09.21h.07c.07,0,.09,0,.16-.09l.12-.12.46-.46,1.66-1.66,5-5,7.36-7.35a.94.94,0,0,0,0-1.32Z" fill="#5e8cda"/><path d="M27.94,82.21h-.23L13,96.9a.93.93,0,0,0,0,1.31h0l7.05,7.05h.12a.14.14,0,0,0,.11-.06l3-3.82a.15.15,0,0,0,0-.2L20,98a.62.62,0,0,1,0-.86l.94-.94a.15.15,0,0,0,0-.2l-.65-.91a.86.86,0,0,1,.19-1.13l7.37-5.65a.16.16,0,0,0,.06-.13V82.31A.17.17,0,0,0,27.94,82.21Z" fill="#093071"/><path d="M29.24,100.42l-8.16-5.29,3.6,5.18a.39.39,0,0,1,0,.44l-6.47,8.19c-.11.15-.21.31-.12.48a.35.35,0,0,0,.24.17.62.62,0,0,0,.37-.16l10.38-8A.89.89,0,0,0,29.24,100.42Z" fill="#f2c913"/><path d="M32.24,86.09a.3.3,0,0,0-.3-.16.54.54,0,0,0-.34.16l-10.36,8a.8.8,0,0,0-.17,1.08l8.17,5.29-3.61-5.23a.42.42,0,0,1,0-.43l6.47-8.2h0C32.22,86.41,32.32,86.26,32.24,86.09Z" fill="#f4d646"/><path d="M146.93,113.92a.88.88,0,0,1-.33-.07.75.75,0,0,1-.41-.72v-5.72a.73.73,0,0,1,.29-.58l7.36-5.65a.53.53,0,0,0,0-.39l-.61-.93a.74.74,0,0,1,.09-.92l.94-.93L151,94.7a.71.71,0,0,1,0-1l3-3.82a.68.68,0,0,1,.53-.27h0a.75.75,0,0,1,.55.2l7.06,7.06a1.5,1.5,0,0,1,0,2.1L147.47,113.7A.73.73,0,0,1,146.93,113.92Z" fill="#fff"/><path d="M154.58,90.21h.11l7.06,7.06a.93.93,0,0,1,0,1.31l-7.35,7.35-5.05,5-1.68,1.67-.46.46-.12.13c-.07.05-.09.09-.16.09h-.07c-.09,0-.09-.12-.09-.22v-5.73a.16.16,0,0,1,.06-.12l7.36-5.65a1,1,0,0,0,.19-1.13l-.65-1a.17.17,0,0,1,0-.19l.94-.94a.64.64,0,0,0,.18-.43.63.63,0,0,0-.18-.44l-3.25-3.24a.17.17,0,0,1,0-.21l3-3.82a.16.16,0,0,1,.11,0h0m0-1.13h0a1.32,1.32,0,0,0-.95.48l-3,3.91a1.3,1.3,0,0,0,.16,1.65L153.54,98l-.58.58a1.29,1.29,0,0,0-.16,1.62l.49.74-7.1,5.48a1.28,1.28,0,0,0-.49,1v5.73a1.25,1.25,0,0,0,.71,1.23,1.27,1.27,0,0,0,1.52-.28l.13-.12.2-.21.26-.26.76-.75.91-.92,3.19-3.18,1.85-1.87,7.36-7.34a2.08,2.08,0,0,0,0-2.91l-7.1-7.06a1.29,1.29,0,0,0-.91-.37Z" fill="#fff"/><path d="M144.59,105.87a.72.72,0,0,1-.51-.22L137,98.59a1.5,1.5,0,0,1,0-2.11h0l14.69-14.69a.76.76,0,0,1,.52-.21.74.74,0,0,1,.55.26h0a.74.74,0,0,1,.18.47v5.8a.69.69,0,0,1-.28.56l-7.38,5.65a.3.3,0,0,0-.05.39l.64.92a.73.73,0,0,1-.08.92l-.94.94,3.25,3.31a.73.73,0,0,1,0,1l-3,3.83a.71.71,0,0,1-.53.27Z" fill="#fff"/><path d="M152.25,82.14a.2.2,0,0,1,.11,0h0a.14.14,0,0,1,0,.09v5.88a.17.17,0,0,1-.05.12l-7.38,5.65a.85.85,0,0,0-.18,1.13l.64.92a.15.15,0,0,1,0,.2l-.94.94a.62.62,0,0,0,0,.86l3.25,3.24a.15.15,0,0,1,0,.2l-3,3.87a.14.14,0,0,1-.11.05h0a.11.11,0,0,1-.11,0l-7.06-7.09a.91.91,0,0,1,0-1.31h0L152.11,82.2a.24.24,0,0,1,.12,0h0m0-1.13h0a1.29,1.29,0,0,0-.91.37L136.64,96.13a2.06,2.06,0,0,0,0,2.91h0l7.05,7a1.31,1.31,0,0,0,.9.37h.13a1.27,1.27,0,0,0,.89-.49l3-3.82a1.28,1.28,0,0,0-.1-1.7l-2.88-2.92.56-.57a1.29,1.29,0,0,0,.15-1.64l-.47-.76,7.1-5.44a1.29,1.29,0,0,0,.51-1v-5.8a1.31,1.31,0,0,0-.26-.78h0a1.33,1.33,0,0,0-.91-.52Z" fill="#fff"/><path d="M142.7,110.14a.92.92,0,0,1-.71-.47,1,1,0,0,1,.19-1.13l6.37-8.09-3.49-5a1.36,1.36,0,0,1,.29-1.84l10.38-8a1.14,1.14,0,0,1,.63-.26.87.87,0,0,1,.78.49,1,1,0,0,1-.19,1.06L150.58,95l3.52,5.11a1.43,1.43,0,0,1-.29,1.79l-10.35,8a1.13,1.13,0,0,1-.7.27h-.06Z" fill="#fff"/><path d="M156.36,85.93a.3.3,0,0,1,.27.17.41.41,0,0,1-.12.46h0l-6.46,8.2a.42.42,0,0,0,0,.43l3.6,5.23h0a.9.9,0,0,1-.17,1l-10.37,8a.62.62,0,0,1-.36.16.35.35,0,0,1-.25-.17.45.45,0,0,1,.12-.48l6.47-8.2a.43.43,0,0,0,0-.44l-3.59-5.17h0a.81.81,0,0,1,.17-1.08l10.39-8a.54.54,0,0,1,.34-.16m0-1.13a1.67,1.67,0,0,0-1,.38l-10.4,8a1.93,1.93,0,0,0-.4,2.61l3.27,4.71-6.1,7.76a1.54,1.54,0,0,0-.26,1.67,1.47,1.47,0,0,0,1.13.81h.19a1.76,1.76,0,0,0,1-.4l10.38-8a2,2,0,0,0,.41-2.57l-3-4.37-.28-.39,6.12-7.76a1.5,1.5,0,0,0,.26-1.66,1.43,1.43,0,0,0-1.35-.79Z" fill="#fff"/><path d="M161.74,97.32l-7.05-7.06a.11.11,0,0,0-.11,0h0a.17.17,0,0,0-.12,0l-3,3.82a.15.15,0,0,0,0,.2l3.24,3.25a.59.59,0,0,1,.18.44.6.6,0,0,1-.18.43l-.94.93a.18.18,0,0,0,0,.2l.66,1a1,1,0,0,1-.19,1.13l-7.37,5.65a.14.14,0,0,0-.06.12v5.73c0,.06,0,.17.09.21H147c.07,0,.09,0,.16-.09l.12-.12.47-.46,1.66-1.66,5-5,7.35-7.35a.92.92,0,0,0,0-1.32Z" fill="#5e8cda"/><path d="M152.36,82.21h-.22L137.45,96.9a.93.93,0,0,0,0,1.31h0l7.05,7.05h.11a.11.11,0,0,0,.11-.06l3-3.82a.15.15,0,0,0,0-.2L144.46,98a.62.62,0,0,1,0-.86l.94-.94a.15.15,0,0,0,0-.2l-.64-.91a.85.85,0,0,1,.18-1.13l7.38-5.65a.19.19,0,0,0,.05-.13V82.31A.12.12,0,0,0,152.36,82.21Z" fill="#093071"/><path d="M153.66,100.42l-8.16-5.29,3.61,5.18a.43.43,0,0,1,0,.44l-6.48,8.19c-.11.15-.21.31-.12.48a.35.35,0,0,0,.25.17.62.62,0,0,0,.36-.16l10.38-8A.88.88,0,0,0,153.66,100.42Z" fill="#f2c913"/><path d="M156.67,86.09a.3.3,0,0,0-.31-.16.54.54,0,0,0-.34.16l-10.36,8a.81.81,0,0,0-.17,1.08l8.17,5.29-3.6-5.23a.42.42,0,0,1,0-.43l6.46-8.2h0C156.64,86.41,156.75,86.26,156.67,86.09Z" fill="#f4d646"/><polygon points="87.87 64.08 87.87 50.37 86.49 50.37 86.49 64.08 84.09 64.08 87.18 68.53 90.28 64.08 87.87 64.08" fill="#04afa5"/><polygon points="103.87 59.2 103.87 45.49 102.5 45.49 102.5 59.2 100.09 59.2 103.19 63.65 106.28 59.2 103.87 59.2" fill="#04afa5"/><polygon points="71.87 59.2 71.87 45.49 70.49 45.49 70.49 59.2 68.08 59.2 71.18 63.65 74.27 59.2 71.87 59.2" fill="#04afa5"/><path d="M131.73,129.9H166.2v7.15H131.73Z" fill="#007de9"/><path d="M161.71,129.9h4.49v7.15h-4.49Z" fill="#006ae8"/><path d="M131.73,149.41H166.2v6H131.73Z" fill="#007de9"/><path d="M161.71,149.41h4.49v6h-4.49Z" fill="#006ae8"/><path d="M172.59,169H125.78a1.6,1.6,0,0,1-1.6-1.6v-11a1.6,1.6,0,0,1,1.6-1.6h46.81a1.6,1.6,0,0,1,1.59,1.6v11A1.6,1.6,0,0,1,172.59,169Z" fill="#03a5fe"/><circle cx="130" cy="161.96" r="1.05" fill="#64d3ff"/><circle cx="134.54" cy="161.96" r="1.05" fill="#64d3ff"/><circle cx="139.07" cy="161.96" r="1.05" fill="#64d3ff"/><circle cx="143.6" cy="161.96" r="1.05" fill="#64d3ff"/><path d="M169.2,164.53H149.13a.93.93,0,0,1-.93-.93v-3.13a.93.93,0,0,1,.93-.93H169.2a.94.94,0,0,1,.94.93v3.13A.93.93,0,0,1,169.2,164.53Z" fill="#ddebfd"/><path d="M172.59,150.08H125.78a1.6,1.6,0,0,1-1.6-1.59v-11a1.6,1.6,0,0,1,1.6-1.59h46.81a1.59,1.59,0,0,1,1.59,1.59v11A1.59,1.59,0,0,1,172.59,150.08Z" fill="#03a5fe"/><circle cx="130" cy="143" r="1.05" fill="#64d3ff"/><circle cx="134.54" cy="143" r="1.05" fill="#64d3ff"/><circle cx="139.07" cy="143" r="1.05" fill="#64d3ff"/><circle cx="143.6" cy="143" r="1.05" fill="#64d3ff"/><path d="M169.2,145.58H149.13a.93.93,0,0,1-.93-.93v-3.13a.93.93,0,0,1,.93-.93H169.2a.93.93,0,0,1,.94.93v3.13A.94.94,0,0,1,169.2,145.58Z" fill="#ddebfd"/><path d="M172.59,131H125.78a1.6,1.6,0,0,1-1.6-1.59v-11a1.6,1.6,0,0,1,1.6-1.59h46.81a1.59,1.59,0,0,1,1.59,1.59v11A1.59,1.59,0,0,1,172.59,131Z" fill="#03a5fe"/><path d="M131.06,123.94a1.06,1.06,0,1,1-1.06-1.06A1.05,1.05,0,0,1,131.06,123.94Z" fill="#64d3ff"/><path d="M135.59,123.94a1.06,1.06,0,0,1-2.11,0,1.06,1.06,0,1,1,2.11,0Z" fill="#64d3ff"/><path d="M140.12,123.94a1.05,1.05,0,1,1-1.05-1.06A1,1,0,0,1,140.12,123.94Z" fill="#64d3ff"/><path d="M144.66,123.94a1.06,1.06,0,1,1-1.06-1.06A1.06,1.06,0,0,1,144.66,123.94Z" fill="#64d3ff"/><path d="M169.2,126.51H149.13a.93.93,0,0,1-.93-.93v-3.13a.93.93,0,0,1,.93-.93H169.2a.93.93,0,0,1,.94.93v3.13A.94.94,0,0,1,169.2,126.51Z" fill="#ddebfd"/><path d="M172.59,154.88H168.1a1.6,1.6,0,0,1,1.6,1.6v11a1.6,1.6,0,0,1-1.6,1.6h4.49a1.6,1.6,0,0,0,1.59-1.6v-11A1.6,1.6,0,0,0,172.59,154.88Z" fill="#0088f9"/><path d="M169.2,159.54h-4.48a.93.93,0,0,1,.93.93v3.13a.93.93,0,0,1-.93.93h4.48a.93.93,0,0,0,.94-.93v-3.13A.94.94,0,0,0,169.2,159.54Z" fill="#8fdfff"/><path d="M172.59,135.93H168.1a1.6,1.6,0,0,1,1.6,1.59v11a1.6,1.6,0,0,1-1.6,1.59h4.49a1.59,1.59,0,0,0,1.59-1.59v-11A1.59,1.59,0,0,0,172.59,135.93Z" fill="#0088f9"/><path d="M169.2,140.59h-4.48a.93.93,0,0,1,.93.93v3.13a.93.93,0,0,1-.93.93h4.48a.94.94,0,0,0,.94-.93v-3.13A.93.93,0,0,0,169.2,140.59Z" fill="#8fdfff"/><path d="M172.59,116.86H168.1a1.6,1.6,0,0,1,1.6,1.59v11a1.6,1.6,0,0,1-1.6,1.59h4.49a1.59,1.59,0,0,0,1.59-1.59v-11A1.59,1.59,0,0,0,172.59,116.86Z" fill="#0088f9"/><path d="M169.2,121.52h-4.48a.93.93,0,0,1,.93.93v3.13a.93.93,0,0,1-.93.93h4.48a.94.94,0,0,0,.94-.93v-3.13A.93.93,0,0,0,169.2,121.52Z" fill="#8fdfff"/><path d="M149.41,178.61c-.26,0-.95,0-1.19-.54a.8.8,0,0,1,.18-.87c.22-.33.51-.73.82-1.12a13.28,13.28,0,0,0,1.5-2.29l-.83-.13a51.82,51.82,0,0,0-7.47-.77,17,17,0,0,0-2.25.14,8.94,8.94,0,0,0-4.24,1.93,12.57,12.57,0,0,1-1.38.89,11.49,11.49,0,0,1-5.82,1.69c-.65,0-2.76-.08-3.25-1.16a1.27,1.27,0,0,1,.45-1.5,3.38,3.38,0,0,1-1.07-.8.69.69,0,0,1,0-.91c1.38-1.65,3.61-1.78,5.52-1.91a5.31,5.31,0,0,0,3.12-.73,9.7,9.7,0,0,0,1.39-1.86,7.7,7.7,0,0,1,1.67-2.1,19.1,19.1,0,0,1,6.43-3.72c1.08-.33,2.15-.56,3.31-.83a22.3,22.3,0,0,0,6.7-2.22c2-1.14,3.34-3.3,4.72-5.52,1.59-2.61,3.22-5.32,6.1-6.52a12.36,12.36,0,0,1,3.44-.73,16.71,16.71,0,0,0,1.85-.34,6.71,6.71,0,0,0,1.24-.42,2.16,2.16,0,0,1,1-.23h0a1.61,1.61,0,0,1,1.73,1.49v.23a5.4,5.4,0,0,1-2.21,4.52c-.32.29-.65.54-1,.8a8.23,8.23,0,0,0-2.23,2.25,11.72,11.72,0,0,0-.89,3.24c-.16.87-.34,1.78-.56,2.63s-.38,1.38-.56,2.1c-.37,1.38-.74,2.91-1.11,4a6.21,6.21,0,0,0,.35,4.14,1.58,1.58,0,0,0,.82.83.68.68,0,0,1,.45.85.81.81,0,0,1-.24.34,5.63,5.63,0,0,1-3.21.94h0a5,5,0,0,1-3.75-1.52,4.51,4.51,0,0,0-1.58,1.75,5.87,5.87,0,0,1-1.91,2.14,16.86,16.86,0,0,1-4.74,1.77A7.68,7.68,0,0,1,149.41,178.61Z" fill="#fff"/><path d="M171.39,146.76c.63,0,1,.38,1,1.06a4.69,4.69,0,0,1-2,4,14.36,14.36,0,0,0-3.35,3.25c-.71,1.12-.93,3.86-1.54,6.05s-1.11,4.48-1.66,6-.11,5.31,1.63,5.8a4.78,4.78,0,0,1-2.76.87,4.15,4.15,0,0,1-3.52-1.65c-2.1.56-2.36,3.11-4.07,4.15a16.41,16.41,0,0,1-4.62,1.53,5.79,5.79,0,0,1-1.1.12c-.44,0-.7-.09-.53-.27a18.2,18.2,0,0,0,2.77-4.41,68.36,68.36,0,0,0-9.24-1,18.1,18.1,0,0,0-2.33.14c-2.76.36-4.15,1.86-5.82,2.91a10.94,10.94,0,0,1-5.52,1.58c-1.38,0-2.46-.35-2.62-.75-.33-.8,1.38-1.26,1.66-1.81a5.61,5.61,0,0,1-.82,0,1.88,1.88,0,0,1-1.57-.72c2.18-2.56,7-.92,8.64-2.59s1.56-2.67,3-3.92a18.45,18.45,0,0,1,6.2-3.59c3.15-1,6.64-1.15,10.09-3.09,4.58-2.6,5.61-9.94,10.71-12.07a32.25,32.25,0,0,1,5.24-1c1.57-.39,1.38-.59,2.07-.62h0m0-1.38h-.1a2.66,2.66,0,0,0-1.21.29,5.84,5.84,0,0,1-1.14.37,15.66,15.66,0,0,1-1.8.28,12.79,12.79,0,0,0-3.62.77c-3.09,1.3-4.79,4.14-6.42,6.79-1.3,2.22-2.56,4.3-4.43,5.33a22.24,22.24,0,0,1-6.53,2.18c-1.11.24-2.27.5-3.37.84a20.09,20.09,0,0,0-6.62,3.88,8.24,8.24,0,0,0-1.8,2.27A9.19,9.19,0,0,1,133,170.1a5.48,5.48,0,0,1-2.68.53c-2,.12-4.43.27-6,2.14a1.37,1.37,0,0,0,0,1.8,5.38,5.38,0,0,0,.55.52,1.71,1.71,0,0,0-.08,1.6c.56,1.38,2.66,1.57,3.86,1.57a12.21,12.21,0,0,0,6.3-1.82c.48-.29.94-.61,1.38-.91a8.27,8.27,0,0,1,3.93-1.82,15.67,15.67,0,0,1,2.16-.14,50.19,50.19,0,0,1,7.23.74c-.29.46-.63.9-1,1.38s-.59.78-.87,1.18a1.46,1.46,0,0,0-.21,1.49,1.78,1.78,0,0,0,1.81.94,7.87,7.87,0,0,0,1.38-.14h.07a17.77,17.77,0,0,0,4.89-1.81,6.47,6.47,0,0,0,2.15-2.35,6.33,6.33,0,0,1,.94-1.24,5.89,5.89,0,0,0,3.83,1.38,6.16,6.16,0,0,0,3.59-1.12,1.38,1.38,0,0,0-.43-2.41,1.31,1.31,0,0,1-.4-.49,5.55,5.55,0,0,1-.33-3.66c.38-1.09.77-2.59,1.14-4,.18-.7.36-1.38.54-2.09s.42-1.78.58-2.66a12,12,0,0,1,.82-2.94,7.69,7.69,0,0,1,2.07-2.07c.34-.26.69-.53,1-.84a6,6,0,0,0,2.42-5.06,2.24,2.24,0,0,0-2.11-2.38h-.21Z" fill="#fff"/><path d="M171.33,146.76c-.73,0-.49.23-2.07.62a31.94,31.94,0,0,0-5.22,1c-5.1,2.13-6.13,9.47-10.75,12-3.47,2-6.9,2.11-10.09,3.09a18.61,18.61,0,0,0-6.2,3.59c-1.45,1.26-1.49,2.35-3,3.93s-6.45,0-8.64,2.59c.7.72,1,.91,2.4.73-.29.54-2,1-1.66,1.81s4.45,1.38,8.17-.83c1.74-1,3.12-2.55,5.82-2.91,3.49-.47,7.52.3,11.57.88a18.2,18.2,0,0,1-2.77,4.41c-.3.31.6.36,1.63.16a16.09,16.09,0,0,0,4.57-1.63c1.72-1,2-3.54,4.08-4.14a4.7,4.7,0,0,0,6.32.79c-1.73-.5-2.21-4.14-1.63-5.8s1.11-4,1.66-6,.81-4.92,1.54-6a14.36,14.36,0,0,1,3.35-3.25,4.7,4.7,0,0,0,1.93-4,1,1,0,0,0-1-1.07Z" fill="#002b64"/><path d="M126.85,176a10.44,10.44,0,0,0,6.39-.93c1.81-.78,3.56-2.4,5.7-3.09,3.15-1,6.59,0,10,.21a14.09,14.09,0,0,0,2.43,0c1.25-.77,1.23-3.65,2.44-3.91a13.8,13.8,0,0,1-3.42,8.8,9.78,9.78,0,0,0,7.3-5.53,21,21,0,0,0,1.18-2.76c.52.4.22,1.62.48,2.28,2.51-1.38,3.95-4.6,4.9-7.83,1.1-3.74,1.56-7.52,2.26-8.63a9.49,9.49,0,0,1,2.77-2.43,4.4,4.4,0,0,0,2.29-3.1c-1.19-.11-1.45-.39-1.63-1a3.61,3.61,0,0,1-1.71.36h-1.84c-5.92.6-6.67,7.12-10.47,10.82a8,8,0,0,1-.88.76,18.72,18.72,0,0,1-4.46,2.26c-2.43.93-4.73,1-7,1.8a21,21,0,0,0-4.73,2.37A9.23,9.23,0,0,0,136,169.3a14.12,14.12,0,0,1-1.81,2.33c-1.26,1.23-6,.36-7.61,1.51a1.36,1.36,0,0,0-.42.47c.89.41,1.5.15,2.54.27.13,1-2.14,1.58-1.81,2Zm35.81-7.12a8.71,8.71,0,0,0,1.38,3.94,4,4,0,0,1-3.59-1c.27-1.16,1.61-2.21,2.28-2.94Z" fill="#c0765a"/><path d="M164.36,150.9a1.38,1.38,0,0,0,2.28-1.3C165.34,149.52,164.58,150,164.36,150.9Zm5.84-1.66a4.4,4.4,0,0,0-.63,2.26c0,.21-.16.35-.16,0a4.48,4.48,0,0,1,.65-2.31c.16-.28.25-.17.17,0Z" fill="#002b64"/><path d="M170,149.07a5.45,5.45,0,0,0-1,2.45c0,.21-.18.33-.16,0a5.47,5.47,0,0,1,1-2.51C170,148.76,170.08,148.88,170,149.07Zm-.21-.23a6.44,6.44,0,0,0-1.48,2.57c0,.21-.2.32-.16,0a6.59,6.59,0,0,1,1.45-2.64c.25-.23.31-.11.2.07Zm-.19-.26a8.67,8.67,0,0,0-1.88,2.76c0,.19-.25.28-.17,0a8.65,8.65,0,0,1,1.91-2.76C169.68,148.29,169.72,148.41,169.57,148.58Z" fill="#002b64"/><path d="M7.73,129.9H42.2v7.15H7.73Z" fill="#007de9"/><path d="M37.71,129.9H42.2v7.15H37.71Z" fill="#006ae8"/><path d="M7.73,149.41H42.2v6H7.73Z" fill="#007de9"/><path d="M37.71,149.41H42.2v6H37.71Z" fill="#006ae8"/><path d="M48.59,169H1.78a1.6,1.6,0,0,1-1.6-1.6v-11a1.6,1.6,0,0,1,1.6-1.6H48.59a1.6,1.6,0,0,1,1.59,1.6v11A1.6,1.6,0,0,1,48.59,169Z" fill="#03a5fe"/><circle cx="6" cy="161.96" r="1.05" fill="#64d3ff"/><circle cx="10.54" cy="161.96" r="1.05" fill="#64d3ff"/><circle cx="15.07" cy="161.96" r="1.05" fill="#64d3ff"/><circle cx="19.6" cy="161.96" r="1.05" fill="#64d3ff"/><path d="M45.2,164.53H25.13a.93.93,0,0,1-.93-.93v-3.13a.93.93,0,0,1,.93-.93H45.2a.94.94,0,0,1,.94.93v3.13A.93.93,0,0,1,45.2,164.53Z" fill="#ddebfd"/><path d="M48.59,150.08H1.78a1.6,1.6,0,0,1-1.6-1.59v-11a1.6,1.6,0,0,1,1.6-1.59H48.59a1.59,1.59,0,0,1,1.59,1.59v11A1.59,1.59,0,0,1,48.59,150.08Z" fill="#03a5fe"/><circle cx="6" cy="143" r="1.05" fill="#64d3ff"/><circle cx="10.54" cy="143" r="1.05" fill="#64d3ff"/><circle cx="15.07" cy="143" r="1.05" fill="#64d3ff"/><circle cx="19.6" cy="143" r="1.05" fill="#64d3ff"/><path d="M45.2,145.58H25.13a.93.93,0,0,1-.93-.93v-3.13a.93.93,0,0,1,.93-.93H45.2a.93.93,0,0,1,.94.93v3.13A.94.94,0,0,1,45.2,145.58Z" fill="#ddebfd"/><path d="M48.59,131H1.78a1.6,1.6,0,0,1-1.6-1.59v-11a1.6,1.6,0,0,1,1.6-1.59H48.59a1.59,1.59,0,0,1,1.59,1.59v11A1.59,1.59,0,0,1,48.59,131Z" fill="#03a5fe"/><path d="M7.06,123.94A1.06,1.06,0,1,1,6,122.88,1.05,1.05,0,0,1,7.06,123.94Z" fill="#64d3ff"/><path d="M11.59,123.94a1.06,1.06,0,0,1-2.11,0,1.06,1.06,0,1,1,2.11,0Z" fill="#64d3ff"/><path d="M16.12,123.94a1.05,1.05,0,1,1-1.05-1.06A1,1,0,0,1,16.12,123.94Z" fill="#64d3ff"/><path d="M20.66,123.94a1.06,1.06,0,1,1-1.06-1.06A1.06,1.06,0,0,1,20.66,123.94Z" fill="#64d3ff"/><path d="M45.2,126.51H25.13a.93.93,0,0,1-.93-.93v-3.13a.93.93,0,0,1,.93-.93H45.2a.93.93,0,0,1,.94.93v3.13A.94.94,0,0,1,45.2,126.51Z" fill="#ddebfd"/><path d="M25.41,178.61c-.26,0-.95,0-1.19-.54a.8.8,0,0,1,.18-.87c.22-.33.51-.73.82-1.12a13.28,13.28,0,0,0,1.5-2.29l-.83-.13a51.82,51.82,0,0,0-7.47-.77,17,17,0,0,0-2.25.14A8.94,8.94,0,0,0,11.93,175a12.57,12.57,0,0,1-1.38.89,11.49,11.49,0,0,1-5.82,1.69c-.65,0-2.76-.08-3.25-1.16a1.27,1.27,0,0,1,.45-1.5,3.38,3.38,0,0,1-1.07-.8.69.69,0,0,1,0-.91c1.38-1.65,3.61-1.78,5.52-1.91a5.31,5.31,0,0,0,3.12-.73,9.7,9.7,0,0,0,1.39-1.86,7.7,7.7,0,0,1,1.67-2.1A19.1,19.1,0,0,1,19,162.85c1.08-.33,2.15-.56,3.31-.83A22.3,22.3,0,0,0,29,159.8c2-1.14,3.34-3.3,4.72-5.52,1.59-2.61,3.22-5.32,6.1-6.52a12.36,12.36,0,0,1,3.44-.73,16.71,16.71,0,0,0,1.85-.34,6.71,6.71,0,0,0,1.24-.42,2.16,2.16,0,0,1,1-.23h0a1.61,1.61,0,0,1,1.73,1.49v.23a5.4,5.4,0,0,1-2.21,4.52c-.32.29-.65.54-1,.8a8.23,8.23,0,0,0-2.23,2.25,11.72,11.72,0,0,0-.89,3.24c-.16.87-.34,1.78-.56,2.63s-.38,1.38-.56,2.1c-.37,1.38-.74,2.91-1.11,4a6.21,6.21,0,0,0,.35,4.14,1.58,1.58,0,0,0,.82.83.68.68,0,0,1,.45.85.81.81,0,0,1-.24.34,5.63,5.63,0,0,1-3.21.94h0a5,5,0,0,1-3.75-1.52,4.51,4.51,0,0,0-1.58,1.75,5.87,5.87,0,0,1-1.91,2.14,16.86,16.86,0,0,1-4.74,1.77A7.68,7.68,0,0,1,25.41,178.61Z" fill="#fff"/><path d="M47.39,146.76c.63,0,1,.38,1,1.06a4.69,4.69,0,0,1-2,4A14.36,14.36,0,0,0,43.05,155c-.71,1.12-.93,3.86-1.54,6.05s-1.11,4.48-1.66,6-.11,5.31,1.63,5.8a4.78,4.78,0,0,1-2.76.87,4.15,4.15,0,0,1-3.52-1.65c-2.1.56-2.36,3.11-4.07,4.15a16.41,16.41,0,0,1-4.62,1.53,5.79,5.79,0,0,1-1.1.12c-.44,0-.7-.09-.53-.27a18.2,18.2,0,0,0,2.77-4.41,68.36,68.36,0,0,0-9.24-1,18.1,18.1,0,0,0-2.33.14c-2.76.36-4.15,1.86-5.82,2.91a10.94,10.94,0,0,1-5.52,1.58c-1.38,0-2.46-.35-2.62-.75-.33-.8,1.38-1.26,1.66-1.81a5.61,5.61,0,0,1-.82,0,1.88,1.88,0,0,1-1.57-.72c2.18-2.56,7-.92,8.64-2.59s1.56-2.67,3-3.92a18.45,18.45,0,0,1,6.2-3.59c3.15-1,6.64-1.15,10.09-3.09,4.58-2.6,5.61-9.94,10.71-12.07a32.25,32.25,0,0,1,5.24-1c1.57-.39,1.38-.59,2.07-.62h0m0-1.38h-.1a2.66,2.66,0,0,0-1.21.29,5.84,5.84,0,0,1-1.14.37,15.66,15.66,0,0,1-1.8.28,12.79,12.79,0,0,0-3.62.77c-3.09,1.3-4.79,4.14-6.42,6.79-1.3,2.22-2.56,4.3-4.43,5.33a22.24,22.24,0,0,1-6.53,2.18c-1.11.24-2.27.5-3.37.84a20.09,20.09,0,0,0-6.62,3.88,8.24,8.24,0,0,0-1.8,2.27A9.19,9.19,0,0,1,9,170.1a5.48,5.48,0,0,1-2.68.53c-2,.12-4.43.27-6,2.14a1.37,1.37,0,0,0,0,1.8,5.38,5.38,0,0,0,.55.52,1.71,1.71,0,0,0-.08,1.6c.56,1.38,2.66,1.57,3.86,1.57a12.21,12.21,0,0,0,6.3-1.82c.48-.29.94-.61,1.38-.91a8.27,8.27,0,0,1,3.93-1.82,15.67,15.67,0,0,1,2.16-.14,50.19,50.19,0,0,1,7.23.74c-.29.46-.63.9-1,1.38s-.59.78-.87,1.18a1.46,1.46,0,0,0-.21,1.49,1.78,1.78,0,0,0,1.81.94,7.87,7.87,0,0,0,1.38-.14h.07a17.77,17.77,0,0,0,4.89-1.81A6.47,6.47,0,0,0,33.91,175a6.33,6.33,0,0,1,.94-1.24,5.89,5.89,0,0,0,3.83,1.38A6.16,6.16,0,0,0,42.27,174a1.38,1.38,0,0,0-.43-2.41,1.31,1.31,0,0,1-.4-.49,5.55,5.55,0,0,1-.33-3.66c.38-1.09.77-2.59,1.14-4,.18-.7.36-1.38.54-2.09s.42-1.78.58-2.66a12,12,0,0,1,.82-2.94,7.69,7.69,0,0,1,2.07-2.07c.34-.26.69-.53,1-.84a6,6,0,0,0,2.42-5.06,2.24,2.24,0,0,0-2.11-2.38h-.21Z" fill="#fff"/><path d="M47.33,146.76c-.73,0-.49.23-2.07.62a31.94,31.94,0,0,0-5.22,1c-5.1,2.13-6.13,9.47-10.75,12-3.47,2-6.9,2.11-10.09,3.09a18.61,18.61,0,0,0-6.2,3.59c-1.45,1.26-1.49,2.35-3,3.93s-6.45,0-8.64,2.59c.7.72,1,.91,2.4.73-.29.54-2,1-1.66,1.81s4.45,1.38,8.17-.83c1.74-1,3.12-2.55,5.82-2.91,3.49-.47,7.52.3,11.57.88a18.2,18.2,0,0,1-2.77,4.41c-.3.31.6.36,1.63.16a16.09,16.09,0,0,0,4.57-1.63c1.72-1,2-3.54,4.08-4.14a4.7,4.7,0,0,0,6.32.79c-1.73-.5-2.21-4.14-1.63-5.8s1.11-4,1.66-6,.81-4.92,1.54-6a14.36,14.36,0,0,1,3.35-3.25,4.7,4.7,0,0,0,1.93-4,1,1,0,0,0-1-1.07Z" fill="#002b64"/><path d="M2.85,176A10.44,10.44,0,0,0,9.24,175c1.81-.78,3.56-2.4,5.7-3.09,3.15-1,6.59,0,10,.21a14.09,14.09,0,0,0,2.43,0c1.25-.77,1.23-3.65,2.44-3.91a13.8,13.8,0,0,1-3.42,8.8,9.78,9.78,0,0,0,7.3-5.53,21,21,0,0,0,1.18-2.76c.52.4.22,1.62.48,2.28,2.51-1.38,3.95-4.6,4.9-7.83,1.1-3.74,1.56-7.52,2.26-8.63a9.49,9.49,0,0,1,2.77-2.43,4.4,4.4,0,0,0,2.29-3.1c-1.19-.11-1.45-.39-1.63-1a3.61,3.61,0,0,1-1.71.36H42.35c-5.92.6-6.67,7.12-10.47,10.82A8,8,0,0,1,31,160a18.72,18.72,0,0,1-4.46,2.26c-2.43.93-4.73,1-7,1.8a21,21,0,0,0-4.73,2.37A9.23,9.23,0,0,0,12,169.3a14.12,14.12,0,0,1-1.81,2.33c-1.26,1.23-5.95.36-7.61,1.51a1.36,1.36,0,0,0-.42.47c.89.41,1.5.15,2.54.27.13,1-2.14,1.58-1.81,2Zm35.81-7.12A8.71,8.71,0,0,0,40,172.79a4,4,0,0,1-3.59-1c.27-1.16,1.61-2.21,2.28-2.94Z" fill="#c0765a"/><path d="M40.36,150.9a1.38,1.38,0,0,0,2.28-1.3C41.34,149.52,40.58,150,40.36,150.9Zm5.84-1.66a4.4,4.4,0,0,0-.63,2.26c0,.21-.16.35-.16,0a4.48,4.48,0,0,1,.65-2.31c.16-.28.25-.17.17,0Z" fill="#002b64"/><path d="M46,149.07a5.45,5.45,0,0,0-1,2.45c0,.21-.18.33-.16,0a5.47,5.47,0,0,1,1-2.51C46,148.76,46.08,148.88,46,149.07Zm-.21-.23a6.44,6.44,0,0,0-1.48,2.57c0,.21-.2.32-.16,0a6.59,6.59,0,0,1,1.45-2.64c.25-.23.31-.11.2.07Zm-.19-.26a8.67,8.67,0,0,0-1.88,2.76c0,.19-.25.28-.17,0a8.65,8.65,0,0,1,1.91-2.76C45.68,148.29,45.72,148.41,45.57,148.58Z" fill="#002b64"/><path d="M66.84,91.1a1.52,1.52,0,0,1-1.12-.46l-2.83-2.82a1.58,1.58,0,0,1,0-2.24h0l2.83-2.82a1.59,1.59,0,0,1,2.24,0h0l2.82,2.82a1.61,1.61,0,0,1,0,2.25L68,90.64A1.56,1.56,0,0,1,66.84,91.1Z" fill="#fff"/><path d="M66.84,83.21a.67.67,0,0,1,.48.2l2.8,2.84a.67.67,0,0,1,0,.94h0L67.3,89.94a.66.66,0,0,1-.94,0h0l-2.82-2.76a.66.66,0,0,1,0-.94h0l2.82-2.83a.67.67,0,0,1,.48-.2m0-1.84A2.47,2.47,0,0,0,65,82.1l-2.75,2.83a2.5,2.5,0,0,0,0,3.54v0l2.8,2.82a2.52,2.52,0,0,0,3.51,0l2.87-2.82a2.52,2.52,0,0,0,0-3.56L68.56,82.1a2.51,2.51,0,0,0-1.85-.73Z" fill="#fff"/><path d="M107,91.1a1.52,1.52,0,0,1-1.12-.46l-2.83-2.82a1.58,1.58,0,0,1,0-2.24h0l2.83-2.82a1.59,1.59,0,0,1,2.24,0h0L111,85.57a1.61,1.61,0,0,1,0,2.25l-2.82,2.82A1.56,1.56,0,0,1,107,91.1Z" fill="#fff"/><path d="M107,83.21a.67.67,0,0,1,.48.2l2.8,2.84a.66.66,0,0,1,0,.94h0l-2.8,2.75a.66.66,0,0,1-.94,0h0l-2.82-2.76a.66.66,0,0,1,0-.94h0l2.8-2.83a.67.67,0,0,1,.48-.2m0-1.84a2.47,2.47,0,0,0-1.84.73l-2.75,2.83a2.49,2.49,0,0,0,0,3.54v0l2.82,2.82a2.51,2.51,0,0,0,3.55,0h0l2.82-2.82a2.51,2.51,0,0,0,0-3.55h0L108.8,82.1a2.49,2.49,0,0,0-1.84-.73Z" fill="#fff"/><path d="M87,99.16a4.23,4.23,0,0,1-3-1.29l-15.9-16.6a1.59,1.59,0,0,0-.84-.44H67a1.85,1.85,0,0,0-1.18.5l-4.21,4.2a1.71,1.71,0,0,0-.4.72,1.36,1.36,0,0,0,0,.89,1.65,1.65,0,0,0,.4.64L65.77,92a1.5,1.5,0,0,0,.46.33,1.35,1.35,0,0,0,.72.22,1.17,1.17,0,0,0,.7-.2,2,2,0,0,0,.44-.33l4.15-4.11a1.41,1.41,0,0,1,.82-.35,1.08,1.08,0,0,1,.81.31l1.53,1.53a1.36,1.36,0,0,1,.33.79,1.13,1.13,0,0,1-.31.78l-4.28,4.35a6,6,0,0,1-7.77.59,6.39,6.39,0,0,1-.68-.59l-4.37-4.35a6.06,6.06,0,0,1-1.72-3.69v-.57a6,6,0,0,1,1.76-4.23l4.31-4.33a5.94,5.94,0,0,1,4.24-1.75h.39a6,6,0,0,1,3.82,1.73L87,94.48l7-7a1.3,1.3,0,0,1,.79-.33,1.1,1.1,0,0,1,.79.33l1.61,1.6a1.35,1.35,0,0,1,.31.83,1.14,1.14,0,0,1-.33.8L90,97.93a4.13,4.13,0,0,1-1,.77,4.26,4.26,0,0,1-1.16.43A2.75,2.75,0,0,1,87,99.16Z" fill="#fff"/><path d="M66.91,77.29h.34a5,5,0,0,1,3.15,1.48L86.24,95.13a1,1,0,0,0,1.37,0l7-7a.21.21,0,0,1,.28,0l1.61,1.6a.21.21,0,0,1,0,.28l-7.18,7.34a3.45,3.45,0,0,1-1.71.94,3.21,3.21,0,0,1-.59.11h0a3.31,3.31,0,0,1-2.42-1.05L68.76,80.72a2.54,2.54,0,0,0-1.37-.7h-.68a2.49,2.49,0,0,0-1.58.74l-4.19,4.13a2.52,2.52,0,0,0-.68,1.25,2.15,2.15,0,0,0,0,1.46,2.45,2.45,0,0,0,.59.94l4.28,4.17a2.6,2.6,0,0,0,.71.52,2.27,2.27,0,0,0,1.11.29,2.21,2.21,0,0,0,1.22-.37,2.83,2.83,0,0,0,.59-.44L73,88.52a.22.22,0,0,1,.16,0,.25.25,0,0,1,.17,0l1.55,1.55a.21.21,0,0,1,0,.28l-4.43,4.3a5.06,5.06,0,0,1-6.57.49,6.66,6.66,0,0,1-.59-.49L59,90.27a5,5,0,0,1-1.48-3.08v-.48A5,5,0,0,1,59,83.12l4.37-4.35a5,5,0,0,1,3.59-1.48m0-1.84h0a6.82,6.82,0,0,0-4.9,2l-4.36,4.37a6.89,6.89,0,0,0-2,4.87v.66a6.89,6.89,0,0,0,2,4.22L62,95.94a7.43,7.43,0,0,0,.79.68,6.89,6.89,0,0,0,9-.68l4.34-4.32a2.66,2.66,0,0,0,.26-.31l6.93,7.26A5.17,5.17,0,0,0,87,100.16a3.36,3.36,0,0,0,.89-.13,5.54,5.54,0,0,0,1.51-.53,5.46,5.46,0,0,0,1.25-.94l7.2-7.2a2.06,2.06,0,0,0,0-2.89h0l-1.63-1.61a2,2,0,0,0-2.89,0h0L87,93.19,71.8,77.47a6.86,6.86,0,0,0-4.42-2Zm0,16.23h-.18l0-.13-.2-.15-4.26-4.17a.73.73,0,0,1-.17-.28.55.55,0,0,1,0-.31h0a.81.81,0,0,1,.17-.39L66.43,82a.77.77,0,0,1,.45-.2h.2a.67.67,0,0,1,.39.2l4.65,4.85a2.21,2.21,0,0,0-.47.33L67.47,91.4l-.19.13h-.14a.31.31,0,0,1-.19,0Z" fill="#fff"/><path d="M107.09,97a5.93,5.93,0,0,1-4.23-1.84L87,78.88l-7,7a1.31,1.31,0,0,1-.79.34,1.1,1.1,0,0,1-.8-.34l-1.6-1.6a1.12,1.12,0,0,1,0-1.59L84,75.5a4.28,4.28,0,0,1,2.58-1.22h.74a4.36,4.36,0,0,1,1.85.58,3.82,3.82,0,0,1,.84.66l15.9,16.6a1.66,1.66,0,0,0,.85.44h.28a1.8,1.8,0,0,0,1.18-.5l4.19-4.18a1.67,1.67,0,0,0,.4-.81,1.28,1.28,0,0,0,0-.82,1.65,1.65,0,0,0-.4-.64l-4.19-4.26a1.5,1.5,0,0,0-.46-.33,1.42,1.42,0,0,0-.74-.3,1.32,1.32,0,0,0-.7.2,1.89,1.89,0,0,0-.46.34l-4.11,4.27a1.2,1.2,0,0,1-.85.35,1.25,1.25,0,0,1-.78-.31L98.6,84a1.36,1.36,0,0,1-.33-.79,1.1,1.1,0,0,1,.33-.79l4.26-4.32a6,6,0,0,1,4-1.75h.57a6,6,0,0,1,4,1.75l4.35,4.35a6,6,0,0,1,1.84,4.23,5.42,5.42,0,0,1,0,.57A5.94,5.94,0,0,1,115.81,91l-4.48,4.33A5.92,5.92,0,0,1,107.09,97Z" fill="#fff"/><path d="M87,75.19h.28a3.31,3.31,0,0,1,2,1l15.88,16.6a2.58,2.58,0,0,0,1.36.7h.74a2.6,2.6,0,0,0,1.58-.74l4.19-4.19a2.52,2.52,0,0,0,.68-1.25,2.15,2.15,0,0,0,0-1.46,2.45,2.45,0,0,0-.59-.94l-4.28-4.15a2.6,2.6,0,0,0-.71-.52,2.27,2.27,0,0,0-1.11-.29,2.19,2.19,0,0,0-1.22.37,2.83,2.83,0,0,0-.59.44l-4.19,4.15a.34.34,0,0,1-.2,0h-.11l-1.55-1.55a.21.21,0,0,1,0-.28l4.41-4.27a5,5,0,0,1,3.34-1.48h.35a5,5,0,0,1,3.34,1.48l4.4,4.35a5,5,0,0,1,1.48,3.58v.48a5,5,0,0,1-1.46,3.09l-4.35,4.36a5.06,5.06,0,0,1-7.15,0h0L87.66,78.27a1,1,0,0,0-1.36,0l-7,7a.2.2,0,0,1-.15,0,.19.19,0,0,1-.15,0l-1.6-1.61a.18.18,0,0,1,0-.27l7.19-7.19a3.26,3.26,0,0,1,2-1H87m0-1.85h-.46a5.27,5.27,0,0,0-1.94.59,5.15,5.15,0,0,0-1.25.93l-7.18,7.19a2.06,2.06,0,0,0,0,2.88l1.61,1.6a2,2,0,0,0,2.89,0h0L87,80.22l15.2,15.72A6.9,6.9,0,0,0,112,96l0,0,4.34-4.36a6.89,6.89,0,0,0,2-4.22V86.7a6.89,6.89,0,0,0-2-4.87L112,77.46a6.81,6.81,0,0,0-4.55-2h-.67a6.81,6.81,0,0,0-4.55,2l-4.32,4.33a2.1,2.1,0,0,0-.26.33l-6.93-7.23a5.17,5.17,0,0,0-3.21-1.55Zm14.76,13.19a2,2,0,0,0,.59-.28l4.18-4.18.19-.13h.13a.28.28,0,0,1,.18,0,.28.28,0,0,1,.18,0h.15l.21.15,4.18,4.16a.81.81,0,0,1,.17.28.55.55,0,0,1,0,.31,1,1,0,0,1-.22.45l-4.13,4.11a.71.71,0,0,1-.45.2h-.2a.67.67,0,0,1-.39-.2l-4.66-4.87Z" fill="#fff"/><path d="M87,92.6A2,2,0,0,1,85.56,92l-.29-.22h-.11a1.64,1.64,0,0,1-.52.24h-.15a1.15,1.15,0,0,1-.94-.61,1.24,1.24,0,0,1,.2-1.13v-.11L81.69,88.1a2,2,0,0,1,0-2.87h0l3.87-3.87a2,2,0,0,1,2.87,0h0l.31.31.09-.09a1.36,1.36,0,0,1,.67-.24,1,1,0,0,1,.9.55A1.2,1.2,0,0,1,90.3,83l-.15.2,2.11,2.11a2,2,0,0,1,0,2.87h0L88.38,92A2,2,0,0,1,87,92.6Z" fill="#fff"/><path d="M87,81.72a1.07,1.07,0,0,1,.77.33l.89.88.81-.6h.11v.14l-.62.8,2.67,2.67a1.12,1.12,0,0,1,0,1.57h0l-3.87,3.87a1.11,1.11,0,0,1-1.57,0h0l-.89-.88-.79.6h-.09V91l.62-.8-2.71-2.67a1.12,1.12,0,0,1,0-1.57h0l3.88-3.87a1.11,1.11,0,0,1,.79-.33m0-1.85a2.93,2.93,0,0,0-2.08.85L81,84.59a3,3,0,0,0,0,4.17l1.57,1.59a2,2,0,0,0,0,1.51h0a2.08,2.08,0,0,0,1,.94,1.89,1.89,0,0,0,.81.19h.28l.4-.11a3,3,0,0,0,4-.21l3.87-3.87a3,3,0,0,0,0-4.17L91.3,83a2,2,0,0,0-.09-1.58,1.84,1.84,0,0,0-1.72-1,1.81,1.81,0,0,0-.65.11A3,3,0,0,0,87,79.87Z" fill="#fff"/><path d="M91.67,85.92a1.12,1.12,0,0,1,0,1.57h0l-3.88,3.87a1.1,1.1,0,0,1-1.56,0h0l-3.88-3.87a1.12,1.12,0,0,1,0-1.57h0l3.88-3.87a1.1,1.1,0,0,1,1.56,0h0Z" fill="#5e8cda"/><path d="M67.3,89.94a.66.66,0,0,1-.94,0h0l-2.82-2.76a.66.66,0,0,1,0-.94h0l2.82-2.83a.66.66,0,0,1,.94,0h0l2.82,2.84a.67.67,0,0,1,0,.94h0Z" fill="#f5cd21"/><path d="M107.51,89.94a.66.66,0,0,1-.94,0h0l-2.82-2.76a.66.66,0,0,1,0-.94h0l2.8-2.83a.66.66,0,0,1,.94,0h0l2.82,2.84a.66.66,0,0,1,0,.94h0Z" fill="#f5cd21"/><path d="M94.93,88.1a.21.21,0,0,0-.28,0l-7,7a1,1,0,0,1-1.36,0L70.4,78.77a5.08,5.08,0,0,0-7.16,0L59,83.12a5,5,0,0,0-1.48,3.58v.48A5.06,5.06,0,0,0,59,90.27l4.35,4.36a5.76,5.76,0,0,0,.59.5,5.06,5.06,0,0,0,6.49-.48l4.41-4.34a.21.21,0,0,0,0-.28l-1.55-1.54a.17.17,0,0,0-.17,0,.22.22,0,0,0-.16,0l-4.17,4.22a2.83,2.83,0,0,1-.59.44,2.18,2.18,0,0,1-2.33,0,2.57,2.57,0,0,1-.71-.51l-4.19-4.12a2.5,2.5,0,0,1-.59-.94,2.15,2.15,0,0,1,0-1.46A2.57,2.57,0,0,1,61,84.87l4.1-4.15A2.57,2.57,0,0,1,66.71,80a2.73,2.73,0,0,1,.7,0,2.61,2.61,0,0,1,1.35.76l15.88,16.6a3.29,3.29,0,0,0,2.34,1h0a2.36,2.36,0,0,0,.59-.11,3.4,3.4,0,0,0,1.72-.94l7.19-7.19a.21.21,0,0,0,0-.28Z" fill="#093071"/><path d="M115,83.12l-4.37-4.35a5,5,0,0,0-3.37-1.48h-.48a5,5,0,0,0-3.34,1.48l-4.28,4.31a.21.21,0,0,0,0,.28l1.55,1.55a.26.26,0,0,0,.31,0l4.19-4.19a2.83,2.83,0,0,1,.59-.44,2.18,2.18,0,0,1,2.33,0,2.57,2.57,0,0,1,.71.51L113.06,85a2.58,2.58,0,0,1,.59.94,2.15,2.15,0,0,1,0,1.46,2.52,2.52,0,0,1-.68,1.25l-4.19,4.19a2.62,2.62,0,0,1-1.58.74,2.06,2.06,0,0,1-.7,0,2.54,2.54,0,0,1-1.37-.7L89.25,76.26a3.27,3.27,0,0,0-1.94-1.07h-.62a3.26,3.26,0,0,0-2,1l-7.2,7.19a.21.21,0,0,0,0,.28l1.61,1.6a.21.21,0,0,0,.28,0l7-7a1,1,0,0,1,1.36,0L103.6,94.65a5.06,5.06,0,0,0,7.15,0h0L115,90.27a5,5,0,0,0,1.48-3.08v-.48A5,5,0,0,0,115,83.12Z" fill="#093071"/><path d="M84.42,91.14h0V91l2.43-3.09a.17.17,0,0,0,0-.19l-1.38-2a.29.29,0,0,1,0-.37l3.93-3h.11v.14l-2.34,3.1a.2.2,0,0,0,0,.21l1.34,1.84V88l-4,3.09h-.09Z" fill="#f5cd21"/><path d="M88.07,97.6a2.85,2.85,0,0,1-.85.29A2.85,2.85,0,0,0,88.07,97.6Z" fill="#093071"/></svg>