<?xml version="1.0" encoding="utf-8"?>
<!-- Generator: Adobe Illustrator 24.1.0, SVG Export Plug-In . SVG Version: 6.00 Build 0)  -->
<svg version="1.1" id="ed6ee266-997c-4213-a20b-297bfe2e177e"
	 xmlns="http://www.w3.org/2000/svg" xmlns:xlink="http://www.w3.org/1999/xlink" x="0px" y="0px" viewBox="0 0 489 617.7"
	 style="enable-background:new 0 0 489 617.7;" xml:space="preserve">
<style type="text/css">
	.st0{fill:#FFFFFF;}
	.st1{fill:#0399FF;}
	.st2{fill:#58596C;}
	.st3{fill:#FF5856;}
	.st4{fill:#DB4040;}
	.st5{fill:#CC3636;}
	.st6{fill:#FFDC67;}
	.st7{fill:#FFB456;}
	.st8{fill:#FC974D;}
	.st9{fill:#F47F31;}
	.st10{fill:#003A70;}
	.st11{fill:#FFA400;}
	.st12{fill:none;stroke:#0399FF;stroke-width:2;stroke-miterlimit:10;}
	.st13{fill:none;stroke:#0399FF;stroke-miterlimit:10;}
	.st14{fill:#912626;}
	.st15{fill:#C6302B;}
	.st16{fill:#621B1C;}
	.st17{fill:#9A2928;}
	.st18{fill:#5E8CDA;}
	.st19{fill:#093071;}
	.st20{fill:#F5CD21;}
	.st21{fill:#FDDD75;}
	.st22{fill:#FFA10B;}
	.st23{fill:#FFB70A;}
	.st24{fill:#95AACE;}
	.st25{fill:#5E6981;}
	.st26{opacity:0.5;fill:#0399FF;enable-background:new    ;}
</style>
<path class="st0" d="M139,40h210c5,0,9,4,9,9v30c0,5-4,9-9,9H139c-5,0-9-4-9-9V49C130,44,134,40,139,40z"/>
<path class="st1" d="M349,41c4.4,0,8,3.6,8,8v30c0,4.4-3.6,8-8,8H139c-4.4,0-8-3.6-8-8V49c0-4.4,3.6-8,8-8H349 M349,39H139
	c-5.5,0-10,4.5-10,10v30c0,5.5,4.5,10,10,10h210c5.5,0,10-4.5,10-10V49C359,43.5,354.5,39,349,39z"/>
<path class="st0" d="M139,93h210c5,0,9,4,9,9v30c0,5-4,9-9,9H139c-5,0-9-4-9-9v-30C130,97,134,93,139,93z"/>
<path class="st1" d="M349,94c4.4,0,8,3.6,8,8v30c0,4.4-3.6,8-8,8H139c-4.4,0-8-3.6-8-8v-30c0-4.4,3.6-8,8-8H349 M349,92H139
	c-5.5,0-10,4.5-10,10v30c0,5.5,4.5,10,10,10h210c5.5,0,10-4.5,10-10v-30C359,96.5,354.5,92,349,92z"/>
<path class="st0" d="M139,146h210c5,0,9,4,9,9v30c0,5-4,9-9,9H139c-5,0-9-4-9-9v-30C130,150,134,146,139,146z"/>
<path class="st1" d="M349,147c4.4,0,8,3.6,8,8v30c0,4.4-3.6,8-8,8H139c-4.4,0-8-3.6-8-8v-30c0-4.4,3.6-8,8-8H349 M349,145H139
	c-5.5,0-10,4.5-10,10v30c0,5.5,4.5,10,10,10h210c5.5,0,10-4.5,10-10v-30C359,149.5,354.5,145,349,145z"/>
<path d="M192.1,61.3c0.1,1-0.4,2.1-1.2,2.7c-1,0.7-2.2,1-3.3,0.9h-1.2v4.3h-1.9V57.8h3.3c1.1-0.1,2.3,0.2,3.2,0.9
	C191.7,59.3,192.1,60.3,192.1,61.3z M186.4,63.4h1c0.7,0.1,1.5-0.1,2.1-0.5c0.5-0.4,0.7-1,0.7-1.6c0-0.6-0.2-1.1-0.6-1.5
	c-0.6-0.4-1.2-0.5-1.9-0.5h-1.3L186.4,63.4z"/>
<path d="M198.5,60.4c0.3,0,0.6,0,0.9,0.1l-0.2,1.7c-0.3-0.1-0.5-0.1-0.8-0.1c-0.7,0-1.3,0.2-1.8,0.7c-0.5,0.5-0.7,1.2-0.7,1.9v4.5
	h-1.8v-8.6h1.4l0.2,1.5h0.1c0.3-0.5,0.7-0.9,1.1-1.2C197.5,60.6,198,60.4,198.5,60.4z"/>
<path d="M204.8,69.4c-1.2,0.1-2.3-0.4-3.1-1.2c-0.8-0.9-1.2-2-1.1-3.2c-0.1-1.2,0.3-2.4,1.1-3.3c0.7-0.8,1.8-1.3,2.9-1.2
	c1-0.1,2,0.3,2.7,1c0.7,0.8,1.1,1.8,1,2.9v1h-5.8c0,0.7,0.2,1.4,0.7,1.9c0.5,0.5,1.1,0.7,1.8,0.7c0.5,0,1,0,1.4-0.2
	c0.5-0.1,1-0.3,1.4-0.5v1.5c-0.4,0.2-0.9,0.4-1.4,0.5C205.9,69.4,205.4,69.4,204.8,69.4z M204.5,61.8c-0.5,0-1,0.2-1.4,0.5
	c-0.4,0.5-0.6,1-0.6,1.6h3.9c0-0.6-0.1-1.2-0.5-1.6C205.5,62,205,61.8,204.5,61.8z"/>
<path d="M217.6,69.2h-1.8v-5.3c0-0.5-0.1-1-0.4-1.5c-0.3-0.3-0.7-0.5-1.2-0.5c-0.6,0-1.2,0.2-1.6,0.7c-0.4,0.7-0.6,1.5-0.5,2.3v4.3
	h-1.8v-8.6h1.4l0.3,1.1h0.1c0.2-0.4,0.6-0.8,1.1-1c0.5-0.2,1-0.3,1.5-0.3c1.1-0.1,2.1,0.4,2.6,1.4h0.1c0.3-0.4,0.6-0.8,1.1-1
	c0.5-0.2,1-0.4,1.6-0.4c0.8-0.1,1.6,0.2,2.2,0.8c0.5,0.7,0.8,1.6,0.7,2.4v5.6h-1.8v-5.3c0-0.5-0.1-1-0.4-1.5
	c-0.3-0.3-0.7-0.5-1.2-0.5c-0.6-0.1-1.2,0.2-1.6,0.7c-0.4,0.6-0.6,1.3-0.5,2.1L217.6,69.2z"/>
<path d="M225.5,58.3c0-0.3,0.1-0.5,0.3-0.8c0.2-0.2,0.5-0.3,0.8-0.3c0.3,0,0.5,0.1,0.8,0.3c0.4,0.4,0.4,1.1,0,1.5
	c-0.2,0.2-0.5,0.3-0.8,0.3c-0.3,0-0.6-0.1-0.8-0.3C225.5,58.8,225.4,58.6,225.5,58.3z M227.4,69.2h-1.8v-8.6h1.8V69.2z"/>
<path d="M236.1,69.2l-0.2-1.1h-0.1c-0.3,0.4-0.6,0.8-1.1,1c-0.5,0.2-1.1,0.4-1.6,0.3c-0.9,0.1-1.7-0.2-2.3-0.8
	c-0.6-0.7-0.8-1.5-0.8-2.4v-5.7h1.9v5.3c0,0.5,0.1,1.1,0.4,1.5c0.3,0.4,0.8,0.5,1.3,0.5c0.6,0.1,1.3-0.2,1.7-0.7
	c0.4-0.7,0.6-1.5,0.6-2.3v-4.3h1.8v8.6H236.1z"/>
<path d="M247.5,69.2h-1.9v-5.3c0-0.5-0.1-1-0.4-1.5c-0.3-0.3-0.7-0.5-1.2-0.5c-0.6,0-1.2,0.2-1.6,0.7c-0.4,0.7-0.6,1.5-0.5,2.3v4.3
	h-1.8v-8.6h1.4l0.3,1.1h0.1c0.2-0.4,0.6-0.8,1-1c0.5-0.2,1-0.3,1.5-0.3c1.1-0.1,2.1,0.4,2.6,1.4h0.1c0.3-0.4,0.6-0.8,1.1-1
	c0.5-0.2,1-0.4,1.6-0.4c0.8-0.1,1.6,0.2,2.2,0.8c0.5,0.7,0.8,1.5,0.7,2.4v5.6h-1.8v-5.3c0-0.5-0.1-1-0.4-1.5
	c-0.3-0.3-0.7-0.5-1.2-0.5c-0.6-0.1-1.2,0.2-1.6,0.7c-0.4,0.6-0.5,1.3-0.5,2.1L247.5,69.2z"/>
<path d="M264.7,59.2c-1,0-1.9,0.4-2.5,1.1c-1.2,1.9-1.2,4.4,0,6.3c0.6,0.7,1.6,1.1,2.6,1.1c0.5,0,0.9,0,1.4-0.2
	c0.5-0.1,0.9-0.2,1.4-0.4v1.6c-1,0.3-2,0.5-3,0.5c-1.4,0.1-2.9-0.5-3.9-1.5c-1-1.2-1.5-2.8-1.4-4.3c0-1.1,0.2-2.1,0.7-3.1
	c0.4-0.8,1.1-1.5,1.9-2c0.9-0.5,1.9-0.7,2.9-0.7c1.1,0,2.2,0.2,3.2,0.7l-0.7,1.6c-0.4-0.2-0.8-0.4-1.2-0.5
	C265.7,59.3,265.2,59.3,264.7,59.2z"/>
<path d="M279.3,63.4c0.1,1.6-0.5,3.2-1.6,4.3c-1.3,1.1-2.9,1.6-4.5,1.5H270V57.8h3.5c1.6-0.1,3.1,0.4,4.2,1.5
	C278.8,60.4,279.4,61.9,279.3,63.4z M277.3,63.5c0-2.7-1.3-4.1-3.8-4.1h-1.6v8.3h1.3C275.9,67.7,277.3,66.3,277.3,63.5L277.3,63.5z"
	/>
<path d="M291.2,69.2H289l-5.6-9.1h-0.1v0.5c0.1,1,0.1,1.8,0.1,2.7v5.9h-1.7V57.8h2.3l5.6,9.1l0,0c0-0.1,0-0.6-0.1-1.3s0-1.3,0-1.8
	v-6h1.7L291.2,69.2z"/>
<path d="M184.5,121v-11.4h1.9v9.8h4.8v1.6H184.5z"/>
<path d="M196.8,121.2c-1.2,0.1-2.3-0.4-3.1-1.2c-0.8-0.9-1.2-2.1-1.1-3.2c-0.1-1.2,0.3-2.4,1.1-3.3c0.7-0.8,1.8-1.3,2.9-1.2
	c1-0.1,2,0.3,2.7,1c0.7,0.8,1.1,1.8,1,2.9v1h-5.8c0,0.7,0.2,1.4,0.6,1.9c0.5,0.5,1.1,0.7,1.8,0.7c0.5,0,1,0,1.4-0.1
	c0.5-0.1,1-0.3,1.4-0.5v1.5c-0.4,0.2-0.9,0.4-1.4,0.4C197.8,121.1,197.3,121.2,196.8,121.2z M196.4,113.6c-0.5,0-1,0.2-1.4,0.6
	c-0.4,0.5-0.6,1-0.6,1.6h3.9c0-0.6-0.1-1.2-0.5-1.6C197.4,113.8,196.9,113.6,196.4,113.6z"/>
<path d="M205.4,119.7c0.5,0,0.9-0.1,1.4-0.2v1.4c-0.3,0.1-0.5,0.2-0.8,0.2c-0.3,0.1-0.7,0.1-1,0.1c-1.7,0-2.6-0.9-2.6-2.8v-4.7h-1.2
	v-0.8l1.3-0.7l0.6-1.8h1.1v1.9h2.5v1.4h-2.5v4.6c0,0.4,0.1,0.7,0.3,1C204.8,119.6,205.1,119.7,205.4,119.7z"/>
<path d="M210,109.6l0.1,0.2c-0.4,1.3-0.8,2.5-1.4,3.7h-1.3c0.4-1.5,0.6-2.8,0.8-3.9L210,109.6z"/>
<path d="M217.4,118.5c0,0.8-0.3,1.5-0.9,1.9c-0.8,0.5-1.7,0.7-2.6,0.7c-1,0-1.9-0.1-2.8-0.5v-1.6c0.9,0.4,1.8,0.7,2.8,0.7
	c1.1,0,1.7-0.3,1.7-1c0-0.2-0.1-0.4-0.2-0.6c-0.2-0.2-0.4-0.3-0.6-0.4c-0.4-0.2-0.8-0.4-1.2-0.5c-0.7-0.2-1.4-0.6-2-1.2
	c-0.4-0.4-0.6-1-0.5-1.5c0-0.7,0.3-1.3,0.9-1.7c0.7-0.4,1.6-0.7,2.4-0.6c1,0,2,0.2,2.9,0.6l-0.6,1.4c-0.7-0.3-1.5-0.5-2.4-0.6
	c-1,0-1.5,0.3-1.5,0.8c0,0.3,0.1,0.5,0.4,0.7c0.5,0.3,1.1,0.6,1.7,0.8c0.5,0.2,1.1,0.4,1.6,0.8c0.3,0.2,0.5,0.5,0.7,0.8
	C217.3,117.8,217.4,118.2,217.4,118.5z"/>
<path d="M230.2,121h-6.5v-11.4h6.5v1.6h-4.6v3.1h4.3v1.6h-4.3v3.6h4.6V121z"/>
<path d="M240.1,121h-1.8v-5.3c0-0.5-0.1-1.1-0.4-1.5c-0.3-0.4-0.8-0.5-1.3-0.5c-0.6-0.1-1.3,0.2-1.7,0.7c-0.4,0.7-0.6,1.5-0.5,2.3
	v4.3h-1.8v-8.6h1.4l0.3,1.1h0.1c0.3-0.4,0.7-0.7,1.1-0.9c0.5-0.2,1-0.3,1.6-0.3c2.1,0,3.1,1.1,3.1,3.2L240.1,121z"/>
<path d="M246.1,121.2c-1.1,0.1-2.2-0.3-3-1.2c-1.4-2-1.4-4.6,0-6.6c0.8-0.8,1.9-1.3,3.1-1.2c0.8,0,1.7,0.2,2.5,0.5l-0.6,1.5
	c-0.6-0.3-1.3-0.4-1.9-0.5c-1.5,0-2.2,1-2.2,3c-0.1,0.8,0.1,1.5,0.6,2.2c0.4,0.5,1,0.8,1.6,0.7c0.8,0,1.6-0.2,2.3-0.6v1.6
	c-0.3,0.2-0.7,0.3-1.1,0.4C247,121.1,246.5,121.2,246.1,121.2z"/>
<path d="M254.9,112.2c0.3,0,0.6,0,0.9,0.1l-0.2,1.7c-0.3-0.1-0.5-0.1-0.8-0.1c-0.7,0-1.3,0.2-1.8,0.7c-0.5,0.5-0.7,1.2-0.7,1.9v4.5
	h-1.8v-8.6h1.5l0.2,1.5h0.1c0.3-0.5,0.7-0.9,1.1-1.2C253.9,112.4,254.4,112.2,254.9,112.2z"/>
<path d="M256.1,112.4h2l1.8,4.9c0.2,0.6,0.4,1.3,0.5,2h0.1c0.1-0.3,0.2-0.7,0.3-1c0.1-0.4,0.8-2.4,2-5.8h2l-3.7,9.8
	c-0.7,1.8-1.8,2.7-3.4,2.7c-0.4,0-0.8,0-1.2-0.1v-1.4c0.3,0.1,0.6,0.1,1,0.1c0.9,0,1.7-0.7,1.9-1.5l0.3-0.8L256.1,112.4z"/>
<path d="M270.4,121.2c-1,0-1.9-0.4-2.5-1.2h-0.1c0.1,0.7,0.1,1.2,0.1,1.3v3.5H266v-12.5h1.5c0,0.2,0.1,0.6,0.3,1.2h0.1
	c0.6-0.9,1.5-1.4,2.6-1.3c1,0,1.9,0.4,2.5,1.2c1.2,2,1.2,4.6,0,6.6C272.3,120.8,271.4,121.2,270.4,121.2z M270,113.7
	c-0.6-0.1-1.2,0.2-1.6,0.6c-0.4,0.6-0.6,1.3-0.5,2v0.3c-0.1,0.8,0.1,1.6,0.5,2.3c0.4,0.5,1,0.8,1.6,0.7c0.6,0,1.2-0.3,1.5-0.8
	c0.4-0.7,0.6-1.5,0.5-2.2c0.1-0.8-0.1-1.5-0.5-2.2C271.2,113.9,270.6,113.7,270,113.7z"/>
<path d="M279.2,119.7c0.5,0,0.9-0.1,1.3-0.2v1.4c-0.3,0.1-0.5,0.2-0.8,0.2c-0.3,0.1-0.7,0.1-1,0.1c-1.7,0-2.6-0.9-2.6-2.8v-4.7H275
	v-0.8l1.3-0.7l0.6-1.8h1.1v1.9h2.5v1.4H278v4.6c0,0.4,0.1,0.7,0.3,1C278.6,119.6,278.9,119.7,279.2,119.7z"/>
<path d="M293.2,117.9c0,0.9-0.4,1.8-1.1,2.4c-0.9,0.6-1.9,0.9-3,0.9c-1.1,0-2.2-0.2-3.2-0.6v-1.8c0.5,0.2,1.1,0.4,1.7,0.6
	c0.5,0.1,1.1,0.2,1.6,0.2c0.6,0,1.1-0.1,1.6-0.4c0.4-0.3,0.6-0.7,0.5-1.1c0-0.4-0.2-0.8-0.5-1.1c-0.6-0.5-1.3-0.8-2-1.1
	c-0.8-0.3-1.6-0.8-2.2-1.4c-0.4-0.6-0.7-1.3-0.6-2c0-0.9,0.3-1.7,1-2.2c0.8-0.6,1.8-0.9,2.7-0.8c1.1,0,2.2,0.3,3.3,0.7l-0.6,1.5
	c-0.9-0.4-1.8-0.6-2.7-0.6c-0.5,0-1,0.1-1.4,0.4c-0.3,0.2-0.5,0.6-0.5,1c0,0.3,0.1,0.5,0.2,0.8c0.2,0.2,0.4,0.5,0.6,0.6
	c0.5,0.3,1,0.5,1.5,0.7c0.7,0.3,1.3,0.6,1.8,1c0.4,0.3,0.7,0.6,0.9,1C293.1,116.9,293.2,117.4,293.2,117.9z"/>
<path d="M302,117.9c0,0.9-0.4,1.8-1.1,2.4c-0.9,0.6-1.9,0.9-3,0.9c-1.1,0-2.2-0.2-3.2-0.6v-1.8c0.5,0.2,1.1,0.4,1.7,0.6
	c0.5,0.1,1.1,0.2,1.6,0.2c0.6,0,1.2-0.1,1.6-0.4c0.6-0.5,0.7-1.4,0.2-2.1c0-0.1-0.1-0.1-0.2-0.2c-0.6-0.5-1.3-0.8-2-1.1
	c-0.8-0.3-1.6-0.8-2.2-1.4c-0.4-0.6-0.7-1.3-0.6-2c0-0.9,0.3-1.7,1-2.2c0.8-0.6,1.7-0.9,2.7-0.8c1.1,0,2.2,0.3,3.3,0.7l-0.6,1.5
	c-0.9-0.4-1.8-0.6-2.7-0.6c-0.5,0-1,0.1-1.4,0.4c-0.3,0.2-0.5,0.6-0.5,1c0,0.3,0.1,0.5,0.2,0.8c0.2,0.2,0.4,0.5,0.6,0.6
	c0.5,0.3,1,0.5,1.5,0.7c0.7,0.3,1.3,0.6,1.9,1c0.4,0.3,0.7,0.6,0.9,1C301.9,116.9,302,117.4,302,117.9z"/>
<path d="M304.2,121v-11.4h1.9v9.8h4.8v1.6H304.2z"/>
<path d="M195.1,176h-2l-1.9-6.8c-0.1-0.3-0.2-0.7-0.3-1.3s-0.2-1-0.2-1.2c0,0.3-0.1,0.8-0.2,1.3s-0.2,0.9-0.3,1.2l-1.9,6.8h-2
	l-1.5-5.7l-1.5-5.7h1.9l1.6,6.6c0.2,0.9,0.4,1.9,0.6,2.8c0.1-0.4,0.1-0.9,0.3-1.5s0.2-1,0.3-1.3l1.9-6.7h1.9l1.9,6.7
	c0.2,0.9,0.4,1.8,0.6,2.8c0.1-1,0.3-1.9,0.6-2.8l1.6-6.6h1.9L195.1,176z"/>
<path d="M206.7,176l-1.1-3.2h-4.4l-1.1,3.2h-2l4.3-11.5h2l4.3,11.5H206.7z M205.1,171.2l-1.1-3.1c-0.1-0.2-0.2-0.5-0.3-1
	s-0.2-0.8-0.3-1c-0.2,0.7-0.4,1.4-0.6,2.1l-1,3L205.1,171.2z"/>
<path d="M212.1,176h-1.9v-11.4h6.4v1.6h-4.6v3.6h4.3v1.6h-4.3V176z"/>
<path class="st0" d="M223.4,543.5h40.7c2,0,3.7,1.6,3.7,3.7v40.7c0,2-1.6,3.7-3.7,3.7h-40.7c-2,0-3.7-1.6-3.7-3.7v-40.7
	C219.8,545.1,221.4,543.5,223.4,543.5z"/>
<path class="st1" d="M264.1,544.5c1.5,0,2.7,1.2,2.7,2.7v40.7c0,1.5-1.2,2.7-2.7,2.7h-40.7c-1.5,0-2.7-1.2-2.7-2.7v-40.7
	c0-1.5,1.2-2.7,2.7-2.7H264.1 M264.1,542.5h-40.7c-2.6,0-4.6,2.1-4.7,4.7v40.7c0,2.6,2.1,4.6,4.7,4.7h40.7c2.6,0,4.6-2.1,4.7-4.7
	v-40.7C268.7,544.6,266.7,542.5,264.1,542.5z"/>
<path class="st2" d="M170.2,171.1c0,6.8-5.5,12.2-12.3,12.2c-6.8,0-12.2-5.5-12.2-12.3s5.5-12.2,12.3-12.2c0,0,0,0,0,0
	C164.8,158.9,170.2,164.4,170.2,171.1z"/>
<path class="st3" d="M169.3,166.5h-22.7c-2.6,6.3,0.4,13.4,6.7,16c6.3,2.6,13.4-0.4,16-6.7C170.5,172.8,170.5,169.5,169.3,166.5z"/>
<path class="st4" d="M170.2,170.4c0-0.3,0-0.6-0.1-0.9h-7.4v-2.6h6.8c-0.1-0.3-0.2-0.6-0.4-0.9h-22.3c-0.1,0.3-0.2,0.6-0.4,0.9h6.8
	v2.6h-7.4c0,0.3-0.1,0.6-0.1,0.9h3.2v2.6h-3c0,0.3,0.1,0.6,0.2,0.9h7.2v2.6H147c0.1,0.3,0.3,0.6,0.5,0.9h1.5v2
	c0.5,0.6,1.1,1.1,1.7,1.5h2.6v1.5c0.3,0.1,0.6,0.2,0.9,0.3v-1.9h7.8v1.9c0.3-0.1,0.6-0.2,0.9-0.3v-1.5h2.7c0.6-0.5,1.2-1,1.7-1.5v-2
	h1.5c0.2-0.3,0.3-0.6,0.5-0.9h-6.2v-2.6h7.2c0.1-0.3,0.1-0.6,0.2-0.9h-3v-2.6L170.2,170.4z M154.1,166.9h7.8v2.6h-7.8V166.9z
	 M149.8,173.1v-2.6h7.8v2.6H149.8z M157.5,180.1h-7.8v-2.6h7.8V180.1z M154.1,176.6v-2.6h7.8v2.6H154.1z M166.2,177.4v2.6h-7.8v-2.6
	L166.2,177.4z M166.2,173.1h-7.8v-2.6h7.8L166.2,173.1z"/>
<path class="st4" d="M151.4,166.7c0-0.1,0-0.1,0-0.2h-4.8c-2.2,5.5-0.2,11.8,4.8,15L151.4,166.7z"/>
<path class="st5" d="M151.4,173.9v-0.9h-1.6v-2.6h1.6v-0.9h-5.6c0,0.3-0.1,0.6-0.1,0.9h3.2v2.6h-3c0,0.3,0.1,0.6,0.2,0.9H151.4z"/>
<path class="st5" d="M151.4,166.7c0-0.2,0.1-0.5,0.2-0.6h-4.8c-0.1,0.3-0.2,0.6-0.4,0.9h5L151.4,166.7z"/>
<path class="st5" d="M151.4,180h-1.6v-2.6h1.6v-0.9H147c0.1,0.3,0.3,0.6,0.5,0.9h1.5v2c0.5,0.6,1.1,1.1,1.7,1.5h0.8L151.4,180z"/>
<path class="st6" d="M165.1,169.9l-1.8,0.6c1.2-1.4,1.3-3.4,0.2-4.8c-0.6-0.8-1-1.8-1.1-2.8c0-0.2-0.2-0.3-0.3-0.3
	c-0.1,0-0.2,0.1-0.2,0.1c-0.4,0.6-0.7,1.2-0.9,1.9h-0.1c0.1-1.4-0.4-2.9-1.4-3.9c-0.8-0.8-1.2-2-1-3.2c0-0.1,0-0.2-0.1-0.3
	c-0.1-0.1-0.2-0.1-0.3,0c-3.3,2-5.1,5.8-4.5,9.6l0,0c0,0.3-0.2,0.2-0.2,0.1c-0.4-0.4-0.9-0.8-1.2-1.3c-0.1-0.1-0.2-0.1-0.3-0.1
	c-0.1,0-0.2,0.1-0.2,0.2c-0.9,2.6-0.7,5.5,0.7,7.9c1.3,2,3.6,3.2,6,3c4.5,0,6.9-2.7,7.4-6.4c0-0.2-0.1-0.3-0.2-0.4
	C165.2,169.8,165.1,169.8,165.1,169.9z"/>
<path class="st7" d="M153.1,167.1c0-0.1,0.1-0.1,0.1-0.1l0,0c-0.4-0.4-0.9-0.8-1.2-1.3c-0.1-0.1-0.2-0.1-0.3-0.1
	c-0.1,0-0.2,0.1-0.2,0.2c-1.3,3.6-0.4,8.1,2.9,10C152.4,173.4,152.1,169.8,153.1,167.1z"/>
<path class="st7" d="M153.4,166.7c0,0,0,0.1,0,0.1c0.1,0,0.2,0,0.2,0.1c0.4,0.5,0.8,0.9,1.2,1.3c0.1,0,0.2,0.1,0.2-0.1l0,0
	c-0.5-3.4,0.8-6.8,3.4-8.9c-0.2-0.6-0.3-1.2-0.1-1.8c0-0.1,0-0.2-0.1-0.3c-0.1-0.1-0.2-0.1-0.3,0
	C154.6,159.1,152.8,162.9,153.4,166.7L153.4,166.7z"/>
<path class="st7" d="M162.1,172.7L161,173c0.7-0.8,0.8-2,0.1-2.9c-0.4-0.5-0.6-1.1-0.7-1.7c0-0.1-0.1-0.2-0.2-0.2
	c-0.1,0-0.1,0-0.1,0.1c-0.2,0.3-0.4,0.7-0.5,1.1l0,0c0-0.9-0.3-1.7-0.9-2.3c-0.5-0.5-0.7-1.2-0.6-1.9c0-0.1,0-0.1-0.1-0.2
	c-0.1,0-0.1,0-0.2,0c-2,1.2-3,3.5-2.6,5.7l0,0c0,0.2-0.1,0.1-0.1,0.1c-0.3-0.2-0.5-0.5-0.7-0.8c-0.1-0.1-0.2-0.1-0.3,0
	c0,0-0.1,0.1-0.1,0.1c-0.8,2.3-0.2,5.2,2.1,6.1c0.7,0.1,1.3,0.2,2,0.2c0.5,0,0.9,0,1.4-0.1c1.6-0.5,2.7-1.9,2.8-3.6
	C162.4,172.8,162.3,172.7,162.1,172.7C162.2,172.7,162.1,172.7,162.1,172.7z"/>
<path class="st8" d="M155.4,175.8c-0.8-1.4-1-3.1-0.4-4.7c0,0,0.1-0.1,0.1-0.1l0,0c-0.3-0.2-0.5-0.5-0.7-0.8c-0.1-0.1-0.2-0.1-0.3,0
	c0,0-0.1,0.1-0.1,0.1c-0.8,2.1-0.3,4.8,1.7,5.9C155.6,176,155.5,175.9,155.4,175.8z"/>
<path class="st8" d="M155.2,170.9C155.2,170.9,155.2,170.9,155.2,170.9c0.1,0.1,0.1,0.1,0.1,0.1c0.2,0.3,0.5,0.5,0.7,0.8
	c0,0,0.1,0.1,0.1-0.1c-0.3-2,0.4-4,2-5.3c-0.1-0.3-0.2-0.7-0.1-1.1c0-0.1,0-0.1-0.1-0.2c-0.1,0-0.1,0-0.2,0
	C155.8,166.3,154.8,168.6,155.2,170.9L155.2,170.9z"/>
<path class="st8" d="M158.2,172.2c-0.2-0.2-0.5-0.2-0.7,0c-1.2,1.1-1.3,2.9-0.2,4.1c0.1,0.1,0.1,0.1,0.2,0.2l0,0h0.5h0.1l0.1-0.1
	c1.2-1,1.3-2.9,0.2-4.1C158.4,172.3,158.3,172.3,158.2,172.2L158.2,172.2z"/>
<path class="st9" d="M157.7,174.5c0-0.7,0.3-1.5,0.8-2c-0.1-0.1-0.2-0.2-0.3-0.3c-0.2-0.2-0.5-0.2-0.7,0c-1.2,1.1-1.3,2.9-0.2,4.1
	c0.1,0.1,0.1,0.1,0.2,0.2l0,0h0.5h0.1l0.1-0.1l0.2-0.2C158,175.8,157.7,175.1,157.7,174.5z"/>
<path class="st10" d="M166.6,117.1H151c-0.7,0-1.2,0.5-1.2,1.2c0,0,0,0,0,0v11.6c0,0.7,0.5,1.2,1.2,1.2c0,0,0,0,0,0h15.7
	c0.7,0,1.2-0.5,1.2-1.2c0,0,0,0,0,0v-11.6C167.9,117.6,167.3,117.1,166.6,117.1z M159.6,124.7v1.6c0,0.4-0.5,0.8-0.9,0.7
	c-0.4,0-0.7-0.3-0.7-0.7v-1.6c-0.5-0.3-0.8-0.8-0.8-1.4c0.1-0.9,0.8-1.5,1.7-1.5c0.8,0.1,1.4,0.7,1.5,1.5
	C160.4,123.8,160.1,124.4,159.6,124.7L159.6,124.7z"/>
<path class="st11" d="M165.2,117.1h-3.6v-1.9c-0.1-1.5-1.4-2.6-2.9-2.6c-1.4,0.1-2.5,1.2-2.6,2.6v1.9h-3.6v-1.9
	c0-3.5,2.8-6.3,6.4-6.3c3.5,0,6.3,2.8,6.3,6.3V117.1z"/>
<path class="st11" d="M149.4,115.3h-3.8c-0.6,0-1.1-0.5-1.1-1.1s0.5-1.1,1.1-1.1h3.8c0.6,0,1.1,0.5,1.1,1.1S150,115.3,149.4,115.3z"
	/>
<path class="st11" d="M152.1,109.4c-0.3,0-0.5-0.1-0.7-0.3l-3-2.4c-0.5-0.4-0.5-1.1-0.2-1.6s1.1-0.5,1.6-0.2l3,2.4
	c0.5,0.4,0.5,1.1,0.1,1.6C152.7,109.2,152.4,109.4,152.1,109.4z"/>
<path class="st11" d="M158.8,106.8c-0.6,0-1.1-0.5-1.1-1.1l0,0v-3.8c0-0.6,0.5-1.1,1.1-1.1s1.1,0.5,1.1,1.1v3.8
	C159.9,106.3,159.4,106.8,158.8,106.8L158.8,106.8z"/>
<path class="st11" d="M165.6,109.4c-0.3,0-0.6-0.2-0.9-0.4c-0.4-0.5-0.3-1.2,0.2-1.6l3-2.4c0.5-0.3,1.2-0.2,1.6,0.3
	c0.3,0.4,0.2,1-0.1,1.4l-3,2.4C166.1,109.3,165.8,109.4,165.6,109.4z"/>
<path class="st11" d="M172,115.3h-3.8c-0.6,0-1.1-0.5-1.1-1.1s0.5-1.1,1.1-1.1h3.8c0.6,0,1.1,0.5,1.1,1.1S172.6,115.3,172,115.3z"/>
<path class="st1" d="M152.1,60.6c0.2,0,0.5,0,0.7,0.1c0.9-1,1.8-1.8,2.9-2.6c0-0.2-0.1-0.4-0.1-0.6c0-0.3,0-0.5,0.1-0.8
	c-1.2-0.8-2.4-1.5-3.8-2.1c-1.3,0.8-2.4,1.8-3.2,3c0.6,1.1,1.4,2.2,2.3,3.2C151.3,60.7,151.7,60.6,152.1,60.6z M149.6,63.1
	c0-0.3,0.1-0.7,0.2-1c-0.8-0.9-1.5-1.8-2.1-2.8c-1.7,3.5-1.6,7.6,0.4,11c0.4-2,1-4,2-5.8C149.8,64.1,149.6,63.6,149.6,63.1
	L149.6,63.1z M158,55.1c0.6,0,1.2,0.2,1.7,0.7c1.3-0.6,2.6-1,4-1.2c-3-1.7-6.6-2-9.8-0.8c1,0.5,1.9,1.1,2.9,1.7
	C157.1,55.2,157.6,55.1,158,55.1L158,55.1z M161.7,66.6c0.2-0.3,0.4-0.6,0.6-0.8c-0.7-2.2-1.9-4.2-3.3-6c-0.3,0.1-0.7,0.2-1,0.2
	c-0.5,0-1-0.2-1.4-0.5c-0.9,0.7-1.7,1.4-2.4,2.2c0.2,0.4,0.4,0.8,0.4,1.3c0,0.2,0,0.5-0.1,0.7C156.6,65.3,159.1,66.2,161.7,66.6
	L161.7,66.6z M164.9,69.9c0,0.5,0.1,0.9,0.1,1.4c0,0.8-0.1,1.6-0.2,2.4c2-1.4,3.4-3.5,4.2-5.8c-0.9,0.2-1.8,0.4-2.7,0.5
	C166,69.1,165.5,69.7,164.9,69.9L164.9,69.9z M161.1,68.3c-2.8-0.5-5.4-1.5-7.8-3.1c-0.4,0.2-0.8,0.4-1.3,0.4c-0.2,0-0.3,0-0.5-0.1
	c-1.1,2.1-1.8,4.5-2,6.9c1.1,1.2,2.4,2.1,3.9,2.8C155.4,72.2,158,69.8,161.1,68.3L161.1,68.3z M165.7,56c-1.8,0.2-3.6,0.6-5.2,1.3
	c0,0.1,0,0.2,0,0.2c0,0.4-0.1,0.7-0.2,1.1c1.7,1.9,2.9,4.2,3.7,6.6c1,0,1.8,0.6,2.2,1.5c1.1-0.1,2.2-0.3,3.2-0.6
	c0.1-0.5,0.1-1.1,0.1-1.6C169.5,61.3,168.1,58.2,165.7,56z M162.3,69.6c-2.9,1.3-5.4,3.4-7.2,6.1c0.9,0.2,1.9,0.3,2.8,0.3
	c1.7,0,3.3-0.4,4.9-1.1c0.2-1.2,0.4-2.4,0.4-3.6c0-0.4,0-0.9-0.1-1.3C162.9,69.9,162.6,69.8,162.3,69.6L162.3,69.6z"/>
<line class="st12" x1="112" y1="296" x2="112" y2="311"/>
<path class="st0" d="M272.4,314.5h203.2c6.9,0,12.4,5.6,12.4,12.4v63.2c0,6.9-5.6,12.4-12.4,12.4H272.4c-6.9,0-12.4-5.6-12.4-12.4
	v-63.2C260,320.1,265.6,314.5,272.4,314.5z"/>
<path class="st1" d="M475.6,315.5c6.3,0,11.4,5.1,11.4,11.4v63.2c0,6.3-5.1,11.4-11.4,11.4H272.4c-6.3,0-11.4-5.1-11.4-11.4v-63.2
	c0-6.3,5.1-11.4,11.4-11.4H475.6 M475.6,313.5H272.4c-7.4,0-13.4,6-13.4,13.4v63.2c0,7.4,6,13.4,13.4,13.4h203.2
	c7.4,0,13.4-6,13.4-13.4v-63.2C489,319.5,483,313.5,475.6,313.5z"/>
<path d="M309.5,342v-11.4h1.9v9.8h4.8v1.6H309.5z"/>
<path d="M317.9,331.1c0-0.3,0.1-0.6,0.3-0.8c0.2-0.2,0.5-0.3,0.8-0.3c0.3,0,0.6,0.1,0.8,0.3c0.2,0.2,0.3,0.5,0.3,0.8
	c0,0.3-0.1,0.5-0.3,0.7c-0.2,0.2-0.5,0.3-0.8,0.3c-0.3,0-0.6-0.1-0.8-0.3C318,331.6,317.9,331.3,317.9,331.1z M319.8,342H318v-8.6
	h1.8L319.8,342z"/>
<path d="M325.7,340.7c0.5,0,0.9-0.1,1.4-0.2v1.4c-0.3,0.1-0.5,0.2-0.8,0.2c-0.3,0.1-0.7,0.1-1,0.1c-1.7,0-2.6-0.9-2.6-2.8v-4.7h-1.2
	v-0.8l1.3-0.7l0.6-1.8h1.1v1.9h2.5v1.4h-2.5v4.6c0,0.4,0.1,0.7,0.3,1C325,340.6,325.3,340.7,325.7,340.7z"/>
<path d="M332.5,342.2c-1.2,0.1-2.3-0.4-3.1-1.2c-0.8-0.9-1.2-2.1-1.1-3.2c-0.1-1.2,0.3-2.4,1-3.3c0.7-0.8,1.8-1.3,2.9-1.2
	c1-0.1,2,0.3,2.7,1c0.7,0.8,1.1,1.8,1,2.9v1h-5.8c0,0.7,0.2,1.4,0.7,1.9c0.5,0.5,1.1,0.7,1.8,0.7c0.5,0,1,0,1.4-0.1
	c0.5-0.1,1-0.3,1.4-0.5v1.5c-0.4,0.2-0.9,0.4-1.4,0.5C333.5,342.1,333,342.2,332.5,342.2z M332.2,334.6c-0.5,0-1,0.2-1.4,0.6
	c-0.4,0.5-0.6,1-0.6,1.6h3.9c0-0.6-0.1-1.2-0.5-1.6C333.2,334.8,332.7,334.6,332.2,334.6z"/>
<path d="M344.7,338.9c0,0.9-0.4,1.8-1.1,2.4c-0.9,0.6-1.9,0.9-3,0.9c-1.1,0-2.2-0.2-3.2-0.6v-1.8c0.5,0.2,1.1,0.4,1.7,0.6
	c0.5,0.1,1.1,0.2,1.6,0.2c0.6,0,1.2-0.1,1.6-0.4c0.3-0.3,0.5-0.7,0.5-1.1c0-0.4-0.2-0.8-0.5-1.1c-0.6-0.5-1.3-0.8-2-1.1
	c-0.8-0.3-1.6-0.8-2.2-1.4c-0.5-0.6-0.7-1.3-0.6-2c0-0.9,0.3-1.7,1-2.2c0.8-0.6,1.8-0.9,2.7-0.8c1.1,0,2.2,0.3,3.3,0.7l-0.6,1.5
	c-0.9-0.4-1.8-0.6-2.7-0.6c-0.5,0-1,0.1-1.4,0.4c-0.3,0.2-0.5,0.6-0.5,1c0,0.3,0.1,0.5,0.2,0.8c0.2,0.2,0.4,0.5,0.6,0.6
	c0.5,0.3,1,0.5,1.5,0.7c0.7,0.3,1.3,0.6,1.8,1c0.4,0.3,0.7,0.6,0.9,1C344.7,337.9,344.8,338.4,344.7,338.9z"/>
<path d="M351.1,342.2c-1,0.1-1.9-0.4-2.5-1.2h-0.1c0.1,0.7,0.1,1.2,0.1,1.3v3.5h-1.8v-12.5h1.5c0,0.2,0.1,0.5,0.3,1.2h0.1
	c0.6-0.9,1.5-1.4,2.6-1.3c1,0,1.9,0.4,2.5,1.2c0.7,1,1,2.1,0.9,3.3c0.1,1.2-0.3,2.3-0.9,3.3C353.1,341.8,352.1,342.2,351.1,342.2z
	 M350.7,334.7c-0.6,0-1.2,0.2-1.6,0.6c-0.4,0.6-0.6,1.3-0.5,2v0.3c-0.1,0.8,0.1,1.6,0.5,2.3c0.4,0.5,1,0.8,1.6,0.7
	c0.6,0,1.2-0.3,1.5-0.8c0.4-0.7,0.6-1.5,0.5-2.2c0.1-0.8-0.1-1.5-0.5-2.2C351.9,335,351.3,334.7,350.7,334.7z"/>
<path d="M360.5,342.2c-1.2,0.1-2.3-0.4-3.1-1.2c-0.8-0.9-1.2-2.1-1.1-3.2c-0.1-1.2,0.3-2.4,1.1-3.3c0.7-0.8,1.8-1.3,2.9-1.2
	c1-0.1,2,0.3,2.7,1c0.7,0.8,1.1,1.8,1,2.9v1h-5.8c0,0.7,0.2,1.4,0.7,1.9c0.5,0.5,1.1,0.7,1.8,0.7c0.5,0,1,0,1.4-0.1
	c0.5-0.1,1-0.3,1.4-0.5v1.5c-0.4,0.2-0.9,0.4-1.4,0.5C361.6,342.1,361,342.2,360.5,342.2z M360.2,334.6c-0.5,0-1,0.2-1.4,0.6
	c-0.4,0.5-0.6,1-0.6,1.6h3.9c0-0.6-0.2-1.2-0.5-1.6C361.2,334.8,360.7,334.6,360.2,334.6z"/>
<path d="M369.7,342.2c-1.2,0.1-2.3-0.4-3.1-1.2c-0.8-0.9-1.2-2.1-1.1-3.2c-0.1-1.2,0.3-2.4,1.1-3.3c0.7-0.8,1.8-1.3,2.9-1.2
	c1-0.1,2,0.3,2.7,1c0.7,0.8,1.1,1.8,1,2.9v1h-5.8c0,0.7,0.2,1.4,0.7,1.9c0.5,0.5,1.1,0.7,1.8,0.7c0.5,0,1,0,1.4-0.1
	c0.5-0.1,1-0.3,1.4-0.5v1.5c-0.4,0.2-0.9,0.4-1.4,0.5C370.8,342.1,370.2,342.2,369.7,342.2z M369.4,334.6c-0.5,0-1,0.2-1.4,0.6
	c-0.4,0.5-0.6,1-0.6,1.6h3.9c0-0.6-0.2-1.2-0.5-1.6C370.4,334.8,369.9,334.6,369.4,334.6z"/>
<path d="M378.1,342.2c-1,0-1.9-0.4-2.5-1.2c-0.7-1-1-2.1-0.9-3.3c-0.1-1.2,0.3-2.3,0.9-3.3c0.6-0.8,1.5-1.2,2.5-1.2
	c1-0.1,2,0.4,2.6,1.3h0.1c-0.1-0.5-0.1-1-0.1-1.5v-3.1h1.8V342h-1.4l-0.3-1.1h-0.1C380.1,341.7,379.1,342.2,378.1,342.2z
	 M378.6,340.7c0.6,0.1,1.2-0.2,1.6-0.6c0.4-0.6,0.6-1.3,0.5-2.1v-0.3c0.1-0.8-0.1-1.6-0.5-2.3c-0.4-0.5-1-0.7-1.7-0.7
	c-0.6,0-1.2,0.3-1.5,0.8c-0.4,0.7-0.6,1.5-0.5,2.2c0,0.8,0.1,1.5,0.5,2.2C377.4,340.4,378,340.7,378.6,340.7z"/>
<path d="M400,342h-2l-1.9-6.8c-0.1-0.3-0.2-0.7-0.3-1.3s-0.2-1-0.2-1.2c0,0.3-0.1,0.8-0.3,1.3s-0.2,0.9-0.3,1.2l-1.9,6.8h-2
	l-1.5-5.7l-1.5-5.7h1.9l1.6,6.6c0.2,0.9,0.4,1.9,0.5,2.8c0.1-0.4,0.1-0.9,0.3-1.5s0.2-1,0.3-1.3l1.9-6.7h1.9l1.9,6.7
	c0.2,0.9,0.4,1.8,0.6,2.8c0.1-1,0.3-1.9,0.6-2.8l1.6-6.6h1.9L400,342z"/>
<path d="M408.2,342.2c-1.2,0.1-2.3-0.3-3.2-1.2c-0.8-0.9-1.2-2.1-1.1-3.2c-0.1-1.2,0.3-2.4,1-3.3c0.7-0.8,1.8-1.3,2.9-1.2
	c1-0.1,2,0.3,2.7,1c0.7,0.8,1.1,1.8,1,2.9v1h-5.8c0,0.7,0.2,1.4,0.7,1.9c0.5,0.5,1.1,0.7,1.8,0.7c0.5,0,1,0,1.4-0.1
	c0.5-0.1,1-0.3,1.4-0.5v1.5c-0.4,0.2-0.9,0.4-1.4,0.5C409.2,342.1,408.7,342.2,408.2,342.2z M407.9,334.6c-0.5,0-1,0.2-1.4,0.6
	c-0.4,0.5-0.6,1-0.6,1.6h3.9c0-0.6-0.1-1.2-0.5-1.6C408.9,334.8,408.4,334.6,407.9,334.6z"/>
<path d="M418,333.2c1,0,1.9,0.4,2.5,1.2c1.2,2,1.2,4.6,0,6.6c-0.6,0.8-1.5,1.2-2.5,1.2c-1,0.1-1.9-0.4-2.5-1.2h-0.1l-0.3,1h-1.4
	v-12.1h1.8v2.9c0,0.2,0,0.6,0,1c0,0.4,0,0.7,0,0.8h0.1C416.1,333.7,417,333.2,418,333.2z M417.6,334.7c-0.6-0.1-1.2,0.2-1.6,0.7
	c-0.4,0.7-0.6,1.4-0.5,2.2v0.1c-0.1,0.8,0.1,1.6,0.5,2.3c0.4,0.5,1,0.8,1.6,0.7c0.6,0,1.2-0.3,1.5-0.8c0.4-0.7,0.6-1.5,0.5-2.2
	C419.6,335.7,418.9,334.7,417.6,334.7L417.6,334.7z"/>
<path d="M434.5,338.9c0,0.9-0.4,1.8-1.1,2.4c-0.9,0.6-1.9,0.9-3,0.9c-1.1,0-2.2-0.2-3.2-0.6v-1.8c0.5,0.2,1.1,0.4,1.7,0.6
	c0.5,0.1,1.1,0.2,1.6,0.2c0.6,0,1.2-0.1,1.6-0.4c0.6-0.5,0.7-1.4,0.2-2.1c0-0.1-0.1-0.1-0.2-0.2c-0.6-0.5-1.3-0.8-2-1.1
	c-0.8-0.3-1.6-0.8-2.2-1.4c-0.4-0.6-0.7-1.3-0.6-2c0-0.9,0.3-1.7,1-2.2c0.8-0.6,1.7-0.9,2.7-0.8c1.1,0,2.2,0.3,3.3,0.7l-0.6,1.5
	c-0.9-0.4-1.8-0.6-2.7-0.6c-0.5,0-1,0.1-1.4,0.4c-0.3,0.2-0.5,0.6-0.5,1c0,0.3,0.1,0.5,0.2,0.8c0.2,0.2,0.4,0.5,0.6,0.6
	c0.5,0.3,1,0.5,1.5,0.7c0.7,0.3,1.3,0.6,1.9,1c0.4,0.3,0.7,0.6,0.9,1C434.5,337.9,434.6,338.4,434.5,338.9z"/>
<path d="M440.3,342.2c-1.2,0.1-2.3-0.4-3.1-1.2c-0.8-0.9-1.2-2.1-1.1-3.2c-0.1-1.2,0.3-2.4,1-3.3c0.7-0.8,1.8-1.3,2.9-1.2
	c1-0.1,2,0.3,2.7,1c0.7,0.8,1.1,1.8,1,2.9v1h-5.8c0,0.7,0.2,1.4,0.7,1.9c0.5,0.5,1.1,0.7,1.8,0.7c0.5,0,1,0,1.4-0.1
	c0.5-0.1,1-0.3,1.4-0.5v1.5c-0.4,0.2-0.9,0.4-1.4,0.5C441.4,342.1,440.8,342.2,440.3,342.2z M440,334.6c-0.5,0-1,0.2-1.4,0.6
	c-0.4,0.5-0.6,1-0.6,1.6h3.9c0-0.6-0.1-1.2-0.5-1.6C441,334.8,440.5,334.6,440,334.6L440,334.6z"/>
<path d="M450.2,333.2c0.3,0,0.6,0,0.9,0.1l-0.2,1.7c-0.3-0.1-0.5-0.1-0.8-0.1c-0.7,0-1.3,0.2-1.8,0.7c-0.5,0.5-0.7,1.2-0.7,1.9v4.5
	h-1.8v-8.6h1.4l0.2,1.5h0.1c0.3-0.5,0.7-0.9,1.1-1.2C449.1,333.4,449.6,333.2,450.2,333.2z"/>
<path d="M454.6,342l-3.3-8.6h1.9l1.8,5c0.3,0.7,0.4,1.3,0.5,2h0.1c0.1-0.7,0.3-1.4,0.5-2l1.8-5h2l-3.3,8.6H454.6z"/>
<path d="M465,342.2c-1.2,0.1-2.3-0.4-3.1-1.2c-0.8-0.9-1.2-2.1-1.1-3.2c-0.1-1.2,0.3-2.4,1-3.3c0.7-0.8,1.8-1.3,2.9-1.2
	c1-0.1,2,0.3,2.7,1c0.7,0.8,1.1,1.8,1,2.9v1h-5.8c0,0.7,0.2,1.4,0.7,1.9c0.5,0.5,1.1,0.7,1.8,0.7c0.5,0,1,0,1.4-0.1
	c0.5-0.1,1-0.3,1.4-0.5v1.5c-0.4,0.2-0.9,0.4-1.4,0.5C466,342.1,465.5,342.2,465,342.2z M464.7,334.6c-0.5,0-1,0.2-1.4,0.6
	c-0.4,0.5-0.6,1-0.6,1.6h3.9c0-0.6-0.1-1.2-0.5-1.6C465.7,334.8,465.2,334.6,464.7,334.6L464.7,334.6z"/>
<path d="M474.8,333.2c0.3,0,0.6,0,0.9,0.1l-0.2,1.7c-0.3-0.1-0.5-0.1-0.8-0.1c-0.7,0-1.3,0.2-1.8,0.7c-0.5,0.5-0.7,1.2-0.7,1.9v4.5
	h-1.8v-8.6h1.4l0.2,1.5h0.1c0.3-0.5,0.7-0.9,1.1-1.2C473.8,333.4,474.3,333.2,474.8,333.2z"/>
<path d="M311.4,382.4v4.6h-1.9v-11.4h3.2c1.2-0.1,2.3,0.2,3.3,0.8c0.7,0.6,1.1,1.5,1.1,2.5c0,1.4-0.9,2.6-2.2,3l3.2,5H316l-2.7-4.6
	L311.4,382.4z M311.4,380.9h1.3c0.7,0.1,1.3-0.1,1.9-0.5c0.4-0.4,0.6-0.9,0.6-1.4c0.1-0.5-0.2-1.1-0.6-1.4c-0.6-0.3-1.2-0.5-1.9-0.4
	h-1.2V380.9z"/>
<path d="M323.3,387.2c-1.2,0.1-2.3-0.4-3.1-1.2c-0.8-0.9-1.2-2.1-1.1-3.2c-0.1-1.2,0.3-2.4,1.1-3.3c0.7-0.8,1.8-1.3,2.9-1.2
	c1-0.1,2,0.3,2.7,1c0.7,0.8,1.1,1.8,1,2.9v1h-5.8c0,0.7,0.2,1.4,0.7,1.9c0.5,0.5,1.1,0.7,1.8,0.7c0.5,0,1,0,1.4-0.1
	c0.5-0.1,1-0.3,1.4-0.5v1.5c-0.4,0.2-0.9,0.4-1.4,0.5C324.4,387.1,323.8,387.2,323.3,387.2z M323,379.6c-0.5,0-1,0.2-1.4,0.6
	c-0.4,0.5-0.6,1-0.6,1.6h3.9c0-0.6-0.2-1.2-0.5-1.6C324,379.8,323.5,379.6,323,379.6L323,379.6z"/>
<path d="M331.7,387.2c-1,0-1.9-0.4-2.5-1.2c-0.7-1-1-2.1-0.9-3.3c-0.1-1.2,0.3-2.3,0.9-3.3c0.6-0.8,1.5-1.2,2.5-1.2
	c1-0.1,2,0.4,2.6,1.3h0.1c-0.1-0.5-0.1-1-0.1-1.5v-3.1h1.8V387h-1.4l-0.3-1.1h-0.1C333.7,386.7,332.7,387.2,331.7,387.2z
	 M332.2,385.7c0.6,0.1,1.2-0.2,1.6-0.6c0.4-0.6,0.6-1.3,0.5-2.1v-0.3c0.1-0.8-0.1-1.6-0.5-2.3c-0.4-0.5-1-0.7-1.7-0.7
	c-0.6,0-1.2,0.3-1.5,0.8c-0.4,0.7-0.6,1.5-0.5,2.2c0,0.8,0.1,1.5,0.5,2.2C331,385.4,331.6,385.7,332.2,385.7z"/>
<path d="M338.6,376.1c0-0.3,0.1-0.6,0.3-0.8c0.2-0.2,0.5-0.3,0.8-0.3c0.3,0,0.5,0.1,0.8,0.3c0.2,0.2,0.3,0.5,0.3,0.8
	c0,0.5-0.3,1-0.9,1c0,0-0.1,0-0.1,0c-0.3,0-0.6-0.1-0.8-0.3C338.7,376.6,338.6,376.3,338.6,376.1z M340.6,387h-1.8v-8.6h1.8V387z"/>
<path d="M349,384.5c0,0.8-0.3,1.5-0.9,1.9c-0.8,0.5-1.7,0.7-2.6,0.7c-1,0-1.9-0.1-2.8-0.5v-1.6c0.9,0.4,1.8,0.7,2.8,0.7
	c1.1,0,1.7-0.3,1.7-1c0-0.2-0.1-0.4-0.2-0.5c-0.2-0.2-0.4-0.3-0.6-0.5c-0.4-0.2-0.8-0.4-1.2-0.5c-0.7-0.2-1.4-0.6-2-1.2
	c-0.4-0.4-0.6-1-0.5-1.5c0-0.7,0.3-1.3,0.9-1.7c0.7-0.4,1.6-0.7,2.4-0.6c1,0,2,0.2,2.9,0.6l-0.6,1.4c-0.7-0.3-1.5-0.5-2.4-0.6
	c-1,0-1.5,0.3-1.5,0.8c0,0.3,0.1,0.5,0.4,0.7c0.5,0.3,1.1,0.6,1.6,0.8c0.5,0.2,1.1,0.4,1.6,0.8c0.3,0.2,0.5,0.5,0.7,0.8
	C348.9,383.8,349,384.2,349,384.5z"/>
<line class="st13" x1="260" y1="358.5" x2="488.5" y2="358.5"/>
<path class="st14" d="M299.1,388.1c-1.4,0.7-8.4,3.6-9.9,4.4c-1,0.7-2.4,0.8-3.5,0.2c-1.2-0.6-8.7-3.6-10-4.2c-0.7-0.3-1-0.6-1-0.9
	v-2.6c0,0,9.8-2.1,11.3-2.7c1.1-0.6,2.4-0.6,3.5-0.1c1.3,0.5,9.4,1.9,10.7,2.4v2.5C300.2,387.5,299.9,387.8,299.1,388.1"/>
<path class="st15" d="M299.1,385.6c-1.4,0.7-8.4,3.6-9.9,4.4c-1,0.7-2.4,0.8-3.5,0.2c-1.2-0.6-8.7-3.6-10-4.2s-1.4-1.1,0-1.6
	s8.8-3.4,10.4-4c1.1-0.6,2.4-0.6,3.5-0.1c1.3,0.5,8.4,3.3,9.7,3.8S300.5,384.9,299.1,385.6"/>
<path class="st14" d="M299.1,384c-1.4,0.7-8.4,3.6-9.9,4.4c-1,0.7-2.4,0.8-3.5,0.2c-1.2-0.6-8.7-3.6-10-4.2c-0.7-0.3-1-0.6-1-0.9
	v-2.6c0,0,9.8-2.1,11.3-2.7c1.1-0.6,2.4-0.6,3.5-0.1c1.3,0.5,9.4,1.9,10.7,2.4v2.5C300.2,383.4,299.9,383.6,299.1,384"/>
<path class="st15" d="M299.1,381.4c-1.4,0.7-8.4,3.6-9.9,4.4c-1,0.7-2.4,0.8-3.5,0.2c-1.2-0.6-8.7-3.6-10-4.2s-1.4-1.1,0-1.6
	s8.8-3.5,10.4-4c1.1-0.6,2.4-0.6,3.5-0.1c1.3,0.5,8.4,3.3,9.7,3.8S300.5,380.7,299.1,381.4L299.1,381.4"/>
<path class="st14" d="M299.1,379.6c-1.4,0.7-8.4,3.6-9.9,4.4c-1,0.7-2.4,0.8-3.5,0.2c-1.2-0.6-8.7-3.6-10-4.2c-0.7-0.3-1-0.6-1-0.9
	v-2.6c0,0,9.8-2.1,11.3-2.7c1.1-0.6,2.4-0.6,3.5-0.1c1.3,0.5,9.4,1.9,10.7,2.4v2.5C300.2,379,299.9,379.3,299.1,379.6"/>
<path class="st15" d="M299.1,377.1c-1.4,0.7-8.4,3.6-9.9,4.4c-1,0.7-2.4,0.8-3.5,0.2c-1.2-0.6-8.7-3.6-10-4.2s-1.4-1.1,0-1.6
	s8.8-3.5,10.4-4c1.1-0.6,2.4-0.6,3.5-0.1c1.3,0.5,8.4,3.3,9.7,3.8S300.5,376.4,299.1,377.1"/>
<path class="st0" d="M290.5,374.6l-2.2,0.2l-0.5,1.2l-0.8-1.3l-2.5-0.2l1.9-0.7l-0.6-1l1.8,0.7l1.7-0.5l-0.5,1.1L290.5,374.6"/>
<path class="st0" d="M287.6,380.3l-4.1-1.7l5.9-0.9L287.6,380.3"/>
<path class="st0" d="M282,375.2c1.7,0,3.1,0.5,3.1,1.2s-1.4,1.2-3.1,1.2s-3.1-0.5-3.1-1.2S280.3,375.2,282,375.2"/>
<path class="st16" d="M293.1,374.9l3.5,1.4l-3.5,1.4V374.9"/>
<path class="st17" d="M289.2,376.4l3.8-1.5v2.7l-0.4,0.1L289.2,376.4"/>
<path class="st18" d="M298.1,336.3l-6.7-6.7l-2.9,3.6l3.1,3.1c0.3,0.3,0.3,0.7,0,1l-0.9,0.9c0,0,0.6,0.9,0.6,1
	c0.2,0.4,0.1,0.9-0.2,1.2l-7,5.4c0,1.8,0,5.5,0,5.5l14-14C298.4,337.1,298.4,336.6,298.1,336.3C298.1,336.3,298.1,336.3,298.1,336.3
	z"/>
<path class="st19" d="M282.5,337.2c-0.3-0.3-0.3-0.7,0-1l0.9-0.9l-0.6-0.9c-0.3-0.4-0.2-1.1,0.2-1.4l7-5.4v-5.5l0,0l-14,14
	c-0.3,0.3-0.3,0.7,0,1l6.7,6.7l2.9-3.6L282.5,337.2z"/>
<polygon class="st0" points="287.2,341.6 287.2,341.6 283.9,344.9 "/>
<path class="st18" d="M293.5,325.5c0.1,0,0.2,0.1,0.2,0.1c0.1,0.1,0,0.3-0.1,0.4l-6.2,7.8c-0.1,0.1-0.1,0.3,0,0.5c0,0,3.3,4.8,3.5,5
	c0.1,0.3,0.1,0.7-0.2,0.9l-9.9,7.6c-0.1,0.1-0.2,0.1-0.3,0.1c-0.1,0-0.2-0.1-0.2-0.1c0-0.2,0-0.3,0.1-0.4l6.2-7.8
	c0.1-0.1,0.1-0.3,0-0.5l-3.4-5c-0.2-0.3-0.2-0.8,0.1-1l9.9-7.6C293.3,325.5,293.4,325.4,293.5,325.5 M293.6,325.3
	c-0.1,0-0.3,0.1-0.4,0.2l-9.9,7.6c-0.4,0.3-0.4,0.8-0.2,1.2l3.4,5c0,0.1,0,0.2,0,0.3l-6.2,7.8c-0.1,0.1-0.2,0.4-0.1,0.5
	c0.1,0.1,0.2,0.2,0.3,0.2c0.1,0,0.3-0.1,0.4-0.2l9.9-7.6c0.3-0.3,0.4-0.7,0.2-1.1c-0.1-0.2-3.4-5-3.4-5c-0.1-0.1-0.1-0.2,0-0.3
	l6.2-7.8c0.2-0.1,0.2-0.4,0.1-0.6C293.8,325.4,293.7,325.3,293.6,325.3L293.6,325.3z"/>
<path class="st20" d="M290.7,339.3c0.1,0.1,0.1,0.6,0,0.7l-9.9,7.6c0,0-0.1,0.1-0.2,0.1c0,0,0-0.1,0.1-0.2l6.2-7.8
	c0.1-0.2,0.1-0.5,0-0.7l-3.4-5C283.4,334.1,290.6,339.2,290.7,339.3z"/>
<path class="st21" d="M290.7,339.3l-3.4-4.9c-0.2-0.2-0.2-0.5,0-0.7l6.2-7.8c0.1-0.1,0.1-0.2,0.1-0.2c-0.1,0-0.1,0-0.2,0.1l-9.9,7.6
	c-0.2,0.2-0.2,0.4-0.1,0.6L290.7,339.3z"/>
<path class="st0" d="M13.4,314.5h203.2c6.9,0,12.4,5.6,12.4,12.4v63.2c0,6.9-5.6,12.4-12.4,12.4H13.4c-6.9,0-12.4-5.6-12.4-12.4
	v-63.2C1,320.1,6.6,314.5,13.4,314.5z"/>
<path class="st1" d="M216.6,315.5c6.3,0,11.4,5.1,11.4,11.4v63.2c0,6.3-5.1,11.4-11.4,11.4H13.4c-6.3,0-11.4-5.1-11.4-11.4v-63.2
	c0-6.3,5.1-11.4,11.4-11.4H216.6 M216.6,313.5H13.4c-7.4,0-13.4,6-13.4,13.4v63.2c0,7.4,6,13.4,13.4,13.4h203.2
	c7.4,0,13.4-6,13.4-13.4v-63.2C230,319.5,224,313.5,216.6,313.5z"/>
<path d="M50.5,342v-11.4h1.9v9.8h4.8v1.6H50.5z"/>
<path d="M58.9,331.1c0-0.3,0.1-0.6,0.3-0.8c0.2-0.2,0.5-0.3,0.8-0.3c0.3,0,0.6,0.1,0.8,0.3c0.2,0.2,0.3,0.5,0.3,0.8
	c0,0.3-0.1,0.5-0.3,0.7c-0.2,0.2-0.5,0.3-0.8,0.3c-0.3,0-0.6-0.1-0.8-0.3C59,331.6,58.9,331.3,58.9,331.1z M60.8,342H59v-8.6h1.8
	L60.8,342z"/>
<path d="M66.7,340.7c0.5,0,0.9-0.1,1.3-0.2v1.4c-0.3,0.1-0.5,0.2-0.8,0.2c-0.3,0.1-0.7,0.1-1,0.1c-1.7,0-2.6-0.9-2.6-2.8v-4.7h-1.2
	v-0.8l1.3-0.7l0.6-1.8h1.1v1.9h2.5v1.4h-2.5v4.6c0,0.4,0.1,0.7,0.3,1C66,340.6,66.3,340.7,66.7,340.7z"/>
<path d="M73.5,342.2c-1.2,0.1-2.3-0.3-3.2-1.2c-0.8-0.9-1.2-2.1-1.1-3.2c-0.1-1.2,0.3-2.4,1-3.3c0.7-0.8,1.8-1.3,2.9-1.2
	c1-0.1,2,0.3,2.7,1c0.7,0.8,1.1,1.8,1,2.9v1h-5.7c0,0.7,0.2,1.4,0.7,1.9c0.5,0.5,1.1,0.7,1.8,0.7c0.5,0,1,0,1.4-0.1
	c0.5-0.1,1-0.3,1.4-0.5v1.5c-0.4,0.2-0.9,0.4-1.4,0.5C74.6,342.1,74,342.2,73.5,342.2z M73.2,334.6c-0.5,0-1,0.2-1.4,0.6
	c-0.4,0.5-0.6,1-0.6,1.6h3.9c0-0.6-0.1-1.2-0.5-1.6C74.2,334.8,73.7,334.6,73.2,334.6z"/>
<path d="M85.7,338.9c0,0.9-0.4,1.8-1.1,2.4c-0.9,0.6-1.9,0.9-3,0.9c-1.1,0-2.2-0.2-3.2-0.6v-1.8c0.5,0.2,1.1,0.4,1.7,0.6
	c0.5,0.1,1.1,0.2,1.6,0.2c0.6,0,1.2-0.1,1.6-0.4c0.3-0.3,0.5-0.7,0.5-1.1c0-0.4-0.2-0.8-0.5-1.1c-0.6-0.5-1.3-0.8-2-1.1
	c-0.8-0.3-1.6-0.8-2.2-1.4c-0.5-0.6-0.7-1.3-0.7-2c0-0.9,0.3-1.7,1-2.2c0.8-0.6,1.8-0.9,2.7-0.8c1.1,0,2.2,0.3,3.3,0.7l-0.6,1.6
	c-0.9-0.4-1.8-0.6-2.7-0.6c-0.5,0-1,0.1-1.4,0.4c-0.3,0.2-0.5,0.6-0.5,1c0,0.3,0.1,0.5,0.2,0.8c0.2,0.2,0.4,0.5,0.6,0.6
	c0.5,0.3,1,0.5,1.6,0.7c0.7,0.3,1.3,0.6,1.8,1c0.4,0.3,0.7,0.6,0.9,1C85.7,337.9,85.8,338.4,85.7,338.9z"/>
<path d="M92.1,342.2c-1,0.1-1.9-0.4-2.5-1.2h-0.1c0.1,0.7,0.1,1.2,0.1,1.3v3.5h-1.8v-12.5h1.5c0,0.2,0.1,0.5,0.3,1.2h0.1
	c0.6-0.9,1.5-1.4,2.6-1.3c1,0,1.9,0.4,2.5,1.2c0.7,1,1,2.1,0.9,3.3c0.1,1.2-0.3,2.3-0.9,3.3C94.1,341.8,93.1,342.2,92.1,342.2z
	 M91.7,334.7c-0.6,0-1.2,0.2-1.6,0.6c-0.4,0.6-0.6,1.3-0.5,2v0.3c-0.1,0.8,0.1,1.6,0.5,2.3c0.4,0.5,1,0.8,1.6,0.7
	c0.6,0,1.2-0.3,1.5-0.8c0.4-0.7,0.6-1.5,0.5-2.2c0.1-0.8-0.1-1.5-0.5-2.2C92.9,335,92.3,334.7,91.7,334.7z"/>
<path d="M101.5,342.2c-1.2,0.1-2.3-0.4-3.2-1.2c-0.8-0.9-1.2-2.1-1.1-3.2c-0.1-1.2,0.3-2.4,1.1-3.3c0.7-0.8,1.8-1.3,2.9-1.2
	c1-0.1,2,0.3,2.7,1c0.7,0.8,1.1,1.8,1,2.9v1h-5.8c0,0.7,0.2,1.4,0.7,1.9c0.5,0.5,1.1,0.7,1.8,0.7c0.5,0,1,0,1.4-0.1
	c0.5-0.1,1-0.3,1.4-0.5v1.5c-0.4,0.2-0.9,0.4-1.4,0.5C102.5,342.1,102,342.2,101.5,342.2z M101.2,334.6c-0.5,0-1,0.2-1.4,0.6
	c-0.4,0.5-0.6,1-0.6,1.6h3.9c0-0.6-0.2-1.2-0.5-1.6C102.2,334.8,101.7,334.6,101.2,334.6z"/>
<path d="M110.7,342.2c-1.2,0.1-2.3-0.4-3.2-1.2c-0.8-0.9-1.2-2.1-1.1-3.2c-0.1-1.2,0.3-2.4,1.1-3.3c0.7-0.8,1.8-1.3,2.9-1.2
	c1-0.1,2,0.3,2.7,1c0.7,0.8,1.1,1.8,1,2.9v1h-5.8c0,0.7,0.2,1.4,0.7,1.9c0.5,0.5,1.1,0.7,1.8,0.7c0.5,0,1,0,1.4-0.1
	c0.5-0.1,1-0.3,1.4-0.5v1.5c-0.4,0.2-0.9,0.4-1.4,0.5C111.8,342.1,111.2,342.2,110.7,342.2z M110.4,334.6c-0.5,0-1,0.2-1.4,0.6
	c-0.4,0.5-0.6,1-0.6,1.6h3.9c0-0.6-0.2-1.2-0.5-1.6C111.4,334.8,110.9,334.6,110.4,334.6z"/>
<path d="M119.1,342.2c-1,0-1.9-0.4-2.5-1.2c-0.7-1-1-2.1-0.9-3.3c-0.1-1.2,0.3-2.3,0.9-3.3c0.6-0.8,1.5-1.2,2.5-1.2
	c1-0.1,2,0.4,2.6,1.3h0.1c-0.1-0.5-0.1-1-0.1-1.5v-3.1h1.8V342h-1.4l-0.3-1.1h-0.1C121.1,341.7,120.1,342.2,119.1,342.2z
	 M119.6,340.7c0.6,0.1,1.2-0.2,1.7-0.6c0.4-0.6,0.6-1.3,0.5-2.1v-0.3c0.1-0.8-0.1-1.6-0.5-2.3c-0.4-0.5-1-0.7-1.7-0.7
	c-0.6,0-1.2,0.3-1.5,0.8c-0.4,0.7-0.6,1.5-0.5,2.2c0,0.8,0.1,1.5,0.5,2.2C118.4,340.4,119,340.7,119.6,340.7z"/>
<path d="M141,342h-2l-1.9-6.8c-0.1-0.3-0.2-0.7-0.3-1.3s-0.2-1-0.2-1.2c0,0.3-0.1,0.8-0.3,1.3s-0.2,0.9-0.3,1.2l-1.9,6.8h-2
	l-1.5-5.7l-1.5-5.7h1.9l1.6,6.6c0.2,0.9,0.4,1.9,0.6,2.8c0.1-0.4,0.1-0.9,0.3-1.5s0.2-1,0.3-1.3l1.9-6.7h1.9l1.9,6.7
	c0.2,0.9,0.4,1.8,0.6,2.8c0.1-1,0.3-1.9,0.6-2.8l1.6-6.6h1.9L141,342z"/>
<path d="M149.2,342.2c-1.2,0.1-2.3-0.3-3.2-1.2c-0.8-0.9-1.2-2.1-1.1-3.2c-0.1-1.2,0.3-2.4,1-3.3c0.7-0.8,1.8-1.3,2.9-1.2
	c1-0.1,2,0.3,2.7,1c0.7,0.8,1.1,1.8,1,2.9v1h-5.8c0,0.7,0.2,1.4,0.7,1.9c0.5,0.5,1.1,0.7,1.8,0.7c0.5,0,1,0,1.4-0.1
	c0.5-0.1,1-0.3,1.4-0.5v1.5c-0.4,0.2-0.9,0.4-1.4,0.5C150.2,342.1,149.7,342.2,149.2,342.2z M148.9,334.6c-0.5,0-1,0.2-1.4,0.6
	c-0.4,0.5-0.6,1-0.6,1.6h3.9c0-0.6-0.1-1.2-0.5-1.6C149.9,334.8,149.4,334.6,148.9,334.6z"/>
<path d="M159.1,333.2c1,0,1.9,0.4,2.5,1.2c1.2,2,1.2,4.6,0,6.6c-0.6,0.8-1.5,1.2-2.5,1.2c-1,0.1-1.9-0.4-2.6-1.2h-0.1l-0.3,1h-1.4
	v-12.1h1.8v2.9c0,0.2,0,0.6,0,1c0,0.4,0,0.7-0.1,0.8h0.1C157.1,333.7,158,333.2,159.1,333.2z M158.6,334.7c-0.6-0.1-1.2,0.2-1.6,0.7
	c-0.4,0.7-0.6,1.4-0.5,2.2v0.1c-0.1,0.8,0.1,1.6,0.5,2.3c0.4,0.5,1,0.8,1.6,0.7c0.6,0,1.2-0.3,1.5-0.8c0.4-0.7,0.6-1.5,0.5-2.2
	C160.6,335.7,159.9,334.7,158.6,334.7z"/>
<path d="M175.5,338.9c0,0.9-0.4,1.8-1.1,2.4c-0.9,0.6-1.9,0.9-3,0.9c-1.1,0-2.2-0.2-3.2-0.6v-1.8c0.5,0.2,1.1,0.4,1.7,0.6
	c0.5,0.1,1.1,0.2,1.6,0.2c0.6,0,1.2-0.1,1.6-0.4c0.6-0.5,0.7-1.4,0.2-2.1c0-0.1-0.1-0.1-0.2-0.2c-0.6-0.5-1.3-0.8-2-1.1
	c-0.8-0.3-1.6-0.8-2.2-1.4c-0.4-0.6-0.7-1.3-0.6-2c0-0.9,0.3-1.7,1-2.2c0.8-0.6,1.7-0.9,2.7-0.8c1.1,0,2.2,0.3,3.3,0.7l-0.6,1.5
	c-0.9-0.4-1.8-0.6-2.7-0.6c-0.5,0-1,0.1-1.4,0.4c-0.3,0.2-0.5,0.6-0.5,1c0,0.3,0.1,0.5,0.2,0.8c0.2,0.2,0.4,0.5,0.6,0.6
	c0.5,0.3,1,0.5,1.5,0.7c0.7,0.3,1.3,0.6,1.9,1c0.4,0.3,0.7,0.6,0.9,1C175.5,337.9,175.6,338.4,175.5,338.9z"/>
<path d="M181.3,342.2c-1.2,0.1-2.3-0.4-3.1-1.2c-0.8-0.9-1.2-2.1-1.1-3.2c-0.1-1.2,0.3-2.4,1.1-3.3c0.7-0.8,1.8-1.3,2.9-1.2
	c1-0.1,2,0.3,2.7,1c0.7,0.8,1.1,1.8,1,2.9v1h-5.8c0,0.7,0.2,1.4,0.7,1.9c0.5,0.5,1.1,0.7,1.8,0.7c0.5,0,1,0,1.4-0.1
	c0.5-0.1,1-0.3,1.4-0.5v1.5c-0.4,0.2-0.9,0.4-1.4,0.5C182.4,342.1,181.9,342.2,181.3,342.2z M181,334.6c-0.5,0-1,0.2-1.4,0.6
	c-0.4,0.5-0.6,1-0.6,1.6h3.9c0-0.6-0.1-1.2-0.5-1.6C182,334.8,181.5,334.6,181,334.6L181,334.6z"/>
<path d="M191.2,333.2c0.3,0,0.6,0,0.9,0.1l-0.2,1.7c-0.3-0.1-0.5-0.1-0.8-0.1c-0.7,0-1.3,0.2-1.8,0.7c-0.5,0.5-0.7,1.2-0.7,1.9v4.5
	h-1.8v-8.6h1.4l0.2,1.5h0.1c0.3-0.5,0.7-0.9,1.1-1.2C190.1,333.4,190.6,333.2,191.2,333.2z"/>
<path d="M195.6,342l-3.3-8.6h1.9l1.8,5c0.3,0.7,0.4,1.3,0.6,2h0.1c0.1-0.7,0.3-1.4,0.6-2l1.8-5h1.9l-3.3,8.6H195.6z"/>
<path d="M206,342.2c-1.2,0.1-2.3-0.4-3.1-1.2c-0.8-0.9-1.2-2.1-1.1-3.2c-0.1-1.2,0.3-2.4,1.1-3.3c0.7-0.8,1.8-1.3,2.9-1.2
	c1-0.1,2,0.3,2.7,1c0.7,0.8,1.1,1.8,1,2.9v1h-5.8c0,0.7,0.2,1.4,0.7,1.9c0.5,0.5,1.1,0.7,1.8,0.7c0.5,0,1,0,1.4-0.1
	c0.5-0.1,1-0.3,1.4-0.5v1.5c-0.4,0.2-0.9,0.4-1.4,0.5C207.1,342.1,206.5,342.2,206,342.2z M205.7,334.6c-0.5,0-1,0.2-1.4,0.6
	c-0.4,0.5-0.6,1-0.6,1.6h3.9c0-0.6-0.1-1.2-0.5-1.6C206.7,334.8,206.2,334.6,205.7,334.6L205.7,334.6z"/>
<path d="M215.8,333.2c0.3,0,0.6,0,0.9,0.1l-0.2,1.7c-0.3-0.1-0.5-0.1-0.8-0.1c-0.7,0-1.3,0.2-1.8,0.7c-0.5,0.5-0.7,1.2-0.7,1.9v4.5
	h-1.8v-8.6h1.4l0.2,1.5h0.1c0.3-0.5,0.7-0.9,1.1-1.2C214.8,333.4,215.3,333.2,215.8,333.2z"/>
<path d="M52.4,382.4v4.6h-1.9v-11.4h3.2c1.2-0.1,2.3,0.2,3.3,0.8c0.7,0.6,1.1,1.5,1.1,2.5c0,1.4-0.9,2.6-2.2,3l3.2,5.1H57l-2.7-4.6
	H52.4z M52.4,380.9h1.3c0.7,0.1,1.3-0.1,1.9-0.5c0.4-0.4,0.6-0.9,0.6-1.4c0.1-0.5-0.2-1.1-0.6-1.4c-0.6-0.3-1.2-0.5-1.9-0.4h-1.2
	V380.9z"/>
<path d="M64.3,387.2c-1.2,0.1-2.3-0.4-3.1-1.2c-0.8-0.9-1.2-2.1-1.2-3.3c-0.1-1.2,0.3-2.4,1.1-3.3c0.7-0.8,1.8-1.3,2.9-1.2
	c1-0.1,2,0.3,2.7,1c0.7,0.8,1.1,1.8,1,2.9v1h-5.8c0,0.7,0.2,1.4,0.7,1.9c0.5,0.5,1.1,0.7,1.8,0.7c0.5,0,1,0,1.4-0.1
	c0.5-0.1,1-0.3,1.4-0.5v1.5c-0.4,0.2-0.9,0.4-1.4,0.5C65.4,387.1,64.8,387.2,64.3,387.2z M64,379.6c-0.5,0-1,0.2-1.4,0.6
	c-0.4,0.5-0.6,1-0.6,1.6h3.9c0-0.6-0.2-1.2-0.5-1.6C65,379.8,64.5,379.6,64,379.6z"/>
<path d="M72.7,387.2c-1,0-1.9-0.4-2.5-1.2c-0.7-1-1-2.1-0.9-3.3c-0.1-1.2,0.3-2.3,0.9-3.3c0.6-0.8,1.5-1.2,2.5-1.2
	c1-0.1,2,0.4,2.6,1.3h0.1c-0.1-0.5-0.1-1-0.1-1.5v-3.1h1.8V387h-1.4l-0.3-1.1h-0.1C74.7,386.7,73.7,387.2,72.7,387.2z M73.2,385.7
	c0.6,0.1,1.2-0.2,1.7-0.6c0.4-0.6,0.6-1.3,0.5-2.1v-0.3c0.1-0.8-0.1-1.6-0.5-2.3c-0.4-0.5-1-0.7-1.7-0.7c-0.6,0-1.2,0.3-1.5,0.8
	c-0.4,0.7-0.6,1.5-0.5,2.2c0,0.8,0.1,1.5,0.5,2.2C72,385.4,72.6,385.7,73.2,385.7z"/>
<path d="M79.6,376.1c0-0.3,0.1-0.6,0.3-0.8c0.2-0.2,0.5-0.3,0.8-0.3c0.3,0,0.5,0.1,0.8,0.3c0.2,0.2,0.3,0.5,0.3,0.8
	c0,0.5-0.3,1-0.9,1c0,0-0.1,0-0.1,0c-0.3,0-0.6-0.1-0.8-0.3C79.7,376.6,79.6,376.3,79.6,376.1z M81.6,387h-1.8v-8.6h1.8L81.6,387z"
	/>
<path d="M90,384.5c0,0.8-0.3,1.5-0.9,1.9c-0.8,0.5-1.7,0.7-2.6,0.7c-1,0-1.9-0.1-2.8-0.5v-1.6c0.9,0.4,1.8,0.7,2.8,0.7
	c1.1,0,1.7-0.3,1.7-1c0-0.2-0.1-0.4-0.2-0.5c-0.2-0.2-0.4-0.3-0.6-0.5c-0.4-0.2-0.8-0.4-1.2-0.5c-0.7-0.2-1.4-0.6-2-1.2
	c-0.4-0.4-0.6-1-0.5-1.5c0-0.7,0.3-1.3,0.9-1.7c0.7-0.5,1.6-0.7,2.4-0.6c1,0,2,0.2,2.9,0.6l-0.6,1.4c-0.7-0.3-1.5-0.5-2.3-0.6
	c-1,0-1.5,0.3-1.5,0.8c0,0.3,0.1,0.5,0.4,0.7c0.5,0.3,1.1,0.6,1.7,0.8c0.5,0.2,1.1,0.4,1.6,0.8c0.3,0.2,0.5,0.5,0.7,0.8
	C89.9,383.8,90,384.2,90,384.5z"/>
<line class="st13" x1="1" y1="358.5" x2="229.5" y2="358.5"/>
<path class="st14" d="M40.1,388.1c-1.4,0.7-8.4,3.6-9.9,4.4c-1,0.7-2.4,0.8-3.5,0.2c-1.2-0.6-8.7-3.6-10-4.2c-0.7-0.3-1-0.6-1-0.9
	v-2.6c0,0,9.8-2.1,11.3-2.7c1.1-0.6,2.4-0.6,3.5-0.1c1.3,0.5,9.4,1.9,10.7,2.4v2.5C41.2,387.5,40.9,387.8,40.1,388.1"/>
<path class="st15" d="M40.1,385.6c-1.4,0.7-8.4,3.6-9.9,4.4c-1,0.7-2.4,0.8-3.5,0.2c-1.2-0.6-8.7-3.6-10-4.2s-1.4-1.1,0-1.6
	s8.8-3.4,10.4-4c1.1-0.6,2.4-0.6,3.5-0.1c1.3,0.5,8.4,3.3,9.7,3.8S41.5,384.9,40.1,385.6"/>
<path class="st14" d="M40.1,384c-1.4,0.7-8.4,3.6-9.9,4.4c-1,0.7-2.4,0.8-3.5,0.2c-1.2-0.6-8.7-3.6-10-4.2c-0.7-0.3-1-0.6-1-0.9
	v-2.6c0,0,9.8-2.1,11.3-2.7c1.1-0.6,2.4-0.6,3.5-0.1c1.3,0.5,9.4,1.9,10.7,2.4v2.5C41.2,383.4,40.9,383.6,40.1,384"/>
<path class="st15" d="M40.1,381.4c-1.4,0.7-8.4,3.6-9.9,4.4c-1,0.7-2.4,0.8-3.5,0.2c-1.2-0.6-8.7-3.6-10-4.2s-1.4-1.1,0-1.6
	s8.8-3.5,10.4-4c1.1-0.6,2.4-0.6,3.5-0.1c1.3,0.5,8.4,3.3,9.7,3.8S41.5,380.7,40.1,381.4L40.1,381.4"/>
<path class="st14" d="M40.1,379.6c-1.4,0.7-8.4,3.6-9.9,4.4c-1,0.7-2.4,0.8-3.5,0.2c-1.2-0.6-8.7-3.6-10-4.2c-0.7-0.3-1-0.6-1-0.9
	v-2.6c0,0,9.8-2.1,11.3-2.7c1.1-0.6,2.4-0.6,3.5-0.1c1.3,0.5,9.4,1.9,10.7,2.4v2.5C41.2,379,40.9,379.3,40.1,379.6"/>
<path class="st15" d="M40.1,377.1c-1.4,0.7-8.4,3.6-9.9,4.4c-1,0.7-2.4,0.8-3.5,0.2c-1.2-0.6-8.7-3.6-10-4.2s-1.4-1.1,0-1.6
	s8.8-3.5,10.4-4c1.1-0.6,2.4-0.6,3.5-0.1c1.3,0.5,8.4,3.3,9.7,3.8S41.5,376.4,40.1,377.1"/>
<path class="st0" d="M31.5,374.6l-2.2,0.2l-0.5,1.2l-0.8-1.3l-2.5-0.2l1.9-0.7l-0.6-1l1.8,0.7l1.7-0.5l-0.5,1.1L31.5,374.6"/>
<path class="st0" d="M28.6,380.3l-4.1-1.7l5.9-0.9L28.6,380.3"/>
<path class="st0" d="M23,375.2c1.7,0,3.1,0.5,3.1,1.2s-1.4,1.2-3.1,1.2s-3.1-0.5-3.1-1.2S21.3,375.2,23,375.2"/>
<path class="st16" d="M34.1,374.9l3.5,1.4l-3.5,1.4V374.9"/>
<path class="st17" d="M30.2,376.4l3.8-1.5v2.7l-0.4,0.1L30.2,376.4"/>
<path class="st18" d="M39.1,336.3l-6.7-6.7l-2.9,3.6l3.1,3.1c0.3,0.3,0.3,0.7,0,1l-0.9,0.9c0,0,0.6,0.9,0.6,1
	c0.2,0.4,0.1,0.9-0.2,1.2l-7,5.4c0,1.8,0,5.5,0,5.5l14-14C39.4,337.1,39.4,336.6,39.1,336.3C39.1,336.3,39.1,336.3,39.1,336.3z"/>
<path class="st19" d="M23.5,337.2c-0.3-0.3-0.3-0.7,0-1l0.9-0.9l-0.6-0.9c-0.3-0.4-0.2-1.1,0.2-1.4l7-5.4v-5.5l0,0l-14,14
	c-0.3,0.3-0.3,0.7,0,1l6.7,6.7l2.9-3.6L23.5,337.2z"/>
<polygon class="st0" points="28.2,341.6 28.2,341.6 24.9,344.9 "/>
<path class="st18" d="M34.5,325.5c0.1,0,0.2,0.1,0.2,0.1c0.1,0.1,0,0.3-0.1,0.4l-6.2,7.8c-0.1,0.1-0.1,0.3,0,0.5c0,0,3.3,4.8,3.5,5
	c0.1,0.3,0.1,0.7-0.2,0.9l-9.9,7.6c-0.1,0.1-0.2,0.1-0.3,0.1c-0.1,0-0.2-0.1-0.2-0.1c0-0.2,0-0.3,0.1-0.4l6.2-7.8
	c0.1-0.1,0.1-0.3,0-0.5l-3.4-5c-0.2-0.3-0.2-0.8,0.1-1l9.9-7.6C34.3,325.5,34.4,325.4,34.5,325.5 M34.6,325.3
	c-0.1,0-0.3,0.1-0.4,0.2l-9.9,7.6c-0.4,0.3-0.4,0.8-0.2,1.2l3.4,5c0,0.1,0,0.2,0,0.3l-6.2,7.8c-0.1,0.1-0.2,0.4-0.1,0.5
	c0.1,0.1,0.2,0.2,0.3,0.2c0.1,0,0.3-0.1,0.4-0.2l9.9-7.6c0.3-0.3,0.4-0.7,0.2-1.1c-0.1-0.2-3.4-5-3.4-5c-0.1-0.1-0.1-0.2,0-0.3
	l6.2-7.8c0.2-0.1,0.2-0.4,0.1-0.6C34.8,325.4,34.7,325.3,34.6,325.3L34.6,325.3z"/>
<path class="st20" d="M31.7,339.3c0.1,0.1,0.1,0.6,0,0.7l-9.9,7.6c0,0-0.1,0.1-0.2,0.1c0,0,0-0.1,0.1-0.2l6.2-7.8
	c0.1-0.2,0.1-0.5,0-0.7l-3.4-5C24.4,334.1,31.6,339.2,31.7,339.3z"/>
<path class="st21" d="M31.7,339.3l-3.4-4.9c-0.2-0.2-0.2-0.5,0-0.7l6.2-7.8c0.1-0.1,0.1-0.2,0.1-0.2c-0.1,0-0.1,0-0.2,0.1l-9.9,7.6
	c-0.2,0.2-0.2,0.4-0.1,0.6L31.7,339.3z"/>
<line class="st12" x1="377" y1="296" x2="377" y2="311"/>
<line class="st12" x1="378" y1="296.5" x2="112" y2="296.5"/>
<line class="st12" x1="244" y1="197" x2="244" y2="212"/>
<line class="st12" x1="112" y1="212" x2="112" y2="227"/>
<line class="st12" x1="377" y1="212" x2="377" y2="227"/>
<line class="st12" x1="378" y1="212.5" x2="112" y2="212.5"/>
<line class="st12" x1="112" y1="296" x2="112" y2="281"/>
<line class="st12" x1="377" y1="296" x2="377" y2="281"/>
<line class="st12" x1="243.8" y1="541" x2="243.8" y2="526"/>
<path class="st0" d="M294.4,543.5h40.7c2,0,3.7,1.6,3.7,3.7v40.7c0,2-1.6,3.7-3.7,3.7h-40.7c-2,0-3.7-1.6-3.7-3.7v-40.7
	C290.8,545.1,292.4,543.5,294.4,543.5z"/>
<path class="st1" d="M335.1,544.5c1.5,0,2.7,1.2,2.7,2.7v40.7c0,1.5-1.2,2.7-2.7,2.7h-40.7c-1.5,0-2.7-1.2-2.7-2.7v-40.7
	c0-1.5,1.2-2.7,2.7-2.7H335.1 M335.1,542.5h-40.7c-2.6,0-4.6,2.1-4.7,4.7v40.7c0,2.6,2.1,4.6,4.7,4.7h40.7c2.6,0,4.6-2.1,4.7-4.7
	v-40.7C339.7,544.6,337.7,542.5,335.1,542.5z"/>
<line class="st12" x1="314.8" y1="541" x2="314.8" y2="526"/>
<path class="st0" d="M157.4,543.5h40.7c2,0,3.7,1.6,3.7,3.7v40.7c0,2-1.6,3.7-3.7,3.7h-40.7c-2,0-3.7-1.6-3.7-3.7v-40.7
	C153.8,545.1,155.4,543.5,157.4,543.5z"/>
<path class="st1" d="M198.1,544.5c1.5,0,2.7,1.2,2.7,2.7v40.7c0,1.5-1.2,2.7-2.7,2.7h-40.7c-1.5,0-2.7-1.2-2.7-2.7v-40.7
	c0-1.5,1.2-2.7,2.7-2.7H198.1 M198.1,542.5h-40.7c-2.6,0-4.6,2.1-4.7,4.7v40.7c0,2.6,2.1,4.6,4.7,4.7h40.7c2.6,0,4.6-2.1,4.7-4.7
	v-40.7C202.7,544.6,200.7,542.5,198.1,542.5z"/>
<line class="st12" x1="177.8" y1="541" x2="177.8" y2="526"/>
<path class="st0" d="M223.4,438.5h40.7c2,0,3.7,1.6,3.7,3.7v40.7c0,2-1.6,3.7-3.7,3.7h-40.7c-2,0-3.7-1.6-3.7-3.7v-40.7
	C219.8,440.1,221.4,438.5,223.4,438.5z"/>
<path class="st1" d="M264.1,439.5c1.5,0,2.7,1.2,2.7,2.7l0,0v40.7c0,1.5-1.2,2.7-2.7,2.7l0,0h-40.7c-1.5,0-2.7-1.2-2.7-2.7l0,0
	v-40.7c0-1.5,1.2-2.7,2.7-2.7l0,0H264.1 M264.1,437.5h-40.7c-2.6,0-4.6,2.1-4.7,4.7v40.7c0,2.6,2.1,4.6,4.7,4.7h40.7
	c2.6,0,4.6-2.1,4.7-4.7v-40.7C268.7,439.6,266.7,437.5,264.1,437.5z"/>
<line class="st12" x1="243.8" y1="436" x2="243.8" y2="421"/>
<path class="st0" d="M294.4,438.5h40.7c2,0,3.7,1.6,3.7,3.7v40.7c0,2-1.6,3.7-3.7,3.7h-40.7c-2,0-3.7-1.6-3.7-3.7v-40.7
	C290.8,440.1,292.4,438.5,294.4,438.5z"/>
<path class="st1" d="M335.1,439.5c1.5,0,2.7,1.2,2.7,2.7l0,0v40.7c0,1.5-1.2,2.7-2.7,2.7l0,0h-40.7c-1.5,0-2.7-1.2-2.7-2.7l0,0
	v-40.7c0-1.5,1.2-2.7,2.7-2.7l0,0H335.1 M335.1,437.5h-40.7c-2.6,0-4.6,2.1-4.7,4.7v40.7c0,2.6,2.1,4.6,4.7,4.7h40.7
	c2.6,0,4.6-2.1,4.7-4.7v-40.7C339.7,439.6,337.7,437.5,335.1,437.5z"/>
<line class="st12" x1="314.8" y1="436" x2="314.8" y2="421"/>
<path class="st0" d="M157.4,438.5h40.7c2,0,3.7,1.6,3.7,3.7v40.7c0,2-1.6,3.7-3.7,3.7h-40.7c-2,0-3.7-1.6-3.7-3.7v-40.7
	C153.8,440.1,155.4,438.5,157.4,438.5z"/>
<path class="st1" d="M198.1,439.5c1.5,0,2.7,1.2,2.7,2.7l0,0v40.7c0,1.5-1.2,2.7-2.7,2.7l0,0h-40.7c-1.5,0-2.7-1.2-2.7-2.7l0,0
	v-40.7c0-1.5,1.2-2.7,2.7-2.7l0,0H198.1 M198.1,437.5h-40.7c-2.6,0-4.6,2.1-4.7,4.7v40.7c0,2.6,2.1,4.6,4.7,4.7h40.7
	c2.6,0,4.6-2.1,4.7-4.7v-40.7C202.7,439.6,200.7,437.5,198.1,437.5z"/>
<line class="st12" x1="177.8" y1="436" x2="177.8" y2="421"/>
<line class="st12" x1="154" y1="421" x2="154" y2="406"/>
<line class="st12" x1="112" y1="525.5" x2="112" y2="406"/>
<line class="st12" x1="377" y1="525.5" x2="377" y2="406"/>
<line class="st12" x1="335" y1="421" x2="335" y2="406"/>
<line class="st12" x1="334.5" y1="420.5" x2="153.5" y2="420.5"/>
<line class="st12" x1="377.5" y1="525.5" x2="111.5" y2="525.5"/>
<path class="st22" d="M178,574.7c-6,0-10.9-1.7-10.9-3.9v5.7l0,0c0.3,2,5.1,3.6,10.9,3.6s10.6-1.6,10.9-3.6l0,0v-5.7
	C188.9,572.9,184,574.7,178,574.7z"/>
<path class="st22" d="M167.1,570.6v0.2C167.1,570.7,167.1,570.6,167.1,570.6z"/>
<path class="st22" d="M188.9,570.6c0,0.1,0,0.1,0,0.2V570.6z"/>
<path class="st23" d="M178,569.2c-6,0-10.9-1.7-10.9-3.9v5.7l0,0c0.3,2,5.1,3.6,10.9,3.6s10.6-1.6,10.9-3.6l0,0v-5.7
	C188.9,567.5,184,569.2,178,569.2z"/>
<path class="st23" d="M167.1,565.1v0.2C167.1,565.3,167.1,565.2,167.1,565.1z"/>
<path class="st23" d="M188.9,565.1c0,0.1,0,0.2,0,0.2V565.1z"/>
<ellipse class="st23" cx="178" cy="559.9" rx="10.9" ry="3.9"/>
<path class="st22" d="M178,563.7c-6,0-10.9-1.7-10.9-3.9v5.7l0,0c0.3,2,5.1,3.6,10.9,3.6s10.6-1.6,10.9-3.6l0,0v-5.7
	C188.9,562,184,563.7,178,563.7z"/>
<path class="st22" d="M167.1,559.6v0.2C167.1,559.8,167.1,559.7,167.1,559.6z"/>
<path class="st22" d="M188.9,559.6c0,0.1,0,0.2,0,0.2V559.6z"/>
<path class="st22" d="M243.8,574.7c-6,0-10.9-1.7-10.9-3.9v5.7l0,0c0.3,2,5.1,3.6,10.9,3.6s10.6-1.6,10.9-3.6l0,0v-5.7
	C254.8,572.9,249.9,574.7,243.8,574.7z"/>
<path class="st22" d="M232.9,570.6v0.2C232.9,570.7,232.9,570.6,232.9,570.6z"/>
<path class="st22" d="M254.7,570.6c0,0.1,0,0.1,0,0.2V570.6z"/>
<path class="st23" d="M243.8,569.2c-6,0-10.9-1.7-10.9-3.9v5.7l0,0c0.3,2,5.1,3.6,10.9,3.6s10.6-1.6,10.9-3.6l0,0v-5.7
	C254.8,567.5,249.9,569.2,243.8,569.2z"/>
<path class="st23" d="M232.9,565.1v0.2C232.9,565.3,232.9,565.2,232.9,565.1z"/>
<path class="st23" d="M254.7,565.1c0,0.1,0,0.2,0,0.2V565.1z"/>
<ellipse class="st23" cx="243.8" cy="559.9" rx="10.9" ry="3.9"/>
<path class="st22" d="M243.8,563.7c-6,0-10.9-1.7-10.9-3.9v5.7l0,0c0.3,2,5.1,3.6,10.9,3.6s10.6-1.6,10.9-3.6l0,0v-5.7
	C254.8,562,249.9,563.7,243.8,563.7z"/>
<path class="st22" d="M232.9,559.6v0.2C232.9,559.8,232.9,559.7,232.9,559.6z"/>
<path class="st22" d="M254.7,559.6c0,0.1,0,0.2,0,0.2V559.6z"/>
<path class="st22" d="M314.8,574.7c-6,0-10.9-1.7-10.9-3.9v5.7l0,0c0.3,2,5.1,3.6,10.9,3.6s10.6-1.6,10.9-3.6l0,0v-5.7
	C325.8,572.9,320.9,574.7,314.8,574.7z"/>
<path class="st22" d="M303.9,570.6v0.2C303.9,570.7,303.9,570.6,303.9,570.6z"/>
<path class="st22" d="M325.7,570.6c0,0.1,0,0.1,0,0.2V570.6z"/>
<path class="st23" d="M314.8,569.2c-6,0-10.9-1.7-10.9-3.9v5.7l0,0c0.3,2,5.1,3.6,10.9,3.6s10.6-1.6,10.9-3.6l0,0v-5.7
	C325.8,567.5,320.9,569.2,314.8,569.2z"/>
<path class="st23" d="M303.9,565.1v0.2C303.9,565.3,303.9,565.2,303.9,565.1z"/>
<path class="st23" d="M325.7,565.1c0,0.1,0,0.2,0,0.2V565.1z"/>
<ellipse class="st23" cx="314.8" cy="559.9" rx="10.9" ry="3.9"/>
<path class="st22" d="M314.8,563.7c-6,0-10.9-1.7-10.9-3.9v5.7l0,0c0.3,2,5.1,3.6,10.9,3.6s10.6-1.6,10.9-3.6l0,0v-5.7
	C325.8,562,320.9,563.7,314.8,563.7z"/>
<path class="st22" d="M303.9,559.6v0.2C303.9,559.8,303.9,559.7,303.9,559.6z"/>
<path class="st22" d="M325.7,559.6c0,0.1,0,0.2,0,0.2V559.6z"/>
<circle class="st24" cx="238.5" cy="358.5" r="1.5"/>
<circle class="st24" cx="244.5" cy="358.5" r="1.5"/>
<circle class="st24" cx="250.5" cy="358.5" r="1.5"/>
<circle class="st24" cx="238.5" cy="254.5" r="1.5"/>
<circle class="st24" cx="244.5" cy="254.5" r="1.5"/>
<circle class="st24" cx="250.5" cy="254.5" r="1.5"/>
<path class="st25" d="M177.5,458.6c-1.3,0-2.4,1.1-2.4,2.4c0,1.3,1.1,2.4,2.4,2.4s2.4-1.1,2.4-2.4c0,0,0,0,0,0
	C179.9,459.7,178.8,458.6,177.5,458.6z M177.5,462.7c-0.9,0-1.7-0.8-1.7-1.7s0.8-1.7,1.7-1.7c0.9,0,1.7,0.8,1.7,1.7l0,0
	C179.2,461.9,178.4,462.7,177.5,462.7L177.5,462.7L177.5,462.7z"/>
<path class="st25" d="M184.2,450.8h-13.5c-0.8,0-1.4,0.6-1.4,1.4l0,0v20.4c0,0.8,0.6,1.4,1.4,1.4l0,0h13.5c0.8,0,1.4-0.6,1.4-1.4
	l0,0v-20.4C185.7,451.4,185,450.8,184.2,450.8L184.2,450.8z M171.6,452.3c0.4,0,0.7,0.4,0.6,0.8c0,0.3-0.3,0.6-0.6,0.6
	c-0.4,0-0.7-0.2-0.8-0.6c0-0.4,0.2-0.7,0.6-0.8C171.4,452.3,171.5,452.3,171.6,452.3z M171.6,472.5c-0.4,0-0.7-0.3-0.7-0.7
	c0-0.4,0.3-0.7,0.7-0.7s0.7,0.3,0.7,0.7c0,0,0,0,0,0C172.3,472.2,171.9,472.5,171.6,472.5C171.6,472.5,171.6,472.5,171.6,472.5z
	 M178.2,467.3v-2c0-0.2-0.1-0.4-0.3-0.4c0,0,0,0,0,0c-0.2,0-0.4,0.2-0.4,0.4v2.9c0,0.1,0,0.2-0.1,0.2l-1.6,1.6
	c-0.1,0.1-0.2,0.1-0.3,0.1c-0.1,0-0.2,0-0.2-0.1c-0.1-0.1-0.1-0.4,0-0.5c0,0,0,0,0,0l1.4-1.5v-0.7c-3.5-0.4-6-3.5-5.6-7
	c0.4-3.5,3.5-6,7-5.6c3.5,0.4,6,3.5,5.6,7C183.5,464.7,181.2,467,178.2,467.3L178.2,467.3z M183.4,472.5c-0.4,0-0.7-0.4-0.6-0.8
	c0-0.3,0.3-0.6,0.6-0.6c0.4,0,0.7,0.2,0.8,0.6c0,0.4-0.2,0.7-0.6,0.8C183.5,472.5,183.5,472.5,183.4,472.5z M183.4,453.8
	c-0.4,0-0.7-0.3-0.7-0.7c0-0.4,0.3-0.7,0.7-0.7c0.4,0,0.7,0.3,0.7,0.7l0,0C184.1,453.4,183.8,453.8,183.4,453.8z"/>
<path class="st25" d="M244.5,458.6c-1.3,0-2.4,1.1-2.4,2.4c0,1.3,1.1,2.4,2.4,2.4s2.4-1.1,2.4-2.4c0,0,0,0,0,0
	C246.9,459.7,245.8,458.6,244.5,458.6z M244.5,462.7c-0.9,0-1.7-0.8-1.7-1.7s0.8-1.7,1.7-1.7c0.9,0,1.7,0.8,1.7,1.7l0,0
	C246.2,461.9,245.4,462.7,244.5,462.7L244.5,462.7L244.5,462.7z"/>
<path class="st25" d="M251.2,450.8h-13.5c-0.8,0-1.4,0.6-1.4,1.4l0,0v20.4c0,0.8,0.6,1.4,1.4,1.4l0,0h13.5c0.8,0,1.4-0.6,1.4-1.4
	l0,0v-20.4C252.7,451.4,252,450.8,251.2,450.8L251.2,450.8z M238.6,452.3c0.4,0,0.7,0.4,0.6,0.8c0,0.3-0.3,0.6-0.6,0.6
	c-0.4,0-0.7-0.2-0.8-0.6c0-0.4,0.2-0.7,0.6-0.8C238.4,452.3,238.5,452.3,238.6,452.3z M238.6,472.5c-0.4,0-0.7-0.3-0.7-0.7
	c0-0.4,0.3-0.7,0.7-0.7s0.7,0.3,0.7,0.7c0,0,0,0,0,0C239.3,472.2,238.9,472.5,238.6,472.5C238.6,472.5,238.6,472.5,238.6,472.5z
	 M245.2,467.3v-2c0-0.2-0.1-0.4-0.3-0.4c0,0,0,0,0,0c-0.2,0-0.4,0.2-0.4,0.4v2.9c0,0.1,0,0.2-0.1,0.2l-1.6,1.6
	c-0.1,0.1-0.2,0.1-0.3,0.1c-0.1,0-0.2,0-0.2-0.1c-0.1-0.1-0.1-0.4,0-0.5c0,0,0,0,0,0l1.4-1.5v-0.7c-3.5-0.4-6-3.5-5.6-7
	c0.4-3.5,3.5-6,7-5.6c3.5,0.4,6,3.5,5.6,7C250.5,464.7,248.2,467,245.2,467.3L245.2,467.3z M250.4,472.5c-0.4,0-0.7-0.4-0.6-0.8
	c0-0.3,0.3-0.6,0.6-0.6c0.4,0,0.7,0.2,0.8,0.6c0,0.4-0.2,0.7-0.6,0.8C250.5,472.5,250.5,472.5,250.4,472.5z M250.4,453.8
	c-0.4,0-0.7-0.3-0.7-0.7c0-0.4,0.3-0.7,0.7-0.7c0.4,0,0.7,0.3,0.7,0.7l0,0C251.1,453.4,250.8,453.8,250.4,453.8z"/>
<path class="st25" d="M314.5,458.6c-1.3,0-2.4,1.1-2.4,2.4c0,1.3,1.1,2.4,2.4,2.4c1.3,0,2.4-1.1,2.4-2.4c0,0,0,0,0,0
	C316.9,459.7,315.8,458.6,314.5,458.6z M314.5,462.7c-0.9,0-1.7-0.8-1.7-1.7c0-0.9,0.8-1.7,1.7-1.7c0.9,0,1.7,0.8,1.7,1.7l0,0
	C316.2,461.9,315.4,462.7,314.5,462.7C314.5,462.7,314.5,462.7,314.5,462.7L314.5,462.7z"/>
<path class="st25" d="M321.2,450.8h-13.5c-0.8,0-1.4,0.6-1.4,1.4l0,0v20.4c0,0.8,0.6,1.4,1.4,1.4l0,0h13.5c0.8,0,1.4-0.6,1.4-1.4
	l0,0v-20.4C322.7,451.4,322,450.8,321.2,450.8L321.2,450.8z M308.6,452.3c0.4,0,0.7,0.4,0.6,0.8c0,0.3-0.3,0.6-0.6,0.6
	c-0.4,0-0.7-0.2-0.8-0.6c0-0.4,0.2-0.7,0.6-0.8C308.4,452.3,308.5,452.3,308.6,452.3z M308.6,472.5c-0.4,0-0.7-0.3-0.7-0.7
	c0-0.4,0.3-0.7,0.7-0.7c0.4,0,0.7,0.3,0.7,0.7c0,0,0,0,0,0C309.3,472.2,308.9,472.5,308.6,472.5L308.6,472.5z M315.2,467.3v-2
	c0-0.2-0.1-0.4-0.3-0.4c0,0,0,0,0,0c-0.2,0-0.4,0.2-0.4,0.4v2.9c0,0.1,0,0.2-0.1,0.2l-1.5,1.6c-0.1,0.1-0.2,0.1-0.3,0.1
	c-0.1,0-0.2,0-0.2-0.1c-0.1-0.1-0.1-0.4,0-0.5c0,0,0,0,0,0l1.5-1.5v-0.7c-3.5-0.4-6-3.5-5.6-7c0.4-3.5,3.5-6,7-5.6
	c3.5,0.4,6,3.5,5.6,7C320.5,464.7,318.2,467,315.2,467.3L315.2,467.3z M320.4,472.5c-0.4,0-0.7-0.4-0.6-0.8c0-0.3,0.3-0.6,0.6-0.6
	c0.4,0,0.7,0.2,0.8,0.6c0,0.4-0.2,0.7-0.6,0.8C320.5,472.5,320.5,472.5,320.4,472.5z M320.4,453.8c-0.4,0-0.7-0.3-0.7-0.7
	c0-0.4,0.3-0.7,0.7-0.7c0.4,0,0.7,0.3,0.7,0.7c0,0,0,0,0,0C321.1,453.4,320.8,453.8,320.4,453.8z"/>
<path class="st0" d="M10,230h210c5,0,9,4,9,9v30c0,5-4,9-9,9H10c-5,0-9-4-9-9v-30C1,234,5,230,10,230z"/>
<path class="st1" d="M220,231c4.4,0,8,3.6,8,8v30c0,4.4-3.6,8-8,8H10c-4.4,0-8-3.6-8-8v-30c0-4.4,3.6-8,8-8H220 M220,229H10
	c-5.5,0-10,4.5-10,10v30c0,5.5,4.5,10,10,10h210c5.5,0,10-4.5,10-10v-30C230,233.5,225.5,229,220,229z"/>
<path d="M55.5,261v-11.4h1.9v9.8h4.8v1.6H55.5z"/>
<path d="M63.9,250.1c0-0.3,0.1-0.6,0.3-0.8c0.2-0.2,0.5-0.3,0.8-0.3c0.3,0,0.6,0.1,0.8,0.3c0.2,0.2,0.3,0.5,0.3,0.8
	c0,0.3-0.1,0.5-0.3,0.7c-0.2,0.2-0.5,0.3-0.8,0.3c-0.3,0-0.6-0.1-0.8-0.3C64,250.6,63.9,250.3,63.9,250.1z M65.8,261H64v-8.6h1.8
	L65.8,261z"/>
<path d="M71.7,259.7c0.5,0,0.9-0.1,1.3-0.2v1.4c-0.3,0.1-0.5,0.2-0.8,0.2c-0.3,0.1-0.7,0.1-1,0.1c-1.7,0-2.6-0.9-2.6-2.8v-4.7h-1.2
	v-0.8l1.3-0.7l0.6-1.8h1.1v1.9h2.5v1.4h-2.5v4.6c0,0.4,0.1,0.7,0.3,1C71,259.6,71.3,259.7,71.7,259.7z"/>
<path d="M78.5,261.2c-1.2,0.1-2.3-0.3-3.2-1.2c-0.8-0.9-1.2-2.1-1.1-3.2c-0.1-1.2,0.3-2.4,1-3.3c0.7-0.8,1.8-1.3,2.9-1.2
	c1-0.1,2,0.3,2.7,1c0.7,0.8,1.1,1.8,1,2.9v1h-5.7c0,0.7,0.2,1.4,0.7,1.9c0.5,0.5,1.1,0.7,1.8,0.7c0.5,0,1,0,1.4-0.1
	c0.5-0.1,1-0.3,1.4-0.5v1.5c-0.4,0.2-0.9,0.4-1.4,0.5C79.6,261.1,79,261.2,78.5,261.2z M78.2,253.6c-0.5,0-1,0.2-1.4,0.6
	c-0.4,0.5-0.6,1-0.6,1.6h3.9c0-0.6-0.1-1.2-0.5-1.6C79.2,253.8,78.7,253.6,78.2,253.6z"/>
<path d="M90.7,257.9c0,0.9-0.4,1.8-1.1,2.4c-0.9,0.6-1.9,0.9-3,0.9c-1.1,0-2.2-0.2-3.2-0.6v-1.8c0.5,0.2,1.1,0.4,1.7,0.6
	c0.5,0.1,1.1,0.2,1.6,0.2c0.6,0,1.2-0.1,1.6-0.4c0.3-0.3,0.5-0.7,0.5-1.1c0-0.4-0.2-0.8-0.5-1.1c-0.6-0.5-1.3-0.8-2-1.1
	c-0.8-0.3-1.6-0.8-2.2-1.4c-0.5-0.6-0.7-1.3-0.7-2c0-0.9,0.3-1.7,1-2.2c0.8-0.6,1.8-0.9,2.7-0.8c1.1,0,2.2,0.3,3.3,0.7l-0.6,1.6
	c-0.9-0.4-1.8-0.6-2.7-0.6c-0.5,0-1,0.1-1.4,0.4c-0.3,0.2-0.5,0.6-0.5,1c0,0.3,0.1,0.5,0.2,0.8c0.2,0.2,0.4,0.5,0.6,0.6
	c0.5,0.3,1,0.5,1.6,0.7c0.7,0.3,1.3,0.6,1.8,1c0.4,0.3,0.7,0.6,0.9,1C90.7,256.9,90.8,257.4,90.7,257.9z"/>
<path d="M97.1,261.2c-1,0.1-1.9-0.4-2.5-1.2h-0.1c0.1,0.7,0.1,1.2,0.1,1.3v3.5h-1.8v-12.5h1.5c0,0.2,0.1,0.6,0.3,1.2h0.1
	c0.6-0.9,1.5-1.4,2.6-1.3c1,0,1.9,0.4,2.5,1.2c0.7,1,1,2.1,0.9,3.3c0.1,1.2-0.3,2.3-0.9,3.3C99.1,260.8,98.1,261.2,97.1,261.2z
	 M96.7,253.7c-0.6,0-1.2,0.2-1.6,0.6c-0.4,0.6-0.6,1.3-0.5,2v0.3c-0.1,0.8,0.1,1.6,0.5,2.3c0.4,0.5,1,0.8,1.6,0.7
	c0.6,0,1.2-0.3,1.5-0.8c0.4-0.7,0.6-1.5,0.5-2.2c0.1-0.8-0.1-1.5-0.5-2.2C97.8,253.9,97.3,253.7,96.7,253.7z"/>
<path d="M106.5,261.2c-1.2,0.1-2.3-0.4-3.2-1.2c-0.8-0.9-1.2-2.1-1.1-3.2c-0.1-1.2,0.3-2.4,1.1-3.3c0.7-0.8,1.8-1.3,2.9-1.2
	c1-0.1,2,0.3,2.7,1c0.7,0.8,1.1,1.8,1,2.9v1h-5.8c0,0.7,0.2,1.4,0.7,1.9c0.5,0.5,1.1,0.7,1.8,0.7c0.5,0,1,0,1.4-0.1
	c0.5-0.1,1-0.3,1.4-0.5v1.5c-0.4,0.2-0.9,0.4-1.4,0.5C107.6,261.1,107,261.2,106.5,261.2z M106.2,253.6c-0.5,0-1,0.2-1.4,0.6
	c-0.4,0.5-0.6,1-0.6,1.6h3.9c0-0.6-0.2-1.2-0.5-1.6C107.2,253.8,106.7,253.6,106.2,253.6z"/>
<path d="M115.7,261.2c-1.2,0.1-2.3-0.4-3.2-1.2c-0.8-0.9-1.2-2.1-1.1-3.2c-0.1-1.2,0.3-2.4,1.1-3.3c0.7-0.8,1.8-1.3,2.9-1.2
	c1-0.1,2,0.3,2.7,1c0.7,0.8,1.1,1.8,1,2.9v1h-5.8c0,0.7,0.2,1.4,0.7,1.9c0.5,0.5,1.1,0.7,1.8,0.7c0.5,0,1,0,1.4-0.1
	c0.5-0.1,1-0.3,1.4-0.5v1.5c-0.4,0.2-0.9,0.4-1.4,0.5C116.8,261.1,116.2,261.2,115.7,261.2z M115.4,253.6c-0.5,0-1,0.2-1.4,0.6
	c-0.4,0.5-0.6,1-0.6,1.6h3.9c0-0.6-0.2-1.2-0.5-1.6C116.4,253.8,115.9,253.6,115.4,253.6z"/>
<path d="M124.1,261.2c-1,0-1.9-0.4-2.5-1.2c-0.7-1-1-2.1-0.9-3.3c-0.1-1.2,0.3-2.3,0.9-3.3c0.6-0.8,1.5-1.2,2.5-1.2
	c1-0.1,2,0.4,2.6,1.3h0.1c-0.1-0.5-0.1-1-0.1-1.5v-3.1h1.8V261h-1.4l-0.3-1.1h-0.1C126.1,260.7,125.1,261.2,124.1,261.2z
	 M124.6,259.7c0.6,0.1,1.2-0.2,1.7-0.6c0.4-0.6,0.6-1.3,0.5-2.1v-0.3c0.1-0.8-0.1-1.6-0.5-2.3c-0.4-0.5-1-0.7-1.7-0.7
	c-0.6,0-1.2,0.3-1.5,0.8c-0.4,0.7-0.6,1.5-0.5,2.2c0,0.8,0.1,1.5,0.5,2.2C123.4,259.4,124,259.7,124.6,259.7z"/>
<path d="M146,261h-2l-1.9-6.8c-0.1-0.3-0.2-0.7-0.3-1.3s-0.2-1-0.2-1.2c0,0.3-0.1,0.8-0.3,1.3s-0.2,0.9-0.3,1.2l-1.9,6.8h-2
	l-1.5-5.7l-1.5-5.7h1.9l1.6,6.7c0.2,0.9,0.4,1.9,0.6,2.8c0.1-0.4,0.1-0.9,0.3-1.5s0.2-1,0.3-1.3l1.9-6.7h1.9l1.9,6.7
	c0.2,0.9,0.4,1.8,0.6,2.8c0.1-1,0.3-1.9,0.6-2.8l1.6-6.6h1.9L146,261z"/>
<path d="M154.2,261.2c-1.2,0.1-2.3-0.3-3.2-1.2c-0.8-0.9-1.2-2.1-1.1-3.2c-0.1-1.2,0.3-2.4,1-3.3c0.7-0.8,1.8-1.3,2.9-1.2
	c1-0.1,2,0.3,2.7,1c0.7,0.8,1.1,1.8,1,2.9v1h-5.8c0,0.7,0.2,1.4,0.7,1.9c0.5,0.5,1.1,0.7,1.8,0.7c0.5,0,1,0,1.4-0.1
	c0.5-0.1,1-0.3,1.4-0.5v1.5c-0.4,0.2-0.9,0.4-1.4,0.5C155.2,261.1,154.7,261.2,154.2,261.2z M153.9,253.6c-0.5,0-1,0.2-1.4,0.6
	c-0.4,0.5-0.6,1-0.6,1.6h3.9c0-0.6-0.1-1.2-0.5-1.6C154.9,253.8,154.4,253.6,153.9,253.6z"/>
<path d="M164.1,252.2c1,0,1.9,0.4,2.5,1.2c1.2,2,1.2,4.6,0,6.6c-0.6,0.8-1.5,1.2-2.5,1.2c-1,0.1-1.9-0.4-2.6-1.2h-0.1l-0.3,1h-1.4
	v-12.1h1.8v2.9c0,0.2,0,0.6,0,1c0,0.4,0,0.7-0.1,0.8h0.1C162.1,252.7,163,252.2,164.1,252.2z M163.6,253.7c-0.6-0.1-1.2,0.2-1.6,0.7
	c-0.4,0.7-0.6,1.4-0.5,2.2v0.1c-0.1,0.8,0.1,1.6,0.5,2.3c0.4,0.5,1,0.8,1.6,0.7c0.6,0,1.2-0.3,1.5-0.8c0.4-0.7,0.6-1.5,0.5-2.2
	C165.6,254.7,164.9,253.7,163.6,253.7z"/>
<path d="M181,261l-1.1-3.2h-4.4l-1.1,3.2h-2l4.3-11.5h2L183,261H181z M179.4,256.2l-1.1-3.1c-0.1-0.2-0.2-0.5-0.3-1
	c-0.1-0.4-0.2-0.8-0.3-1c-0.2,0.7-0.4,1.4-0.6,2.1l-1,3L179.4,256.2z"/>
<path d="M193.8,255.2c0.1,1.6-0.5,3.2-1.6,4.3c-1.3,1.1-2.9,1.6-4.5,1.5h-3.2v-11.4h3.5c1.6-0.1,3.1,0.4,4.2,1.5
	C193.4,252.2,193.9,253.7,193.8,255.2z M191.8,255.2c0-2.7-1.3-4.1-3.8-4.1h-1.6v8.3h1.3C190.5,259.4,191.9,258,191.8,255.2
	L191.8,255.2z"/>
<path d="M201.1,251c-1,0-1.9,0.4-2.5,1.1c-1.2,1.9-1.2,4.4,0,6.3c0.6,0.7,1.6,1.1,2.6,1.1c0.5,0,0.9,0,1.4-0.1
	c0.4-0.1,0.9-0.2,1.4-0.4v1.6c-1,0.3-2,0.5-3,0.5c-1.4,0.1-2.9-0.5-3.9-1.5c-1-1.2-1.4-2.8-1.3-4.4c0-1.1,0.2-2.1,0.6-3.1
	c0.4-0.8,1.1-1.5,1.9-2c0.9-0.5,1.9-0.7,2.9-0.7c1.1,0,2.2,0.2,3.2,0.7l-0.7,1.6c-0.4-0.2-0.8-0.3-1.2-0.5
	C202.1,251.1,201.6,251,201.1,251z"/>
<path class="st18" d="M31.8,254.7c0.3,0.3,0.3,0.7,0,1c0,0,0,0,0,0l-2.4,2.3c-0.3,0.3-0.7,0.3-0.9,0c0,0,0,0,0,0l-2.4-2.4
	c-0.3-0.3-0.3-0.7,0-1c0,0,0,0,0,0l2.4-2.4c0.3-0.3,0.7-0.3,1,0L31.8,254.7z"/>
<path class="st20" d="M17,257.2c-0.2,0.2-0.4,0.2-0.6,0c0,0,0,0,0,0l-1.7-1.7c-0.2-0.2-0.2-0.4,0-0.6c0,0,0,0,0,0l1.7-1.7
	c0.2-0.2,0.4-0.2,0.6,0c0,0,0,0,0,0l1.7,1.7c0.2,0.2,0.2,0.4,0,0.6c0,0,0,0,0,0L17,257.2z"/>
<path class="st20" d="M41.4,257.2c-0.2,0.2-0.4,0.2-0.6,0c0,0,0,0,0,0l-1.7-1.7c-0.2-0.2-0.2-0.4,0-0.6c0,0,0,0,0,0l1.7-1.7
	c0.2-0.2,0.4-0.2,0.6,0c0,0,0,0,0,0l1.7,1.7c0.2,0.2,0.2,0.4,0,0.6c0,0,0,0,0,0L41.4,257.2z"/>
<path class="st19" d="M33.8,256.1c-0.1,0-0.1,0-0.2,0l-4.2,4.2c-0.2,0.2-0.6,0.2-0.8,0l-9.6-9.9c-0.5-0.5-1.2-0.8-2-0.9
	c-0.9-0.1-1.8,0.3-2.4,0.9L12,253c-0.6,0.6-0.9,1.4-0.9,2.2c0,0.1,0,0.2,0,0.3c0.1,0.7,0.4,1.4,0.9,1.9l2.6,2.6
	c0.1,0.1,0.2,0.2,0.4,0.3c0.5,0.4,1.2,0.6,1.8,0.6c0.4,0,0.8-0.1,1.2-0.2c0.4-0.2,0.7-0.4,1-0.7l2.6-2.6c0,0,0-0.1,0-0.1
	c0,0,0-0.1,0-0.1l-0.9-0.9c0,0-0.1,0-0.1,0c0,0-0.1,0-0.1,0l-2.5,2.5c-0.1,0.1-0.2,0.2-0.4,0.3c-0.4,0.3-1,0.3-1.4,0
	c-0.2-0.1-0.3-0.2-0.4-0.3l-2.5-2.5c-0.2-0.2-0.3-0.4-0.4-0.6c-0.1-0.3-0.1-0.6,0-0.9c0.1-0.3,0.2-0.6,0.4-0.8l2.5-2.5
	c0.3-0.3,0.6-0.4,1-0.4c0.1,0,0.3,0,0.4,0c0.3,0.1,0.6,0.2,0.8,0.4l9.6,10.1c0.4,0.4,0.9,0.6,1.4,0.6l0,0c0.1,0,0.2,0,0.4-0.1
	c0.2,0,0.4-0.1,0.6-0.2c0.2-0.1,0.3-0.2,0.5-0.4l4.4-4.4c0,0,0.1-0.1,0-0.2c0,0,0,0,0,0L33.8,256.1z"/>
<path class="st19" d="M46,253l-2.6-2.6c-0.5-0.5-1.2-0.9-2-0.9c-0.1,0-0.2,0-0.3,0c-0.8,0-1.5,0.4-2,0.9l-2.7,2.6c0,0.1,0,0.1,0,0.2
	l0.9,0.9c0.1,0,0.1,0,0.2,0l2.5-2.5c0.1-0.1,0.2-0.2,0.4-0.3c0.4-0.3,1-0.3,1.4,0c0.2,0.1,0.3,0.2,0.4,0.3l2.5,2.5
	c0.2,0.2,0.3,0.4,0.4,0.6c0.1,0.3,0.1,0.6,0.1,0.9c-0.1,0.3-0.2,0.6-0.4,0.8l-2.5,2.5c-0.3,0.3-0.6,0.4-1,0.5c-0.1,0-0.3,0-0.4,0
	c-0.3-0.1-0.6-0.2-0.8-0.4l-9.6-10.1c-0.1-0.1-0.3-0.2-0.4-0.3c-0.3-0.2-0.5-0.2-0.8-0.3h-0.4c-0.5,0-0.9,0.2-1.2,0.6l-4.4,4.4
	c0,0.1,0,0.1,0,0.2l1,1c0,0,0.1,0.1,0.2,0c0,0,0,0,0,0l4.2-4.2c0.2-0.2,0.6-0.2,0.8,0L39,260c1.2,1.2,3.1,1.2,4.3,0l2.7-2.6
	c0.5-0.5,0.8-1.2,0.9-1.9c0-0.1,0-0.2,0-0.3C46.9,254.4,46.6,253.6,46,253z"/>
<path class="st20" d="M27.4,257.9L27.4,257.9c-0.1,0-0.1-0.1,0-0.1l1.5-1.9c0,0,0-0.1,0-0.1l-0.8-1.2c-0.1-0.1-0.1-0.2,0-0.2
	l2.4-1.8h0.1c0,0,0,0,0,0c0,0,0,0.1,0,0.1l-1.5,1.9c0,0,0,0.1,0,0.1l0.8,1.2c0,0,0,0.2,0,0.2L27.4,257.9L27.4,257.9L27.4,257.9z"/>
<path class="st19" d="M29.6,261.8c-0.2,0.1-0.3,0.1-0.5,0.2C29.3,262,29.5,261.9,29.6,261.8z"/>
<path class="st0" d="M269,230h210c5,0,9,4,9,9v30c0,5-4,9-9,9H269c-5,0-9-4-9-9v-30C260,234,264,230,269,230z"/>
<path class="st1" d="M479,231c4.4,0,8,3.6,8,8v30c0,4.4-3.6,8-8,8H269c-4.4,0-8-3.6-8-8v-30c0-4.4,3.6-8,8-8H479 M479,229H269
	c-5.5,0-10,4.5-10,10v30c0,5.5,4.5,10,10,10h210c5.5,0,10-4.5,10-10v-30C489,233.5,484.5,229,479,229z"/>
<path d="M314.5,261v-11.4h1.9v9.8h4.8v1.6H314.5z"/>
<path d="M322.9,250.1c0-0.3,0.1-0.6,0.3-0.8c0.2-0.2,0.5-0.3,0.8-0.3c0.3,0,0.6,0.1,0.8,0.3c0.2,0.2,0.3,0.5,0.3,0.8
	c0,0.3-0.1,0.5-0.3,0.7c-0.2,0.2-0.5,0.3-0.8,0.3c-0.3,0-0.6-0.1-0.8-0.3C323,250.6,322.9,250.3,322.9,250.1z M324.8,261H323v-8.6
	h1.8L324.8,261z"/>
<path d="M330.7,259.7c0.5,0,0.9-0.1,1.4-0.2v1.4c-0.3,0.1-0.5,0.2-0.8,0.2c-0.3,0.1-0.7,0.1-1,0.1c-1.7,0-2.6-0.9-2.6-2.8v-4.7h-1.2
	v-0.8l1.3-0.7l0.6-1.8h1.1v1.9h2.5v1.4h-2.5v4.6c0,0.4,0.1,0.7,0.3,1C330,259.6,330.3,259.7,330.7,259.7z"/>
<path d="M337.5,261.2c-1.2,0.1-2.3-0.4-3.1-1.2c-0.8-0.9-1.2-2.1-1.1-3.2c-0.1-1.2,0.3-2.4,1-3.3c0.7-0.8,1.8-1.3,2.9-1.2
	c1-0.1,2,0.3,2.7,1c0.7,0.8,1.1,1.8,1,2.9v1h-5.8c0,0.7,0.2,1.4,0.7,1.9c0.5,0.5,1.1,0.7,1.8,0.7c0.5,0,1,0,1.4-0.1
	c0.5-0.1,1-0.3,1.4-0.5v1.5c-0.4,0.2-0.9,0.4-1.4,0.5C338.5,261.1,338,261.2,337.5,261.2z M337.2,253.6c-0.5,0-1,0.2-1.4,0.6
	c-0.4,0.5-0.6,1-0.6,1.6h3.9c0-0.6-0.1-1.2-0.5-1.6C338.2,253.8,337.7,253.6,337.2,253.6z"/>
<path d="M349.7,257.9c0,0.9-0.4,1.8-1.1,2.4c-0.9,0.6-1.9,0.9-3,0.9c-1.1,0-2.2-0.2-3.2-0.6v-1.8c0.5,0.2,1.1,0.4,1.7,0.6
	c0.5,0.1,1.1,0.2,1.6,0.2c0.6,0,1.2-0.1,1.6-0.4c0.3-0.3,0.5-0.7,0.5-1.1c0-0.4-0.2-0.8-0.5-1.1c-0.6-0.5-1.3-0.8-2-1.1
	c-0.8-0.3-1.6-0.8-2.2-1.4c-0.5-0.6-0.7-1.3-0.6-2c0-0.9,0.3-1.7,1-2.2c0.8-0.6,1.8-0.9,2.7-0.8c1.1,0,2.2,0.3,3.3,0.7l-0.6,1.5
	c-0.9-0.4-1.8-0.6-2.7-0.6c-0.5,0-1,0.1-1.4,0.4c-0.3,0.2-0.5,0.6-0.5,1c0,0.3,0.1,0.5,0.2,0.8c0.2,0.2,0.4,0.5,0.6,0.6
	c0.5,0.3,1,0.5,1.5,0.7c0.7,0.3,1.3,0.6,1.8,1c0.4,0.3,0.7,0.6,0.9,1C349.7,256.9,349.8,257.4,349.7,257.9z"/>
<path d="M356.1,261.2c-1,0.1-1.9-0.4-2.5-1.2h-0.1c0.1,0.7,0.1,1.2,0.1,1.3v3.5h-1.8v-12.5h1.5c0,0.2,0.1,0.6,0.3,1.2h0.1
	c0.6-0.9,1.5-1.4,2.6-1.3c1,0,1.9,0.4,2.5,1.2c0.7,1,1,2.1,0.9,3.3c0.1,1.2-0.3,2.3-0.9,3.3C358.1,260.8,357.1,261.2,356.1,261.2z
	 M355.7,253.7c-0.6,0-1.2,0.2-1.6,0.6c-0.4,0.6-0.6,1.3-0.5,2v0.3c-0.1,0.8,0.1,1.6,0.5,2.3c0.4,0.5,1,0.8,1.6,0.7
	c0.6,0,1.2-0.3,1.5-0.8c0.4-0.7,0.6-1.5,0.5-2.2c0.1-0.8-0.1-1.5-0.5-2.2C356.8,253.9,356.3,253.7,355.7,253.7z"/>
<path d="M365.5,261.2c-1.2,0.1-2.3-0.4-3.1-1.2c-0.8-0.9-1.2-2.1-1.1-3.2c-0.1-1.2,0.3-2.4,1.1-3.3c0.7-0.8,1.8-1.3,2.9-1.2
	c1-0.1,2,0.3,2.7,1c0.7,0.8,1.1,1.8,1,2.9v1h-5.8c0,0.7,0.2,1.4,0.7,1.9c0.5,0.5,1.1,0.7,1.8,0.7c0.5,0,1,0,1.4-0.1
	c0.5-0.1,1-0.3,1.4-0.5v1.5c-0.4,0.2-0.9,0.4-1.4,0.5C366.6,261.1,366,261.2,365.5,261.2z M365.2,253.6c-0.5,0-1,0.2-1.4,0.6
	c-0.4,0.5-0.6,1-0.6,1.6h3.9c0-0.6-0.2-1.2-0.5-1.6C366.2,253.8,365.7,253.6,365.2,253.6z"/>
<path d="M374.7,261.2c-1.2,0.1-2.3-0.4-3.1-1.2c-0.8-0.9-1.2-2.1-1.1-3.2c-0.1-1.2,0.3-2.4,1.1-3.3c0.7-0.8,1.8-1.3,2.9-1.2
	c1-0.1,2,0.3,2.7,1c0.7,0.8,1.1,1.8,1,2.9v1h-5.8c0,0.7,0.2,1.4,0.7,1.9c0.5,0.5,1.1,0.7,1.8,0.7c0.5,0,1,0,1.4-0.1
	c0.5-0.1,1-0.3,1.4-0.5v1.5c-0.4,0.2-0.9,0.4-1.4,0.5C375.8,261.1,375.2,261.2,374.7,261.2z M374.4,253.6c-0.5,0-1,0.2-1.4,0.6
	c-0.4,0.5-0.6,1-0.6,1.6h3.9c0-0.6-0.2-1.2-0.5-1.6C375.4,253.8,374.9,253.6,374.4,253.6z"/>
<path d="M383.1,261.2c-1,0-1.9-0.4-2.5-1.2c-0.7-1-1-2.1-0.9-3.3c-0.1-1.2,0.3-2.3,0.9-3.3c0.6-0.8,1.5-1.2,2.5-1.2
	c1-0.1,2,0.4,2.6,1.3h0.1c-0.1-0.5-0.1-1-0.1-1.5v-3.1h1.8V261h-1.4l-0.3-1.1h-0.1C385.1,260.7,384.1,261.2,383.1,261.2z
	 M383.6,259.7c0.6,0.1,1.2-0.2,1.6-0.6c0.4-0.6,0.6-1.3,0.5-2.1v-0.3c0.1-0.8-0.1-1.6-0.5-2.3c-0.4-0.5-1-0.7-1.7-0.7
	c-0.6,0-1.2,0.3-1.5,0.8c-0.4,0.7-0.6,1.5-0.5,2.2c0,0.8,0.1,1.5,0.5,2.2C382.4,259.4,383,259.7,383.6,259.7z"/>
<path d="M405,261h-2l-1.9-6.8c-0.1-0.3-0.2-0.7-0.3-1.3s-0.2-1-0.2-1.2c0,0.3-0.1,0.8-0.3,1.3s-0.2,0.9-0.3,1.2l-1.9,6.8h-2
	l-1.5-5.7l-1.5-5.7h1.9l1.6,6.7c0.2,0.9,0.4,1.9,0.5,2.8c0.1-0.4,0.1-0.9,0.3-1.5s0.2-1,0.3-1.3l1.9-6.7h1.9l1.9,6.7
	c0.2,0.9,0.4,1.8,0.6,2.8c0.1-1,0.3-1.9,0.6-2.8l1.6-6.6h1.9L405,261z"/>
<path d="M413.2,261.2c-1.2,0.1-2.3-0.3-3.2-1.2c-0.8-0.9-1.2-2.1-1.1-3.2c-0.1-1.2,0.3-2.4,1-3.3c0.7-0.8,1.8-1.3,2.9-1.2
	c1-0.1,2,0.3,2.7,1c0.7,0.8,1.1,1.8,1,2.9v1h-5.8c0,0.7,0.2,1.4,0.7,1.9c0.5,0.5,1.1,0.7,1.8,0.7c0.5,0,1,0,1.4-0.1
	c0.5-0.1,1-0.3,1.4-0.5v1.5c-0.4,0.2-0.9,0.4-1.4,0.5C414.2,261.1,413.7,261.2,413.2,261.2z M412.9,253.6c-0.5,0-1,0.2-1.4,0.6
	c-0.4,0.5-0.6,1-0.6,1.6h3.9c0-0.6-0.1-1.2-0.5-1.6C413.9,253.8,413.4,253.6,412.9,253.6z"/>
<path d="M423,252.2c1,0,1.9,0.4,2.5,1.2c1.2,2,1.2,4.6,0,6.6c-0.6,0.8-1.5,1.2-2.5,1.2c-1,0.1-1.9-0.4-2.5-1.2h-0.1l-0.3,1h-1.4
	v-12.1h1.8v2.9c0,0.2,0,0.6,0,1c0,0.4,0,0.7,0,0.8h0.1C421.1,252.7,422,252.2,423,252.2z M422.6,253.7c-0.6-0.1-1.2,0.2-1.6,0.7
	c-0.4,0.7-0.6,1.4-0.5,2.2v0.1c-0.1,0.8,0.1,1.6,0.5,2.3c0.4,0.5,1,0.8,1.6,0.7c0.6,0,1.2-0.3,1.5-0.8c0.4-0.7,0.6-1.5,0.5-2.2
	C424.6,254.7,423.9,253.7,422.6,253.7L422.6,253.7z"/>
<path d="M440,261l-1.1-3.2h-4.4l-1.1,3.2h-2l4.3-11.5h2L442,261H440z M438.4,256.2l-1.1-3.1c-0.1-0.2-0.2-0.5-0.3-1
	c-0.1-0.4-0.2-0.8-0.3-1c-0.2,0.7-0.4,1.4-0.6,2.1l-1,3L438.4,256.2z"/>
<path d="M452.8,255.2c0.1,1.6-0.5,3.2-1.6,4.3c-1.3,1.1-2.9,1.6-4.5,1.5h-3.2v-11.4h3.5c1.6-0.1,3.1,0.4,4.2,1.5
	C452.4,252.2,452.9,253.7,452.8,255.2z M450.8,255.2c0-2.7-1.3-4.1-3.8-4.1h-1.6v8.3h1.3C449.5,259.4,450.9,258,450.8,255.2
	L450.8,255.2z"/>
<path d="M460.1,251c-1,0-1.9,0.4-2.5,1.1c-1.2,1.9-1.2,4.4,0,6.3c0.6,0.7,1.6,1.1,2.6,1.1c0.5,0,0.9,0,1.4-0.1
	c0.5-0.1,0.9-0.2,1.4-0.4v1.6c-1,0.3-2,0.5-3,0.5c-1.4,0.1-2.9-0.5-3.9-1.5c-1-1.2-1.4-2.8-1.3-4.4c0-1.1,0.2-2.1,0.6-3.1
	c0.4-0.8,1.1-1.5,1.9-2c0.9-0.5,1.9-0.7,2.9-0.7c1.1,0,2.2,0.2,3.2,0.7l-0.7,1.6c-0.4-0.2-0.8-0.3-1.2-0.5
	C461.1,251.1,460.6,251,460.1,251z"/>
<path class="st18" d="M290.8,254.7c0.3,0.3,0.3,0.7,0,1c0,0,0,0,0,0l-2.4,2.3c-0.3,0.3-0.7,0.3-0.9,0c0,0,0,0,0,0l-2.4-2.4
	c-0.3-0.3-0.3-0.7,0-1c0,0,0,0,0,0l2.4-2.4c0.3-0.3,0.7-0.3,1,0L290.8,254.7z"/>
<path class="st20" d="M276,257.2c-0.2,0.2-0.4,0.2-0.6,0c0,0,0,0,0,0l-1.7-1.7c-0.2-0.2-0.2-0.4,0-0.6c0,0,0,0,0,0l1.7-1.7
	c0.2-0.2,0.4-0.2,0.6,0c0,0,0,0,0,0l1.7,1.7c0.2,0.2,0.2,0.4,0,0.6c0,0,0,0,0,0L276,257.2z"/>
<path class="st20" d="M300.4,257.2c-0.2,0.2-0.4,0.2-0.6,0c0,0,0,0,0,0l-1.7-1.7c-0.2-0.2-0.2-0.4,0-0.6c0,0,0,0,0,0l1.7-1.7
	c0.2-0.2,0.4-0.2,0.6,0c0,0,0,0,0,0l1.7,1.7c0.2,0.2,0.2,0.4,0,0.6c0,0,0,0,0,0L300.4,257.2z"/>
<path class="st19" d="M292.8,256.1c-0.1,0-0.1,0-0.2,0l-4.2,4.2c-0.2,0.2-0.6,0.2-0.8,0l-9.6-9.9c-0.5-0.5-1.2-0.8-2-0.9
	c-0.9-0.1-1.8,0.3-2.4,0.9L271,253c-0.6,0.6-0.9,1.4-0.9,2.2c0,0.1,0,0.2,0,0.3c0.1,0.7,0.4,1.4,0.9,1.9l2.6,2.6
	c0.1,0.1,0.2,0.2,0.4,0.3c0.5,0.4,1.2,0.6,1.8,0.6c0.4,0,0.8-0.1,1.2-0.2c0.4-0.2,0.7-0.4,1-0.7l2.6-2.6c0,0,0-0.1,0-0.1
	c0,0,0-0.1,0-0.1l-0.9-0.9c0,0-0.1,0-0.1,0c0,0-0.1,0-0.1,0l-2.5,2.5c-0.1,0.1-0.2,0.2-0.4,0.3c-0.4,0.3-1,0.3-1.4,0
	c-0.2-0.1-0.3-0.2-0.4-0.3l-2.5-2.5c-0.2-0.2-0.3-0.4-0.4-0.6c-0.1-0.3-0.1-0.6,0-0.9c0.1-0.3,0.2-0.6,0.4-0.8l2.5-2.5
	c0.3-0.3,0.6-0.4,1-0.4c0.1,0,0.3,0,0.4,0c0.3,0.1,0.6,0.2,0.8,0.4l9.6,10.1c0.4,0.4,0.9,0.6,1.4,0.6l0,0c0.1,0,0.2,0,0.4-0.1
	c0.2,0,0.4-0.1,0.6-0.2c0.2-0.1,0.3-0.2,0.5-0.4l4.4-4.4c0,0,0.1-0.1,0-0.2c0,0,0,0,0,0L292.8,256.1z"/>
<path class="st19" d="M305,253l-2.6-2.6c-0.5-0.5-1.2-0.9-2-0.9c-0.1,0-0.2,0-0.3,0c-0.8,0-1.5,0.4-2,0.9l-2.7,2.6
	c0,0.1,0,0.1,0,0.2l0.9,0.9c0.1,0,0.1,0,0.2,0l2.5-2.5c0.1-0.1,0.2-0.2,0.4-0.3c0.4-0.3,1-0.3,1.4,0c0.2,0.1,0.3,0.2,0.4,0.3
	l2.5,2.5c0.2,0.2,0.3,0.4,0.4,0.6c0.1,0.3,0.1,0.6,0.1,0.9c-0.1,0.3-0.2,0.6-0.4,0.8l-2.5,2.5c-0.3,0.3-0.6,0.4-1,0.5
	c-0.1,0-0.3,0-0.4,0c-0.3-0.1-0.6-0.2-0.8-0.4l-9.6-10.1c-0.1-0.1-0.3-0.2-0.4-0.3c-0.3-0.2-0.5-0.2-0.8-0.3h-0.4
	c-0.5,0-0.9,0.2-1.2,0.6l-4.4,4.4c0,0.1,0,0.1,0,0.2l1,1c0,0,0.1,0.1,0.2,0c0,0,0,0,0,0l4.2-4.2c0.2-0.2,0.6-0.2,0.8,0l9.6,9.8
	c1.2,1.2,3.1,1.2,4.4,0l2.6-2.6c0.5-0.5,0.8-1.2,0.9-1.9c0-0.1,0-0.2,0-0.3C305.9,254.4,305.6,253.6,305,253z"/>
<path class="st20" d="M286.4,257.9L286.4,257.9c-0.1,0-0.1-0.1,0-0.1l1.5-1.9c0,0,0-0.1,0-0.1l-0.8-1.2c-0.1-0.1-0.1-0.2,0-0.2
	l2.4-1.8c0,0,0,0,0.1,0l0,0c0,0,0,0.1,0,0.1l-1.5,1.9c0,0,0,0.1,0,0.1l0.8,1.2c0,0,0,0.2,0,0.2L286.4,257.9L286.4,257.9L286.4,257.9
	z"/>
<path class="st19" d="M288.6,261.8c-0.2,0.1-0.3,0.1-0.5,0.2C288.3,262,288.5,261.9,288.6,261.8z"/>
<path d="M213.6,505.4h4.2v5.7c-0.7,0.2-1.3,0.4-2,0.5c-0.7,0.1-1.4,0.1-2.1,0.1c-1.5,0.1-3-0.5-4-1.5c-1-1.2-1.5-2.8-1.4-4.3
	c-0.1-1.6,0.5-3.2,1.6-4.3c1.2-1.1,2.8-1.6,4.4-1.6c1.2,0,2.3,0.2,3.4,0.7l-0.7,1.5c-0.9-0.4-1.8-0.6-2.8-0.6
	c-1.1-0.1-2.1,0.4-2.9,1.1c-0.7,0.9-1.1,2-1.1,3.1c-0.1,1.1,0.3,2.3,1,3.2c0.7,0.8,1.7,1.2,2.8,1.1c0.7,0,1.3-0.1,1.9-0.2v-3h-2.4
	L213.6,505.4z"/>
<path d="M222.2,511.5h-1.8v-12.1h1.8V511.5z"/>
<path d="M230.9,511.5l-0.2-1.1h-0.1c-0.3,0.4-0.6,0.7-1.1,1c-0.5,0.2-1.1,0.4-1.6,0.3c-0.9,0.1-1.7-0.2-2.3-0.8
	c-0.6-0.7-0.8-1.5-0.8-2.4v-5.6h1.9v5.3c0,0.5,0.1,1.1,0.4,1.5c0.3,0.4,0.8,0.5,1.3,0.5c0.6,0.1,1.3-0.2,1.7-0.7
	c0.4-0.7,0.6-1.5,0.6-2.3v-4.3h1.8v8.6H230.9z"/>
<path d="M240.8,509.1c0.1,0.8-0.3,1.5-0.9,2c-0.8,0.5-1.7,0.7-2.6,0.7c-1,0-1.9-0.1-2.8-0.5v-1.6c0.9,0.4,1.8,0.7,2.8,0.7
	c1.1,0,1.7-0.3,1.7-1c0-0.2-0.1-0.4-0.2-0.5c-0.2-0.2-0.4-0.3-0.6-0.5c-0.4-0.2-0.8-0.4-1.2-0.5c-0.7-0.2-1.4-0.6-2-1.2
	c-0.4-0.4-0.6-1-0.5-1.5c0-0.7,0.3-1.3,0.9-1.7c0.7-0.4,1.6-0.7,2.4-0.6c1,0,2,0.2,2.9,0.6l-0.6,1.4c-0.7-0.3-1.5-0.5-2.4-0.6
	c-1,0-1.5,0.3-1.5,0.8c0,0.3,0.1,0.5,0.4,0.7c0.5,0.3,1.1,0.6,1.6,0.8c0.5,0.2,1.1,0.4,1.6,0.8c0.3,0.2,0.5,0.5,0.7,0.8
	C240.7,508.4,240.8,508.7,240.8,509.1z"/>
<path d="M246,510.2c0.5,0,0.9-0.1,1.4-0.2v1.4c-0.3,0.1-0.5,0.2-0.8,0.2c-0.3,0.1-0.7,0.1-1,0.1c-1.7,0-2.6-0.9-2.6-2.8v-4.7h-1.2
	v-0.8l1.3-0.7l0.6-1.8h1.1v1.9h2.5v1.4h-2.5v4.6c0,0.4,0.1,0.7,0.3,1C245.4,510.1,245.7,510.3,246,510.2z"/>
<path d="M252.8,511.7c-1.2,0.1-2.3-0.4-3.1-1.2c-0.8-0.9-1.2-2.1-1.1-3.2c-0.1-1.2,0.3-2.4,1.1-3.3c0.7-0.8,1.8-1.3,2.9-1.2
	c1-0.1,2,0.3,2.7,1c0.7,0.8,1.1,1.8,1,2.9v1h-5.8c0,0.7,0.2,1.4,0.7,1.9c0.5,0.5,1.1,0.7,1.8,0.7c0.5,0,1,0,1.4-0.1
	c0.5-0.1,1-0.3,1.4-0.5v1.5c-0.4,0.2-0.9,0.4-1.4,0.5C253.9,511.7,253.4,511.7,252.8,511.7z M252.5,504.1c-0.5,0-1,0.2-1.4,0.5
	c-0.4,0.5-0.6,1-0.6,1.6h3.9c0-0.6-0.1-1.2-0.5-1.6C253.5,504.3,253,504.1,252.5,504.1z"/>
<path d="M262.7,502.8c0.3,0,0.6,0,0.9,0.1l-0.2,1.7c-0.3-0.1-0.5-0.1-0.8-0.1c-0.7,0-1.3,0.2-1.8,0.7c-0.5,0.5-0.7,1.2-0.7,1.9v4.5
	h-1.8v-8.6h1.4l0.2,1.5h0.1c0.3-0.5,0.6-0.9,1.1-1.2C261.6,502.9,262.1,502.8,262.7,502.8z"/>
<path d="M267.4,511.5h-1.9v-11.4h6.5v1.6h-4.6v3.6h4.3v1.6h-4.3L267.4,511.5z"/>
<path d="M280.6,508.5c0,0.9-0.4,1.8-1.1,2.4c-0.9,0.6-1.9,0.9-3,0.9c-1.1,0-2.2-0.2-3.2-0.6v-1.8c0.5,0.3,1.1,0.4,1.7,0.6
	c0.5,0.1,1.1,0.2,1.6,0.2c0.6,0,1.2-0.1,1.6-0.4c0.3-0.3,0.5-0.7,0.5-1.1c0-0.4-0.2-0.8-0.5-1.1c-0.6-0.5-1.3-0.8-2-1
	c-0.8-0.3-1.6-0.8-2.2-1.5c-0.4-0.6-0.7-1.2-0.6-2c0-0.9,0.3-1.7,1-2.2c0.8-0.6,1.8-0.9,2.7-0.8c1.1,0,2.2,0.3,3.3,0.7l-0.6,1.5
	c-0.9-0.4-1.8-0.6-2.7-0.6c-0.5,0-1,0.1-1.4,0.4c-0.3,0.3-0.5,0.6-0.5,1c0,0.3,0.1,0.5,0.2,0.8c0.2,0.2,0.4,0.4,0.6,0.6
	c0.5,0.3,1,0.5,1.5,0.7c0.7,0.3,1.3,0.6,1.8,1c0.4,0.3,0.7,0.6,0.9,1C280.6,507.5,280.6,508,280.6,508.5z"/>
<polygon class="st1" points="245,19.9 245,0 243,0 243,19.9 239.5,19.9 244,26.4 248.5,19.9 "/>
<polygon class="st26" points="261,19.9 261,0 259,0 259,19.9 255.5,19.9 260,26.4 264.5,19.9 "/>
<polygon class="st26" points="229,19.9 229,0 227,0 227,19.9 223.5,19.9 228,26.4 232.5,19.9 "/>
<path d="M190.7,617.5l-3.3-9.5h-0.1c0.1,1.4,0.1,2.7,0.1,4v5.5h-1.7v-11.4h2.6l3.2,9.1l0,0l3.3-9.1h2.6v11.4h-1.8v-5.6
	c0-0.6,0-1.3,0-2.2s0.1-1.5,0.1-1.7h-0.1l-3.4,9.5L190.7,617.5z"/>
<path d="M205.8,617.5l-0.4-1.2h-0.1c-0.3,0.5-0.8,0.8-1.3,1.1c-0.5,0.2-1.1,0.3-1.6,0.3c-0.7,0-1.5-0.2-2-0.7
	c-0.5-0.5-0.8-1.2-0.7-1.9c0-0.8,0.3-1.6,1-2c0.9-0.5,2-0.8,3-0.7l1.5,0v-0.5c0-0.4-0.1-0.9-0.4-1.2c-0.3-0.3-0.8-0.4-1.2-0.4
	c-0.4,0-0.9,0.1-1.3,0.2c-0.4,0.1-0.8,0.3-1.2,0.5l-0.6-1.3c0.5-0.3,1-0.4,1.5-0.6c0.5-0.1,1-0.2,1.6-0.2c0.9-0.1,1.8,0.2,2.5,0.7
	c0.6,0.6,0.9,1.4,0.8,2.2v5.8L205.8,617.5z M203,616.3c0.6,0,1.2-0.2,1.6-0.5c0.4-0.4,0.6-1,0.6-1.6v-0.8l-1.1,0
	c-0.7,0-1.3,0.1-1.9,0.4c-0.4,0.3-0.6,0.7-0.6,1.2c0,0.3,0.1,0.7,0.4,0.9C202.3,616.2,202.6,616.3,203,616.3z"/>
<path d="M214,608.8c0.3,0,0.6,0,0.9,0.1l-0.2,1.7c-0.3-0.1-0.5-0.1-0.8-0.1c-0.7,0-1.3,0.2-1.8,0.7c-0.5,0.5-0.7,1.2-0.7,1.9v4.5
	h-1.8v-8.6h1.4l0.2,1.5h0.1c0.3-0.5,0.7-0.9,1.1-1.2C213,608.9,213.5,608.8,214,608.8z"/>
<path d="M216.4,606.6c0-0.3,0.1-0.5,0.3-0.8c0.2-0.2,0.5-0.3,0.8-0.3c0.3,0,0.6,0.1,0.8,0.3c0.4,0.4,0.4,1.1,0,1.5
	c-0.2,0.2-0.5,0.3-0.8,0.3c-0.3,0-0.6-0.1-0.8-0.3C216.5,607.2,216.4,606.9,216.4,606.6z M218.4,617.5h-1.8v-8.6h1.8V617.5z"/>
<path d="M226.4,617.5l-0.4-1.2h0c-0.3,0.5-0.8,0.8-1.3,1.1c-0.5,0.2-1.1,0.3-1.6,0.3c-0.7,0-1.5-0.2-2-0.7c-0.5-0.5-0.8-1.2-0.7-1.9
	c0-0.8,0.3-1.6,1-2c0.9-0.5,2-0.8,3-0.7l1.5,0v-0.5c0-0.4-0.1-0.9-0.4-1.2c-0.3-0.3-0.8-0.4-1.2-0.4c-0.4,0-0.9,0.1-1.3,0.2
	c-0.4,0.1-0.8,0.3-1.2,0.5l-0.6-1.3c0.5-0.3,1-0.4,1.5-0.6c0.5-0.1,1-0.2,1.6-0.2c0.9-0.1,1.8,0.2,2.5,0.7c0.6,0.6,0.9,1.4,0.8,2.2
	v5.8L226.4,617.5z M223.7,616.3c0.6,0,1.2-0.2,1.6-0.5c0.4-0.4,0.6-1,0.6-1.6v-0.8l-1.1,0c-0.7,0-1.3,0.1-1.9,0.4
	c-0.4,0.3-0.6,0.7-0.6,1.2c0,0.3,0.1,0.7,0.4,0.9C222.9,616.2,223.3,616.3,223.7,616.3z"/>
<path d="M239.8,611.7c0.1,1.6-0.5,3.2-1.6,4.3c-1.3,1.1-2.9,1.6-4.5,1.5h-3.2v-11.4h3.5c1.6-0.1,3.1,0.4,4.2,1.5
	C239.3,608.7,239.8,610.2,239.8,611.7z M237.8,611.8c0-2.7-1.3-4.1-3.8-4.1h-1.6v8.3h1.3C236.4,616,237.8,614.6,237.8,611.8
	L237.8,611.8z"/>
<path d="M242.2,606.1h3.4c1.2-0.1,2.4,0.1,3.4,0.7c0.7,0.5,1.1,1.3,1.1,2.2c0,0.6-0.2,1.2-0.5,1.7c-0.4,0.5-0.9,0.8-1.5,0.8v0.1
	c0.7,0.1,1.3,0.4,1.8,0.9c0.4,0.5,0.6,1.2,0.6,1.8c0,0.9-0.4,1.8-1.1,2.4c-0.9,0.6-1.9,0.9-3,0.9h-4.1V606.1z M244.1,610.8h1.8
	c0.6,0,1.2-0.1,1.7-0.4c0.4-0.3,0.6-0.8,0.5-1.3c0-0.5-0.2-0.9-0.6-1.2c-0.6-0.3-1.2-0.4-1.9-0.3h-1.6V610.8z M244.1,612.4v3.6h2
	c0.6,0,1.2-0.1,1.8-0.4c0.4-0.4,0.6-0.9,0.6-1.4c0-0.5-0.2-1-0.6-1.3c-0.6-0.3-1.2-0.5-1.9-0.4L244.1,612.4z"/>
<path d="M261.6,611.4h4.2v5.7c-0.7,0.2-1.3,0.4-2,0.5c-0.7,0.1-1.4,0.1-2,0.1c-1.5,0.1-3-0.5-4-1.5c-1-1.2-1.5-2.8-1.4-4.3
	c-0.1-1.6,0.5-3.2,1.6-4.3c1.2-1.1,2.8-1.7,4.4-1.6c1.2,0,2.3,0.2,3.4,0.7l-0.6,1.5c-0.9-0.4-1.8-0.6-2.8-0.6
	c-1.1-0.1-2.1,0.4-2.9,1.2c-0.7,0.9-1.1,2-1.1,3.1c-0.1,1.1,0.3,2.3,1,3.2c0.7,0.8,1.7,1.2,2.8,1.1c0.7,0,1.3-0.1,1.9-0.2V613h-2.4
	L261.6,611.4z"/>
<path d="M273.8,617.5l-0.4-1.2h-0.1c-0.3,0.5-0.8,0.8-1.3,1.1c-0.5,0.2-1.1,0.3-1.6,0.3c-0.7,0-1.5-0.2-2-0.7
	c-0.5-0.5-0.8-1.2-0.7-1.9c0-0.8,0.3-1.6,1-2c0.9-0.5,2-0.8,3-0.7l1.5,0v-0.5c0-0.4-0.1-0.9-0.4-1.2c-0.3-0.3-0.8-0.4-1.2-0.4
	c-0.4,0-0.9,0.1-1.3,0.2c-0.4,0.1-0.8,0.3-1.2,0.5l-0.6-1.3c0.5-0.3,1-0.4,1.5-0.6c0.5-0.1,1-0.2,1.6-0.2c0.9-0.1,1.8,0.2,2.5,0.7
	c0.6,0.6,0.9,1.4,0.8,2.2v5.8L273.8,617.5z M271,616.3c0.6,0,1.2-0.2,1.6-0.5c0.4-0.4,0.6-1,0.6-1.6v-0.8l-1.1,0
	c-0.7,0-1.3,0.1-1.9,0.4c-0.4,0.3-0.6,0.7-0.6,1.2c0,0.3,0.1,0.7,0.4,0.9C270.3,616.2,270.6,616.3,271,616.3z"/>
<path d="M279.5,617.5h-1.8v-12.1h1.8V617.5z"/>
<path d="M285.9,617.7c-1.2,0.1-2.3-0.4-3.1-1.2c-0.8-0.9-1.2-2.1-1.1-3.2c-0.1-1.2,0.3-2.4,1.1-3.3c0.7-0.8,1.8-1.3,2.9-1.2
	c1-0.1,2,0.3,2.7,1c0.7,0.8,1.1,1.8,1,2.9v1h-5.8c0,0.7,0.2,1.4,0.7,1.9c0.5,0.5,1.1,0.7,1.8,0.7c0.5,0,1,0,1.4-0.2
	c0.5-0.1,1-0.3,1.4-0.5v1.5c-0.4,0.2-0.9,0.4-1.4,0.5C286.9,617.7,286.4,617.7,285.9,617.7z M285.5,610.2c-0.5,0-1,0.2-1.4,0.5
	c-0.4,0.5-0.6,1-0.6,1.6h3.9c0-0.6-0.2-1.2-0.5-1.6C286.5,610.3,286,610.1,285.5,610.2z"/>
<path d="M295.7,608.8c0.3,0,0.6,0,0.9,0.1l-0.2,1.7c-0.3-0.1-0.5-0.1-0.8-0.1c-0.7,0-1.3,0.2-1.8,0.7c-0.5,0.5-0.7,1.2-0.7,1.9v4.5
	h-1.8v-8.6h1.4l0.2,1.5h0.1c0.3-0.5,0.7-0.9,1.1-1.2C294.6,608.9,295.2,608.8,295.7,608.8z"/>
<path d="M303.6,617.5l-0.4-1.2h-0.1c-0.3,0.5-0.8,0.8-1.3,1.1c-0.5,0.2-1.1,0.3-1.6,0.3c-0.7,0-1.5-0.2-2-0.7
	c-0.5-0.5-0.8-1.2-0.7-1.9c0-0.8,0.3-1.5,1-2c0.9-0.5,2-0.8,3-0.7l1.5,0v-0.5c0-0.4-0.1-0.9-0.4-1.2c-0.3-0.3-0.8-0.4-1.2-0.4
	c-0.4,0-0.9,0.1-1.3,0.2c-0.4,0.1-0.8,0.3-1.2,0.5l-0.6-1.3c0.5-0.2,1-0.4,1.6-0.5c0.5-0.1,1-0.2,1.6-0.2c0.9-0.1,1.8,0.2,2.5,0.7
	c0.6,0.6,0.9,1.4,0.8,2.2v5.8L303.6,617.5z M300.9,616.3c0.6,0,1.2-0.2,1.6-0.5c0.4-0.4,0.6-1,0.6-1.6v-0.8l-1.1,0
	c-0.7,0-1.3,0.1-1.9,0.4c-0.4,0.3-0.6,0.7-0.6,1.2c0,0.3,0.1,0.7,0.3,0.9C300.1,616.2,300.5,616.3,300.9,616.3L300.9,616.3z"/>
</svg>
